  0
SECTION
  2
HEADER
  9
$EXTMIN
 10
104.472
 20
248.176
  9
$EXTMAX
 10
1350.99
 20
1323.62
  0
ENDSEC
  0
SECTION
  2
TABLES
  0
TABLE
  2
LAYER
 70
   1
  0
LAYER
  2
0
 70
    0
 62
    11
  6
CONTINUOUS
  0
ENDTAB
  0
ENDSEC
  0
SECTION
  2
BLOCKS
  0
ENDSEC
  0
SECTION
  2
ENTITIES
  0
TEXT
100
AcDbText
  8
0
 10
104.472
 20
1323.624
 11
104.472
 21
1323.624
 30
   0
 40
-0.016
  1
Generated with the LayoutEditor (This message will NOT added in any commercial version of the LayoutEditor.)
 50
0
 72
0
 73
3
  0
POLYLINE
100
AcDb2dPolyline
  8
0
 66
   1
 70
   1
 40
0.0
 41
0.0
  0
VERTEX
100
AcDbVertex
100
AcDb2dVertex
  8
0
 10
991.4
 20
549.796
  0
VERTEX
100
AcDbVertex
100
AcDb2dVertex
  8
0
 10
991.196
 20
556.892
  0
VERTEX
100
AcDbVertex
100
AcDb2dVertex
  8
0
 10
991.032
 20
558.633
  0
VERTEX
100
AcDbVertex
100
AcDb2dVertex
  8
0
 10
990.665
 20
560.728
  0
VERTEX
100
AcDbVertex
100
AcDb2dVertex
  8
0
 10
990.564
 20
561.114
  0
VERTEX
100
AcDbVertex
100
AcDb2dVertex
  8
0
 10
990.419
 20
561.523
  0
VERTEX
100
AcDbVertex
100
AcDb2dVertex
  8
0
 10
990.238
 20
561.918
  0
VERTEX
100
AcDbVertex
100
AcDb2dVertex
  8
0
 10
990.024
 20
562.295
  0
VERTEX
100
AcDbVertex
100
AcDb2dVertex
  8
0
 10
989.778
 20
562.653
  0
VERTEX
100
AcDbVertex
100
AcDb2dVertex
  8
0
 10
989.502
 20
562.988
  0
VERTEX
100
AcDbVertex
100
AcDb2dVertex
  8
0
 10
989.227
 20
563.285
  0
VERTEX
100
AcDbVertex
100
AcDb2dVertex
  8
0
 10
988.305
 20
564.172
  0
VERTEX
100
AcDbVertex
100
AcDb2dVertex
  8
0
 10
987.31
 20
564.975
  0
VERTEX
100
AcDbVertex
100
AcDb2dVertex
  8
0
 10
986.071
 20
565.815
  0
VERTEX
100
AcDbVertex
100
AcDb2dVertex
  8
0
 10
984.617
 20
566.635
  0
VERTEX
100
AcDbVertex
100
AcDb2dVertex
  8
0
 10
983.419
 20
567.207
  0
VERTEX
100
AcDbVertex
100
AcDb2dVertex
  8
0
 10
981.197
 20
568.088
  0
VERTEX
100
AcDbVertex
100
AcDb2dVertex
  8
0
 10
976.77
 20
569.45
  0
VERTEX
100
AcDbVertex
100
AcDb2dVertex
  8
0
 10
974.136
 20
570.047
  0
VERTEX
100
AcDbVertex
100
AcDb2dVertex
  8
0
 10
971.22
 20
570.456
  0
VERTEX
100
AcDbVertex
100
AcDb2dVertex
  8
0
 10
963.859
 20
570.879
  0
VERTEX
100
AcDbVertex
100
AcDb2dVertex
  8
0
 10
956.639
 20
570.747
  0
VERTEX
100
AcDbVertex
100
AcDb2dVertex
  8
0
 10
955.696
 20
570.675
  0
VERTEX
100
AcDbVertex
100
AcDb2dVertex
  8
0
 10
953.68
 20
570.391
  0
VERTEX
100
AcDbVertex
100
AcDb2dVertex
  8
0
 10
951.697
 20
569.933
  0
VERTEX
100
AcDbVertex
100
AcDb2dVertex
  8
0
 10
951.019
 20
569.724
  0
VERTEX
100
AcDbVertex
100
AcDb2dVertex
  8
0
 10
950.021
 20
569.334
  0
VERTEX
100
AcDbVertex
100
AcDb2dVertex
  8
0
 10
948.126
 20
568.396
  0
VERTEX
100
AcDbVertex
100
AcDb2dVertex
  8
0
 10
946.31
 20
567.293
  0
VERTEX
100
AcDbVertex
100
AcDb2dVertex
  8
0
 10
945.755
 20
566.9
  0
VERTEX
100
AcDbVertex
100
AcDb2dVertex
  8
0
 10
944.88
 20
566.184
  0
VERTEX
100
AcDbVertex
100
AcDb2dVertex
  8
0
 10
944.306
 20
565.626
  0
VERTEX
100
AcDbVertex
100
AcDb2dVertex
  8
0
 10
943.768
 20
565.003
  0
VERTEX
100
AcDbVertex
100
AcDb2dVertex
  8
0
 10
943.286
 20
564.337
  0
VERTEX
100
AcDbVertex
100
AcDb2dVertex
  8
0
 10
942.864
 20
563.63
  0
VERTEX
100
AcDbVertex
100
AcDb2dVertex
  8
0
 10
942.506
 20
562.89
  0
VERTEX
100
AcDbVertex
100
AcDb2dVertex
  8
0
 10
942.213
 20
562.121
  0
VERTEX
100
AcDbVertex
100
AcDb2dVertex
  8
0
 10
941.988
 20
561.33
  0
VERTEX
100
AcDbVertex
100
AcDb2dVertex
  8
0
 10
941.164
 20
557.151
  0
VERTEX
100
AcDbVertex
100
AcDb2dVertex
  8
0
 10
940.619
 20
552.335
  0
VERTEX
100
AcDbVertex
100
AcDb2dVertex
  8
0
 10
940.11
 20
536.478
  0
VERTEX
100
AcDbVertex
100
AcDb2dVertex
  8
0
 10
940.44
 20
502
  0
VERTEX
100
AcDbVertex
100
AcDb2dVertex
  8
0
 10
941.847
 20
440.02
  0
VERTEX
100
AcDbVertex
100
AcDb2dVertex
  8
0
 10
944.395
 20
404.78
  0
VERTEX
100
AcDbVertex
100
AcDb2dVertex
  8
0
 10
945.603
 20
396.243
  0
VERTEX
100
AcDbVertex
100
AcDb2dVertex
  8
0
 10
948.489
 20
382.8
  0
VERTEX
100
AcDbVertex
100
AcDb2dVertex
  8
0
 10
949.075
 20
380.848
  0
VERTEX
100
AcDbVertex
100
AcDb2dVertex
  8
0
 10
949.963
 20
378.565
  0
VERTEX
100
AcDbVertex
100
AcDb2dVertex
  8
0
 10
951.048
 20
376.368
  0
VERTEX
100
AcDbVertex
100
AcDb2dVertex
  8
0
 10
952.32
 20
374.274
  0
VERTEX
100
AcDbVertex
100
AcDb2dVertex
  8
0
 10
953.769
 20
372.299
  0
VERTEX
100
AcDbVertex
100
AcDb2dVertex
  8
0
 10
955.385
 20
370.458
  0
VERTEX
100
AcDbVertex
100
AcDb2dVertex
  8
0
 10
955.872
 20
369.967
  0
VERTEX
100
AcDbVertex
100
AcDb2dVertex
  8
0
 10
957.143
 20
368.836
  0
VERTEX
100
AcDbVertex
100
AcDb2dVertex
  8
0
 10
958.508
 20
367.819
  0
VERTEX
100
AcDbVertex
100
AcDb2dVertex
  8
0
 10
959.956
 20
366.925
  0
VERTEX
100
AcDbVertex
100
AcDb2dVertex
  8
0
 10
960.032
 20
366.883
  0
VERTEX
100
AcDbVertex
100
AcDb2dVertex
  8
0
 10
960.505
 20
366.654
  0
VERTEX
100
AcDbVertex
100
AcDb2dVertex
  8
0
 10
960.997
 20
366.466
  0
VERTEX
100
AcDbVertex
100
AcDb2dVertex
  8
0
 10
961.503
 20
366.323
  0
VERTEX
100
AcDbVertex
100
AcDb2dVertex
  8
0
 10
962.019
 20
366.223
  0
VERTEX
100
AcDbVertex
100
AcDb2dVertex
  8
0
 10
962.542
 20
366.17
  0
VERTEX
100
AcDbVertex
100
AcDb2dVertex
  8
0
 10
963.068
 20
366.162
  0
VERTEX
100
AcDbVertex
100
AcDb2dVertex
  8
0
 10
963.593
 20
366.2
  0
VERTEX
100
AcDbVertex
100
AcDb2dVertex
  8
0
 10
964.112
 20
366.283
  0
VERTEX
100
AcDbVertex
100
AcDb2dVertex
  8
0
 10
964.803
 20
366.451
  0
VERTEX
100
AcDbVertex
100
AcDb2dVertex
  8
0
 10
965.641
 20
366.726
  0
VERTEX
100
AcDbVertex
100
AcDb2dVertex
  8
0
 10
966.452
 20
367.072
  0
VERTEX
100
AcDbVertex
100
AcDb2dVertex
  8
0
 10
967.229
 20
367.489
  0
VERTEX
100
AcDbVertex
100
AcDb2dVertex
  8
0
 10
967.968
 20
367.971
  0
VERTEX
100
AcDbVertex
100
AcDb2dVertex
  8
0
 10
968.661
 20
368.516
  0
VERTEX
100
AcDbVertex
100
AcDb2dVertex
  8
0
 10
970.424
 20
370.083
  0
VERTEX
100
AcDbVertex
100
AcDb2dVertex
  8
0
 10
974.781
 20
374.451
  0
VERTEX
100
AcDbVertex
100
AcDb2dVertex
  8
0
 10
976.527
 20
376.448
  0
VERTEX
100
AcDbVertex
100
AcDb2dVertex
  8
0
 10
979.705
 20
380.606
  0
VERTEX
100
AcDbVertex
100
AcDb2dVertex
  8
0
 10
980.582
 20
381.943
  0
VERTEX
100
AcDbVertex
100
AcDb2dVertex
  8
0
 10
981.781
 20
384.092
  0
VERTEX
100
AcDbVertex
100
AcDb2dVertex
  8
0
 10
982.787
 20
386.337
  0
VERTEX
100
AcDbVertex
100
AcDb2dVertex
  8
0
 10
983.168
 20
387.343
  0
VERTEX
100
AcDbVertex
100
AcDb2dVertex
  8
0
 10
984.05
 20
390.171
  0
VERTEX
100
AcDbVertex
100
AcDb2dVertex
  8
0
 10
984.682
 20
393.065
  0
VERTEX
100
AcDbVertex
100
AcDb2dVertex
  8
0
 10
985.91
 20
402.5
  0
VERTEX
100
AcDbVertex
100
AcDb2dVertex
  8
0
 10
987.849
 20
429.406
  0
VERTEX
100
AcDbVertex
100
AcDb2dVertex
  8
0
 10
989.575
 20
464.296
  0
VERTEX
100
AcDbVertex
100
AcDb2dVertex
  8
0
 10
990.84
 20
500.315
  0
VERTEX
100
AcDbVertex
100
AcDb2dVertex
  8
0
 10
991.349
 20
531.136
  0
VERTEX
100
AcDbVertex
100
AcDb2dVertex
  8
0
 10
991.4
 20
549.796
  0
SEQEND
  0
POLYLINE
100
AcDb2dPolyline
  8
0
 66
   1
 70
   1
 40
0.0
 41
0.0
  0
VERTEX
100
AcDbVertex
100
AcDb2dVertex
  8
0
 10
906.873
 20
589.984
  0
VERTEX
100
AcDbVertex
100
AcDb2dVertex
  8
0
 10
906.44
 20
610.498
  0
VERTEX
100
AcDbVertex
100
AcDb2dVertex
  8
0
 10
906.096
 20
615.299
  0
VERTEX
100
AcDbVertex
100
AcDb2dVertex
  8
0
 10
905.601
 20
619.722
  0
VERTEX
100
AcDbVertex
100
AcDb2dVertex
  8
0
 10
905.036
 20
623.382
  0
VERTEX
100
AcDbVertex
100
AcDb2dVertex
  8
0
 10
904.985
 20
623.638
  0
VERTEX
100
AcDbVertex
100
AcDb2dVertex
  8
0
 10
904.859
 20
624.105
  0
VERTEX
100
AcDbVertex
100
AcDb2dVertex
  8
0
 10
904.692
 20
624.56
  0
VERTEX
100
AcDbVertex
100
AcDb2dVertex
  8
0
 10
904.487
 20
624.998
  0
VERTEX
100
AcDbVertex
100
AcDb2dVertex
  8
0
 10
903.997
 20
625.866
  0
VERTEX
100
AcDbVertex
100
AcDb2dVertex
  8
0
 10
903.237
 20
627.005
  0
VERTEX
100
AcDbVertex
100
AcDb2dVertex
  8
0
 10
902.38
 20
628.073
  0
VERTEX
100
AcDbVertex
100
AcDb2dVertex
  8
0
 10
902.368
 20
628.087
  0
VERTEX
100
AcDbVertex
100
AcDb2dVertex
  8
0
 10
900.942
 20
629.574
  0
VERTEX
100
AcDbVertex
100
AcDb2dVertex
  8
0
 10
899.393
 20
630.931
  0
VERTEX
100
AcDbVertex
100
AcDb2dVertex
  8
0
 10
897.718
 20
632.167
  0
VERTEX
100
AcDbVertex
100
AcDb2dVertex
  8
0
 10
895.78
 20
633.361
  0
VERTEX
100
AcDbVertex
100
AcDb2dVertex
  8
0
 10
893.934
 20
634.297
  0
VERTEX
100
AcDbVertex
100
AcDb2dVertex
  8
0
 10
891.804
 20
635.163
  0
VERTEX
100
AcDbVertex
100
AcDb2dVertex
  8
0
 10
890.541
 20
635.577
  0
VERTEX
100
AcDbVertex
100
AcDb2dVertex
  8
0
 10
888.353
 20
636.131
  0
VERTEX
100
AcDbVertex
100
AcDb2dVertex
  8
0
 10
886.125
 20
636.492
  0
VERTEX
100
AcDbVertex
100
AcDb2dVertex
  8
0
 10
883.175
 20
636.732
  0
VERTEX
100
AcDbVertex
100
AcDb2dVertex
  8
0
 10
879.558
 20
636.738
  0
VERTEX
100
AcDbVertex
100
AcDb2dVertex
  8
0
 10
876.618
 20
636.508
  0
VERTEX
100
AcDbVertex
100
AcDb2dVertex
  8
0
 10
873.133
 20
635.951
  0
VERTEX
100
AcDbVertex
100
AcDb2dVertex
  8
0
 10
871.447
 20
635.535
  0
VERTEX
100
AcDbVertex
100
AcDb2dVertex
  8
0
 10
869.641
 20
634.927
  0
VERTEX
100
AcDbVertex
100
AcDb2dVertex
  8
0
 10
867.895
 20
634.163
  0
VERTEX
100
AcDbVertex
100
AcDb2dVertex
  8
0
 10
867.238
 20
633.826
  0
VERTEX
100
AcDbVertex
100
AcDb2dVertex
  8
0
 10
865.734
 20
632.931
  0
VERTEX
100
AcDbVertex
100
AcDb2dVertex
  8
0
 10
862.735
 20
630.875
  0
VERTEX
100
AcDbVertex
100
AcDb2dVertex
  8
0
 10
859.502
 20
628.457
  0
VERTEX
100
AcDbVertex
100
AcDb2dVertex
  8
0
 10
856.5
 20
625.998
  0
VERTEX
100
AcDbVertex
100
AcDb2dVertex
  8
0
 10
850.601
 20
621.365
  0
VERTEX
100
AcDbVertex
100
AcDb2dVertex
  8
0
 10
845.9
 20
618.223
  0
VERTEX
100
AcDbVertex
100
AcDb2dVertex
  8
0
 10
844.267
 20
617.304
  0
VERTEX
100
AcDbVertex
100
AcDb2dVertex
  8
0
 10
842.56
 20
616.531
  0
VERTEX
100
AcDbVertex
100
AcDb2dVertex
  8
0
 10
840.792
 20
615.909
  0
VERTEX
100
AcDbVertex
100
AcDb2dVertex
  8
0
 10
838.977
 20
615.444
  0
VERTEX
100
AcDbVertex
100
AcDb2dVertex
  8
0
 10
837.283
 20
615.158
  0
VERTEX
100
AcDbVertex
100
AcDb2dVertex
  8
0
 10
835.694
 20
615.025
  0
VERTEX
100
AcDbVertex
100
AcDb2dVertex
  8
0
 10
834.1
 20
615.031
  0
VERTEX
100
AcDbVertex
100
AcDb2dVertex
  8
0
 10
832.513
 20
615.176
  0
VERTEX
100
AcDbVertex
100
AcDb2dVertex
  8
0
 10
830.944
 20
615.459
  0
VERTEX
100
AcDbVertex
100
AcDb2dVertex
  8
0
 10
829.406
 20
615.877
  0
VERTEX
100
AcDbVertex
100
AcDb2dVertex
  8
0
 10
828.723
 20
616.11
  0
VERTEX
100
AcDbVertex
100
AcDb2dVertex
  8
0
 10
824.365
 20
617.913
  0
VERTEX
100
AcDbVertex
100
AcDb2dVertex
  8
0
 10
820.18
 20
620.089
  0
VERTEX
100
AcDbVertex
100
AcDb2dVertex
  8
0
 10
818.448
 20
621.131
  0
VERTEX
100
AcDbVertex
100
AcDb2dVertex
  8
0
 10
810.565
 20
625.765
  0
VERTEX
100
AcDbVertex
100
AcDb2dVertex
  8
0
 10
807.936
 20
627.086
  0
VERTEX
100
AcDbVertex
100
AcDb2dVertex
  8
0
 10
804.702
 20
628.397
  0
VERTEX
100
AcDbVertex
100
AcDb2dVertex
  8
0
 10
803.764
 20
628.71
  0
VERTEX
100
AcDbVertex
100
AcDb2dVertex
  8
0
 10
801.681
 20
629.259
  0
VERTEX
100
AcDbVertex
100
AcDb2dVertex
  8
0
 10
799.558
 20
629.625
  0
VERTEX
100
AcDbVertex
100
AcDb2dVertex
  8
0
 10
798.896
 20
629.701
  0
VERTEX
100
AcDbVertex
100
AcDb2dVertex
  8
0
 10
796.517
 20
629.842
  0
VERTEX
100
AcDbVertex
100
AcDb2dVertex
  8
0
 10
794.135
 20
629.774
  0
VERTEX
100
AcDbVertex
100
AcDb2dVertex
  8
0
 10
791.567
 20
629.487
  0
VERTEX
100
AcDbVertex
100
AcDb2dVertex
  8
0
 10
788.743
 20
628.933
  0
VERTEX
100
AcDbVertex
100
AcDb2dVertex
  8
0
 10
785.979
 20
628.134
  0
VERTEX
100
AcDbVertex
100
AcDb2dVertex
  8
0
 10
783.812
 20
627.324
  0
VERTEX
100
AcDbVertex
100
AcDb2dVertex
  8
0
 10
781.011
 20
626.027
  0
VERTEX
100
AcDbVertex
100
AcDb2dVertex
  8
0
 10
778.334
 20
624.49
  0
VERTEX
100
AcDbVertex
100
AcDb2dVertex
  8
0
 10
776.354
 20
623.135
  0
VERTEX
100
AcDbVertex
100
AcDb2dVertex
  8
0
 10
774.058
 20
621.28
  0
VERTEX
100
AcDbVertex
100
AcDb2dVertex
  8
0
 10
771.931
 20
619.232
  0
VERTEX
100
AcDbVertex
100
AcDb2dVertex
  8
0
 10
771.388
 20
618.644
  0
VERTEX
100
AcDbVertex
100
AcDb2dVertex
  8
0
 10
769.899
 20
616.83
  0
VERTEX
100
AcDbVertex
100
AcDb2dVertex
  8
0
 10
768.574
 20
614.894
  0
VERTEX
100
AcDbVertex
100
AcDb2dVertex
  8
0
 10
767.423
 20
612.849
  0
VERTEX
100
AcDbVertex
100
AcDb2dVertex
  8
0
 10
766.754
 20
611.464
  0
VERTEX
100
AcDbVertex
100
AcDb2dVertex
  8
0
 10
765.411
 20
608.173
  0
VERTEX
100
AcDbVertex
100
AcDb2dVertex
  8
0
 10
764.359
 20
604.778
  0
VERTEX
100
AcDbVertex
100
AcDb2dVertex
  8
0
 10
763.84
 20
602.71
  0
VERTEX
100
AcDbVertex
100
AcDb2dVertex
  8
0
 10
762.178
 20
594.152
  0
VERTEX
100
AcDbVertex
100
AcDb2dVertex
  8
0
 10
760.379
 20
578.583
  0
VERTEX
100
AcDbVertex
100
AcDb2dVertex
  8
0
 10
758.492
 20
553
  0
VERTEX
100
AcDbVertex
100
AcDb2dVertex
  8
0
 10
756.903
 20
531.295
  0
VERTEX
100
AcDbVertex
100
AcDb2dVertex
  8
0
 10
755.198
 20
513.172
  0
VERTEX
100
AcDbVertex
100
AcDb2dVertex
  8
0
 10
752.996
 20
494.855
  0
VERTEX
100
AcDbVertex
100
AcDb2dVertex
  8
0
 10
749.859
 20
472.5
  0
VERTEX
100
AcDbVertex
100
AcDb2dVertex
  8
0
 10
748.292
 20
461.198
  0
VERTEX
100
AcDbVertex
100
AcDb2dVertex
  8
0
 10
746.877
 20
449.569
  0
VERTEX
100
AcDbVertex
100
AcDb2dVertex
  8
0
 10
745.782
 20
439.19
  0
VERTEX
100
AcDbVertex
100
AcDb2dVertex
  8
0
 10
745.3
 20
432.351
  0
VERTEX
100
AcDbVertex
100
AcDb2dVertex
  8
0
 10
745.021
 20
424.422
  0
VERTEX
100
AcDbVertex
100
AcDb2dVertex
  8
0
 10
745.01
 20
423.397
  0
VERTEX
100
AcDbVertex
100
AcDb2dVertex
  8
0
 10
745.149
 20
420.515
  0
VERTEX
100
AcDbVertex
100
AcDb2dVertex
  8
0
 10
745.208
 20
419.986
  0
VERTEX
100
AcDbVertex
100
AcDb2dVertex
  8
0
 10
745.413
 20
418.829
  0
VERTEX
100
AcDbVertex
100
AcDb2dVertex
  8
0
 10
745.717
 20
417.695
  0
VERTEX
100
AcDbVertex
100
AcDb2dVertex
  8
0
 10
746.147
 20
416.461
  0
VERTEX
100
AcDbVertex
100
AcDb2dVertex
  8
0
 10
746.93
 20
414.645
  0
VERTEX
100
AcDbVertex
100
AcDb2dVertex
  8
0
 10
747.388
 20
413.753
  0
VERTEX
100
AcDbVertex
100
AcDb2dVertex
  8
0
 10
748.35
 20
412.152
  0
VERTEX
100
AcDbVertex
100
AcDb2dVertex
  8
0
 10
748.739
 20
411.608
  0
VERTEX
100
AcDbVertex
100
AcDb2dVertex
  8
0
 10
749.277
 20
410.966
  0
VERTEX
100
AcDbVertex
100
AcDb2dVertex
  8
0
 10
749.87
 20
410.374
  0
VERTEX
100
AcDbVertex
100
AcDb2dVertex
  8
0
 10
750.171
 20
410.107
  0
VERTEX
100
AcDbVertex
100
AcDb2dVertex
  8
0
 10
751.03
 20
409.431
  0
VERTEX
100
AcDbVertex
100
AcDb2dVertex
  8
0
 10
751.946
 20
408.833
  0
VERTEX
100
AcDbVertex
100
AcDb2dVertex
  8
0
 10
755.228
 20
407.044
  0
VERTEX
100
AcDbVertex
100
AcDb2dVertex
  8
0
 10
757.765
 20
405.879
  0
VERTEX
100
AcDbVertex
100
AcDb2dVertex
  8
0
 10
760.353
 20
404.894
  0
VERTEX
100
AcDbVertex
100
AcDb2dVertex
  8
0
 10
762.65
 20
404.194
  0
VERTEX
100
AcDbVertex
100
AcDb2dVertex
  8
0
 10
762.652
 20
404.194
  0
VERTEX
100
AcDbVertex
100
AcDb2dVertex
  8
0
 10
763.136
 20
404.086
  0
VERTEX
100
AcDbVertex
100
AcDb2dVertex
  8
0
 10
763.627
 20
404.022
  0
VERTEX
100
AcDbVertex
100
AcDb2dVertex
  8
0
 10
764.122
 20
404
  0
VERTEX
100
AcDbVertex
100
AcDb2dVertex
  8
0
 10
764.45
 20
404.004
  0
VERTEX
100
AcDbVertex
100
AcDb2dVertex
  8
0
 10
765.76
 20
404.089
  0
VERTEX
100
AcDbVertex
100
AcDb2dVertex
  8
0
 10
767.058
 20
404.289
  0
VERTEX
100
AcDbVertex
100
AcDb2dVertex
  8
0
 10
768.333
 20
404.601
  0
VERTEX
100
AcDbVertex
100
AcDb2dVertex
  8
0
 10
770.437
 20
405.287
  0
VERTEX
100
AcDbVertex
100
AcDb2dVertex
  8
0
 10
773.286
 20
406.458
  0
VERTEX
100
AcDbVertex
100
AcDb2dVertex
  8
0
 10
775.278
 20
407.456
  0
VERTEX
100
AcDbVertex
100
AcDb2dVertex
  8
0
 10
777.968
 20
409.066
  0
VERTEX
100
AcDbVertex
100
AcDb2dVertex
  8
0
 10
779.101
 20
409.879
  0
VERTEX
100
AcDbVertex
100
AcDb2dVertex
  8
0
 10
780.28
 20
410.881
  0
VERTEX
100
AcDbVertex
100
AcDb2dVertex
  8
0
 10
781.366
 20
411.983
  0
VERTEX
100
AcDbVertex
100
AcDb2dVertex
  8
0
 10
781.862
 20
412.553
  0
VERTEX
100
AcDbVertex
100
AcDb2dVertex
  8
0
 10
782.94
 20
413.959
  0
VERTEX
100
AcDbVertex
100
AcDb2dVertex
  8
0
 10
783.891
 20
415.455
  0
VERTEX
100
AcDbVertex
100
AcDb2dVertex
  8
0
 10
784.709
 20
417.027
  0
VERTEX
100
AcDbVertex
100
AcDb2dVertex
  8
0
 10
785.386
 20
418.665
  0
VERTEX
100
AcDbVertex
100
AcDb2dVertex
  8
0
 10
786.868
 20
423.26
  0
VERTEX
100
AcDbVertex
100
AcDb2dVertex
  8
0
 10
788.194
 20
428.879
  0
VERTEX
100
AcDbVertex
100
AcDb2dVertex
  8
0
 10
788.297
 20
429.426
  0
VERTEX
100
AcDbVertex
100
AcDb2dVertex
  8
0
 10
790.507
 20
444.939
  0
VERTEX
100
AcDbVertex
100
AcDb2dVertex
  8
0
 10
792.988
 20
473
  0
VERTEX
100
AcDbVertex
100
AcDb2dVertex
  8
0
 10
796.195
 20
506.716
  0
VERTEX
100
AcDbVertex
100
AcDb2dVertex
  8
0
 10
798.837
 20
523.649
  0
VERTEX
100
AcDbVertex
100
AcDb2dVertex
  8
0
 10
799.855
 20
528.404
  0
VERTEX
100
AcDbVertex
100
AcDb2dVertex
  8
0
 10
801.865
 20
535.758
  0
VERTEX
100
AcDbVertex
100
AcDb2dVertex
  8
0
 10
804.508
 20
542.908
  0
VERTEX
100
AcDbVertex
100
AcDb2dVertex
  8
0
 10
804.562
 20
543.036
  0
VERTEX
100
AcDbVertex
100
AcDb2dVertex
  8
0
 10
805.729
 20
545.497
  0
VERTEX
100
AcDbVertex
100
AcDb2dVertex
  8
0
 10
807.107
 20
547.847
  0
VERTEX
100
AcDbVertex
100
AcDb2dVertex
  8
0
 10
808.684
 20
550.068
  0
VERTEX
100
AcDbVertex
100
AcDb2dVertex
  8
0
 10
810.449
 20
552.143
  0
VERTEX
100
AcDbVertex
100
AcDb2dVertex
  8
0
 10
811.107
 20
552.83
  0
VERTEX
100
AcDbVertex
100
AcDb2dVertex
  8
0
 10
812.747
 20
554.353
  0
VERTEX
100
AcDbVertex
100
AcDb2dVertex
  8
0
 10
814.513
 20
555.726
  0
VERTEX
100
AcDbVertex
100
AcDb2dVertex
  8
0
 10
816.188
 20
556.82
  0
VERTEX
100
AcDbVertex
100
AcDb2dVertex
  8
0
 10
818.667
 20
558.16
  0
VERTEX
100
AcDbVertex
100
AcDb2dVertex
  8
0
 10
821.252
 20
559.28
  0
VERTEX
100
AcDbVertex
100
AcDb2dVertex
  8
0
 10
822.405
 20
559.695
  0
VERTEX
100
AcDbVertex
100
AcDb2dVertex
  8
0
 10
825.723
 20
560.661
  0
VERTEX
100
AcDbVertex
100
AcDb2dVertex
  8
0
 10
829.114
 20
561.334
  0
VERTEX
100
AcDbVertex
100
AcDb2dVertex
  8
0
 10
829.738
 20
561.425
  0
VERTEX
100
AcDbVertex
100
AcDb2dVertex
  8
0
 10
835.107
 20
561.925
  0
VERTEX
100
AcDbVertex
100
AcDb2dVertex
  8
0
 10
838.148
 20
562
  0
VERTEX
100
AcDbVertex
100
AcDb2dVertex
  8
0
 10
840.886
 20
561.88
  0
VERTEX
100
AcDbVertex
100
AcDb2dVertex
  8
0
 10
843.253
 20
561.582
  0
VERTEX
100
AcDbVertex
100
AcDb2dVertex
  8
0
 10
844.723
 20
561.274
  0
VERTEX
100
AcDbVertex
100
AcDb2dVertex
  8
0
 10
846.16
 20
560.839
  0
VERTEX
100
AcDbVertex
100
AcDb2dVertex
  8
0
 10
847.464
 20
560.32
  0
VERTEX
100
AcDbVertex
100
AcDb2dVertex
  8
0
 10
849.133
 20
559.487
  0
VERTEX
100
AcDbVertex
100
AcDb2dVertex
  8
0
 10
850.724
 20
558.511
  0
VERTEX
100
AcDbVertex
100
AcDb2dVertex
  8
0
 10
851.592
 20
557.893
  0
VERTEX
100
AcDbVertex
100
AcDb2dVertex
  8
0
 10
856.051
 20
554.232
  0
VERTEX
100
AcDbVertex
100
AcDb2dVertex
  8
0
 10
856.515
 20
553.812
  0
VERTEX
100
AcDbVertex
100
AcDb2dVertex
  8
0
 10
858.189
 20
552.143
  0
VERTEX
100
AcDbVertex
100
AcDb2dVertex
  8
0
 10
859.711
 20
550.334
  0
VERTEX
100
AcDbVertex
100
AcDb2dVertex
  8
0
 10
860.586
 20
549.13
  0
VERTEX
100
AcDbVertex
100
AcDb2dVertex
  8
0
 10
861.278
 20
548.02
  0
VERTEX
100
AcDbVertex
100
AcDb2dVertex
  8
0
 10
861.87
 20
546.854
  0
VERTEX
100
AcDbVertex
100
AcDb2dVertex
  8
0
 10
862.359
 20
545.64
  0
VERTEX
100
AcDbVertex
100
AcDb2dVertex
  8
0
 10
862.739
 20
544.389
  0
VERTEX
100
AcDbVertex
100
AcDb2dVertex
  8
0
 10
862.77
 20
544.268
  0
VERTEX
100
AcDbVertex
100
AcDb2dVertex
  8
0
 10
863.363
 20
541.337
  0
VERTEX
100
AcDbVertex
100
AcDb2dVertex
  8
0
 10
863.699
 20
538.366
  0
VERTEX
100
AcDbVertex
100
AcDb2dVertex
  8
0
 10
863.759
 20
537.224
  0
VERTEX
100
AcDbVertex
100
AcDb2dVertex
  8
0
 10
864
 20
523.684
  0
VERTEX
100
AcDbVertex
100
AcDb2dVertex
  8
0
 10
863.634
 20
505.572
  0
VERTEX
100
AcDbVertex
100
AcDb2dVertex
  8
0
 10
862.534
 20
486.564
  0
VERTEX
100
AcDbVertex
100
AcDb2dVertex
  8
0
 10
860.678
 20
466.323
  0
VERTEX
100
AcDbVertex
100
AcDb2dVertex
  8
0
 10
857.899
 20
443.376
  0
VERTEX
100
AcDbVertex
100
AcDb2dVertex
  8
0
 10
857.654
 20
439.553
  0
VERTEX
100
AcDbVertex
100
AcDb2dVertex
  8
0
 10
857.743
 20
435.722
  0
VERTEX
100
AcDbVertex
100
AcDb2dVertex
  8
0
 10
857.773
 20
435.361
  0
VERTEX
100
AcDbVertex
100
AcDb2dVertex
  8
0
 10
857.911
 20
434.402
  0
VERTEX
100
AcDbVertex
100
AcDb2dVertex
  8
0
 10
858.133
 20
433.458
  0
VERTEX
100
AcDbVertex
100
AcDb2dVertex
  8
0
 10
858.436
 20
432.537
  0
VERTEX
100
AcDbVertex
100
AcDb2dVertex
  8
0
 10
858.818
 20
431.646
  0
VERTEX
100
AcDbVertex
100
AcDb2dVertex
  8
0
 10
859.276
 20
430.791
  0
VERTEX
100
AcDbVertex
100
AcDb2dVertex
  8
0
 10
859.807
 20
429.98
  0
VERTEX
100
AcDbVertex
100
AcDb2dVertex
  8
0
 10
860.214
 20
429.461
  0
VERTEX
100
AcDbVertex
100
AcDb2dVertex
  8
0
 10
860.681
 20
428.96
  0
VERTEX
100
AcDbVertex
100
AcDb2dVertex
  8
0
 10
861.19
 20
428.503
  0
VERTEX
100
AcDbVertex
100
AcDb2dVertex
  8
0
 10
861.736
 20
428.091
  0
VERTEX
100
AcDbVertex
100
AcDb2dVertex
  8
0
 10
862.316
 20
427.729
  0
VERTEX
100
AcDbVertex
100
AcDb2dVertex
  8
0
 10
862.926
 20
427.418
  0
VERTEX
100
AcDbVertex
100
AcDb2dVertex
  8
0
 10
863.561
 20
427.162
  0
VERTEX
100
AcDbVertex
100
AcDb2dVertex
  8
0
 10
864.215
 20
426.962
  0
VERTEX
100
AcDbVertex
100
AcDb2dVertex
  8
0
 10
864.354
 20
426.927
  0
VERTEX
100
AcDbVertex
100
AcDb2dVertex
  8
0
 10
865.993
 20
426.592
  0
VERTEX
100
AcDbVertex
100
AcDb2dVertex
  8
0
 10
867.656
 20
426.401
  0
VERTEX
100
AcDbVertex
100
AcDb2dVertex
  8
0
 10
869.329
 20
426.355
  0
VERTEX
100
AcDbVertex
100
AcDb2dVertex
  8
0
 10
871
 20
426.456
  0
VERTEX
100
AcDbVertex
100
AcDb2dVertex
  8
0
 10
871.099
 20
426.466
  0
VERTEX
100
AcDbVertex
100
AcDb2dVertex
  8
0
 10
873.89
 20
426.89
  0
VERTEX
100
AcDbVertex
100
AcDb2dVertex
  8
0
 10
876.634
 20
427.555
  0
VERTEX
100
AcDbVertex
100
AcDb2dVertex
  8
0
 10
879.309
 20
428.457
  0
VERTEX
100
AcDbVertex
100
AcDb2dVertex
  8
0
 10
881.896
 20
429.588
  0
VERTEX
100
AcDbVertex
100
AcDb2dVertex
  8
0
 10
882.749
 20
430.018
  0
VERTEX
100
AcDbVertex
100
AcDb2dVertex
  8
0
 10
886.011
 20
431.893
  0
VERTEX
100
AcDbVertex
100
AcDb2dVertex
  8
0
 10
889.097
 20
434.046
  0
VERTEX
100
AcDbVertex
100
AcDb2dVertex
  8
0
 10
891.984
 20
436.459
  0
VERTEX
100
AcDbVertex
100
AcDb2dVertex
  8
0
 10
892.641
 20
437.071
  0
VERTEX
100
AcDbVertex
100
AcDb2dVertex
  8
0
 10
895.279
 20
439.81
  0
VERTEX
100
AcDbVertex
100
AcDb2dVertex
  8
0
 10
897.668
 20
442.769
  0
VERTEX
100
AcDbVertex
100
AcDb2dVertex
  8
0
 10
899.791
 20
445.925
  0
VERTEX
100
AcDbVertex
100
AcDb2dVertex
  8
0
 10
901.093
 20
448.257
  0
VERTEX
100
AcDbVertex
100
AcDb2dVertex
  8
0
 10
902.318
 20
450.956
  0
VERTEX
100
AcDbVertex
100
AcDb2dVertex
  8
0
 10
903.304
 20
453.751
  0
VERTEX
100
AcDbVertex
100
AcDb2dVertex
  8
0
 10
904.042
 20
456.622
  0
VERTEX
100
AcDbVertex
100
AcDb2dVertex
  8
0
 10
904.186
 20
457.332
  0
VERTEX
100
AcDbVertex
100
AcDb2dVertex
  8
0
 10
904.759
 20
461.173
  0
VERTEX
100
AcDbVertex
100
AcDb2dVertex
  8
0
 10
904.996
 20
465.049
  0
VERTEX
100
AcDbVertex
100
AcDb2dVertex
  8
0
 10
906.054
 20
529.48
  0
VERTEX
100
AcDbVertex
100
AcDb2dVertex
  8
0
 10
906.873
 20
589.984
  0
SEQEND
  0
POLYLINE
100
AcDb2dPolyline
  8
0
 66
   1
 70
   1
 40
0.0
 41
0.0
  0
VERTEX
100
AcDbVertex
100
AcDb2dVertex
  8
0
 10
986.295
 20
626.578
  0
VERTEX
100
AcDbVertex
100
AcDb2dVertex
  8
0
 10
986.261
 20
627.181
  0
VERTEX
100
AcDbVertex
100
AcDb2dVertex
  8
0
 10
986.14
 20
628.125
  0
VERTEX
100
AcDbVertex
100
AcDb2dVertex
  8
0
 10
985.938
 20
629.055
  0
VERTEX
100
AcDbVertex
100
AcDb2dVertex
  8
0
 10
985.654
 20
629.964
  0
VERTEX
100
AcDbVertex
100
AcDb2dVertex
  8
0
 10
985.293
 20
630.845
  0
VERTEX
100
AcDbVertex
100
AcDb2dVertex
  8
0
 10
984.857
 20
631.691
  0
VERTEX
100
AcDbVertex
100
AcDb2dVertex
  8
0
 10
984.348
 20
632.496
  0
VERTEX
100
AcDbVertex
100
AcDb2dVertex
  8
0
 10
981.559
 20
636.192
  0
VERTEX
100
AcDbVertex
100
AcDb2dVertex
  8
0
 10
978.115
 20
640.048
  0
VERTEX
100
AcDbVertex
100
AcDb2dVertex
  8
0
 10
974.503
 20
643.465
  0
VERTEX
100
AcDbVertex
100
AcDb2dVertex
  8
0
 10
970.316
 20
646.806
  0
VERTEX
100
AcDbVertex
100
AcDb2dVertex
  8
0
 10
968.902
 20
647.764
  0
VERTEX
100
AcDbVertex
100
AcDb2dVertex
  8
0
 10
967.016
 20
648.837
  0
VERTEX
100
AcDbVertex
100
AcDb2dVertex
  8
0
 10
965.044
 20
649.742
  0
VERTEX
100
AcDbVertex
100
AcDb2dVertex
  8
0
 10
963
 20
650.472
  0
VERTEX
100
AcDbVertex
100
AcDb2dVertex
  8
0
 10
959.293
 20
651.512
  0
VERTEX
100
AcDbVertex
100
AcDb2dVertex
  8
0
 10
958.891
 20
651.606
  0
VERTEX
100
AcDbVertex
100
AcDb2dVertex
  8
0
 10
957.942
 20
651.765
  0
VERTEX
100
AcDbVertex
100
AcDb2dVertex
  8
0
 10
956.983
 20
651.841
  0
VERTEX
100
AcDbVertex
100
AcDb2dVertex
  8
0
 10
956.419
 20
651.844
  0
VERTEX
100
AcDbVertex
100
AcDb2dVertex
  8
0
 10
955.588
 20
651.788
  0
VERTEX
100
AcDbVertex
100
AcDb2dVertex
  8
0
 10
954.766
 20
651.66
  0
VERTEX
100
AcDbVertex
100
AcDb2dVertex
  8
0
 10
951.5
 20
650.881
  0
VERTEX
100
AcDbVertex
100
AcDb2dVertex
  8
0
 10
949.628
 20
650.282
  0
VERTEX
100
AcDbVertex
100
AcDb2dVertex
  8
0
 10
947.609
 20
649.447
  0
VERTEX
100
AcDbVertex
100
AcDb2dVertex
  8
0
 10
946.665
 20
648.965
  0
VERTEX
100
AcDbVertex
100
AcDb2dVertex
  8
0
 10
945.568
 20
648.291
  0
VERTEX
100
AcDbVertex
100
AcDb2dVertex
  8
0
 10
944.534
 20
647.523
  0
VERTEX
100
AcDbVertex
100
AcDb2dVertex
  8
0
 10
943.706
 20
646.795
  0
VERTEX
100
AcDbVertex
100
AcDb2dVertex
  8
0
 10
942.85
 20
645.907
  0
VERTEX
100
AcDbVertex
100
AcDb2dVertex
  8
0
 10
942.075
 20
644.948
  0
VERTEX
100
AcDbVertex
100
AcDb2dVertex
  8
0
 10
941.941
 20
644.764
  0
VERTEX
100
AcDbVertex
100
AcDb2dVertex
  8
0
 10
940.915
 20
643.205
  0
VERTEX
100
AcDbVertex
100
AcDb2dVertex
  8
0
 10
940.03
 20
641.563
  0
VERTEX
100
AcDbVertex
100
AcDb2dVertex
  8
0
 10
939.494
 20
640.347
  0
VERTEX
100
AcDbVertex
100
AcDb2dVertex
  8
0
 10
938.958
 20
638.81
  0
VERTEX
100
AcDbVertex
100
AcDb2dVertex
  8
0
 10
938.557
 20
637.232
  0
VERTEX
100
AcDbVertex
100
AcDb2dVertex
  8
0
 10
938.167
 20
635.014
  0
VERTEX
100
AcDbVertex
100
AcDb2dVertex
  8
0
 10
937.852
 20
631.859
  0
VERTEX
100
AcDbVertex
100
AcDb2dVertex
  8
0
 10
937.795
 20
629.601
  0
VERTEX
100
AcDbVertex
100
AcDb2dVertex
  8
0
 10
937.952
 20
626.384
  0
VERTEX
100
AcDbVertex
100
AcDb2dVertex
  8
0
 10
938.08
 20
625.305
  0
VERTEX
100
AcDbVertex
100
AcDb2dVertex
  8
0
 10
938.423
 20
623.502
  0
VERTEX
100
AcDbVertex
100
AcDb2dVertex
  8
0
 10
938.922
 20
621.736
  0
VERTEX
100
AcDbVertex
100
AcDb2dVertex
  8
0
 10
939.144
 20
621.119
  0
VERTEX
100
AcDbVertex
100
AcDb2dVertex
  8
0
 10
939.573
 20
620.15
  0
VERTEX
100
AcDbVertex
100
AcDb2dVertex
  8
0
 10
940.085
 20
619.222
  0
VERTEX
100
AcDbVertex
100
AcDb2dVertex
  8
0
 10
940.675
 20
618.342
  0
VERTEX
100
AcDbVertex
100
AcDb2dVertex
  8
0
 10
941.186
 20
617.677
  0
VERTEX
100
AcDbVertex
100
AcDb2dVertex
  8
0
 10
942.345
 20
616.356
  0
VERTEX
100
AcDbVertex
100
AcDb2dVertex
  8
0
 10
943.614
 20
615.141
  0
VERTEX
100
AcDbVertex
100
AcDb2dVertex
  8
0
 10
944.191
 20
614.652
  0
VERTEX
100
AcDbVertex
100
AcDb2dVertex
  8
0
 10
945.695
 20
613.529
  0
VERTEX
100
AcDbVertex
100
AcDb2dVertex
  8
0
 10
947.291
 20
612.542
  0
VERTEX
100
AcDbVertex
100
AcDb2dVertex
  8
0
 10
948.404
 20
611.971
  0
VERTEX
100
AcDbVertex
100
AcDb2dVertex
  8
0
 10
949.798
 20
611.391
  0
VERTEX
100
AcDbVertex
100
AcDb2dVertex
  8
0
 10
951.237
 20
610.934
  0
VERTEX
100
AcDbVertex
100
AcDb2dVertex
  8
0
 10
952.573
 20
610.61
  0
VERTEX
100
AcDbVertex
100
AcDb2dVertex
  8
0
 10
954.864
 20
610.221
  0
VERTEX
100
AcDbVertex
100
AcDb2dVertex
  8
0
 10
957.18
 20
610.033
  0
VERTEX
100
AcDbVertex
100
AcDb2dVertex
  8
0
 10
959.1
 20
609.99
  0
VERTEX
100
AcDbVertex
100
AcDb2dVertex
  8
0
 10
964.7
 20
610.192
  0
VERTEX
100
AcDbVertex
100
AcDb2dVertex
  8
0
 10
966.493
 20
610.361
  0
VERTEX
100
AcDbVertex
100
AcDb2dVertex
  8
0
 10
971.919
 20
611.193
  0
VERTEX
100
AcDbVertex
100
AcDb2dVertex
  8
0
 10
972.786
 20
611.39
  0
VERTEX
100
AcDbVertex
100
AcDb2dVertex
  8
0
 10
974.148
 20
611.801
  0
VERTEX
100
AcDbVertex
100
AcDb2dVertex
  8
0
 10
975.468
 20
612.33
  0
VERTEX
100
AcDbVertex
100
AcDb2dVertex
  8
0
 10
976.737
 20
612.972
  0
VERTEX
100
AcDbVertex
100
AcDb2dVertex
  8
0
 10
977.681
 20
613.536
  0
VERTEX
100
AcDbVertex
100
AcDb2dVertex
  8
0
 10
979.135
 20
614.552
  0
VERTEX
100
AcDbVertex
100
AcDb2dVertex
  8
0
 10
980.495
 20
615.691
  0
VERTEX
100
AcDbVertex
100
AcDb2dVertex
  8
0
 10
981.173
 20
616.339
  0
VERTEX
100
AcDbVertex
100
AcDb2dVertex
  8
0
 10
982.454
 20
617.732
  0
VERTEX
100
AcDbVertex
100
AcDb2dVertex
  8
0
 10
983.608
 20
619.232
  0
VERTEX
100
AcDbVertex
100
AcDb2dVertex
  8
0
 10
984.215
 20
620.154
  0
VERTEX
100
AcDbVertex
100
AcDb2dVertex
  8
0
 10
985.006
 20
621.57
  0
VERTEX
100
AcDbVertex
100
AcDb2dVertex
  8
0
 10
985.671
 20
623.049
  0
VERTEX
100
AcDbVertex
100
AcDb2dVertex
  8
0
 10
985.846
 20
623.53
  0
VERTEX
100
AcDbVertex
100
AcDb2dVertex
  8
0
 10
986.058
 20
624.274
  0
VERTEX
100
AcDbVertex
100
AcDb2dVertex
  8
0
 10
986.204
 20
625.034
  0
VERTEX
100
AcDbVertex
100
AcDb2dVertex
  8
0
 10
986.283
 20
625.804
  0
VERTEX
100
AcDbVertex
100
AcDb2dVertex
  8
0
 10
986.295
 20
626.578
  0
SEQEND
  0
POLYLINE
100
AcDb2dPolyline
  8
0
 66
   1
 70
   1
 40
0.0
 41
0.0
  0
VERTEX
100
AcDbVertex
100
AcDb2dVertex
  8
0
 10
611.084
 20
659.332
  0
VERTEX
100
AcDbVertex
100
AcDb2dVertex
  8
0
 10
611.044
 20
662.956
  0
VERTEX
100
AcDbVertex
100
AcDb2dVertex
  8
0
 10
610.595
 20
668.26
  0
VERTEX
100
AcDbVertex
100
AcDb2dVertex
  8
0
 10
610.57
 20
668.446
  0
VERTEX
100
AcDbVertex
100
AcDb2dVertex
  8
0
 10
610.206
 20
670.452
  0
VERTEX
100
AcDbVertex
100
AcDb2dVertex
  8
0
 10
609.668
 20
672.419
  0
VERTEX
100
AcDbVertex
100
AcDb2dVertex
  8
0
 10
608.961
 20
674.331
  0
VERTEX
100
AcDbVertex
100
AcDb2dVertex
  8
0
 10
608.75
 20
674.801
  0
VERTEX
100
AcDbVertex
100
AcDb2dVertex
  8
0
 10
608.312
 20
675.623
  0
VERTEX
100
AcDbVertex
100
AcDb2dVertex
  8
0
 10
607.804
 20
676.404
  0
VERTEX
100
AcDbVertex
100
AcDb2dVertex
  8
0
 10
607.229
 20
677.138
  0
VERTEX
100
AcDbVertex
100
AcDb2dVertex
  8
0
 10
606.593
 20
677.818
  0
VERTEX
100
AcDbVertex
100
AcDb2dVertex
  8
0
 10
605.9
 20
678.441
  0
VERTEX
100
AcDbVertex
100
AcDb2dVertex
  8
0
 10
605.382
 20
678.848
  0
VERTEX
100
AcDbVertex
100
AcDb2dVertex
  8
0
 10
604.313
 20
679.58
  0
VERTEX
100
AcDbVertex
100
AcDb2dVertex
  8
0
 10
603.184
 20
680.216
  0
VERTEX
100
AcDbVertex
100
AcDb2dVertex
  8
0
 10
602.004
 20
680.751
  0
VERTEX
100
AcDbVertex
100
AcDb2dVertex
  8
0
 10
600.782
 20
681.181
  0
VERTEX
100
AcDbVertex
100
AcDb2dVertex
  8
0
 10
597.821
 20
682
  0
VERTEX
100
AcDbVertex
100
AcDb2dVertex
  8
0
 10
592.598
 20
683.064
  0
VERTEX
100
AcDbVertex
100
AcDb2dVertex
  8
0
 10
590.609
 20
683.325
  0
VERTEX
100
AcDbVertex
100
AcDb2dVertex
  8
0
 10
587.347
 20
683.522
  0
VERTEX
100
AcDbVertex
100
AcDb2dVertex
  8
0
 10
580.428
 20
683.416
  0
VERTEX
100
AcDbVertex
100
AcDb2dVertex
  8
0
 10
573.607
 20
682.88
  0
VERTEX
100
AcDbVertex
100
AcDb2dVertex
  8
0
 10
571.366
 20
682.549
  0
VERTEX
100
AcDbVertex
100
AcDb2dVertex
  8
0
 10
568.741
 20
681.943
  0
VERTEX
100
AcDbVertex
100
AcDb2dVertex
  8
0
 10
568.568
 20
681.893
  0
VERTEX
100
AcDbVertex
100
AcDb2dVertex
  8
0
 10
567.672
 20
681.586
  0
VERTEX
100
AcDbVertex
100
AcDb2dVertex
  8
0
 10
566.806
 20
681.202
  0
VERTEX
100
AcDbVertex
100
AcDb2dVertex
  8
0
 10
565.978
 20
680.744
  0
VERTEX
100
AcDbVertex
100
AcDb2dVertex
  8
0
 10
565.192
 20
680.215
  0
VERTEX
100
AcDbVertex
100
AcDb2dVertex
  8
0
 10
564.774
 20
679.88
  0
VERTEX
100
AcDbVertex
100
AcDb2dVertex
  8
0
 10
564.338
 20
679.467
  0
VERTEX
100
AcDbVertex
100
AcDb2dVertex
  8
0
 10
563.939
 20
679.018
  0
VERTEX
100
AcDbVertex
100
AcDb2dVertex
  8
0
 10
563.581
 20
678.535
  0
VERTEX
100
AcDbVertex
100
AcDb2dVertex
  8
0
 10
563.266
 20
678.023
  0
VERTEX
100
AcDbVertex
100
AcDb2dVertex
  8
0
 10
562.997
 20
677.486
  0
VERTEX
100
AcDbVertex
100
AcDb2dVertex
  8
0
 10
562.813
 20
677.059
  0
VERTEX
100
AcDbVertex
100
AcDb2dVertex
  8
0
 10
562.313
 20
675.685
  0
VERTEX
100
AcDbVertex
100
AcDb2dVertex
  8
0
 10
561.934
 20
674.274
  0
VERTEX
100
AcDbVertex
100
AcDb2dVertex
  8
0
 10
561.68
 20
672.834
  0
VERTEX
100
AcDbVertex
100
AcDb2dVertex
  8
0
 10
560.787
 20
664.161
  0
VERTEX
100
AcDbVertex
100
AcDb2dVertex
  8
0
 10
560.273
 20
647.849
  0
VERTEX
100
AcDbVertex
100
AcDb2dVertex
  8
0
 10
560.93
 20
600.767
  0
VERTEX
100
AcDbVertex
100
AcDb2dVertex
  8
0
 10
561.878
 20
554.487
  0
VERTEX
100
AcDbVertex
100
AcDb2dVertex
  8
0
 10
563.01
 20
531.5
  0
VERTEX
100
AcDbVertex
100
AcDb2dVertex
  8
0
 10
564.774
 20
514.162
  0
VERTEX
100
AcDbVertex
100
AcDb2dVertex
  8
0
 10
565.418
 20
509.914
  0
VERTEX
100
AcDbVertex
100
AcDb2dVertex
  8
0
 10
567.26
 20
501.509
  0
VERTEX
100
AcDbVertex
100
AcDb2dVertex
  8
0
 10
567.333
 20
501.236
  0
VERTEX
100
AcDbVertex
100
AcDb2dVertex
  8
0
 10
568.779
 20
496.692
  0
VERTEX
100
AcDbVertex
100
AcDb2dVertex
  8
0
 10
570.616
 20
492.291
  0
VERTEX
100
AcDbVertex
100
AcDb2dVertex
  8
0
 10
571.505
 20
490.59
  0
VERTEX
100
AcDbVertex
100
AcDb2dVertex
  8
0
 10
572.57
 20
488.918
  0
VERTEX
100
AcDbVertex
100
AcDb2dVertex
  8
0
 10
573.776
 20
487.346
  0
VERTEX
100
AcDbVertex
100
AcDb2dVertex
  8
0
 10
575.115
 20
485.885
  0
VERTEX
100
AcDbVertex
100
AcDb2dVertex
  8
0
 10
576.016
 20
485.051
  0
VERTEX
100
AcDbVertex
100
AcDb2dVertex
  8
0
 10
577.114
 20
484.19
  0
VERTEX
100
AcDbVertex
100
AcDb2dVertex
  8
0
 10
578.282
 20
483.428
  0
VERTEX
100
AcDbVertex
100
AcDb2dVertex
  8
0
 10
579.513
 20
482.771
  0
VERTEX
100
AcDbVertex
100
AcDb2dVertex
  8
0
 10
579.849
 20
482.622
  0
VERTEX
100
AcDbVertex
100
AcDb2dVertex
  8
0
 10
580.376
 20
482.431
  0
VERTEX
100
AcDbVertex
100
AcDb2dVertex
  8
0
 10
580.919
 20
482.288
  0
VERTEX
100
AcDbVertex
100
AcDb2dVertex
  8
0
 10
581.472
 20
482.192
  0
VERTEX
100
AcDbVertex
100
AcDb2dVertex
  8
0
 10
582.031
 20
482.145
  0
VERTEX
100
AcDbVertex
100
AcDb2dVertex
  8
0
 10
582.593
 20
482.146
  0
VERTEX
100
AcDbVertex
100
AcDb2dVertex
  8
0
 10
583.152
 20
482.197
  0
VERTEX
100
AcDbVertex
100
AcDb2dVertex
  8
0
 10
583.704
 20
482.296
  0
VERTEX
100
AcDbVertex
100
AcDb2dVertex
  8
0
 10
584.232
 20
482.429
  0
VERTEX
100
AcDbVertex
100
AcDb2dVertex
  8
0
 10
585.099
 20
482.714
  0
VERTEX
100
AcDbVertex
100
AcDb2dVertex
  8
0
 10
585.937
 20
483.072
  0
VERTEX
100
AcDbVertex
100
AcDb2dVertex
  8
0
 10
586.741
 20
483.503
  0
VERTEX
100
AcDbVertex
100
AcDb2dVertex
  8
0
 10
587.505
 20
484.002
  0
VERTEX
100
AcDbVertex
100
AcDb2dVertex
  8
0
 10
588.222
 20
484.565
  0
VERTEX
100
AcDbVertex
100
AcDb2dVertex
  8
0
 10
590.491
 20
486.627
  0
VERTEX
100
AcDbVertex
100
AcDb2dVertex
  8
0
 10
593.786
 20
490.084
  0
VERTEX
100
AcDbVertex
100
AcDb2dVertex
  8
0
 10
594.115
 20
490.466
  0
VERTEX
100
AcDbVertex
100
AcDb2dVertex
  8
0
 10
596.119
 20
493.044
  0
VERTEX
100
AcDbVertex
100
AcDb2dVertex
  8
0
 10
597.891
 20
495.787
  0
VERTEX
100
AcDbVertex
100
AcDb2dVertex
  8
0
 10
599.417
 20
498.674
  0
VERTEX
100
AcDbVertex
100
AcDb2dVertex
  8
0
 10
599.987
 20
499.915
  0
VERTEX
100
AcDbVertex
100
AcDb2dVertex
  8
0
 10
601.845
 20
504.63
  0
VERTEX
100
AcDbVertex
100
AcDb2dVertex
  8
0
 10
603.285
 20
509.488
  0
VERTEX
100
AcDbVertex
100
AcDb2dVertex
  8
0
 10
604.451
 20
514.672
  0
VERTEX
100
AcDbVertex
100
AcDb2dVertex
  8
0
 10
605.981
 20
524.504
  0
VERTEX
100
AcDbVertex
100
AcDb2dVertex
  8
0
 10
607.988
 20
547
  0
VERTEX
100
AcDbVertex
100
AcDb2dVertex
  8
0
 10
609.08
 20
569.844
  0
VERTEX
100
AcDbVertex
100
AcDb2dVertex
  8
0
 10
610.159
 20
613.273
  0
VERTEX
100
AcDbVertex
100
AcDb2dVertex
  8
0
 10
611.084
 20
659.332
  0
SEQEND
  0
POLYLINE
100
AcDb2dPolyline
  8
0
 66
   1
 70
   1
 40
0.0
 41
0.0
  0
VERTEX
100
AcDbVertex
100
AcDb2dVertex
  8
0
 10
733
 20
615.022
  0
VERTEX
100
AcDbVertex
100
AcDb2dVertex
  8
0
 10
732.859
 20
619.417
  0
VERTEX
100
AcDbVertex
100
AcDb2dVertex
  8
0
 10
732.215
 20
625.37
  0
VERTEX
100
AcDbVertex
100
AcDb2dVertex
  8
0
 10
731.055
 20
631.244
  0
VERTEX
100
AcDbVertex
100
AcDb2dVertex
  8
0
 10
730.181
 20
634.521
  0
VERTEX
100
AcDbVertex
100
AcDb2dVertex
  8
0
 10
728.023
 20
640.901
  0
VERTEX
100
AcDbVertex
100
AcDb2dVertex
  8
0
 10
725.317
 20
647.069
  0
VERTEX
100
AcDbVertex
100
AcDb2dVertex
  8
0
 10
723.737
 20
650.109
  0
VERTEX
100
AcDbVertex
100
AcDb2dVertex
  8
0
 10
720.266
 20
655.828
  0
VERTEX
100
AcDbVertex
100
AcDb2dVertex
  8
0
 10
716.311
 20
661.223
  0
VERTEX
100
AcDbVertex
100
AcDb2dVertex
  8
0
 10
713.299
 20
664.72
  0
VERTEX
100
AcDbVertex
100
AcDb2dVertex
  8
0
 10
709.181
 20
668.806
  0
VERTEX
100
AcDbVertex
100
AcDb2dVertex
  8
0
 10
704.723
 20
672.517
  0
VERTEX
100
AcDbVertex
100
AcDb2dVertex
  8
0
 10
704.017
 20
673.049
  0
VERTEX
100
AcDbVertex
100
AcDb2dVertex
  8
0
 10
697.547
 20
677.446
  0
VERTEX
100
AcDbVertex
100
AcDb2dVertex
  8
0
 10
689.1
 20
682.266
  0
VERTEX
100
AcDbVertex
100
AcDb2dVertex
  8
0
 10
680.163
 20
686.574
  0
VERTEX
100
AcDbVertex
100
AcDb2dVertex
  8
0
 10
671.5
 20
689.964
  0
VERTEX
100
AcDbVertex
100
AcDb2dVertex
  8
0
 10
671.288
 20
690.036
  0
VERTEX
100
AcDbVertex
100
AcDb2dVertex
  8
0
 10
665.882
 20
691.616
  0
VERTEX
100
AcDbVertex
100
AcDb2dVertex
  8
0
 10
660.359
 20
692.718
  0
VERTEX
100
AcDbVertex
100
AcDb2dVertex
  8
0
 10
660.28
 20
692.73
  0
VERTEX
100
AcDbVertex
100
AcDb2dVertex
  8
0
 10
658.034
 20
692.971
  0
VERTEX
100
AcDbVertex
100
AcDb2dVertex
  8
0
 10
655.776
 20
693.014
  0
VERTEX
100
AcDbVertex
100
AcDb2dVertex
  8
0
 10
653.522
 20
692.861
  0
VERTEX
100
AcDbVertex
100
AcDb2dVertex
  8
0
 10
651.29
 20
692.512
  0
VERTEX
100
AcDbVertex
100
AcDb2dVertex
  8
0
 10
650.88
 20
692.424
  0
VERTEX
100
AcDbVertex
100
AcDb2dVertex
  8
0
 10
649.502
 20
692.045
  0
VERTEX
100
AcDbVertex
100
AcDb2dVertex
  8
0
 10
648.163
 20
691.548
  0
VERTEX
100
AcDbVertex
100
AcDb2dVertex
  8
0
 10
646.872
 20
690.937
  0
VERTEX
100
AcDbVertex
100
AcDb2dVertex
  8
0
 10
645.64
 20
690.215
  0
VERTEX
100
AcDbVertex
100
AcDb2dVertex
  8
0
 10
644.475
 20
689.388
  0
VERTEX
100
AcDbVertex
100
AcDb2dVertex
  8
0
 10
643.909
 20
688.927
  0
VERTEX
100
AcDbVertex
100
AcDb2dVertex
  8
0
 10
642.928
 20
688.009
  0
VERTEX
100
AcDbVertex
100
AcDb2dVertex
  8
0
 10
642.031
 20
687.01
  0
VERTEX
100
AcDbVertex
100
AcDb2dVertex
  8
0
 10
641.224
 20
685.936
  0
VERTEX
100
AcDbVertex
100
AcDb2dVertex
  8
0
 10
640.513
 20
684.796
  0
VERTEX
100
AcDbVertex
100
AcDb2dVertex
  8
0
 10
639.905
 20
683.599
  0
VERTEX
100
AcDbVertex
100
AcDb2dVertex
  8
0
 10
639.67
 20
683.059
  0
VERTEX
100
AcDbVertex
100
AcDb2dVertex
  8
0
 10
639.124
 20
681.564
  0
VERTEX
100
AcDbVertex
100
AcDb2dVertex
  8
0
 10
638.71
 20
680.028
  0
VERTEX
100
AcDbVertex
100
AcDb2dVertex
  8
0
 10
638.432
 20
678.461
  0
VERTEX
100
AcDbVertex
100
AcDb2dVertex
  8
0
 10
638.166
 20
676.032
  0
VERTEX
100
AcDbVertex
100
AcDb2dVertex
  8
0
 10
637.975
 20
671.47
  0
VERTEX
100
AcDbVertex
100
AcDb2dVertex
  8
0
 10
638.037
 20
669.023
  0
VERTEX
100
AcDbVertex
100
AcDb2dVertex
  8
0
 10
638.457
 20
664.472
  0
VERTEX
100
AcDbVertex
100
AcDb2dVertex
  8
0
 10
638.537
 20
663.946
  0
VERTEX
100
AcDbVertex
100
AcDb2dVertex
  8
0
 10
638.871
 20
662.36
  0
VERTEX
100
AcDbVertex
100
AcDb2dVertex
  8
0
 10
639.343
 20
660.81
  0
VERTEX
100
AcDbVertex
100
AcDb2dVertex
  8
0
 10
639.948
 20
659.307
  0
VERTEX
100
AcDbVertex
100
AcDb2dVertex
  8
0
 10
640.337
 20
658.526
  0
VERTEX
100
AcDbVertex
100
AcDb2dVertex
  8
0
 10
640.88
 20
657.625
  0
VERTEX
100
AcDbVertex
100
AcDb2dVertex
  8
0
 10
641.499
 20
656.774
  0
VERTEX
100
AcDbVertex
100
AcDb2dVertex
  8
0
 10
645.41
 20
652.039
  0
VERTEX
100
AcDbVertex
100
AcDb2dVertex
  8
0
 10
650.522
 20
646.283
  0
VERTEX
100
AcDbVertex
100
AcDb2dVertex
  8
0
 10
656.676
 20
639.758
  0
VERTEX
100
AcDbVertex
100
AcDb2dVertex
  8
0
 10
666.923
 20
628.707
  0
VERTEX
100
AcDbVertex
100
AcDb2dVertex
  8
0
 10
670.785
 20
623.97
  0
VERTEX
100
AcDbVertex
100
AcDb2dVertex
  8
0
 10
672.882
 20
620.998
  0
VERTEX
100
AcDbVertex
100
AcDb2dVertex
  8
0
 10
674.402
 20
618.49
  0
VERTEX
100
AcDbVertex
100
AcDb2dVertex
  8
0
 10
675.697
 20
615.859
  0
VERTEX
100
AcDbVertex
100
AcDb2dVertex
  8
0
 10
676.219
 20
614.601
  0
VERTEX
100
AcDbVertex
100
AcDb2dVertex
  8
0
 10
676.887
 20
612.65
  0
VERTEX
100
AcDbVertex
100
AcDb2dVertex
  8
0
 10
677.382
 20
610.647
  0
VERTEX
100
AcDbVertex
100
AcDb2dVertex
  8
0
 10
677.701
 20
608.61
  0
VERTEX
100
AcDbVertex
100
AcDb2dVertex
  8
0
 10
677.745
 20
608.183
  0
VERTEX
100
AcDbVertex
100
AcDb2dVertex
  8
0
 10
677.83
 20
606.489
  0
VERTEX
100
AcDbVertex
100
AcDb2dVertex
  8
0
 10
677.766
 20
604.795
  0
VERTEX
100
AcDbVertex
100
AcDb2dVertex
  8
0
 10
677.555
 20
603.112
  0
VERTEX
100
AcDbVertex
100
AcDb2dVertex
  8
0
 10
677.199
 20
601.454
  0
VERTEX
100
AcDbVertex
100
AcDb2dVertex
  8
0
 10
676.97
 20
600.65
  0
VERTEX
100
AcDbVertex
100
AcDb2dVertex
  8
0
 10
675.703
 20
597.094
  0
VERTEX
100
AcDbVertex
100
AcDb2dVertex
  8
0
 10
674.13
 20
593.662
  0
VERTEX
100
AcDbVertex
100
AcDb2dVertex
  8
0
 10
673.289
 20
592.099
  0
VERTEX
100
AcDbVertex
100
AcDb2dVertex
  8
0
 10
669.384
 20
585.84
  0
VERTEX
100
AcDbVertex
100
AcDb2dVertex
  8
0
 10
666.324
 20
581.662
  0
VERTEX
100
AcDbVertex
100
AcDb2dVertex
  8
0
 10
655.046
 20
568
  0
VERTEX
100
AcDbVertex
100
AcDb2dVertex
  8
0
 10
647.819
 20
559.298
  0
VERTEX
100
AcDbVertex
100
AcDb2dVertex
  8
0
 10
641.415
 20
550.699
  0
VERTEX
100
AcDbVertex
100
AcDb2dVertex
  8
0
 10
636.28
 20
542.869
  0
VERTEX
100
AcDbVertex
100
AcDb2dVertex
  8
0
 10
634.898
 20
540.46
  0
VERTEX
100
AcDbVertex
100
AcDb2dVertex
  8
0
 10
633.06
 20
536.64
  0
VERTEX
100
AcDbVertex
100
AcDb2dVertex
  8
0
 10
633.007
 20
536.516
  0
VERTEX
100
AcDbVertex
100
AcDb2dVertex
  8
0
 10
632.185
 20
534.308
  0
VERTEX
100
AcDbVertex
100
AcDb2dVertex
  8
0
 10
631.268
 20
531.241
  0
VERTEX
100
AcDbVertex
100
AcDb2dVertex
  8
0
 10
630.45
 20
527.991
  0
VERTEX
100
AcDbVertex
100
AcDb2dVertex
  8
0
 10
629.872
 20
525.053
  0
VERTEX
100
AcDbVertex
100
AcDb2dVertex
  8
0
 10
629.505
 20
522.201
  0
VERTEX
100
AcDbVertex
100
AcDb2dVertex
  8
0
 10
629.336
 20
518.701
  0
VERTEX
100
AcDbVertex
100
AcDb2dVertex
  8
0
 10
629.472
 20
515.2
  0
VERTEX
100
AcDbVertex
100
AcDb2dVertex
  8
0
 10
629.912
 20
511.724
  0
VERTEX
100
AcDbVertex
100
AcDb2dVertex
  8
0
 10
630.654
 20
508.3
  0
VERTEX
100
AcDbVertex
100
AcDb2dVertex
  8
0
 10
632.15
 20
503.234
  0
VERTEX
100
AcDbVertex
100
AcDb2dVertex
  8
0
 10
634.849
 20
496.085
  0
VERTEX
100
AcDbVertex
100
AcDb2dVertex
  8
0
 10
638.161
 20
489.198
  0
VERTEX
100
AcDbVertex
100
AcDb2dVertex
  8
0
 10
640.134
 20
485.673
  0
VERTEX
100
AcDbVertex
100
AcDb2dVertex
  8
0
 10
645.282
 20
477.687
  0
VERTEX
100
AcDbVertex
100
AcDb2dVertex
  8
0
 10
651.106
 20
470.18
  0
VERTEX
100
AcDbVertex
100
AcDb2dVertex
  8
0
 10
652.559
 20
468.498
  0
VERTEX
100
AcDbVertex
100
AcDb2dVertex
  8
0
 10
660.024
 20
460.723
  0
VERTEX
100
AcDbVertex
100
AcDb2dVertex
  8
0
 10
668.138
 20
453.629
  0
VERTEX
100
AcDbVertex
100
AcDb2dVertex
  8
0
 10
670.168
 20
452.043
  0
VERTEX
100
AcDbVertex
100
AcDb2dVertex
  8
0
 10
678.055
 20
446.557
  0
VERTEX
100
AcDbVertex
100
AcDb2dVertex
  8
0
 10
682.048
 20
444.205
  0
VERTEX
100
AcDbVertex
100
AcDb2dVertex
  8
0
 10
687.744
 20
441.406
  0
VERTEX
100
AcDbVertex
100
AcDb2dVertex
  8
0
 10
692.185
 20
439.655
  0
VERTEX
100
AcDbVertex
100
AcDb2dVertex
  8
0
 10
697.493
 20
438.045
  0
VERTEX
100
AcDbVertex
100
AcDb2dVertex
  8
0
 10
702.245
 20
437.025
  0
VERTEX
100
AcDbVertex
100
AcDb2dVertex
  8
0
 10
707.583
 20
436.336
  0
VERTEX
100
AcDbVertex
100
AcDb2dVertex
  8
0
 10
708.912
 20
436.247
  0
VERTEX
100
AcDbVertex
100
AcDb2dVertex
  8
0
 10
712.176
 20
436.229
  0
VERTEX
100
AcDbVertex
100
AcDb2dVertex
  8
0
 10
715.43
 20
436.496
  0
VERTEX
100
AcDbVertex
100
AcDb2dVertex
  8
0
 10
716.302
 20
436.623
  0
VERTEX
100
AcDbVertex
100
AcDb2dVertex
  8
0
 10
718.291
 20
437.04
  0
VERTEX
100
AcDbVertex
100
AcDb2dVertex
  8
0
 10
720.237
 20
437.629
  0
VERTEX
100
AcDbVertex
100
AcDb2dVertex
  8
0
 10
722.124
 20
438.386
  0
VERTEX
100
AcDbVertex
100
AcDb2dVertex
  8
0
 10
722.229
 20
438.434
  0
VERTEX
100
AcDbVertex
100
AcDb2dVertex
  8
0
 10
723.555
 20
439.116
  0
VERTEX
100
AcDbVertex
100
AcDb2dVertex
  8
0
 10
724.816
 20
439.912
  0
VERTEX
100
AcDbVertex
100
AcDb2dVertex
  8
0
 10
726.002
 20
440.814
  0
VERTEX
100
AcDbVertex
100
AcDb2dVertex
  8
0
 10
727.106
 20
441.816
  0
VERTEX
100
AcDbVertex
100
AcDb2dVertex
  8
0
 10
727.392
 20
442.109
  0
VERTEX
100
AcDbVertex
100
AcDb2dVertex
  8
0
 10
728.061
 20
442.885
  0
VERTEX
100
AcDbVertex
100
AcDb2dVertex
  8
0
 10
728.66
 20
443.717
  0
VERTEX
100
AcDbVertex
100
AcDb2dVertex
  8
0
 10
729.184
 20
444.597
  0
VERTEX
100
AcDbVertex
100
AcDb2dVertex
  8
0
 10
729.63
 20
445.52
  0
VERTEX
100
AcDbVertex
100
AcDb2dVertex
  8
0
 10
729.993
 20
446.478
  0
VERTEX
100
AcDbVertex
100
AcDb2dVertex
  8
0
 10
730.111
 20
446.856
  0
VERTEX
100
AcDbVertex
100
AcDb2dVertex
  8
0
 10
730.368
 20
447.895
  0
VERTEX
100
AcDbVertex
100
AcDb2dVertex
  8
0
 10
730.534
 20
448.953
  0
VERTEX
100
AcDbVertex
100
AcDb2dVertex
  8
0
 10
730.608
 20
450.022
  0
VERTEX
100
AcDbVertex
100
AcDb2dVertex
  8
0
 10
730.587
 20
451.092
  0
VERTEX
100
AcDbVertex
100
AcDb2dVertex
  8
0
 10
730.474
 20
452.157
  0
VERTEX
100
AcDbVertex
100
AcDb2dVertex
  8
0
 10
730.268
 20
453.208
  0
VERTEX
100
AcDbVertex
100
AcDb2dVertex
  8
0
 10
730.109
 20
453.838
  0
VERTEX
100
AcDbVertex
100
AcDb2dVertex
  8
0
 10
729.322
 20
456.359
  0
VERTEX
100
AcDbVertex
100
AcDb2dVertex
  8
0
 10
728.319
 20
458.803
  0
VERTEX
100
AcDbVertex
100
AcDb2dVertex
  8
0
 10
727.107
 20
461.149
  0
VERTEX
100
AcDbVertex
100
AcDb2dVertex
  8
0
 10
726.661
 20
461.914
  0
VERTEX
100
AcDbVertex
100
AcDb2dVertex
  8
0
 10
723.672
 20
466.495
  0
VERTEX
100
AcDbVertex
100
AcDb2dVertex
  8
0
 10
720.296
 20
470.797
  0
VERTEX
100
AcDbVertex
100
AcDb2dVertex
  8
0
 10
709.085
 20
482.963
  0
VERTEX
100
AcDbVertex
100
AcDb2dVertex
  8
0
 10
699.144
 20
493.513
  0
VERTEX
100
AcDbVertex
100
AcDb2dVertex
  8
0
 10
693.621
 20
500.24
  0
VERTEX
100
AcDbVertex
100
AcDb2dVertex
  8
0
 10
692.268
 20
502.087
  0
VERTEX
100
AcDbVertex
100
AcDb2dVertex
  8
0
 10
689.126
 20
506.91
  0
VERTEX
100
AcDbVertex
100
AcDb2dVertex
  8
0
 10
687.451
 20
509.921
  0
VERTEX
100
AcDbVertex
100
AcDb2dVertex
  8
0
 10
685.358
 20
514.393
  0
VERTEX
100
AcDbVertex
100
AcDb2dVertex
  8
0
 10
683.98
 20
518.06
  0
VERTEX
100
AcDbVertex
100
AcDb2dVertex
  8
0
 10
682.99
 20
521.485
  0
VERTEX
100
AcDbVertex
100
AcDb2dVertex
  8
0
 10
682.464
 20
523.998
  0
VERTEX
100
AcDbVertex
100
AcDb2dVertex
  8
0
 10
682.142
 20
526.439
  0
VERTEX
100
AcDbVertex
100
AcDb2dVertex
  8
0
 10
682.034
 20
528.899
  0
VERTEX
100
AcDbVertex
100
AcDb2dVertex
  8
0
 10
682.042
 20
529.563
  0
VERTEX
100
AcDbVertex
100
AcDb2dVertex
  8
0
 10
682.185
 20
531.703
  0
VERTEX
100
AcDbVertex
100
AcDb2dVertex
  8
0
 10
682.514
 20
533.822
  0
VERTEX
100
AcDbVertex
100
AcDb2dVertex
  8
0
 10
682.72
 20
534.756
  0
VERTEX
100
AcDbVertex
100
AcDb2dVertex
  8
0
 10
683.271
 20
536.669
  0
VERTEX
100
AcDbVertex
100
AcDb2dVertex
  8
0
 10
683.987
 20
538.527
  0
VERTEX
100
AcDbVertex
100
AcDb2dVertex
  8
0
 10
684.48
 20
539.584
  0
VERTEX
100
AcDbVertex
100
AcDb2dVertex
  8
0
 10
686.042
 20
542.404
  0
VERTEX
100
AcDbVertex
100
AcDb2dVertex
  8
0
 10
687.696
 20
544.875
  0
VERTEX
100
AcDbVertex
100
AcDb2dVertex
  8
0
 10
693.996
 20
553.171
  0
VERTEX
100
AcDbVertex
100
AcDb2dVertex
  8
0
 10
702.054
 20
562.978
  0
VERTEX
100
AcDbVertex
100
AcDb2dVertex
  8
0
 10
711.397
 20
573.629
  0
VERTEX
100
AcDbVertex
100
AcDb2dVertex
  8
0
 10
723.379
 20
587.548
  0
VERTEX
100
AcDbVertex
100
AcDb2dVertex
  8
0
 10
724.421
 20
588.859
  0
VERTEX
100
AcDbVertex
100
AcDb2dVertex
  8
0
 10
727.017
 20
592.558
  0
VERTEX
100
AcDbVertex
100
AcDb2dVertex
  8
0
 10
729.28
 20
596.469
  0
VERTEX
100
AcDbVertex
100
AcDb2dVertex
  8
0
 10
729.812
 20
597.542
  0
VERTEX
100
AcDbVertex
100
AcDb2dVertex
  8
0
 10
730.774
 20
599.846
  0
VERTEX
100
AcDbVertex
100
AcDb2dVertex
  8
0
 10
731.532
 20
602.225
  0
VERTEX
100
AcDbVertex
100
AcDb2dVertex
  8
0
 10
732.079
 20
604.661
  0
VERTEX
100
AcDbVertex
100
AcDb2dVertex
  8
0
 10
732.108
 20
604.825
  0
VERTEX
100
AcDbVertex
100
AcDb2dVertex
  8
0
 10
732.777
 20
609.904
  0
VERTEX
100
AcDbVertex
100
AcDb2dVertex
  8
0
 10
733
 20
615.022
  0
SEQEND
  0
POLYLINE
100
AcDb2dPolyline
  8
0
 66
   1
 70
   1
 40
0.0
 41
0.0
  0
VERTEX
100
AcDbVertex
100
AcDb2dVertex
  8
0
 10
608
 20
731.157
  0
VERTEX
100
AcDbVertex
100
AcDb2dVertex
  8
0
 10
607.982
 20
731.967
  0
VERTEX
100
AcDbVertex
100
AcDb2dVertex
  8
0
 10
607.842
 20
733.562
  0
VERTEX
100
AcDbVertex
100
AcDb2dVertex
  8
0
 10
607.805
 20
733.819
  0
VERTEX
100
AcDbVertex
100
AcDb2dVertex
  8
0
 10
607.622
 20
734.72
  0
VERTEX
100
AcDbVertex
100
AcDb2dVertex
  8
0
 10
607.362
 20
735.602
  0
VERTEX
100
AcDbVertex
100
AcDb2dVertex
  8
0
 10
607.304
 20
735.766
  0
VERTEX
100
AcDbVertex
100
AcDb2dVertex
  8
0
 10
606.926
 20
736.689
  0
VERTEX
100
AcDbVertex
100
AcDb2dVertex
  8
0
 10
606.468
 20
737.576
  0
VERTEX
100
AcDbVertex
100
AcDb2dVertex
  8
0
 10
606.226
 20
737.989
  0
VERTEX
100
AcDbVertex
100
AcDb2dVertex
  8
0
 10
605.038
 20
739.789
  0
VERTEX
100
AcDbVertex
100
AcDb2dVertex
  8
0
 10
604.864
 20
740.026
  0
VERTEX
100
AcDbVertex
100
AcDb2dVertex
  8
0
 10
603.357
 20
741.885
  0
VERTEX
100
AcDbVertex
100
AcDb2dVertex
  8
0
 10
601.694
 20
743.605
  0
VERTEX
100
AcDbVertex
100
AcDb2dVertex
  8
0
 10
601.18
 20
744.087
  0
VERTEX
100
AcDbVertex
100
AcDb2dVertex
  8
0
 10
596.92
 20
747.704
  0
VERTEX
100
AcDbVertex
100
AcDb2dVertex
  8
0
 10
596.365
 20
748.131
  0
VERTEX
100
AcDbVertex
100
AcDb2dVertex
  8
0
 10
591.806
 20
751.288
  0
VERTEX
100
AcDbVertex
100
AcDb2dVertex
  8
0
 10
591.282
 20
751.609
  0
VERTEX
100
AcDbVertex
100
AcDb2dVertex
  8
0
 10
589.39
 20
752.626
  0
VERTEX
100
AcDbVertex
100
AcDb2dVertex
  8
0
 10
587.416
 20
753.475
  0
VERTEX
100
AcDbVertex
100
AcDb2dVertex
  8
0
 10
587.253
 20
753.536
  0
VERTEX
100
AcDbVertex
100
AcDb2dVertex
  8
0
 10
585.683
 20
754.039
  0
VERTEX
100
AcDbVertex
100
AcDb2dVertex
  8
0
 10
584.075
 20
754.403
  0
VERTEX
100
AcDbVertex
100
AcDb2dVertex
  8
0
 10
582.441
 20
754.625
  0
VERTEX
100
AcDbVertex
100
AcDb2dVertex
  8
0
 10
580.003
 20
754.782
  0
VERTEX
100
AcDbVertex
100
AcDb2dVertex
  8
0
 10
576.066
 20
754.758
  0
VERTEX
100
AcDbVertex
100
AcDb2dVertex
  8
0
 10
573.82
 20
754.589
  0
VERTEX
100
AcDbVertex
100
AcDb2dVertex
  8
0
 10
570.023
 20
754.036
  0
VERTEX
100
AcDbVertex
100
AcDb2dVertex
  8
0
 10
569.877
 20
754.007
  0
VERTEX
100
AcDbVertex
100
AcDb2dVertex
  8
0
 10
569.126
 20
753.816
  0
VERTEX
100
AcDbVertex
100
AcDb2dVertex
  8
0
 10
568.394
 20
753.56
  0
VERTEX
100
AcDbVertex
100
AcDb2dVertex
  8
0
 10
567.687
 20
753.242
  0
VERTEX
100
AcDbVertex
100
AcDb2dVertex
  8
0
 10
567.01
 20
752.863
  0
VERTEX
100
AcDbVertex
100
AcDb2dVertex
  8
0
 10
566.369
 20
752.426
  0
VERTEX
100
AcDbVertex
100
AcDb2dVertex
  8
0
 10
566.094
 20
752.216
  0
VERTEX
100
AcDbVertex
100
AcDb2dVertex
  8
0
 10
565.11
 20
751.373
  0
VERTEX
100
AcDbVertex
100
AcDb2dVertex
  8
0
 10
564.204
 20
750.448
  0
VERTEX
100
AcDbVertex
100
AcDb2dVertex
  8
0
 10
563.381
 20
749.447
  0
VERTEX
100
AcDbVertex
100
AcDb2dVertex
  8
0
 10
562.561
 20
748.251
  0
VERTEX
100
AcDbVertex
100
AcDb2dVertex
  8
0
 10
561.848
 20
746.986
  0
VERTEX
100
AcDbVertex
100
AcDb2dVertex
  8
0
 10
561.247
 20
745.664
  0
VERTEX
100
AcDbVertex
100
AcDb2dVertex
  8
0
 10
560.839
 20
744.563
  0
VERTEX
100
AcDbVertex
100
AcDb2dVertex
  8
0
 10
560.33
 20
742.813
  0
VERTEX
100
AcDbVertex
100
AcDb2dVertex
  8
0
 10
559.976
 20
741.025
  0
VERTEX
100
AcDbVertex
100
AcDb2dVertex
  8
0
 10
559.694
 20
738.681
  0
VERTEX
100
AcDbVertex
100
AcDb2dVertex
  8
0
 10
559.556
 20
735.502
  0
VERTEX
100
AcDbVertex
100
AcDb2dVertex
  8
0
 10
559.558
 20
735.16
  0
VERTEX
100
AcDbVertex
100
AcDb2dVertex
  8
0
 10
559.717
 20
732.193
  0
VERTEX
100
AcDbVertex
100
AcDb2dVertex
  8
0
 10
560.134
 20
729.252
  0
VERTEX
100
AcDbVertex
100
AcDb2dVertex
  8
0
 10
560.806
 20
726.358
  0
VERTEX
100
AcDbVertex
100
AcDb2dVertex
  8
0
 10
560.903
 20
726.025
  0
VERTEX
100
AcDbVertex
100
AcDb2dVertex
  8
0
 10
561.392
 20
724.623
  0
VERTEX
100
AcDbVertex
100
AcDb2dVertex
  8
0
 10
562.002
 20
723.269
  0
VERTEX
100
AcDbVertex
100
AcDb2dVertex
  8
0
 10
562.727
 20
721.974
  0
VERTEX
100
AcDbVertex
100
AcDb2dVertex
  8
0
 10
563.563
 20
720.747
  0
VERTEX
100
AcDbVertex
100
AcDb2dVertex
  8
0
 10
564.502
 20
719.597
  0
VERTEX
100
AcDbVertex
100
AcDb2dVertex
  8
0
 10
564.851
 20
719.218
  0
VERTEX
100
AcDbVertex
100
AcDb2dVertex
  8
0
 10
565.878
 20
718.228
  0
VERTEX
100
AcDbVertex
100
AcDb2dVertex
  8
0
 10
566.988
 20
717.33
  0
VERTEX
100
AcDbVertex
100
AcDb2dVertex
  8
0
 10
568.172
 20
716.533
  0
VERTEX
100
AcDbVertex
100
AcDb2dVertex
  8
0
 10
569.421
 20
715.842
  0
VERTEX
100
AcDbVertex
100
AcDb2dVertex
  8
0
 10
570.725
 20
715.263
  0
VERTEX
100
AcDbVertex
100
AcDb2dVertex
  8
0
 10
571.65
 20
714.917
  0
VERTEX
100
AcDbVertex
100
AcDb2dVertex
  8
0
 10
574.185
 20
714.137
  0
VERTEX
100
AcDbVertex
100
AcDb2dVertex
  8
0
 10
576.777
 20
713.582
  0
VERTEX
100
AcDbVertex
100
AcDb2dVertex
  8
0
 10
579.408
 20
713.255
  0
VERTEX
100
AcDbVertex
100
AcDb2dVertex
  8
0
 10
582.783
 20
713.131
  0
VERTEX
100
AcDbVertex
100
AcDb2dVertex
  8
0
 10
586.177
 20
713.302
  0
VERTEX
100
AcDbVertex
100
AcDb2dVertex
  8
0
 10
587.863
 20
713.519
  0
VERTEX
100
AcDbVertex
100
AcDb2dVertex
  8
0
 10
589.999
 20
713.964
  0
VERTEX
100
AcDbVertex
100
AcDb2dVertex
  8
0
 10
592.089
 20
714.594
  0
VERTEX
100
AcDbVertex
100
AcDb2dVertex
  8
0
 10
593.715
 20
715.229
  0
VERTEX
100
AcDbVertex
100
AcDb2dVertex
  8
0
 10
595.626
 20
716.156
  0
VERTEX
100
AcDbVertex
100
AcDb2dVertex
  8
0
 10
597.449
 20
717.247
  0
VERTEX
100
AcDbVertex
100
AcDb2dVertex
  8
0
 10
597.809
 20
717.487
  0
VERTEX
100
AcDbVertex
100
AcDb2dVertex
  8
0
 10
600.275
 20
719.317
  0
VERTEX
100
AcDbVertex
100
AcDb2dVertex
  8
0
 10
602.572
 20
721.355
  0
VERTEX
100
AcDbVertex
100
AcDb2dVertex
  8
0
 10
605.749
 20
724.571
  0
VERTEX
100
AcDbVertex
100
AcDb2dVertex
  8
0
 10
606.233
 20
725.124
  0
VERTEX
100
AcDbVertex
100
AcDb2dVertex
  8
0
 10
606.727
 20
725.793
  0
VERTEX
100
AcDbVertex
100
AcDb2dVertex
  8
0
 10
607.162
 20
726.503
  0
VERTEX
100
AcDbVertex
100
AcDb2dVertex
  8
0
 10
607.196
 20
726.566
  0
VERTEX
100
AcDbVertex
100
AcDb2dVertex
  8
0
 10
607.407
 20
727.003
  0
VERTEX
100
AcDbVertex
100
AcDb2dVertex
  8
0
 10
607.579
 20
727.457
  0
VERTEX
100
AcDbVertex
100
AcDb2dVertex
  8
0
 10
607.711
 20
727.925
  0
VERTEX
100
AcDbVertex
100
AcDb2dVertex
  8
0
 10
607.801
 20
728.402
  0
VERTEX
100
AcDbVertex
100
AcDb2dVertex
  8
0
 10
607.927
 20
729.483
  0
VERTEX
100
AcDbVertex
100
AcDb2dVertex
  8
0
 10
608
 20
731.157
  0
SEQEND
  0
POLYLINE
100
AcDb2dPolyline
  8
0
 66
   1
 70
   1
 40
0.0
 41
0.0
  0
VERTEX
100
AcDbVertex
100
AcDb2dVertex
  8
0
 10
298.937
 20
753.884
  0
VERTEX
100
AcDbVertex
100
AcDb2dVertex
  8
0
 10
297.632
 20
753.866
  0
VERTEX
100
AcDbVertex
100
AcDb2dVertex
  8
0
 10
296.307
 20
753.733
  0
VERTEX
100
AcDbVertex
100
AcDb2dVertex
  8
0
 10
294.999
 20
753.485
  0
VERTEX
100
AcDbVertex
100
AcDb2dVertex
  8
0
 10
293.875
 20
753.179
  0
VERTEX
100
AcDbVertex
100
AcDb2dVertex
  8
0
 10
292.519
 20
752.692
  0
VERTEX
100
AcDbVertex
100
AcDb2dVertex
  8
0
 10
291.21
 20
752.088
  0
VERTEX
100
AcDbVertex
100
AcDb2dVertex
  8
0
 10
290.187
 20
751.531
  0
VERTEX
100
AcDbVertex
100
AcDb2dVertex
  8
0
 10
288.287
 20
750.327
  0
VERTEX
100
AcDbVertex
100
AcDb2dVertex
  8
0
 10
286.499
 20
748.962
  0
VERTEX
100
AcDbVertex
100
AcDb2dVertex
  8
0
 10
284.837
 20
747.446
  0
VERTEX
100
AcDbVertex
100
AcDb2dVertex
  8
0
 10
284.163
 20
746.751
  0
VERTEX
100
AcDbVertex
100
AcDb2dVertex
  8
0
 10
282.64
 20
744.972
  0
VERTEX
100
AcDbVertex
100
AcDb2dVertex
  8
0
 10
281.277
 20
743.068
  0
VERTEX
100
AcDbVertex
100
AcDb2dVertex
  8
0
 10
280.086
 20
741.052
  0
VERTEX
100
AcDbVertex
100
AcDb2dVertex
  8
0
 10
279.498
 20
739.873
  0
VERTEX
100
AcDbVertex
100
AcDb2dVertex
  8
0
 10
278.707
 20
737.953
  0
VERTEX
100
AcDbVertex
100
AcDb2dVertex
  8
0
 10
278.085
 20
735.971
  0
VERTEX
100
AcDbVertex
100
AcDb2dVertex
  8
0
 10
277.639
 20
733.942
  0
VERTEX
100
AcDbVertex
100
AcDb2dVertex
  8
0
 10
277.464
 20
732.601
  0
VERTEX
100
AcDbVertex
100
AcDb2dVertex
  8
0
 10
277.407
 20
731.244
  0
VERTEX
100
AcDbVertex
100
AcDb2dVertex
  8
0
 10
277.468
 20
729.886
  0
VERTEX
100
AcDbVertex
100
AcDb2dVertex
  8
0
 10
277.646
 20
728.54
  0
VERTEX
100
AcDbVertex
100
AcDb2dVertex
  8
0
 10
277.942
 20
727.214
  0
VERTEX
100
AcDbVertex
100
AcDb2dVertex
  8
0
 10
278.148
 20
726.502
  0
VERTEX
100
AcDbVertex
100
AcDb2dVertex
  8
0
 10
278.717
 20
724.92
  0
VERTEX
100
AcDbVertex
100
AcDb2dVertex
  8
0
 10
279.422
 20
723.394
  0
VERTEX
100
AcDbVertex
100
AcDb2dVertex
  8
0
 10
279.968
 20
722.419
  0
VERTEX
100
AcDbVertex
100
AcDb2dVertex
  8
0
 10
280.747
 20
721.254
  0
VERTEX
100
AcDbVertex
100
AcDb2dVertex
  8
0
 10
281.624
 20
720.162
  0
VERTEX
100
AcDbVertex
100
AcDb2dVertex
  8
0
 10
281.72
 20
720.053
  0
VERTEX
100
AcDbVertex
100
AcDb2dVertex
  8
0
 10
283.333
 20
718.387
  0
VERTEX
100
AcDbVertex
100
AcDb2dVertex
  8
0
 10
285.086
 20
716.868
  0
VERTEX
100
AcDbVertex
100
AcDb2dVertex
  8
0
 10
290.668
 20
712.711
  0
VERTEX
100
AcDbVertex
100
AcDb2dVertex
  8
0
 10
298.763
 20
707.264
  0
VERTEX
100
AcDbVertex
100
AcDb2dVertex
  8
0
 10
301.039
 20
705.914
  0
VERTEX
100
AcDbVertex
100
AcDb2dVertex
  8
0
 10
303.665
 20
704.638
  0
VERTEX
100
AcDbVertex
100
AcDb2dVertex
  8
0
 10
304.939
 20
704.144
  0
VERTEX
100
AcDbVertex
100
AcDb2dVertex
  8
0
 10
306.41
 20
703.71
  0
VERTEX
100
AcDbVertex
100
AcDb2dVertex
  8
0
 10
307.913
 20
703.406
  0
VERTEX
100
AcDbVertex
100
AcDb2dVertex
  8
0
 10
310.195
 20
703.127
  0
VERTEX
100
AcDbVertex
100
AcDb2dVertex
  8
0
 10
313.101
 20
703
  0
VERTEX
100
AcDbVertex
100
AcDb2dVertex
  8
0
 10
315.255
 20
703.055
  0
VERTEX
100
AcDbVertex
100
AcDb2dVertex
  8
0
 10
318.914
 20
703.403
  0
VERTEX
100
AcDbVertex
100
AcDb2dVertex
  8
0
 10
319.099
 20
703.432
  0
VERTEX
100
AcDbVertex
100
AcDb2dVertex
  8
0
 10
319.651
 20
703.55
  0
VERTEX
100
AcDbVertex
100
AcDb2dVertex
  8
0
 10
320.19
 20
703.715
  0
VERTEX
100
AcDbVertex
100
AcDb2dVertex
  8
0
 10
320.712
 20
703.927
  0
VERTEX
100
AcDbVertex
100
AcDb2dVertex
  8
0
 10
321.214
 20
704.184
  0
VERTEX
100
AcDbVertex
100
AcDb2dVertex
  8
0
 10
321.692
 20
704.484
  0
VERTEX
100
AcDbVertex
100
AcDb2dVertex
  8
0
 10
322.142
 20
704.824
  0
VERTEX
100
AcDbVertex
100
AcDb2dVertex
  8
0
 10
322.176
 20
704.853
  0
VERTEX
100
AcDbVertex
100
AcDb2dVertex
  8
0
 10
322.527
 20
705.175
  0
VERTEX
100
AcDbVertex
100
AcDb2dVertex
  8
0
 10
322.848
 20
705.526
  0
VERTEX
100
AcDbVertex
100
AcDb2dVertex
  8
0
 10
323.137
 20
705.904
  0
VERTEX
100
AcDbVertex
100
AcDb2dVertex
  8
0
 10
323.392
 20
706.306
  0
VERTEX
100
AcDbVertex
100
AcDb2dVertex
  8
0
 10
323.611
 20
706.728
  0
VERTEX
100
AcDbVertex
100
AcDb2dVertex
  8
0
 10
323.793
 20
707.168
  0
VERTEX
100
AcDbVertex
100
AcDb2dVertex
  8
0
 10
323.935
 20
707.622
  0
VERTEX
100
AcDbVertex
100
AcDb2dVertex
  8
0
 10
324.03
 20
707.986
  0
VERTEX
100
AcDbVertex
100
AcDb2dVertex
  8
0
 10
324.508
 20
710.307
  0
VERTEX
100
AcDbVertex
100
AcDb2dVertex
  8
0
 10
324.782
 20
712.661
  0
VERTEX
100
AcDbVertex
100
AcDb2dVertex
  8
0
 10
324.888
 20
714.897
  0
VERTEX
100
AcDbVertex
100
AcDb2dVertex
  8
0
 10
324.804
 20
718.801
  0
VERTEX
100
AcDbVertex
100
AcDb2dVertex
  8
0
 10
324.027
 20
725.93
  0
VERTEX
100
AcDbVertex
100
AcDb2dVertex
  8
0
 10
322.674
 20
732.754
  0
VERTEX
100
AcDbVertex
100
AcDb2dVertex
  8
0
 10
322.659
 20
732.814
  0
VERTEX
100
AcDbVertex
100
AcDb2dVertex
  8
0
 10
321.897
 20
735.418
  0
VERTEX
100
AcDbVertex
100
AcDb2dVertex
  8
0
 10
320.91
 20
737.945
  0
VERTEX
100
AcDbVertex
100
AcDb2dVertex
  8
0
 10
320.877
 20
738.02
  0
VERTEX
100
AcDbVertex
100
AcDb2dVertex
  8
0
 10
319.805
 20
740.17
  0
VERTEX
100
AcDbVertex
100
AcDb2dVertex
  8
0
 10
318.549
 20
742.218
  0
VERTEX
100
AcDbVertex
100
AcDb2dVertex
  8
0
 10
318.431
 20
742.392
  0
VERTEX
100
AcDbVertex
100
AcDb2dVertex
  8
0
 10
317.038
 20
744.243
  0
VERTEX
100
AcDbVertex
100
AcDb2dVertex
  8
0
 10
315.49
 20
745.966
  0
VERTEX
100
AcDbVertex
100
AcDb2dVertex
  8
0
 10
315.361
 20
746.096
  0
VERTEX
100
AcDbVertex
100
AcDb2dVertex
  8
0
 10
313.638
 20
747.684
  0
VERTEX
100
AcDbVertex
100
AcDb2dVertex
  8
0
 10
311.783
 20
749.115
  0
VERTEX
100
AcDbVertex
100
AcDb2dVertex
  8
0
 10
309.735
 20
750.432
  0
VERTEX
100
AcDbVertex
100
AcDb2dVertex
  8
0
 10
307.5
 20
751.613
  0
VERTEX
100
AcDbVertex
100
AcDb2dVertex
  8
0
 10
305.367
 20
752.515
  0
VERTEX
100
AcDbVertex
100
AcDb2dVertex
  8
0
 10
303.085
 20
753.257
  0
VERTEX
100
AcDbVertex
100
AcDb2dVertex
  8
0
 10
301.95
 20
753.531
  0
VERTEX
100
AcDbVertex
100
AcDb2dVertex
  8
0
 10
300.451
 20
753.774
  0
VERTEX
100
AcDbVertex
100
AcDb2dVertex
  8
0
 10
298.937
 20
753.884
  0
SEQEND
  0
POLYLINE
100
AcDb2dPolyline
  8
0
 66
   1
 70
   1
 40
0.0
 41
0.0
  0
VERTEX
100
AcDbVertex
100
AcDb2dVertex
  8
0
 10
379.436
 20
662.676
  0
VERTEX
100
AcDbVertex
100
AcDb2dVertex
  8
0
 10
378.877
 20
675.352
  0
VERTEX
100
AcDbVertex
100
AcDb2dVertex
  8
0
 10
375.893
 20
702.975
  0
VERTEX
100
AcDbVertex
100
AcDb2dVertex
  8
0
 10
375.156
 20
707.545
  0
VERTEX
100
AcDbVertex
100
AcDb2dVertex
  8
0
 10
370.222
 20
730.461
  0
VERTEX
100
AcDbVertex
100
AcDb2dVertex
  8
0
 10
369.806
 20
732.011
  0
VERTEX
100
AcDbVertex
100
AcDb2dVertex
  8
0
 10
366.512
 20
742.209
  0
VERTEX
100
AcDbVertex
100
AcDb2dVertex
  8
0
 10
362.341
 20
752.082
  0
VERTEX
100
AcDbVertex
100
AcDb2dVertex
  8
0
 10
360.27
 20
756.163
  0
VERTEX
100
AcDbVertex
100
AcDb2dVertex
  8
0
 10
356.374
 20
762.667
  0
VERTEX
100
AcDbVertex
100
AcDb2dVertex
  8
0
 10
351.927
 20
768.806
  0
VERTEX
100
AcDbVertex
100
AcDb2dVertex
  8
0
 10
351.156
 20
769.759
  0
VERTEX
100
AcDbVertex
100
AcDb2dVertex
  8
0
 10
347.328
 20
774.013
  0
VERTEX
100
AcDbVertex
100
AcDb2dVertex
  8
0
 10
343.142
 20
777.917
  0
VERTEX
100
AcDbVertex
100
AcDb2dVertex
  8
0
 10
338.633
 20
781.442
  0
VERTEX
100
AcDbVertex
100
AcDb2dVertex
  8
0
 10
337.671
 20
782.115
  0
VERTEX
100
AcDbVertex
100
AcDb2dVertex
  8
0
 10
332.87
 20
785.112
  0
VERTEX
100
AcDbVertex
100
AcDb2dVertex
  8
0
 10
330.891
 20
786.168
  0
VERTEX
100
AcDbVertex
100
AcDb2dVertex
  8
0
 10
327.211
 20
787.822
  0
VERTEX
100
AcDbVertex
100
AcDb2dVertex
  8
0
 10
325.041
 20
788.619
  0
VERTEX
100
AcDbVertex
100
AcDb2dVertex
  8
0
 10
321.399
 20
789.674
  0
VERTEX
100
AcDbVertex
100
AcDb2dVertex
  8
0
 10
319.477
 20
790.1
  0
VERTEX
100
AcDbVertex
100
AcDb2dVertex
  8
0
 10
315.183
 20
790.771
  0
VERTEX
100
AcDbVertex
100
AcDb2dVertex
  8
0
 10
313.3
 20
790.953
  0
VERTEX
100
AcDbVertex
100
AcDb2dVertex
  8
0
 10
307.744
 20
791.165
  0
VERTEX
100
AcDbVertex
100
AcDb2dVertex
  8
0
 10
302.191
 20
790.892
  0
VERTEX
100
AcDbVertex
100
AcDb2dVertex
  8
0
 10
296.683
 20
790.136
  0
VERTEX
100
AcDbVertex
100
AcDb2dVertex
  8
0
 10
293.833
 20
789.543
  0
VERTEX
100
AcDbVertex
100
AcDb2dVertex
  8
0
 10
288.939
 20
788.17
  0
VERTEX
100
AcDbVertex
100
AcDb2dVertex
  8
0
 10
284.184
 20
786.375
  0
VERTEX
100
AcDbVertex
100
AcDb2dVertex
  8
0
 10
279.603
 20
784.172
  0
VERTEX
100
AcDbVertex
100
AcDb2dVertex
  8
0
 10
276.975
 20
782.673
  0
VERTEX
100
AcDbVertex
100
AcDb2dVertex
  8
0
 10
272.815
 20
779.898
  0
VERTEX
100
AcDbVertex
100
AcDb2dVertex
  8
0
 10
268.913
 20
776.771
  0
VERTEX
100
AcDbVertex
100
AcDb2dVertex
  8
0
 10
265.298
 20
773.316
  0
VERTEX
100
AcDbVertex
100
AcDb2dVertex
  8
0
 10
263.57
 20
771.435
  0
VERTEX
100
AcDbVertex
100
AcDb2dVertex
  8
0
 10
260.293
 20
767.367
  0
VERTEX
100
AcDbVertex
100
AcDb2dVertex
  8
0
 10
257.384
 20
763.029
  0
VERTEX
100
AcDbVertex
100
AcDb2dVertex
  8
0
 10
254.864
 20
758.454
  0
VERTEX
100
AcDbVertex
100
AcDb2dVertex
  8
0
 10
250.5
 20
749.643
  0
VERTEX
100
AcDbVertex
100
AcDb2dVertex
  8
0
 10
250.654
 20
737.572
  0
VERTEX
100
AcDbVertex
100
AcDb2dVertex
  8
0
 10
251.122
 20
727.727
  0
VERTEX
100
AcDbVertex
100
AcDb2dVertex
  8
0
 10
251.227
 20
726.551
  0
VERTEX
100
AcDbVertex
100
AcDb2dVertex
  8
0
 10
252.274
 20
719.105
  0
VERTEX
100
AcDbVertex
100
AcDb2dVertex
  8
0
 10
252.638
 20
717.288
  0
VERTEX
100
AcDbVertex
100
AcDb2dVertex
  8
0
 10
254.04
 20
711.937
  0
VERTEX
100
AcDbVertex
100
AcDb2dVertex
  8
0
 10
254.497
 20
710.593
  0
VERTEX
100
AcDbVertex
100
AcDb2dVertex
  8
0
 10
255.36
 20
708.546
  0
VERTEX
100
AcDbVertex
100
AcDb2dVertex
  8
0
 10
256.398
 20
706.583
  0
VERTEX
100
AcDbVertex
100
AcDb2dVertex
  8
0
 10
256.778
 20
705.952
  0
VERTEX
100
AcDbVertex
100
AcDb2dVertex
  8
0
 10
258.244
 20
703.803
  0
VERTEX
100
AcDbVertex
100
AcDb2dVertex
  8
0
 10
259.891
 20
701.791
  0
VERTEX
100
AcDbVertex
100
AcDb2dVertex
  8
0
 10
261.707
 20
699.929
  0
VERTEX
100
AcDbVertex
100
AcDb2dVertex
  8
0
 10
265.145
 20
696.909
  0
VERTEX
100
AcDbVertex
100
AcDb2dVertex
  8
0
 10
269.903
 20
693.341
  0
VERTEX
100
AcDbVertex
100
AcDb2dVertex
  8
0
 10
271.596
 20
692.201
  0
VERTEX
100
AcDbVertex
100
AcDb2dVertex
  8
0
 10
282.334
 20
685.736
  0
VERTEX
100
AcDbVertex
100
AcDb2dVertex
  8
0
 10
308.268
 20
672.147
  0
VERTEX
100
AcDbVertex
100
AcDb2dVertex
  8
0
 10
314.002
 20
668.875
  0
VERTEX
100
AcDbVertex
100
AcDb2dVertex
  8
0
 10
318.621
 20
665.974
  0
VERTEX
100
AcDbVertex
100
AcDb2dVertex
  8
0
 10
319.93
 20
665.028
  0
VERTEX
100
AcDbVertex
100
AcDb2dVertex
  8
0
 10
321.151
 20
663.971
  0
VERTEX
100
AcDbVertex
100
AcDb2dVertex
  8
0
 10
321.199
 20
663.926
  0
VERTEX
100
AcDbVertex
100
AcDb2dVertex
  8
0
 10
323.711
 20
661.384
  0
VERTEX
100
AcDbVertex
100
AcDb2dVertex
  8
0
 10
323.979
 20
661.069
  0
VERTEX
100
AcDbVertex
100
AcDb2dVertex
  8
0
 10
324.219
 20
660.731
  0
VERTEX
100
AcDbVertex
100
AcDb2dVertex
  8
0
 10
324.428
 20
660.374
  0
VERTEX
100
AcDbVertex
100
AcDb2dVertex
  8
0
 10
324.605
 20
660
  0
VERTEX
100
AcDbVertex
100
AcDb2dVertex
  8
0
 10
324.67
 20
659.839
  0
VERTEX
100
AcDbVertex
100
AcDb2dVertex
  8
0
 10
324.794
 20
659.463
  0
VERTEX
100
AcDbVertex
100
AcDb2dVertex
  8
0
 10
324.885
 20
659.077
  0
VERTEX
100
AcDbVertex
100
AcDb2dVertex
  8
0
 10
324.943
 20
658.685
  0
VERTEX
100
AcDbVertex
100
AcDb2dVertex
  8
0
 10
324.965
 20
658.29
  0
VERTEX
100
AcDbVertex
100
AcDb2dVertex
  8
0
 10
324.963
 20
658.068
  0
VERTEX
100
AcDbVertex
100
AcDb2dVertex
  8
0
 10
324.726
 20
654.636
  0
VERTEX
100
AcDbVertex
100
AcDb2dVertex
  8
0
 10
324.341
 20
652.029
  0
VERTEX
100
AcDbVertex
100
AcDb2dVertex
  8
0
 10
323.731
 20
649.466
  0
VERTEX
100
AcDbVertex
100
AcDb2dVertex
  8
0
 10
322.9
 20
646.966
  0
VERTEX
100
AcDbVertex
100
AcDb2dVertex
  8
0
 10
322.518
 20
646.014
  0
VERTEX
100
AcDbVertex
100
AcDb2dVertex
  8
0
 10
320.617
 20
641.999
  0
VERTEX
100
AcDbVertex
100
AcDb2dVertex
  8
0
 10
318.374
 20
638.166
  0
VERTEX
100
AcDbVertex
100
AcDb2dVertex
  8
0
 10
317.656
 20
637.084
  0
VERTEX
100
AcDbVertex
100
AcDb2dVertex
  8
0
 10
315.322
 20
633.964
  0
VERTEX
100
AcDbVertex
100
AcDb2dVertex
  8
0
 10
312.725
 20
631.06
  0
VERTEX
100
AcDbVertex
100
AcDb2dVertex
  8
0
 10
311.758
 20
630.099
  0
VERTEX
100
AcDbVertex
100
AcDb2dVertex
  8
0
 10
311.268
 20
629.666
  0
VERTEX
100
AcDbVertex
100
AcDb2dVertex
  8
0
 10
310.742
 20
629.278
  0
VERTEX
100
AcDbVertex
100
AcDb2dVertex
  8
0
 10
310.184
 20
628.937
  0
VERTEX
100
AcDbVertex
100
AcDb2dVertex
  8
0
 10
309.599
 20
628.645
  0
VERTEX
100
AcDbVertex
100
AcDb2dVertex
  8
0
 10
308.991
 20
628.406
  0
VERTEX
100
AcDbVertex
100
AcDb2dVertex
  8
0
 10
308.363
 20
628.221
  0
VERTEX
100
AcDbVertex
100
AcDb2dVertex
  8
0
 10
307.723
 20
628.091
  0
VERTEX
100
AcDbVertex
100
AcDb2dVertex
  8
0
 10
307.073
 20
628.018
  0
VERTEX
100
AcDbVertex
100
AcDb2dVertex
  8
0
 10
306.557
 20
628
  0
VERTEX
100
AcDbVertex
100
AcDb2dVertex
  8
0
 10
305.737
 20
628.036
  0
VERTEX
100
AcDbVertex
100
AcDb2dVertex
  8
0
 10
304.924
 20
628.143
  0
VERTEX
100
AcDbVertex
100
AcDb2dVertex
  8
0
 10
304.123
 20
628.321
  0
VERTEX
100
AcDbVertex
100
AcDb2dVertex
  8
0
 10
303.341
 20
628.567
  0
VERTEX
100
AcDbVertex
100
AcDb2dVertex
  8
0
 10
302.583
 20
628.881
  0
VERTEX
100
AcDbVertex
100
AcDb2dVertex
  8
0
 10
301.855
 20
629.26
  0
VERTEX
100
AcDbVertex
100
AcDb2dVertex
  8
0
 10
301.663
 20
629.374
  0
VERTEX
100
AcDbVertex
100
AcDb2dVertex
  8
0
 10
298.833
 20
631.273
  0
VERTEX
100
AcDbVertex
100
AcDb2dVertex
  8
0
 10
296.18
 20
633.411
  0
VERTEX
100
AcDbVertex
100
AcDb2dVertex
  8
0
 10
295.728
 20
633.815
  0
VERTEX
100
AcDbVertex
100
AcDb2dVertex
  8
0
 10
291.433
 20
638.073
  0
VERTEX
100
AcDbVertex
100
AcDb2dVertex
  8
0
 10
288.872
 20
641.004
  0
VERTEX
100
AcDbVertex
100
AcDb2dVertex
  8
0
 10
281.024
 20
651.192
  0
VERTEX
100
AcDbVertex
100
AcDb2dVertex
  8
0
 10
278.168
 20
654.965
  0
VERTEX
100
AcDbVertex
100
AcDb2dVertex
  8
0
 10
275.112
 20
658.606
  0
VERTEX
100
AcDbVertex
100
AcDb2dVertex
  8
0
 10
272.281
 20
661.658
  0
VERTEX
100
AcDbVertex
100
AcDb2dVertex
  8
0
 10
272.187
 20
661.753
  0
VERTEX
100
AcDbVertex
100
AcDb2dVertex
  8
0
 10
271.27
 20
662.598
  0
VERTEX
100
AcDbVertex
100
AcDb2dVertex
  8
0
 10
270.283
 20
663.36
  0
VERTEX
100
AcDbVertex
100
AcDb2dVertex
  8
0
 10
269.946
 20
663.592
  0
VERTEX
100
AcDbVertex
100
AcDb2dVertex
  8
0
 10
268.519
 20
664.466
  0
VERTEX
100
AcDbVertex
100
AcDb2dVertex
  8
0
 10
267.02
 20
665.211
  0
VERTEX
100
AcDbVertex
100
AcDb2dVertex
  8
0
 10
265.462
 20
665.824
  0
VERTEX
100
AcDbVertex
100
AcDb2dVertex
  8
0
 10
263.857
 20
666.298
  0
VERTEX
100
AcDbVertex
100
AcDb2dVertex
  8
0
 10
262.075
 20
666.659
  0
VERTEX
100
AcDbVertex
100
AcDb2dVertex
  8
0
 10
260.278
 20
666.861
  0
VERTEX
100
AcDbVertex
100
AcDb2dVertex
  8
0
 10
258.47
 20
666.907
  0
VERTEX
100
AcDbVertex
100
AcDb2dVertex
  8
0
 10
256.665
 20
666.794
  0
VERTEX
100
AcDbVertex
100
AcDb2dVertex
  8
0
 10
254.996
 20
666.551
  0
VERTEX
100
AcDbVertex
100
AcDb2dVertex
  8
0
 10
253.129
 20
666.121
  0
VERTEX
100
AcDbVertex
100
AcDb2dVertex
  8
0
 10
251.307
 20
665.53
  0
VERTEX
100
AcDbVertex
100
AcDb2dVertex
  8
0
 10
249.544
 20
664.783
  0
VERTEX
100
AcDbVertex
100
AcDb2dVertex
  8
0
 10
248.326
 20
664.159
  0
VERTEX
100
AcDbVertex
100
AcDb2dVertex
  8
0
 10
246.557
 20
663.085
  0
VERTEX
100
AcDbVertex
100
AcDb2dVertex
  8
0
 10
244.889
 20
661.86
  0
VERTEX
100
AcDbVertex
100
AcDb2dVertex
  8
0
 10
243.333
 20
660.495
  0
VERTEX
100
AcDbVertex
100
AcDb2dVertex
  8
0
 10
240.727
 20
657.828
  0
VERTEX
100
AcDbVertex
100
AcDb2dVertex
  8
0
 10
240.432
 20
657.48
  0
VERTEX
100
AcDbVertex
100
AcDb2dVertex
  8
0
 10
240.117
 20
657.043
  0
VERTEX
100
AcDbVertex
100
AcDb2dVertex
  8
0
 10
239.842
 20
656.58
  0
VERTEX
100
AcDbVertex
100
AcDb2dVertex
  8
0
 10
239.608
 20
656.095
  0
VERTEX
100
AcDbVertex
100
AcDb2dVertex
  8
0
 10
239.439
 20
655.656
  0
VERTEX
100
AcDbVertex
100
AcDb2dVertex
  8
0
 10
239.291
 20
655.146
  0
VERTEX
100
AcDbVertex
100
AcDb2dVertex
  8
0
 10
239.187
 20
654.626
  0
VERTEX
100
AcDbVertex
100
AcDb2dVertex
  8
0
 10
239.129
 20
654.099
  0
VERTEX
100
AcDbVertex
100
AcDb2dVertex
  8
0
 10
239.01
 20
650.421
  0
VERTEX
100
AcDbVertex
100
AcDb2dVertex
  8
0
 10
239.01
 20
650.319
  0
VERTEX
100
AcDbVertex
100
AcDb2dVertex
  8
0
 10
239.117
 20
648.153
  0
VERTEX
100
AcDbVertex
100
AcDb2dVertex
  8
0
 10
239.413
 20
646.005
  0
VERTEX
100
AcDbVertex
100
AcDb2dVertex
  8
0
 10
239.894
 20
643.89
  0
VERTEX
100
AcDbVertex
100
AcDb2dVertex
  8
0
 10
240.558
 20
641.826
  0
VERTEX
100
AcDbVertex
100
AcDb2dVertex
  8
0
 10
241.511
 20
639.469
  0
VERTEX
100
AcDbVertex
100
AcDb2dVertex
  8
0
 10
243.176
 20
636.084
  0
VERTEX
100
AcDbVertex
100
AcDb2dVertex
  8
0
 10
245.13
 20
632.858
  0
VERTEX
100
AcDbVertex
100
AcDb2dVertex
  8
0
 10
248.523
 20
628.108
  0
VERTEX
100
AcDbVertex
100
AcDb2dVertex
  8
0
 10
253.616
 20
622.012
  0
VERTEX
100
AcDbVertex
100
AcDb2dVertex
  8
0
 10
267.971
 20
606.995
  0
VERTEX
100
AcDbVertex
100
AcDb2dVertex
  8
0
 10
289.725
 20
586.784
  0
VERTEX
100
AcDbVertex
100
AcDb2dVertex
  8
0
 10
290.7
 20
585.951
  0
VERTEX
100
AcDbVertex
100
AcDb2dVertex
  8
0
 10
298.667
 20
579.792
  0
VERTEX
100
AcDbVertex
100
AcDb2dVertex
  8
0
 10
307.141
 20
574.352
  0
VERTEX
100
AcDbVertex
100
AcDb2dVertex
  8
0
 10
311.971
 20
571.805
  0
VERTEX
100
AcDbVertex
100
AcDb2dVertex
  8
0
 10
317.212
 20
569.591
  0
VERTEX
100
AcDbVertex
100
AcDb2dVertex
  8
0
 10
322.627
 20
567.842
  0
VERTEX
100
AcDbVertex
100
AcDb2dVertex
  8
0
 10
325.633
 20
567.118
  0
VERTEX
100
AcDbVertex
100
AcDb2dVertex
  8
0
 10
329.739
 20
566.454
  0
VERTEX
100
AcDbVertex
100
AcDb2dVertex
  8
0
 10
333.887
 20
566.15
  0
VERTEX
100
AcDbVertex
100
AcDb2dVertex
  8
0
 10
338.046
 20
566.209
  0
VERTEX
100
AcDbVertex
100
AcDb2dVertex
  8
0
 10
340.428
 20
566.41
  0
VERTEX
100
AcDbVertex
100
AcDb2dVertex
  8
0
 10
344.31
 20
567.015
  0
VERTEX
100
AcDbVertex
100
AcDb2dVertex
  8
0
 10
345.086
 20
567.183
  0
VERTEX
100
AcDbVertex
100
AcDb2dVertex
  8
0
 10
347.391
 20
567.823
  0
VERTEX
100
AcDbVertex
100
AcDb2dVertex
  8
0
 10
349.632
 20
568.661
  0
VERTEX
100
AcDbVertex
100
AcDb2dVertex
  8
0
 10
350.507
 20
569.052
  0
VERTEX
100
AcDbVertex
100
AcDb2dVertex
  8
0
 10
352.476
 20
570.084
  0
VERTEX
100
AcDbVertex
100
AcDb2dVertex
  8
0
 10
354.347
 20
571.284
  0
VERTEX
100
AcDbVertex
100
AcDb2dVertex
  8
0
 10
356.605
 20
573.022
  0
VERTEX
100
AcDbVertex
100
AcDb2dVertex
  8
0
 10
358.781
 20
575.016
  0
VERTEX
100
AcDbVertex
100
AcDb2dVertex
  8
0
 10
360.074
 20
576.361
  0
VERTEX
100
AcDbVertex
100
AcDb2dVertex
  8
0
 10
362.75
 20
579.522
  0
VERTEX
100
AcDbVertex
100
AcDb2dVertex
  8
0
 10
365.14
 20
582.904
  0
VERTEX
100
AcDbVertex
100
AcDb2dVertex
  8
0
 10
367.226
 20
586.481
  0
VERTEX
100
AcDbVertex
100
AcDb2dVertex
  8
0
 10
368.992
 20
590.227
  0
VERTEX
100
AcDbVertex
100
AcDb2dVertex
  8
0
 10
370.425
 20
594.112
  0
VERTEX
100
AcDbVertex
100
AcDb2dVertex
  8
0
 10
370.548
 20
594.499
  0
VERTEX
100
AcDbVertex
100
AcDb2dVertex
  8
0
 10
374.635
 20
609.627
  0
VERTEX
100
AcDbVertex
100
AcDb2dVertex
  8
0
 10
377.387
 20
625.053
  0
VERTEX
100
AcDbVertex
100
AcDb2dVertex
  8
0
 10
379.028
 20
641.733
  0
VERTEX
100
AcDbVertex
100
AcDb2dVertex
  8
0
 10
379.436
 20
662.676
  0
SEQEND
  0
POLYLINE
100
AcDb2dPolyline
  8
0
 66
   1
 70
   1
 40
0.0
 41
0.0
  0
VERTEX
100
AcDbVertex
100
AcDb2dVertex
  8
0
 10
465.751
 20
676.95
  0
VERTEX
100
AcDbVertex
100
AcDb2dVertex
  8
0
 10
464.781
 20
676.932
  0
VERTEX
100
AcDbVertex
100
AcDb2dVertex
  8
0
 10
462.931
 20
676.774
  0
VERTEX
100
AcDbVertex
100
AcDb2dVertex
  8
0
 10
461.102
 20
676.456
  0
VERTEX
100
AcDbVertex
100
AcDb2dVertex
  8
0
 10
459.733
 20
676.097
  0
VERTEX
100
AcDbVertex
100
AcDb2dVertex
  8
0
 10
458.301
 20
675.589
  0
VERTEX
100
AcDbVertex
100
AcDb2dVertex
  8
0
 10
456.919
 20
674.959
  0
VERTEX
100
AcDbVertex
100
AcDb2dVertex
  8
0
 10
456.151
 20
674.551
  0
VERTEX
100
AcDbVertex
100
AcDb2dVertex
  8
0
 10
454.233
 20
673.377
  0
VERTEX
100
AcDbVertex
100
AcDb2dVertex
  8
0
 10
452.426
 20
672.041
  0
VERTEX
100
AcDbVertex
100
AcDb2dVertex
  8
0
 10
450.741
 20
670.553
  0
VERTEX
100
AcDbVertex
100
AcDb2dVertex
  8
0
 10
449.765
 20
669.58
  0
VERTEX
100
AcDbVertex
100
AcDb2dVertex
  8
0
 10
447.379
 20
666.894
  0
VERTEX
100
AcDbVertex
100
AcDb2dVertex
  8
0
 10
445.236
 20
664.01
  0
VERTEX
100
AcDbVertex
100
AcDb2dVertex
  8
0
 10
444.889
 20
663.491
  0
VERTEX
100
AcDbVertex
100
AcDb2dVertex
  8
0
 10
442.61
 20
659.684
  0
VERTEX
100
AcDbVertex
100
AcDb2dVertex
  8
0
 10
440.671
 20
655.694
  0
VERTEX
100
AcDbVertex
100
AcDb2dVertex
  8
0
 10
439.116
 20
651.784
  0
VERTEX
100
AcDbVertex
100
AcDb2dVertex
  8
0
 10
437.298
 20
646
  0
VERTEX
100
AcDbVertex
100
AcDb2dVertex
  8
0
 10
437.139
 20
645.385
  0
VERTEX
100
AcDbVertex
100
AcDb2dVertex
  8
0
 10
436.359
 20
641.595
  0
VERTEX
100
AcDbVertex
100
AcDb2dVertex
  8
0
 10
435.913
 20
637.752
  0
VERTEX
100
AcDbVertex
100
AcDb2dVertex
  8
0
 10
435.59
 20
626.772
  0
VERTEX
100
AcDbVertex
100
AcDb2dVertex
  8
0
 10
436.212
 20
615.646
  0
VERTEX
100
AcDbVertex
100
AcDb2dVertex
  8
0
 10
436.78
 20
611.513
  0
VERTEX
100
AcDbVertex
100
AcDb2dVertex
  8
0
 10
437.813
 20
606.856
  0
VERTEX
100
AcDbVertex
100
AcDb2dVertex
  8
0
 10
439.682
 20
600.93
  0
VERTEX
100
AcDbVertex
100
AcDb2dVertex
  8
0
 10
442.071
 20
595.159
  0
VERTEX
100
AcDbVertex
100
AcDb2dVertex
  8
0
 10
444.954
 20
589.618
  0
VERTEX
100
AcDbVertex
100
AcDb2dVertex
  8
0
 10
445.308
 20
589.019
  0
VERTEX
100
AcDbVertex
100
AcDb2dVertex
  8
0
 10
446.949
 20
586.555
  0
VERTEX
100
AcDbVertex
100
AcDb2dVertex
  8
0
 10
448.798
 20
584.245
  0
VERTEX
100
AcDbVertex
100
AcDb2dVertex
  8
0
 10
450.842
 20
582.104
  0
VERTEX
100
AcDbVertex
100
AcDb2dVertex
  8
0
 10
453.064
 20
580.149
  0
VERTEX
100
AcDbVertex
100
AcDb2dVertex
  8
0
 10
455.448
 20
578.396
  0
VERTEX
100
AcDbVertex
100
AcDb2dVertex
  8
0
 10
456.237
 20
577.889
  0
VERTEX
100
AcDbVertex
100
AcDb2dVertex
  8
0
 10
458.069
 20
576.869
  0
VERTEX
100
AcDbVertex
100
AcDb2dVertex
  8
0
 10
459.983
 20
576.013
  0
VERTEX
100
AcDbVertex
100
AcDb2dVertex
  8
0
 10
461.965
 20
575.327
  0
VERTEX
100
AcDbVertex
100
AcDb2dVertex
  8
0
 10
463.999
 20
574.816
  0
VERTEX
100
AcDbVertex
100
AcDb2dVertex
  8
0
 10
466.069
 20
574.484
  0
VERTEX
100
AcDbVertex
100
AcDb2dVertex
  8
0
 10
468.161
 20
574.334
  0
VERTEX
100
AcDbVertex
100
AcDb2dVertex
  8
0
 10
469.88
 20
574.338
  0
VERTEX
100
AcDbVertex
100
AcDb2dVertex
  8
0
 10
472.348
 20
574.527
  0
VERTEX
100
AcDbVertex
100
AcDb2dVertex
  8
0
 10
474.79
 20
574.93
  0
VERTEX
100
AcDbVertex
100
AcDb2dVertex
  8
0
 10
477.188
 20
575.544
  0
VERTEX
100
AcDbVertex
100
AcDb2dVertex
  8
0
 10
479.523
 20
576.366
  0
VERTEX
100
AcDbVertex
100
AcDb2dVertex
  8
0
 10
481.777
 20
577.387
  0
VERTEX
100
AcDbVertex
100
AcDb2dVertex
  8
0
 10
481.983
 20
577.492
  0
VERTEX
100
AcDbVertex
100
AcDb2dVertex
  8
0
 10
484.649
 20
579.016
  0
VERTEX
100
AcDbVertex
100
AcDb2dVertex
  8
0
 10
487.172
 20
580.766
  0
VERTEX
100
AcDbVertex
100
AcDb2dVertex
  8
0
 10
488.287
 20
581.631
  0
VERTEX
100
AcDbVertex
100
AcDb2dVertex
  8
0
 10
492.969
 20
585.686
  0
VERTEX
100
AcDbVertex
100
AcDb2dVertex
  8
0
 10
493.718
 20
586.404
  0
VERTEX
100
AcDbVertex
100
AcDb2dVertex
  8
0
 10
497.886
 20
590.834
  0
VERTEX
100
AcDbVertex
100
AcDb2dVertex
  8
0
 10
498.198
 20
591.213
  0
VERTEX
100
AcDbVertex
100
AcDb2dVertex
  8
0
 10
498.774
 20
592.012
  0
VERTEX
100
AcDbVertex
100
AcDb2dVertex
  8
0
 10
499.277
 20
592.857
  0
VERTEX
100
AcDbVertex
100
AcDb2dVertex
  8
0
 10
499.705
 20
593.744
  0
VERTEX
100
AcDbVertex
100
AcDb2dVertex
  8
0
 10
500.054
 20
594.664
  0
VERTEX
100
AcDbVertex
100
AcDb2dVertex
  8
0
 10
500.397
 20
595.814
  0
VERTEX
100
AcDbVertex
100
AcDb2dVertex
  8
0
 10
500.789
 20
597.586
  0
VERTEX
100
AcDbVertex
100
AcDb2dVertex
  8
0
 10
501.024
 20
599.385
  0
VERTEX
100
AcDbVertex
100
AcDb2dVertex
  8
0
 10
501.102
 20
601.198
  0
VERTEX
100
AcDbVertex
100
AcDb2dVertex
  8
0
 10
500.79
 20
615.097
  0
VERTEX
100
AcDbVertex
100
AcDb2dVertex
  8
0
 10
499.799
 20
629.182
  0
VERTEX
100
AcDbVertex
100
AcDb2dVertex
  8
0
 10
499.192
 20
633.621
  0
VERTEX
100
AcDbVertex
100
AcDb2dVertex
  8
0
 10
498.118
 20
638.446
  0
VERTEX
100
AcDbVertex
100
AcDb2dVertex
  8
0
 10
496.637
 20
643.364
  0
VERTEX
100
AcDbVertex
100
AcDb2dVertex
  8
0
 10
493.946
 20
650.388
  0
VERTEX
100
AcDbVertex
100
AcDb2dVertex
  8
0
 10
491.53
 20
655.441
  0
VERTEX
100
AcDbVertex
100
AcDb2dVertex
  8
0
 10
488.168
 20
661.23
  0
VERTEX
100
AcDbVertex
100
AcDb2dVertex
  8
0
 10
488.129
 20
661.29
  0
VERTEX
100
AcDbVertex
100
AcDb2dVertex
  8
0
 10
485.015
 20
665.704
  0
VERTEX
100
AcDbVertex
100
AcDb2dVertex
  8
0
 10
481.527
 20
669.829
  0
VERTEX
100
AcDbVertex
100
AcDb2dVertex
  8
0
 10
481.263
 20
670.11
  0
VERTEX
100
AcDbVertex
100
AcDb2dVertex
  8
0
 10
479.804
 20
671.512
  0
VERTEX
100
AcDbVertex
100
AcDb2dVertex
  8
0
 10
478.227
 20
672.78
  0
VERTEX
100
AcDbVertex
100
AcDb2dVertex
  8
0
 10
476.547
 20
673.907
  0
VERTEX
100
AcDbVertex
100
AcDb2dVertex
  8
0
 10
474.774
 20
674.883
  0
VERTEX
100
AcDbVertex
100
AcDb2dVertex
  8
0
 10
473.663
 20
675.39
  0
VERTEX
100
AcDbVertex
100
AcDb2dVertex
  8
0
 10
472.078
 20
675.974
  0
VERTEX
100
AcDbVertex
100
AcDb2dVertex
  8
0
 10
470.449
 20
676.417
  0
VERTEX
100
AcDbVertex
100
AcDb2dVertex
  8
0
 10
469.528
 20
676.604
  0
VERTEX
100
AcDbVertex
100
AcDb2dVertex
  8
0
 10
467.647
 20
676.859
  0
VERTEX
100
AcDbVertex
100
AcDb2dVertex
  8
0
 10
465.751
 20
676.95
  0
SEQEND
  0
POLYLINE
100
AcDb2dPolyline
  8
0
 66
   1
 70
   1
 40
0.0
 41
0.0
  0
VERTEX
100
AcDbVertex
100
AcDb2dVertex
  8
0
 10
541.449
 20
592
  0
VERTEX
100
AcDbVertex
100
AcDb2dVertex
  8
0
 10
541.38
 20
601.78
  0
VERTEX
100
AcDbVertex
100
AcDb2dVertex
  8
0
 10
541.062
 20
608.224
  0
VERTEX
100
AcDbVertex
100
AcDb2dVertex
  8
0
 10
540.38
 20
613.714
  0
VERTEX
100
AcDbVertex
100
AcDb2dVertex
  8
0
 10
539.155
 20
620
  0
VERTEX
100
AcDbVertex
100
AcDb2dVertex
  8
0
 10
539.118
 20
620.166
  0
VERTEX
100
AcDbVertex
100
AcDb2dVertex
  8
0
 10
534.637
 20
636.735
  0
VERTEX
100
AcDbVertex
100
AcDb2dVertex
  8
0
 10
528.593
 20
653.317
  0
VERTEX
100
AcDbVertex
100
AcDb2dVertex
  8
0
 10
521.577
 20
668.424
  0
VERTEX
100
AcDbVertex
100
AcDb2dVertex
  8
0
 10
519.084
 20
672.954
  0
VERTEX
100
AcDbVertex
100
AcDb2dVertex
  8
0
 10
514.133
 20
680.657
  0
VERTEX
100
AcDbVertex
100
AcDb2dVertex
  8
0
 10
513.758
 20
681.181
  0
VERTEX
100
AcDbVertex
100
AcDb2dVertex
  8
0
 10
511.255
 20
684.323
  0
VERTEX
100
AcDbVertex
100
AcDb2dVertex
  8
0
 10
507.292
 20
688.647
  0
VERTEX
100
AcDbVertex
100
AcDb2dVertex
  8
0
 10
502.558
 20
693.328
  0
VERTEX
100
AcDbVertex
100
AcDb2dVertex
  8
0
 10
497.289
 20
698.111
  0
VERTEX
100
AcDbVertex
100
AcDb2dVertex
  8
0
 10
491.647
 20
703.162
  0
VERTEX
100
AcDbVertex
100
AcDb2dVertex
  8
0
 10
484.262
 20
710.007
  0
VERTEX
100
AcDbVertex
100
AcDb2dVertex
  8
0
 10
476.486
 20
717.367
  0
VERTEX
100
AcDbVertex
100
AcDb2dVertex
  8
0
 10
469.497
 20
724.146
  0
VERTEX
100
AcDbVertex
100
AcDb2dVertex
  8
0
 10
453.686
 20
740.798
  0
VERTEX
100
AcDbVertex
100
AcDb2dVertex
  8
0
 10
451.662
 20
743.293
  0
VERTEX
100
AcDbVertex
100
AcDb2dVertex
  8
0
 10
449.863
 20
745.956
  0
VERTEX
100
AcDbVertex
100
AcDb2dVertex
  8
0
 10
448.303
 20
748.764
  0
VERTEX
100
AcDbVertex
100
AcDb2dVertex
  8
0
 10
447.012
 20
751.653
  0
VERTEX
100
AcDbVertex
100
AcDb2dVertex
  8
0
 10
445.875
 20
754.932
  0
VERTEX
100
AcDbVertex
100
AcDb2dVertex
  8
0
 10
445.028
 20
758.298
  0
VERTEX
100
AcDbVertex
100
AcDb2dVertex
  8
0
 10
444.478
 20
761.725
  0
VERTEX
100
AcDbVertex
100
AcDb2dVertex
  8
0
 10
444.258
 20
764.401
  0
VERTEX
100
AcDbVertex
100
AcDb2dVertex
  8
0
 10
443.788
 20
789
  0
VERTEX
100
AcDbVertex
100
AcDb2dVertex
  8
0
 10
443.839
 20
799.043
  0
VERTEX
100
AcDbVertex
100
AcDb2dVertex
  8
0
 10
443.786
 20
808.119
  0
VERTEX
100
AcDbVertex
100
AcDb2dVertex
  8
0
 10
443.659
 20
815.73
  0
VERTEX
100
AcDbVertex
100
AcDb2dVertex
  8
0
 10
443.614
 20
816.69
  0
VERTEX
100
AcDbVertex
100
AcDb2dVertex
  8
0
 10
443.427
 20
818.277
  0
VERTEX
100
AcDbVertex
100
AcDb2dVertex
  8
0
 10
443.417
 20
818.338
  0
VERTEX
100
AcDbVertex
100
AcDb2dVertex
  8
0
 10
443.185
 20
819.432
  0
VERTEX
100
AcDbVertex
100
AcDb2dVertex
  8
0
 10
442.858
 20
820.503
  0
VERTEX
100
AcDbVertex
100
AcDb2dVertex
  8
0
 10
442.439
 20
821.541
  0
VERTEX
100
AcDbVertex
100
AcDb2dVertex
  8
0
 10
441.931
 20
822.538
  0
VERTEX
100
AcDbVertex
100
AcDb2dVertex
  8
0
 10
441.771
 20
822.817
  0
VERTEX
100
AcDbVertex
100
AcDb2dVertex
  8
0
 10
440.336
 20
825.062
  0
VERTEX
100
AcDbVertex
100
AcDb2dVertex
  8
0
 10
438.711
 20
827.174
  0
VERTEX
100
AcDbVertex
100
AcDb2dVertex
  8
0
 10
438.618
 20
827.284
  0
VERTEX
100
AcDbVertex
100
AcDb2dVertex
  8
0
 10
436.636
 20
829.422
  0
VERTEX
100
AcDbVertex
100
AcDb2dVertex
  8
0
 10
434.476
 20
831.379
  0
VERTEX
100
AcDbVertex
100
AcDb2dVertex
  8
0
 10
433.432
 20
832.197
  0
VERTEX
100
AcDbVertex
100
AcDb2dVertex
  8
0
 10
431.705
 20
833.362
  0
VERTEX
100
AcDbVertex
100
AcDb2dVertex
  8
0
 10
429.882
 20
834.372
  0
VERTEX
100
AcDbVertex
100
AcDb2dVertex
  8
0
 10
427.712
 20
835.377
  0
VERTEX
100
AcDbVertex
100
AcDb2dVertex
  8
0
 10
425.553
 20
836.226
  0
VERTEX
100
AcDbVertex
100
AcDb2dVertex
  8
0
 10
423.671
 20
836.837
  0
VERTEX
100
AcDbVertex
100
AcDb2dVertex
  8
0
 10
423.578
 20
836.863
  0
VERTEX
100
AcDbVertex
100
AcDb2dVertex
  8
0
 10
423.241
 20
836.936
  0
VERTEX
100
AcDbVertex
100
AcDb2dVertex
  8
0
 10
422.899
 20
836.98
  0
VERTEX
100
AcDbVertex
100
AcDb2dVertex
  8
0
 10
422.554
 20
836.994
  0
VERTEX
100
AcDbVertex
100
AcDb2dVertex
  8
0
 10
421.818
 20
836.974
  0
VERTEX
100
AcDbVertex
100
AcDb2dVertex
  8
0
 10
420.519
 20
836.85
  0
VERTEX
100
AcDbVertex
100
AcDb2dVertex
  8
0
 10
419.237
 20
836.613
  0
VERTEX
100
AcDbVertex
100
AcDb2dVertex
  8
0
 10
417.514
 20
836.139
  0
VERTEX
100
AcDbVertex
100
AcDb2dVertex
  8
0
 10
415.754
 20
835.49
  0
VERTEX
100
AcDbVertex
100
AcDb2dVertex
  8
0
 10
414.14
 20
834.743
  0
VERTEX
100
AcDbVertex
100
AcDb2dVertex
  8
0
 10
412.308
 20
833.708
  0
VERTEX
100
AcDbVertex
100
AcDb2dVertex
  8
0
 10
410.926
 20
832.784
  0
VERTEX
100
AcDbVertex
100
AcDb2dVertex
  8
0
 10
409.105
 20
831.358
  0
VERTEX
100
AcDbVertex
100
AcDb2dVertex
  8
0
 10
407.116
 20
829.524
  0
VERTEX
100
AcDbVertex
100
AcDb2dVertex
  8
0
 10
404.944
 20
827.172
  0
VERTEX
100
AcDbVertex
100
AcDb2dVertex
  8
0
 10
402.986
 20
824.639
  0
VERTEX
100
AcDbVertex
100
AcDb2dVertex
  8
0
 10
402.3
 20
823.62
  0
VERTEX
100
AcDbVertex
100
AcDb2dVertex
  8
0
 10
401.083
 20
821.527
  0
VERTEX
100
AcDbVertex
100
AcDb2dVertex
  8
0
 10
400.052
 20
819.335
  0
VERTEX
100
AcDbVertex
100
AcDb2dVertex
  8
0
 10
399.217
 20
817.062
  0
VERTEX
100
AcDbVertex
100
AcDb2dVertex
  8
0
 10
398.436
 20
814.255
  0
VERTEX
100
AcDbVertex
100
AcDb2dVertex
  8
0
 10
397.787
 20
810.894
  0
VERTEX
100
AcDbVertex
100
AcDb2dVertex
  8
0
 10
397.434
 20
807.49
  0
VERTEX
100
AcDbVertex
100
AcDb2dVertex
  8
0
 10
397.312
 20
805.036
  0
VERTEX
100
AcDbVertex
100
AcDb2dVertex
  8
0
 10
397.358
 20
794.5
  0
VERTEX
100
AcDbVertex
100
AcDb2dVertex
  8
0
 10
397.702
 20
788.793
  0
VERTEX
100
AcDbVertex
100
AcDb2dVertex
  8
0
 10
398.223
 20
782.381
  0
VERTEX
100
AcDbVertex
100
AcDb2dVertex
  8
0
 10
398.828
 20
776.254
  0
VERTEX
100
AcDbVertex
100
AcDb2dVertex
  8
0
 10
399.428
 20
771.5
  0
VERTEX
100
AcDbVertex
100
AcDb2dVertex
  8
0
 10
402.721
 20
743.207
  0
VERTEX
100
AcDbVertex
100
AcDb2dVertex
  8
0
 10
404.857
 20
711.669
  0
VERTEX
100
AcDbVertex
100
AcDb2dVertex
  8
0
 10
405.961
 20
674.903
  0
VERTEX
100
AcDbVertex
100
AcDb2dVertex
  8
0
 10
406.092
 20
630.5
  0
VERTEX
100
AcDbVertex
100
AcDb2dVertex
  8
0
 10
405.658
 20
564.182
  0
VERTEX
100
AcDbVertex
100
AcDb2dVertex
  8
0
 10
405.677
 20
544.404
  0
VERTEX
100
AcDbVertex
100
AcDb2dVertex
  8
0
 10
405.984
 20
534.15
  0
VERTEX
100
AcDbVertex
100
AcDb2dVertex
  8
0
 10
406.093
 20
532.785
  0
VERTEX
100
AcDbVertex
100
AcDb2dVertex
  8
0
 10
406.414
 20
530.683
  0
VERTEX
100
AcDbVertex
100
AcDb2dVertex
  8
0
 10
406.917
 20
528.616
  0
VERTEX
100
AcDbVertex
100
AcDb2dVertex
  8
0
 10
407.198
 20
527.739
  0
VERTEX
100
AcDbVertex
100
AcDb2dVertex
  8
0
 10
407.743
 20
526.378
  0
VERTEX
100
AcDbVertex
100
AcDb2dVertex
  8
0
 10
407.911
 20
526.014
  0
VERTEX
100
AcDbVertex
100
AcDb2dVertex
  8
0
 10
408.962
 20
524.014
  0
VERTEX
100
AcDbVertex
100
AcDb2dVertex
  8
0
 10
409.16
 20
523.68
  0
VERTEX
100
AcDbVertex
100
AcDb2dVertex
  8
0
 10
410.431
 20
521.764
  0
VERTEX
100
AcDbVertex
100
AcDb2dVertex
  8
0
 10
410.932
 20
521.106
  0
VERTEX
100
AcDbVertex
100
AcDb2dVertex
  8
0
 10
412.013
 20
519.866
  0
VERTEX
100
AcDbVertex
100
AcDb2dVertex
  8
0
 10
414.152
 20
517.797
  0
VERTEX
100
AcDbVertex
100
AcDb2dVertex
  8
0
 10
414.201
 20
517.754
  0
VERTEX
100
AcDbVertex
100
AcDb2dVertex
  8
0
 10
414.697
 20
517.357
  0
VERTEX
100
AcDbVertex
100
AcDb2dVertex
  8
0
 10
415.226
 20
517.005
  0
VERTEX
100
AcDbVertex
100
AcDb2dVertex
  8
0
 10
415.784
 20
516.7
  0
VERTEX
100
AcDbVertex
100
AcDb2dVertex
  8
0
 10
416.063
 20
516.572
  0
VERTEX
100
AcDbVertex
100
AcDb2dVertex
  8
0
 10
416.533
 20
516.395
  0
VERTEX
100
AcDbVertex
100
AcDb2dVertex
  8
0
 10
417.016
 20
516.26
  0
VERTEX
100
AcDbVertex
100
AcDb2dVertex
  8
0
 10
417.509
 20
516.168
  0
VERTEX
100
AcDbVertex
100
AcDb2dVertex
  8
0
 10
418.414
 20
516.064
  0
VERTEX
100
AcDbVertex
100
AcDb2dVertex
  8
0
 10
419.885
 20
516
  0
VERTEX
100
AcDbVertex
100
AcDb2dVertex
  8
0
 10
420.141
 20
516.002
  0
VERTEX
100
AcDbVertex
100
AcDb2dVertex
  8
0
 10
421.471
 20
516.083
  0
VERTEX
100
AcDbVertex
100
AcDb2dVertex
  8
0
 10
422.789
 20
516.279
  0
VERTEX
100
AcDbVertex
100
AcDb2dVertex
  8
0
 10
424.085
 20
516.589
  0
VERTEX
100
AcDbVertex
100
AcDb2dVertex
  8
0
 10
424.622
 20
516.749
  0
VERTEX
100
AcDbVertex
100
AcDb2dVertex
  8
0
 10
426.603
 20
517.462
  0
VERTEX
100
AcDbVertex
100
AcDb2dVertex
  8
0
 10
428.514
 20
518.345
  0
VERTEX
100
AcDbVertex
100
AcDb2dVertex
  8
0
 10
430.663
 20
519.538
  0
VERTEX
100
AcDbVertex
100
AcDb2dVertex
  8
0
 10
433.615
 20
521.475
  0
VERTEX
100
AcDbVertex
100
AcDb2dVertex
  8
0
 10
439.958
 20
526.357
  0
VERTEX
100
AcDbVertex
100
AcDb2dVertex
  8
0
 10
447.576
 20
532.076
  0
VERTEX
100
AcDbVertex
100
AcDb2dVertex
  8
0
 10
448.611
 20
532.776
  0
VERTEX
100
AcDbVertex
100
AcDb2dVertex
  8
0
 10
450.709
 20
534.049
  0
VERTEX
100
AcDbVertex
100
AcDb2dVertex
  8
0
 10
452.91
 20
535.134
  0
VERTEX
100
AcDbVertex
100
AcDb2dVertex
  8
0
 10
455.197
 20
536.023
  0
VERTEX
100
AcDbVertex
100
AcDb2dVertex
  8
0
 10
455.432
 20
536.102
  0
VERTEX
100
AcDbVertex
100
AcDb2dVertex
  8
0
 10
456.818
 20
536.493
  0
VERTEX
100
AcDbVertex
100
AcDb2dVertex
  8
0
 10
458.233
 20
536.761
  0
VERTEX
100
AcDbVertex
100
AcDb2dVertex
  8
0
 10
459.665
 20
536.905
  0
VERTEX
100
AcDbVertex
100
AcDb2dVertex
  8
0
 10
461.105
 20
536.923
  0
VERTEX
100
AcDbVertex
100
AcDb2dVertex
  8
0
 10
461.509
 20
536.906
  0
VERTEX
100
AcDbVertex
100
AcDb2dVertex
  8
0
 10
463.13
 20
536.745
  0
VERTEX
100
AcDbVertex
100
AcDb2dVertex
  8
0
 10
464.731
 20
536.444
  0
VERTEX
100
AcDbVertex
100
AcDb2dVertex
  8
0
 10
466.3
 20
536.004
  0
VERTEX
100
AcDbVertex
100
AcDb2dVertex
  8
0
 10
467.677
 20
535.491
  0
VERTEX
100
AcDbVertex
100
AcDb2dVertex
  8
0
 10
468.909
 20
534.911
  0
VERTEX
100
AcDbVertex
100
AcDb2dVertex
  8
0
 10
469.65
 20
534.496
  0
VERTEX
100
AcDbVertex
100
AcDb2dVertex
  8
0
 10
473.05
 20
532.406
  0
VERTEX
100
AcDbVertex
100
AcDb2dVertex
  8
0
 10
476.952
 20
529.851
  0
VERTEX
100
AcDbVertex
100
AcDb2dVertex
  8
0
 10
480.895
 20
527.11
  0
VERTEX
100
AcDbVertex
100
AcDb2dVertex
  8
0
 10
488.148
 20
522.108
  0
VERTEX
100
AcDbVertex
100
AcDb2dVertex
  8
0
 10
493.761
 20
518.7
  0
VERTEX
100
AcDbVertex
100
AcDb2dVertex
  8
0
 10
494.419
 20
518.343
  0
VERTEX
100
AcDbVertex
100
AcDb2dVertex
  8
0
 10
498.09
 20
516.591
  0
VERTEX
100
AcDbVertex
100
AcDb2dVertex
  8
0
 10
498.453
 20
516.448
  0
VERTEX
100
AcDbVertex
100
AcDb2dVertex
  8
0
 10
499.071
 20
516.253
  0
VERTEX
100
AcDbVertex
100
AcDb2dVertex
  8
0
 10
499.703
 20
516.113
  0
VERTEX
100
AcDbVertex
100
AcDb2dVertex
  8
0
 10
500.345
 20
516.028
  0
VERTEX
100
AcDbVertex
100
AcDb2dVertex
  8
0
 10
500.992
 20
516
  0
VERTEX
100
AcDbVertex
100
AcDb2dVertex
  8
0
 10
501.079
 20
516
  0
VERTEX
100
AcDbVertex
100
AcDb2dVertex
  8
0
 10
502.368
 20
516.064
  0
VERTEX
100
AcDbVertex
100
AcDb2dVertex
  8
0
 10
503.646
 20
516.24
  0
VERTEX
100
AcDbVertex
100
AcDb2dVertex
  8
0
 10
504.904
 20
516.527
  0
VERTEX
100
AcDbVertex
100
AcDb2dVertex
  8
0
 10
506.132
 20
516.922
  0
VERTEX
100
AcDbVertex
100
AcDb2dVertex
  8
0
 10
507.322
 20
517.422
  0
VERTEX
100
AcDbVertex
100
AcDb2dVertex
  8
0
 10
508.463
 20
518.025
  0
VERTEX
100
AcDbVertex
100
AcDb2dVertex
  8
0
 10
509.547
 20
518.725
  0
VERTEX
100
AcDbVertex
100
AcDb2dVertex
  8
0
 10
510.566
 20
519.516
  0
VERTEX
100
AcDbVertex
100
AcDb2dVertex
  8
0
 10
512.969
 20
521.652
  0
VERTEX
100
AcDbVertex
100
AcDb2dVertex
  8
0
 10
517.326
 20
526.074
  0
VERTEX
100
AcDbVertex
100
AcDb2dVertex
  8
0
 10
521.281
 20
530.859
  0
VERTEX
100
AcDbVertex
100
AcDb2dVertex
  8
0
 10
522.256
 20
532.171
  0
VERTEX
100
AcDbVertex
100
AcDb2dVertex
  8
0
 10
527.084
 20
539.428
  0
VERTEX
100
AcDbVertex
100
AcDb2dVertex
  8
0
 10
531.262
 20
547.079
  0
VERTEX
100
AcDbVertex
100
AcDb2dVertex
  8
0
 10
534.953
 20
555.31
  0
VERTEX
100
AcDbVertex
100
AcDb2dVertex
  8
0
 10
538.773
 20
566
  0
VERTEX
100
AcDbVertex
100
AcDb2dVertex
  8
0
 10
540.236
 20
571.402
  0
VERTEX
100
AcDbVertex
100
AcDb2dVertex
  8
0
 10
540.534
 20
572.802
  0
VERTEX
100
AcDbVertex
100
AcDb2dVertex
  8
0
 10
540.993
 20
575.917
  0
VERTEX
100
AcDbVertex
100
AcDb2dVertex
  8
0
 10
541.337
 20
581.59
  0
VERTEX
100
AcDbVertex
100
AcDb2dVertex
  8
0
 10
541.449
 20
592
  0
SEQEND
  0
POLYLINE
100
AcDb2dPolyline
  8
0
 66
   1
 70
   1
 40
0.0
 41
0.0
  0
VERTEX
100
AcDbVertex
100
AcDb2dVertex
  8
0
 10
991.083
 20
876.543
  0
VERTEX
100
AcDbVertex
100
AcDb2dVertex
  8
0
 10
990.951
 20
900.762
  0
VERTEX
100
AcDbVertex
100
AcDb2dVertex
  8
0
 10
990.907
 20
902.176
  0
VERTEX
100
AcDbVertex
100
AcDb2dVertex
  8
0
 10
990.611
 20
905.315
  0
VERTEX
100
AcDbVertex
100
AcDb2dVertex
  8
0
 10
990.042
 20
908.416
  0
VERTEX
100
AcDbVertex
100
AcDb2dVertex
  8
0
 10
989.894
 20
909.036
  0
VERTEX
100
AcDbVertex
100
AcDb2dVertex
  8
0
 10
989.035
 20
911.946
  0
VERTEX
100
AcDbVertex
100
AcDb2dVertex
  8
0
 10
987.926
 20
914.771
  0
VERTEX
100
AcDbVertex
100
AcDb2dVertex
  8
0
 10
987.852
 20
914.934
  0
VERTEX
100
AcDbVertex
100
AcDb2dVertex
  8
0
 10
987.408
 20
915.792
  0
VERTEX
100
AcDbVertex
100
AcDb2dVertex
  8
0
 10
986.891
 20
916.608
  0
VERTEX
100
AcDbVertex
100
AcDb2dVertex
  8
0
 10
986.304
 20
917.376
  0
VERTEX
100
AcDbVertex
100
AcDb2dVertex
  8
0
 10
985.653
 20
918.09
  0
VERTEX
100
AcDbVertex
100
AcDb2dVertex
  8
0
 10
984.942
 20
918.745
  0
VERTEX
100
AcDbVertex
100
AcDb2dVertex
  8
0
 10
984.296
 20
919.255
  0
VERTEX
100
AcDbVertex
100
AcDb2dVertex
  8
0
 10
983.374
 20
919.875
  0
VERTEX
100
AcDbVertex
100
AcDb2dVertex
  8
0
 10
982.402
 20
920.413
  0
VERTEX
100
AcDbVertex
100
AcDb2dVertex
  8
0
 10
981.386
 20
920.863
  0
VERTEX
100
AcDbVertex
100
AcDb2dVertex
  8
0
 10
980.335
 20
921.224
  0
VERTEX
100
AcDbVertex
100
AcDb2dVertex
  8
0
 10
977.424
 20
921.992
  0
VERTEX
100
AcDbVertex
100
AcDb2dVertex
  8
0
 10
972.941
 20
922.833
  0
VERTEX
100
AcDbVertex
100
AcDb2dVertex
  8
0
 10
966.623
 20
923.565
  0
VERTEX
100
AcDbVertex
100
AcDb2dVertex
  8
0
 10
961.053
 20
923.84
  0
VERTEX
100
AcDbVertex
100
AcDb2dVertex
  8
0
 10
961.019
 20
923.84
  0
VERTEX
100
AcDbVertex
100
AcDb2dVertex
  8
0
 10
956.507
 20
923.686
  0
VERTEX
100
AcDbVertex
100
AcDb2dVertex
  8
0
 10
956.258
 20
923.664
  0
VERTEX
100
AcDbVertex
100
AcDb2dVertex
  8
0
 10
955.346
 20
923.53
  0
VERTEX
100
AcDbVertex
100
AcDb2dVertex
  8
0
 10
954.448
 20
923.318
  0
VERTEX
100
AcDbVertex
100
AcDb2dVertex
  8
0
 10
953.573
 20
923.028
  0
VERTEX
100
AcDbVertex
100
AcDb2dVertex
  8
0
 10
952.995
 20
922.792
  0
VERTEX
100
AcDbVertex
100
AcDb2dVertex
  8
0
 10
952.003
 20
922.305
  0
VERTEX
100
AcDbVertex
100
AcDb2dVertex
  8
0
 10
951.058
 20
921.734
  0
VERTEX
100
AcDbVertex
100
AcDb2dVertex
  8
0
 10
950.166
 20
921.082
  0
VERTEX
100
AcDbVertex
100
AcDb2dVertex
  8
0
 10
949.308
 20
920.381
  0
VERTEX
100
AcDbVertex
100
AcDb2dVertex
  8
0
 10
945.938
 20
917.308
  0
VERTEX
100
AcDbVertex
100
AcDb2dVertex
  8
0
 10
945.109
 20
916.465
  0
VERTEX
100
AcDbVertex
100
AcDb2dVertex
  8
0
 10
942.087
 20
913.031
  0
VERTEX
100
AcDbVertex
100
AcDb2dVertex
  8
0
 10
941.255
 20
911.903
  0
VERTEX
100
AcDbVertex
100
AcDb2dVertex
  8
0
 10
940.5
 20
910.672
  0
VERTEX
100
AcDbVertex
100
AcDb2dVertex
  8
0
 10
939.855
 20
909.379
  0
VERTEX
100
AcDbVertex
100
AcDb2dVertex
  8
0
 10
939.648
 20
908.899
  0
VERTEX
100
AcDbVertex
100
AcDb2dVertex
  8
0
 10
938.95
 20
907.002
  0
VERTEX
100
AcDbVertex
100
AcDb2dVertex
  8
0
 10
938.841
 20
906.635
  0
VERTEX
100
AcDbVertex
100
AcDb2dVertex
  8
0
 10
938.658
 20
905.834
  0
VERTEX
100
AcDbVertex
100
AcDb2dVertex
  8
0
 10
938.545
 20
905.02
  0
VERTEX
100
AcDbVertex
100
AcDb2dVertex
  8
0
 10
938.527
 20
904.809
  0
VERTEX
100
AcDbVertex
100
AcDb2dVertex
  8
0
 10
938.497
 20
903.836
  0
VERTEX
100
AcDbVertex
100
AcDb2dVertex
  8
0
 10
938.551
 20
902.864
  0
VERTEX
100
AcDbVertex
100
AcDb2dVertex
  8
0
 10
938.961
 20
899.879
  0
VERTEX
100
AcDbVertex
100
AcDb2dVertex
  8
0
 10
939.627
 20
894.76
  0
VERTEX
100
AcDbVertex
100
AcDb2dVertex
  8
0
 10
939.749
 20
893.051
  0
VERTEX
100
AcDbVertex
100
AcDb2dVertex
  8
0
 10
940.742
 20
874.208
  0
VERTEX
100
AcDbVertex
100
AcDb2dVertex
  8
0
 10
941.702
 20
851.586
  0
VERTEX
100
AcDbVertex
100
AcDb2dVertex
  8
0
 10
942.51
 20
826.5
  0
VERTEX
100
AcDbVertex
100
AcDb2dVertex
  8
0
 10
943.736
 20
788.952
  0
VERTEX
100
AcDbVertex
100
AcDb2dVertex
  8
0
 10
945.054
 20
764.095
  0
VERTEX
100
AcDbVertex
100
AcDb2dVertex
  8
0
 10
946.538
 20
747.002
  0
VERTEX
100
AcDbVertex
100
AcDb2dVertex
  8
0
 10
946.633
 20
746.213
  0
VERTEX
100
AcDbVertex
100
AcDb2dVertex
  8
0
 10
947.051
 20
743.885
  0
VERTEX
100
AcDbVertex
100
AcDb2dVertex
  8
0
 10
947.67
 20
741.601
  0
VERTEX
100
AcDbVertex
100
AcDb2dVertex
  8
0
 10
948.486
 20
739.38
  0
VERTEX
100
AcDbVertex
100
AcDb2dVertex
  8
0
 10
948.878
 20
738.542
  0
VERTEX
100
AcDbVertex
100
AcDb2dVertex
  8
0
 10
949.36
 20
737.708
  0
VERTEX
100
AcDbVertex
100
AcDb2dVertex
  8
0
 10
949.912
 20
736.918
  0
VERTEX
100
AcDbVertex
100
AcDb2dVertex
  8
0
 10
950.531
 20
736.18
  0
VERTEX
100
AcDbVertex
100
AcDb2dVertex
  8
0
 10
951.182
 20
735.526
  0
VERTEX
100
AcDbVertex
100
AcDb2dVertex
  8
0
 10
951.918
 20
734.903
  0
VERTEX
100
AcDbVertex
100
AcDb2dVertex
  8
0
 10
952.706
 20
734.346
  0
VERTEX
100
AcDbVertex
100
AcDb2dVertex
  8
0
 10
953.539
 20
733.86
  0
VERTEX
100
AcDbVertex
100
AcDb2dVertex
  8
0
 10
954.012
 20
733.622
  0
VERTEX
100
AcDbVertex
100
AcDb2dVertex
  8
0
 10
955.152
 20
733.136
  0
VERTEX
100
AcDbVertex
100
AcDb2dVertex
  8
0
 10
956.331
 20
732.75
  0
VERTEX
100
AcDbVertex
100
AcDb2dVertex
  8
0
 10
957.538
 20
732.469
  0
VERTEX
100
AcDbVertex
100
AcDb2dVertex
  8
0
 10
957.826
 20
732.417
  0
VERTEX
100
AcDbVertex
100
AcDb2dVertex
  8
0
 10
960.154
 20
732.111
  0
VERTEX
100
AcDbVertex
100
AcDb2dVertex
  8
0
 10
962.5
 20
732.009
  0
VERTEX
100
AcDbVertex
100
AcDb2dVertex
  8
0
 10
963.456
 20
732.018
  0
VERTEX
100
AcDbVertex
100
AcDb2dVertex
  8
0
 10
968.166
 20
732.309
  0
VERTEX
100
AcDbVertex
100
AcDb2dVertex
  8
0
 10
969.01
 20
732.416
  0
VERTEX
100
AcDbVertex
100
AcDb2dVertex
  8
0
 10
970.774
 20
732.755
  0
VERTEX
100
AcDbVertex
100
AcDb2dVertex
  8
0
 10
972.501
 20
733.247
  0
VERTEX
100
AcDbVertex
100
AcDb2dVertex
  8
0
 10
972.547
 20
733.262
  0
VERTEX
100
AcDbVertex
100
AcDb2dVertex
  8
0
 10
973.721
 20
733.715
  0
VERTEX
100
AcDbVertex
100
AcDb2dVertex
  8
0
 10
974.852
 20
734.269
  0
VERTEX
100
AcDbVertex
100
AcDb2dVertex
  8
0
 10
975.93
 20
734.919
  0
VERTEX
100
AcDbVertex
100
AcDb2dVertex
  8
0
 10
975.957
 20
734.937
  0
VERTEX
100
AcDbVertex
100
AcDb2dVertex
  8
0
 10
976.978
 20
735.685
  0
VERTEX
100
AcDbVertex
100
AcDb2dVertex
  8
0
 10
977.931
 20
736.519
  0
VERTEX
100
AcDbVertex
100
AcDb2dVertex
  8
0
 10
978.807
 20
737.433
  0
VERTEX
100
AcDbVertex
100
AcDb2dVertex
  8
0
 10
978.812
 20
737.439
  0
VERTEX
100
AcDbVertex
100
AcDb2dVertex
  8
0
 10
980.009
 20
738.929
  0
VERTEX
100
AcDbVertex
100
AcDb2dVertex
  8
0
 10
981.071
 20
740.518
  0
VERTEX
100
AcDbVertex
100
AcDb2dVertex
  8
0
 10
981.991
 20
742.194
  0
VERTEX
100
AcDbVertex
100
AcDb2dVertex
  8
0
 10
982.761
 20
743.943
  0
VERTEX
100
AcDbVertex
100
AcDb2dVertex
  8
0
 10
983.376
 20
745.753
  0
VERTEX
100
AcDbVertex
100
AcDb2dVertex
  8
0
 10
984.803
 20
751.257
  0
VERTEX
100
AcDbVertex
100
AcDb2dVertex
  8
0
 10
986.281
 20
759.376
  0
VERTEX
100
AcDbVertex
100
AcDb2dVertex
  8
0
 10
988.334
 20
781.01
  0
VERTEX
100
AcDbVertex
100
AcDb2dVertex
  8
0
 10
990.007
 20
819
  0
VERTEX
100
AcDbVertex
100
AcDb2dVertex
  8
0
 10
990.809
 20
848.52
  0
VERTEX
100
AcDbVertex
100
AcDb2dVertex
  8
0
 10
991.083
 20
876.543
  0
SEQEND
  0
POLYLINE
100
AcDb2dPolyline
  8
0
 66
   1
 70
   1
 40
0.0
 41
0.0
  0
VERTEX
100
AcDbVertex
100
AcDb2dVertex
  8
0
 10
1197.402
 20
878
  0
VERTEX
100
AcDbVertex
100
AcDb2dVertex
  8
0
 10
1197.342
 20
880.058
  0
VERTEX
100
AcDbVertex
100
AcDb2dVertex
  8
0
 10
1196.884
 20
885.11
  0
VERTEX
100
AcDbVertex
100
AcDb2dVertex
  8
0
 10
1196.826
 20
885.532
  0
VERTEX
100
AcDbVertex
100
AcDb2dVertex
  8
0
 10
1195.477
 20
892.827
  0
VERTEX
100
AcDbVertex
100
AcDb2dVertex
  8
0
 10
1195.358
 20
893.334
  0
VERTEX
100
AcDbVertex
100
AcDb2dVertex
  8
0
 10
1193.416
 20
900.183
  0
VERTEX
100
AcDbVertex
100
AcDb2dVertex
  8
0
 10
1192.464
 20
902.772
  0
VERTEX
100
AcDbVertex
100
AcDb2dVertex
  8
0
 10
1190.912
 20
906.173
  0
VERTEX
100
AcDbVertex
100
AcDb2dVertex
  8
0
 10
1190.819
 20
906.353
  0
VERTEX
100
AcDbVertex
100
AcDb2dVertex
  8
0
 10
1189.45
 20
908.735
  0
VERTEX
100
AcDbVertex
100
AcDb2dVertex
  8
0
 10
1187.878
 20
910.989
  0
VERTEX
100
AcDbVertex
100
AcDb2dVertex
  8
0
 10
1186.115
 20
913.097
  0
VERTEX
100
AcDbVertex
100
AcDb2dVertex
  8
0
 10
1186.037
 20
913.183
  0
VERTEX
100
AcDbVertex
100
AcDb2dVertex
  8
0
 10
1182.641
 20
916.576
  0
VERTEX
100
AcDbVertex
100
AcDb2dVertex
  8
0
 10
1178.963
 20
919.66
  0
VERTEX
100
AcDbVertex
100
AcDb2dVertex
  8
0
 10
1175.141
 20
922.408
  0
VERTEX
100
AcDbVertex
100
AcDb2dVertex
  8
0
 10
1169.453
 20
925.887
  0
VERTEX
100
AcDbVertex
100
AcDb2dVertex
  8
0
 10
1168.758
 20
926.269
  0
VERTEX
100
AcDbVertex
100
AcDb2dVertex
  8
0
 10
1157.5
 20
931.793
  0
VERTEX
100
AcDbVertex
100
AcDb2dVertex
  8
0
 10
1142.59
 20
937.9
  0
VERTEX
100
AcDbVertex
100
AcDb2dVertex
  8
0
 10
1124.147
 20
944.669
  0
VERTEX
100
AcDbVertex
100
AcDb2dVertex
  8
0
 10
1105.841
 20
950.844
  0
VERTEX
100
AcDbVertex
100
AcDb2dVertex
  8
0
 10
1091.5
 20
955.03
  0
VERTEX
100
AcDbVertex
100
AcDb2dVertex
  8
0
 10
1090.605
 20
955.261
  0
VERTEX
100
AcDbVertex
100
AcDb2dVertex
  8
0
 10
1080.806
 20
957.291
  0
VERTEX
100
AcDbVertex
100
AcDb2dVertex
  8
0
 10
1076.913
 20
957.797
  0
VERTEX
100
AcDbVertex
100
AcDb2dVertex
  8
0
 10
1071.458
 20
958.093
  0
VERTEX
100
AcDbVertex
100
AcDb2dVertex
  8
0
 10
1071.294
 20
958.094
  0
VERTEX
100
AcDbVertex
100
AcDb2dVertex
  8
0
 10
1067.4
 20
957.952
  0
VERTEX
100
AcDbVertex
100
AcDb2dVertex
  8
0
 10
1063.534
 20
957.47
  0
VERTEX
100
AcDbVertex
100
AcDb2dVertex
  8
0
 10
1062.795
 20
957.333
  0
VERTEX
100
AcDbVertex
100
AcDb2dVertex
  8
0
 10
1060.866
 20
956.852
  0
VERTEX
100
AcDbVertex
100
AcDb2dVertex
  8
0
 10
1058.985
 20
956.205
  0
VERTEX
100
AcDbVertex
100
AcDb2dVertex
  8
0
 10
1057.168
 20
955.397
  0
VERTEX
100
AcDbVertex
100
AcDb2dVertex
  8
0
 10
1056.372
 20
954.976
  0
VERTEX
100
AcDbVertex
100
AcDb2dVertex
  8
0
 10
1055.016
 20
954.134
  0
VERTEX
100
AcDbVertex
100
AcDb2dVertex
  8
0
 10
1053.738
 20
953.178
  0
VERTEX
100
AcDbVertex
100
AcDb2dVertex
  8
0
 10
1052.548
 20
952.114
  0
VERTEX
100
AcDbVertex
100
AcDb2dVertex
  8
0
 10
1051.455
 20
950.95
  0
VERTEX
100
AcDbVertex
100
AcDb2dVertex
  8
0
 10
1050.469
 20
949.695
  0
VERTEX
100
AcDbVertex
100
AcDb2dVertex
  8
0
 10
1049.595
 20
948.359
  0
VERTEX
100
AcDbVertex
100
AcDb2dVertex
  8
0
 10
1048.841
 20
946.952
  0
VERTEX
100
AcDbVertex
100
AcDb2dVertex
  8
0
 10
1048.212
 20
945.485
  0
VERTEX
100
AcDbVertex
100
AcDb2dVertex
  8
0
 10
1047.508
 20
943.395
  0
VERTEX
100
AcDbVertex
100
AcDb2dVertex
  8
0
 10
1046.858
 20
940.802
  0
VERTEX
100
AcDbVertex
100
AcDb2dVertex
  8
0
 10
1046.436
 20
938.162
  0
VERTEX
100
AcDbVertex
100
AcDb2dVertex
  8
0
 10
1046.246
 20
935.495
  0
VERTEX
100
AcDbVertex
100
AcDb2dVertex
  8
0
 10
1046.29
 20
932.821
  0
VERTEX
100
AcDbVertex
100
AcDb2dVertex
  8
0
 10
1046.566
 20
930.162
  0
VERTEX
100
AcDbVertex
100
AcDb2dVertex
  8
0
 10
1046.956
 20
927.685
  0
VERTEX
100
AcDbVertex
100
AcDb2dVertex
  8
0
 10
1049.515
 20
915.59
  0
VERTEX
100
AcDbVertex
100
AcDb2dVertex
  8
0
 10
1053.118
 20
903.764
  0
VERTEX
100
AcDbVertex
100
AcDb2dVertex
  8
0
 10
1072.717
 20
850.5
  0
VERTEX
100
AcDbVertex
100
AcDb2dVertex
  8
0
 10
1092.313
 20
798.961
  0
VERTEX
100
AcDbVertex
100
AcDb2dVertex
  8
0
 10
1102.232
 20
771.504
  0
VERTEX
100
AcDbVertex
100
AcDb2dVertex
  8
0
 10
1107.722
 20
754.216
  0
VERTEX
100
AcDbVertex
100
AcDb2dVertex
  8
0
 10
1108.842
 20
749.615
  0
VERTEX
100
AcDbVertex
100
AcDb2dVertex
  8
0
 10
1109.557
 20
744.934
  0
VERTEX
100
AcDbVertex
100
AcDb2dVertex
  8
0
 10
1109.703
 20
743.382
  0
VERTEX
100
AcDbVertex
100
AcDb2dVertex
  8
0
 10
1109.917
 20
739.559
  0
VERTEX
100
AcDbVertex
100
AcDb2dVertex
  8
0
 10
1109.902
 20
738.145
  0
VERTEX
100
AcDbVertex
100
AcDb2dVertex
  8
0
 10
1109.804
 20
737.047
  0
VERTEX
100
AcDbVertex
100
AcDb2dVertex
  8
0
 10
1109.671
 20
736.256
  0
VERTEX
100
AcDbVertex
100
AcDb2dVertex
  8
0
 10
1109.469
 20
735.479
  0
VERTEX
100
AcDbVertex
100
AcDb2dVertex
  8
0
 10
1109.339
 20
735.086
  0
VERTEX
100
AcDbVertex
100
AcDb2dVertex
  8
0
 10
1108.976
 20
734.192
  0
VERTEX
100
AcDbVertex
100
AcDb2dVertex
  8
0
 10
1108.536
 20
733.333
  0
VERTEX
100
AcDbVertex
100
AcDb2dVertex
  8
0
 10
1108.444
 20
733.174
  0
VERTEX
100
AcDbVertex
100
AcDb2dVertex
  8
0
 10
1108.006
 20
732.502
  0
VERTEX
100
AcDbVertex
100
AcDb2dVertex
  8
0
 10
1107.511
 20
731.87
  0
VERTEX
100
AcDbVertex
100
AcDb2dVertex
  8
0
 10
1106.964
 20
731.284
  0
VERTEX
100
AcDbVertex
100
AcDb2dVertex
  8
0
 10
1106.367
 20
730.748
  0
VERTEX
100
AcDbVertex
100
AcDb2dVertex
  8
0
 10
1105.725
 20
730.266
  0
VERTEX
100
AcDbVertex
100
AcDb2dVertex
  8
0
 10
1105.044
 20
729.841
  0
VERTEX
100
AcDbVertex
100
AcDb2dVertex
  8
0
 10
1104.329
 20
729.478
  0
VERTEX
100
AcDbVertex
100
AcDb2dVertex
  8
0
 10
1103.585
 20
729.178
  0
VERTEX
100
AcDbVertex
100
AcDb2dVertex
  8
0
 10
1102.817
 20
728.945
  0
VERTEX
100
AcDbVertex
100
AcDb2dVertex
  8
0
 10
1102.678
 20
728.91
  0
VERTEX
100
AcDbVertex
100
AcDb2dVertex
  8
0
 10
1101.063
 20
728.595
  0
VERTEX
100
AcDbVertex
100
AcDb2dVertex
  8
0
 10
1099.427
 20
728.422
  0
VERTEX
100
AcDbVertex
100
AcDb2dVertex
  8
0
 10
1097.782
 20
728.393
  0
VERTEX
100
AcDbVertex
100
AcDb2dVertex
  8
0
 10
1096.14
 20
728.507
  0
VERTEX
100
AcDbVertex
100
AcDb2dVertex
  8
0
 10
1094.515
 20
728.763
  0
VERTEX
100
AcDbVertex
100
AcDb2dVertex
  8
0
 10
1093.92
 20
728.894
  0
VERTEX
100
AcDbVertex
100
AcDb2dVertex
  8
0
 10
1087.057
 20
730.838
  0
VERTEX
100
AcDbVertex
100
AcDb2dVertex
  8
0
 10
1080.39
 20
733.373
  0
VERTEX
100
AcDbVertex
100
AcDb2dVertex
  8
0
 10
1079.407
 20
733.804
  0
VERTEX
100
AcDbVertex
100
AcDb2dVertex
  8
0
 10
1052
 20
746.534
  0
VERTEX
100
AcDbVertex
100
AcDb2dVertex
  8
0
 10
1032.976
 20
755.575
  0
VERTEX
100
AcDbVertex
100
AcDb2dVertex
  8
0
 10
1032.005
 20
756.023
  0
VERTEX
100
AcDbVertex
100
AcDb2dVertex
  8
0
 10
1024.166
 20
759.183
  0
VERTEX
100
AcDbVertex
100
AcDb2dVertex
  8
0
 10
1022.779
 20
759.623
  0
VERTEX
100
AcDbVertex
100
AcDb2dVertex
  8
0
 10
1020.862
 20
760.075
  0
VERTEX
100
AcDbVertex
100
AcDb2dVertex
  8
0
 10
1018.912
 20
760.358
  0
VERTEX
100
AcDbVertex
100
AcDb2dVertex
  8
0
 10
1018.528
 20
760.383
  0
VERTEX
100
AcDbVertex
100
AcDb2dVertex
  8
0
 10
1018.047
 20
760.377
  0
VERTEX
100
AcDbVertex
100
AcDb2dVertex
  8
0
 10
1017.568
 20
760.329
  0
VERTEX
100
AcDbVertex
100
AcDb2dVertex
  8
0
 10
1017.095
 20
760.239
  0
VERTEX
100
AcDbVertex
100
AcDb2dVertex
  8
0
 10
1016.632
 20
760.109
  0
VERTEX
100
AcDbVertex
100
AcDb2dVertex
  8
0
 10
1016.181
 20
759.938
  0
VERTEX
100
AcDbVertex
100
AcDb2dVertex
  8
0
 10
1015.748
 20
759.729
  0
VERTEX
100
AcDbVertex
100
AcDb2dVertex
  8
0
 10
1015.334
 20
759.483
  0
VERTEX
100
AcDbVertex
100
AcDb2dVertex
  8
0
 10
1015.212
 20
759.401
  0
VERTEX
100
AcDbVertex
100
AcDb2dVertex
  8
0
 10
1014.531
 20
758.896
  0
VERTEX
100
AcDbVertex
100
AcDb2dVertex
  8
0
 10
1013.897
 20
758.333
  0
VERTEX
100
AcDbVertex
100
AcDb2dVertex
  8
0
 10
1013.315
 20
757.717
  0
VERTEX
100
AcDbVertex
100
AcDb2dVertex
  8
0
 10
1012.788
 20
757.053
  0
VERTEX
100
AcDbVertex
100
AcDb2dVertex
  8
0
 10
1012.322
 20
756.346
  0
VERTEX
100
AcDbVertex
100
AcDb2dVertex
  8
0
 10
1011.919
 20
755.6
  0
VERTEX
100
AcDbVertex
100
AcDb2dVertex
  8
0
 10
1011.582
 20
754.822
  0
VERTEX
100
AcDbVertex
100
AcDb2dVertex
  8
0
 10
1011.033
 20
753.196
  0
VERTEX
100
AcDbVertex
100
AcDb2dVertex
  8
0
 10
1010.57
 20
751.332
  0
VERTEX
100
AcDbVertex
100
AcDb2dVertex
  8
0
 10
1010.272
 20
749.434
  0
VERTEX
100
AcDbVertex
100
AcDb2dVertex
  8
0
 10
1010.14
 20
747.518
  0
VERTEX
100
AcDbVertex
100
AcDb2dVertex
  8
0
 10
1010.174
 20
744.646
  0
VERTEX
100
AcDbVertex
100
AcDb2dVertex
  8
0
 10
1010.488
 20
741.264
  0
VERTEX
100
AcDbVertex
100
AcDb2dVertex
  8
0
 10
1011.095
 20
737.921
  0
VERTEX
100
AcDbVertex
100
AcDb2dVertex
  8
0
 10
1012.081
 20
733.988
  0
VERTEX
100
AcDbVertex
100
AcDb2dVertex
  8
0
 10
1014.508
 20
726.453
  0
VERTEX
100
AcDbVertex
100
AcDb2dVertex
  8
0
 10
1018.028
 20
717.841
  0
VERTEX
100
AcDbVertex
100
AcDb2dVertex
  8
0
 10
1019.366
 20
715.107
  0
VERTEX
100
AcDbVertex
100
AcDb2dVertex
  8
0
 10
1021.334
 20
711.771
  0
VERTEX
100
AcDbVertex
100
AcDb2dVertex
  8
0
 10
1021.751
 20
711.148
  0
VERTEX
100
AcDbVertex
100
AcDb2dVertex
  8
0
 10
1023.261
 20
709.146
  0
VERTEX
100
AcDbVertex
100
AcDb2dVertex
  8
0
 10
1024.94
 20
707.283
  0
VERTEX
100
AcDbVertex
100
AcDb2dVertex
  8
0
 10
1025.611
 20
706.624
  0
VERTEX
100
AcDbVertex
100
AcDb2dVertex
  8
0
 10
1027.403
 20
705.068
  0
VERTEX
100
AcDbVertex
100
AcDb2dVertex
  8
0
 10
1029.323
 20
703.673
  0
VERTEX
100
AcDbVertex
100
AcDb2dVertex
  8
0
 10
1029.79
 20
703.366
  0
VERTEX
100
AcDbVertex
100
AcDb2dVertex
  8
0
 10
1035.988
 20
699.701
  0
VERTEX
100
AcDbVertex
100
AcDb2dVertex
  8
0
 10
1046.265
 20
694.409
  0
VERTEX
100
AcDbVertex
100
AcDb2dVertex
  8
0
 10
1059.059
 20
688.274
  0
VERTEX
100
AcDbVertex
100
AcDb2dVertex
  8
0
 10
1074
 20
681.509
  0
VERTEX
100
AcDbVertex
100
AcDb2dVertex
  8
0
 10
1113.201
 20
665.262
  0
VERTEX
100
AcDbVertex
100
AcDb2dVertex
  8
0
 10
1114.708
 20
664.689
  0
VERTEX
100
AcDbVertex
100
AcDb2dVertex
  8
0
 10
1126.362
 20
660.902
  0
VERTEX
100
AcDbVertex
100
AcDb2dVertex
  8
0
 10
1138.301
 20
658.145
  0
VERTEX
100
AcDbVertex
100
AcDb2dVertex
  8
0
 10
1142.323
 20
657.569
  0
VERTEX
100
AcDbVertex
100
AcDb2dVertex
  8
0
 10
1146.623
 20
657.322
  0
VERTEX
100
AcDbVertex
100
AcDb2dVertex
  8
0
 10
1150.928
 20
657.451
  0
VERTEX
100
AcDbVertex
100
AcDb2dVertex
  8
0
 10
1155.206
 20
657.954
  0
VERTEX
100
AcDbVertex
100
AcDb2dVertex
  8
0
 10
1156.704
 20
658.258
  0
VERTEX
100
AcDbVertex
100
AcDb2dVertex
  8
0
 10
1158.333
 20
658.732
  0
VERTEX
100
AcDbVertex
100
AcDb2dVertex
  8
0
 10
1159.915
 20
659.346
  0
VERTEX
100
AcDbVertex
100
AcDb2dVertex
  8
0
 10
1161.438
 20
660.096
  0
VERTEX
100
AcDbVertex
100
AcDb2dVertex
  8
0
 10
1162.889
 20
660.976
  0
VERTEX
100
AcDbVertex
100
AcDb2dVertex
  8
0
 10
1164.258
 20
661.978
  0
VERTEX
100
AcDbVertex
100
AcDb2dVertex
  8
0
 10
1165.535
 20
663.097
  0
VERTEX
100
AcDbVertex
100
AcDb2dVertex
  8
0
 10
1166.709
 20
664.322
  0
VERTEX
100
AcDbVertex
100
AcDb2dVertex
  8
0
 10
1167.199
 20
664.907
  0
VERTEX
100
AcDbVertex
100
AcDb2dVertex
  8
0
 10
1168.047
 20
666.069
  0
VERTEX
100
AcDbVertex
100
AcDb2dVertex
  8
0
 10
1168.791
 20
667.3
  0
VERTEX
100
AcDbVertex
100
AcDb2dVertex
  8
0
 10
1169.424
 20
668.591
  0
VERTEX
100
AcDbVertex
100
AcDb2dVertex
  8
0
 10
1169.943
 20
669.933
  0
VERTEX
100
AcDbVertex
100
AcDb2dVertex
  8
0
 10
1170.071
 20
670.329
  0
VERTEX
100
AcDbVertex
100
AcDb2dVertex
  8
0
 10
1170.469
 20
671.835
  0
VERTEX
100
AcDbVertex
100
AcDb2dVertex
  8
0
 10
1170.734
 20
673.37
  0
VERTEX
100
AcDbVertex
100
AcDb2dVertex
  8
0
 10
1170.865
 20
674.923
  0
VERTEX
100
AcDbVertex
100
AcDb2dVertex
  8
0
 10
1170.859
 20
676.481
  0
VERTEX
100
AcDbVertex
100
AcDb2dVertex
  8
0
 10
1170.724
 20
678.404
  0
VERTEX
100
AcDbVertex
100
AcDb2dVertex
  8
0
 10
1170.227
 20
682.007
  0
VERTEX
100
AcDbVertex
100
AcDb2dVertex
  8
0
 10
1169.418
 20
685.553
  0
VERTEX
100
AcDbVertex
100
AcDb2dVertex
  8
0
 10
1165.024
 20
700
  0
VERTEX
100
AcDbVertex
100
AcDb2dVertex
  8
0
 10
1156.988
 20
722.97
  0
VERTEX
100
AcDbVertex
100
AcDb2dVertex
  8
0
 10
1143.941
 20
758.198
  0
VERTEX
100
AcDbVertex
100
AcDb2dVertex
  8
0
 10
1127.714
 20
800.988
  0
VERTEX
100
AcDbVertex
100
AcDb2dVertex
  8
0
 10
1109.023
 20
849.349
  0
VERTEX
100
AcDbVertex
100
AcDb2dVertex
  8
0
 10
1103.143
 20
865.648
  0
VERTEX
100
AcDbVertex
100
AcDb2dVertex
  8
0
 10
1101.745
 20
870.556
  0
VERTEX
100
AcDbVertex
100
AcDb2dVertex
  8
0
 10
1100.781
 20
875.567
  0
VERTEX
100
AcDbVertex
100
AcDb2dVertex
  8
0
 10
1100.681
 20
876.271
  0
VERTEX
100
AcDbVertex
100
AcDb2dVertex
  8
0
 10
1100.512
 20
878.123
  0
VERTEX
100
AcDbVertex
100
AcDb2dVertex
  8
0
 10
1100.506
 20
879.982
  0
VERTEX
100
AcDbVertex
100
AcDb2dVertex
  8
0
 10
1100.661
 20
881.835
  0
VERTEX
100
AcDbVertex
100
AcDb2dVertex
  8
0
 10
1100.921
 20
883.401
  0
VERTEX
100
AcDbVertex
100
AcDb2dVertex
  8
0
 10
1101.091
 20
884.078
  0
VERTEX
100
AcDbVertex
100
AcDb2dVertex
  8
0
 10
1101.319
 20
884.738
  0
VERTEX
100
AcDbVertex
100
AcDb2dVertex
  8
0
 10
1101.603
 20
885.376
  0
VERTEX
100
AcDbVertex
100
AcDb2dVertex
  8
0
 10
1101.943
 20
885.986
  0
VERTEX
100
AcDbVertex
100
AcDb2dVertex
  8
0
 10
1102.334
 20
886.564
  0
VERTEX
100
AcDbVertex
100
AcDb2dVertex
  8
0
 10
1102.774
 20
887.107
  0
VERTEX
100
AcDbVertex
100
AcDb2dVertex
  8
0
 10
1103.259
 20
887.608
  0
VERTEX
100
AcDbVertex
100
AcDb2dVertex
  8
0
 10
1103.787
 20
888.066
  0
VERTEX
100
AcDbVertex
100
AcDb2dVertex
  8
0
 10
1104.576
 20
888.638
  0
VERTEX
100
AcDbVertex
100
AcDb2dVertex
  8
0
 10
1105.412
 20
889.139
  0
VERTEX
100
AcDbVertex
100
AcDb2dVertex
  8
0
 10
1105.485
 20
889.178
  0
VERTEX
100
AcDbVertex
100
AcDb2dVertex
  8
0
 10
1105.919
 20
889.385
  0
VERTEX
100
AcDbVertex
100
AcDb2dVertex
  8
0
 10
1106.369
 20
889.554
  0
VERTEX
100
AcDbVertex
100
AcDb2dVertex
  8
0
 10
1106.833
 20
889.683
  0
VERTEX
100
AcDbVertex
100
AcDb2dVertex
  8
0
 10
1107.086
 20
889.735
  0
VERTEX
100
AcDbVertex
100
AcDb2dVertex
  8
0
 10
1107.895
 20
889.846
  0
VERTEX
100
AcDbVertex
100
AcDb2dVertex
  8
0
 10
1108.71
 20
889.886
  0
VERTEX
100
AcDbVertex
100
AcDb2dVertex
  8
0
 10
1109.134
 20
889.879
  0
VERTEX
100
AcDbVertex
100
AcDb2dVertex
  8
0
 10
1112.5
 20
889.654
  0
VERTEX
100
AcDbVertex
100
AcDb2dVertex
  8
0
 10
1116.134
 20
889.151
  0
VERTEX
100
AcDbVertex
100
AcDb2dVertex
  8
0
 10
1118.987
 20
888.525
  0
VERTEX
100
AcDbVertex
100
AcDb2dVertex
  8
0
 10
1126.536
 20
886.237
  0
VERTEX
100
AcDbVertex
100
AcDb2dVertex
  8
0
 10
1126.634
 20
886.202
  0
VERTEX
100
AcDbVertex
100
AcDb2dVertex
  8
0
 10
1136.968
 20
882.218
  0
VERTEX
100
AcDbVertex
100
AcDb2dVertex
  8
0
 10
1152.717
 20
875.468
  0
VERTEX
100
AcDbVertex
100
AcDb2dVertex
  8
0
 10
1170.017
 20
868.083
  0
VERTEX
100
AcDbVertex
100
AcDb2dVertex
  8
0
 10
1181.328
 20
863.836
  0
VERTEX
100
AcDbVertex
100
AcDb2dVertex
  8
0
 10
1189.067
 20
861.599
  0
VERTEX
100
AcDbVertex
100
AcDb2dVertex
  8
0
 10
1189.219
 20
861.565
  0
VERTEX
100
AcDbVertex
100
AcDb2dVertex
  8
0
 10
1189.647
 20
861.494
  0
VERTEX
100
AcDbVertex
100
AcDb2dVertex
  8
0
 10
1190.08
 20
861.461
  0
VERTEX
100
AcDbVertex
100
AcDb2dVertex
  8
0
 10
1190.514
 20
861.466
  0
VERTEX
100
AcDbVertex
100
AcDb2dVertex
  8
0
 10
1190.947
 20
861.509
  0
VERTEX
100
AcDbVertex
100
AcDb2dVertex
  8
0
 10
1191.373
 20
861.59
  0
VERTEX
100
AcDbVertex
100
AcDb2dVertex
  8
0
 10
1191.791
 20
861.707
  0
VERTEX
100
AcDbVertex
100
AcDb2dVertex
  8
0
 10
1192.198
 20
861.86
  0
VERTEX
100
AcDbVertex
100
AcDb2dVertex
  8
0
 10
1192.589
 20
862.048
  0
VERTEX
100
AcDbVertex
100
AcDb2dVertex
  8
0
 10
1192.794
 20
862.163
  0
VERTEX
100
AcDbVertex
100
AcDb2dVertex
  8
0
 10
1193.267
 20
862.467
  0
VERTEX
100
AcDbVertex
100
AcDb2dVertex
  8
0
 10
1193.712
 20
862.811
  0
VERTEX
100
AcDbVertex
100
AcDb2dVertex
  8
0
 10
1194.125
 20
863.192
  0
VERTEX
100
AcDbVertex
100
AcDb2dVertex
  8
0
 10
1194.503
 20
863.609
  0
VERTEX
100
AcDbVertex
100
AcDb2dVertex
  8
0
 10
1194.843
 20
864.056
  0
VERTEX
100
AcDbVertex
100
AcDb2dVertex
  8
0
 10
1195.159
 20
864.538
  0
VERTEX
100
AcDbVertex
100
AcDb2dVertex
  8
0
 10
1195.636
 20
865.387
  0
VERTEX
100
AcDbVertex
100
AcDb2dVertex
  8
0
 10
1196.036
 20
866.274
  0
VERTEX
100
AcDbVertex
100
AcDb2dVertex
  8
0
 10
1196.358
 20
867.193
  0
VERTEX
100
AcDbVertex
100
AcDb2dVertex
  8
0
 10
1196.601
 20
868.066
  0
VERTEX
100
AcDbVertex
100
AcDb2dVertex
  8
0
 10
1196.98
 20
869.875
  0
VERTEX
100
AcDbVertex
100
AcDb2dVertex
  8
0
 10
1197.2
 20
871.71
  0
VERTEX
100
AcDbVertex
100
AcDb2dVertex
  8
0
 10
1197.402
 20
878
  0
SEQEND
  0
POLYLINE
100
AcDb2dPolyline
  8
0
 66
   1
 70
   1
 40
0.0
 41
0.0
  0
VERTEX
100
AcDbVertex
100
AcDb2dVertex
  8
0
 10
986.748
 20
966.524
  0
VERTEX
100
AcDbVertex
100
AcDb2dVertex
  8
0
 10
986.73
 20
967.116
  0
VERTEX
100
AcDbVertex
100
AcDb2dVertex
  8
0
 10
986.661
 20
967.704
  0
VERTEX
100
AcDbVertex
100
AcDb2dVertex
  8
0
 10
986.658
 20
967.72
  0
VERTEX
100
AcDbVertex
100
AcDb2dVertex
  8
0
 10
986.404
 20
968.941
  0
VERTEX
100
AcDbVertex
100
AcDb2dVertex
  8
0
 10
986.043
 20
970.135
  0
VERTEX
100
AcDbVertex
100
AcDb2dVertex
  8
0
 10
985.581
 20
971.292
  0
VERTEX
100
AcDbVertex
100
AcDb2dVertex
  8
0
 10
985.019
 20
972.405
  0
VERTEX
100
AcDbVertex
100
AcDb2dVertex
  8
0
 10
984.362
 20
973.465
  0
VERTEX
100
AcDbVertex
100
AcDb2dVertex
  8
0
 10
983.785
 20
974.29
  0
VERTEX
100
AcDbVertex
100
AcDb2dVertex
  8
0
 10
981.569
 20
977.106
  0
VERTEX
100
AcDbVertex
100
AcDb2dVertex
  8
0
 10
979.117
 20
979.719
  0
VERTEX
100
AcDbVertex
100
AcDb2dVertex
  8
0
 10
978.735
 20
980.088
  0
VERTEX
100
AcDbVertex
100
AcDb2dVertex
  8
0
 10
975.519
 20
982.902
  0
VERTEX
100
AcDbVertex
100
AcDb2dVertex
  8
0
 10
972.07
 20
985.425
  0
VERTEX
100
AcDbVertex
100
AcDb2dVertex
  8
0
 10
971.194
 20
985.995
  0
VERTEX
100
AcDbVertex
100
AcDb2dVertex
  8
0
 10
967.795
 20
987.946
  0
VERTEX
100
AcDbVertex
100
AcDb2dVertex
  8
0
 10
964.239
 20
989.593
  0
VERTEX
100
AcDbVertex
100
AcDb2dVertex
  8
0
 10
963.524
 20
989.878
  0
VERTEX
100
AcDbVertex
100
AcDb2dVertex
  8
0
 10
960.75
 20
990.807
  0
VERTEX
100
AcDbVertex
100
AcDb2dVertex
  8
0
 10
957.905
 20
991.492
  0
VERTEX
100
AcDbVertex
100
AcDb2dVertex
  8
0
 10
956.866
 20
991.662
  0
VERTEX
100
AcDbVertex
100
AcDb2dVertex
  8
0
 10
955.351
 20
991.797
  0
VERTEX
100
AcDbVertex
100
AcDb2dVertex
  8
0
 10
953.83
 20
991.799
  0
VERTEX
100
AcDbVertex
100
AcDb2dVertex
  8
0
 10
952.315
 20
991.669
  0
VERTEX
100
AcDbVertex
100
AcDb2dVertex
  8
0
 10
952.087
 20
991.637
  0
VERTEX
100
AcDbVertex
100
AcDb2dVertex
  8
0
 10
950.884
 20
991.407
  0
VERTEX
100
AcDbVertex
100
AcDb2dVertex
  8
0
 10
949.707
 20
991.072
  0
VERTEX
100
AcDbVertex
100
AcDb2dVertex
  8
0
 10
948.563
 20
990.636
  0
VERTEX
100
AcDbVertex
100
AcDb2dVertex
  8
0
 10
947.461
 20
990.102
  0
VERTEX
100
AcDbVertex
100
AcDb2dVertex
  8
0
 10
946.497
 20
989.537
  0
VERTEX
100
AcDbVertex
100
AcDb2dVertex
  8
0
 10
945.354
 20
988.741
  0
VERTEX
100
AcDbVertex
100
AcDb2dVertex
  8
0
 10
944.285
 20
987.848
  0
VERTEX
100
AcDbVertex
100
AcDb2dVertex
  8
0
 10
943.298
 20
986.865
  0
VERTEX
100
AcDbVertex
100
AcDb2dVertex
  8
0
 10
942.959
 20
986.486
  0
VERTEX
100
AcDbVertex
100
AcDb2dVertex
  8
0
 10
942
 20
985.279
  0
VERTEX
100
AcDbVertex
100
AcDb2dVertex
  8
0
 10
941.149
 20
983.993
  0
VERTEX
100
AcDbVertex
100
AcDb2dVertex
  8
0
 10
940.413
 20
982.637
  0
VERTEX
100
AcDbVertex
100
AcDb2dVertex
  8
0
 10
939.799
 20
981.223
  0
VERTEX
100
AcDbVertex
100
AcDb2dVertex
  8
0
 10
939.042
 20
978.995
  0
VERTEX
100
AcDbVertex
100
AcDb2dVertex
  8
0
 10
938.4
 20
976.427
  0
VERTEX
100
AcDbVertex
100
AcDb2dVertex
  8
0
 10
937.984
 20
973.813
  0
VERTEX
100
AcDbVertex
100
AcDb2dVertex
  8
0
 10
937.806
 20
971.478
  0
VERTEX
100
AcDbVertex
100
AcDb2dVertex
  8
0
 10
937.822
 20
968.804
  0
VERTEX
100
AcDbVertex
100
AcDb2dVertex
  8
0
 10
938.071
 20
966.142
  0
VERTEX
100
AcDbVertex
100
AcDb2dVertex
  8
0
 10
938.11
 20
965.871
  0
VERTEX
100
AcDbVertex
100
AcDb2dVertex
  8
0
 10
938.426
 20
964.273
  0
VERTEX
100
AcDbVertex
100
AcDb2dVertex
  8
0
 10
938.88
 20
962.708
  0
VERTEX
100
AcDbVertex
100
AcDb2dVertex
  8
0
 10
939.468
 20
961.189
  0
VERTEX
100
AcDbVertex
100
AcDb2dVertex
  8
0
 10
940.187
 20
959.727
  0
VERTEX
100
AcDbVertex
100
AcDb2dVertex
  8
0
 10
940.716
 20
958.829
  0
VERTEX
100
AcDbVertex
100
AcDb2dVertex
  8
0
 10
941.534
 20
957.652
  0
VERTEX
100
AcDbVertex
100
AcDb2dVertex
  8
0
 10
942.452
 20
956.552
  0
VERTEX
100
AcDbVertex
100
AcDb2dVertex
  8
0
 10
943.462
 20
955.535
  0
VERTEX
100
AcDbVertex
100
AcDb2dVertex
  8
0
 10
944.352
 20
954.774
  0
VERTEX
100
AcDbVertex
100
AcDb2dVertex
  8
0
 10
945.462
 20
953.97
  0
VERTEX
100
AcDbVertex
100
AcDb2dVertex
  8
0
 10
946.638
 20
953.267
  0
VERTEX
100
AcDbVertex
100
AcDb2dVertex
  8
0
 10
947.87
 20
952.668
  0
VERTEX
100
AcDbVertex
100
AcDb2dVertex
  8
0
 10
948.101
 20
952.569
  0
VERTEX
100
AcDbVertex
100
AcDb2dVertex
  8
0
 10
949.938
 20
951.891
  0
VERTEX
100
AcDbVertex
100
AcDb2dVertex
  8
0
 10
951.827
 20
951.375
  0
VERTEX
100
AcDbVertex
100
AcDb2dVertex
  8
0
 10
953.754
 20
951.026
  0
VERTEX
100
AcDbVertex
100
AcDb2dVertex
  8
0
 10
956.506
 20
950.718
  0
VERTEX
100
AcDbVertex
100
AcDb2dVertex
  8
0
 10
961.5
 20
950.5
  0
VERTEX
100
AcDbVertex
100
AcDb2dVertex
  8
0
 10
966.504
 20
950.602
  0
VERTEX
100
AcDbVertex
100
AcDb2dVertex
  8
0
 10
967.679
 20
950.679
  0
VERTEX
100
AcDbVertex
100
AcDb2dVertex
  8
0
 10
969.766
 20
950.958
  0
VERTEX
100
AcDbVertex
100
AcDb2dVertex
  8
0
 10
969.796
 20
950.963
  0
VERTEX
100
AcDbVertex
100
AcDb2dVertex
  8
0
 10
971.153
 20
951.27
  0
VERTEX
100
AcDbVertex
100
AcDb2dVertex
  8
0
 10
972.478
 20
951.694
  0
VERTEX
100
AcDbVertex
100
AcDb2dVertex
  8
0
 10
973.135
 20
951.945
  0
VERTEX
100
AcDbVertex
100
AcDb2dVertex
  8
0
 10
975.493
 20
953
  0
VERTEX
100
AcDbVertex
100
AcDb2dVertex
  8
0
 10
976.56
 20
953.567
  0
VERTEX
100
AcDbVertex
100
AcDb2dVertex
  8
0
 10
978.392
 20
954.708
  0
VERTEX
100
AcDbVertex
100
AcDb2dVertex
  8
0
 10
980.118
 20
956.004
  0
VERTEX
100
AcDbVertex
100
AcDb2dVertex
  8
0
 10
981.156
 20
956.909
  0
VERTEX
100
AcDbVertex
100
AcDb2dVertex
  8
0
 10
982.587
 20
958.354
  0
VERTEX
100
AcDbVertex
100
AcDb2dVertex
  8
0
 10
983.886
 20
959.918
  0
VERTEX
100
AcDbVertex
100
AcDb2dVertex
  8
0
 10
983.893
 20
959.927
  0
VERTEX
100
AcDbVertex
100
AcDb2dVertex
  8
0
 10
984.796
 20
961.233
  0
VERTEX
100
AcDbVertex
100
AcDb2dVertex
  8
0
 10
985.583
 20
962.612
  0
VERTEX
100
AcDbVertex
100
AcDb2dVertex
  8
0
 10
986.246
 20
964.055
  0
VERTEX
100
AcDbVertex
100
AcDb2dVertex
  8
0
 10
986.307
 20
964.209
  0
VERTEX
100
AcDbVertex
100
AcDb2dVertex
  8
0
 10
986.492
 20
964.771
  0
VERTEX
100
AcDbVertex
100
AcDb2dVertex
  8
0
 10
986.629
 20
965.347
  0
VERTEX
100
AcDbVertex
100
AcDb2dVertex
  8
0
 10
986.714
 20
965.933
  0
VERTEX
100
AcDbVertex
100
AcDb2dVertex
  8
0
 10
986.748
 20
966.524
  0
SEQEND
  0
POLYLINE
100
AcDb2dPolyline
  8
0
 66
   1
 70
   1
 40
0.0
 41
0.0
  0
VERTEX
100
AcDbVertex
100
AcDb2dVertex
  8
0
 10
742.303
 20
974.761
  0
VERTEX
100
AcDbVertex
100
AcDb2dVertex
  8
0
 10
740.719
 20
974.637
  0
VERTEX
100
AcDbVertex
100
AcDb2dVertex
  8
0
 10
738.772
 20
974.329
  0
VERTEX
100
AcDbVertex
100
AcDb2dVertex
  8
0
 10
736.86
 20
973.853
  0
VERTEX
100
AcDbVertex
100
AcDb2dVertex
  8
0
 10
734.996
 20
973.211
  0
VERTEX
100
AcDbVertex
100
AcDb2dVertex
  8
0
 10
733.195
 20
972.41
  0
VERTEX
100
AcDbVertex
100
AcDb2dVertex
  8
0
 10
732.994
 20
972.309
  0
VERTEX
100
AcDbVertex
100
AcDb2dVertex
  8
0
 10
730.971
 20
971.165
  0
VERTEX
100
AcDbVertex
100
AcDb2dVertex
  8
0
 10
729.055
 20
969.85
  0
VERTEX
100
AcDbVertex
100
AcDb2dVertex
  8
0
 10
728.842
 20
969.688
  0
VERTEX
100
AcDbVertex
100
AcDb2dVertex
  8
0
 10
727.086
 20
968.211
  0
VERTEX
100
AcDbVertex
100
AcDb2dVertex
  8
0
 10
725.465
 20
966.587
  0
VERTEX
100
AcDbVertex
100
AcDb2dVertex
  8
0
 10
723.832
 20
964.642
  0
VERTEX
100
AcDbVertex
100
AcDb2dVertex
  8
0
 10
722.332
 20
962.506
  0
VERTEX
100
AcDbVertex
100
AcDb2dVertex
  8
0
 10
721.421
 20
961.019
  0
VERTEX
100
AcDbVertex
100
AcDb2dVertex
  8
0
 10
719.559
 20
957.5
  0
VERTEX
100
AcDbVertex
100
AcDb2dVertex
  8
0
 10
718.528
 20
955.219
  0
VERTEX
100
AcDbVertex
100
AcDb2dVertex
  8
0
 10
716.456
 20
949.749
  0
VERTEX
100
AcDbVertex
100
AcDb2dVertex
  8
0
 10
714.868
 20
944.118
  0
VERTEX
100
AcDbVertex
100
AcDb2dVertex
  8
0
 10
713.777
 20
938.371
  0
VERTEX
100
AcDbVertex
100
AcDb2dVertex
  8
0
 10
712.566
 20
926.682
  0
VERTEX
100
AcDbVertex
100
AcDb2dVertex
  8
0
 10
712.33
 20
914.118
  0
VERTEX
100
AcDbVertex
100
AcDb2dVertex
  8
0
 10
713.1
 20
902.329
  0
VERTEX
100
AcDbVertex
100
AcDb2dVertex
  8
0
 10
714.999
 20
889.705
  0
VERTEX
100
AcDbVertex
100
AcDb2dVertex
  8
0
 10
715.183
 20
888.795
  0
VERTEX
100
AcDbVertex
100
AcDb2dVertex
  8
0
 10
716.818
 20
882.358
  0
VERTEX
100
AcDbVertex
100
AcDb2dVertex
  8
0
 10
719.008
 20
876.087
  0
VERTEX
100
AcDbVertex
100
AcDb2dVertex
  8
0
 10
721.736
 20
870.032
  0
VERTEX
100
AcDbVertex
100
AcDb2dVertex
  8
0
 10
723.893
 20
866.039
  0
VERTEX
100
AcDbVertex
100
AcDb2dVertex
  8
0
 10
724.672
 20
864.801
  0
VERTEX
100
AcDbVertex
100
AcDb2dVertex
  8
0
 10
725.691
 20
863.441
  0
VERTEX
100
AcDbVertex
100
AcDb2dVertex
  8
0
 10
725.923
 20
863.165
  0
VERTEX
100
AcDbVertex
100
AcDb2dVertex
  8
0
 10
726.751
 20
862.287
  0
VERTEX
100
AcDbVertex
100
AcDb2dVertex
  8
0
 10
727.653
 20
861.485
  0
VERTEX
100
AcDbVertex
100
AcDb2dVertex
  8
0
 10
728.503
 20
860.823
  0
VERTEX
100
AcDbVertex
100
AcDb2dVertex
  8
0
 10
730.256
 20
859.635
  0
VERTEX
100
AcDbVertex
100
AcDb2dVertex
  8
0
 10
730.953
 20
859.22
  0
VERTEX
100
AcDbVertex
100
AcDb2dVertex
  8
0
 10
732.955
 20
858.186
  0
VERTEX
100
AcDbVertex
100
AcDb2dVertex
  8
0
 10
735.04
 20
857.329
  0
VERTEX
100
AcDbVertex
100
AcDb2dVertex
  8
0
 10
736.586
 20
856.845
  0
VERTEX
100
AcDbVertex
100
AcDb2dVertex
  8
0
 10
738.197
 20
856.49
  0
VERTEX
100
AcDbVertex
100
AcDb2dVertex
  8
0
 10
739.832
 20
856.277
  0
VERTEX
100
AcDbVertex
100
AcDb2dVertex
  8
0
 10
741.413
 20
856.205
  0
VERTEX
100
AcDbVertex
100
AcDb2dVertex
  8
0
 10
743.112
 20
856.272
  0
VERTEX
100
AcDbVertex
100
AcDb2dVertex
  8
0
 10
744.799
 20
856.486
  0
VERTEX
100
AcDbVertex
100
AcDb2dVertex
  8
0
 10
745.243
 20
856.566
  0
VERTEX
100
AcDbVertex
100
AcDb2dVertex
  8
0
 10
747.703
 20
857.139
  0
VERTEX
100
AcDbVertex
100
AcDb2dVertex
  8
0
 10
750.104
 20
857.925
  0
VERTEX
100
AcDbVertex
100
AcDb2dVertex
  8
0
 10
751.62
 20
858.526
  0
VERTEX
100
AcDbVertex
100
AcDb2dVertex
  8
0
 10
755.345
 20
860.271
  0
VERTEX
100
AcDbVertex
100
AcDb2dVertex
  8
0
 10
758.903
 20
862.335
  0
VERTEX
100
AcDbVertex
100
AcDb2dVertex
  8
0
 10
760.862
 20
863.669
  0
VERTEX
100
AcDbVertex
100
AcDb2dVertex
  8
0
 10
763.662
 20
865.89
  0
VERTEX
100
AcDbVertex
100
AcDb2dVertex
  8
0
 10
766.257
 20
868.346
  0
VERTEX
100
AcDbVertex
100
AcDb2dVertex
  8
0
 10
767.852
 20
870.091
  0
VERTEX
100
AcDbVertex
100
AcDb2dVertex
  8
0
 10
770.07
 20
872.902
  0
VERTEX
100
AcDbVertex
100
AcDb2dVertex
  8
0
 10
772.034
 20
875.896
  0
VERTEX
100
AcDbVertex
100
AcDb2dVertex
  8
0
 10
772.822
 20
877.27
  0
VERTEX
100
AcDbVertex
100
AcDb2dVertex
  8
0
 10
774.665
 20
880.988
  0
VERTEX
100
AcDbVertex
100
AcDb2dVertex
  8
0
 10
776.177
 20
884.853
  0
VERTEX
100
AcDbVertex
100
AcDb2dVertex
  8
0
 10
776.942
 20
887.316
  0
VERTEX
100
AcDbVertex
100
AcDb2dVertex
  8
0
 10
777.856
 20
891.227
  0
VERTEX
100
AcDbVertex
100
AcDb2dVertex
  8
0
 10
778.426
 20
895.202
  0
VERTEX
100
AcDbVertex
100
AcDb2dVertex
  8
0
 10
778.647
 20
899.212
  0
VERTEX
100
AcDbVertex
100
AcDb2dVertex
  8
0
 10
778.422
 20
907.729
  0
VERTEX
100
AcDbVertex
100
AcDb2dVertex
  8
0
 10
777.365
 20
917.493
  0
VERTEX
100
AcDbVertex
100
AcDb2dVertex
  8
0
 10
775.787
 20
925.967
  0
VERTEX
100
AcDbVertex
100
AcDb2dVertex
  8
0
 10
772.815
 20
937.127
  0
VERTEX
100
AcDbVertex
100
AcDb2dVertex
  8
0
 10
769.91
 20
945.397
  0
VERTEX
100
AcDbVertex
100
AcDb2dVertex
  8
0
 10
765.356
 20
955.726
  0
VERTEX
100
AcDbVertex
100
AcDb2dVertex
  8
0
 10
764.347
 20
957.678
  0
VERTEX
100
AcDbVertex
100
AcDb2dVertex
  8
0
 10
761.633
 20
962.218
  0
VERTEX
100
AcDbVertex
100
AcDb2dVertex
  8
0
 10
758.534
 20
966.503
  0
VERTEX
100
AcDbVertex
100
AcDb2dVertex
  8
0
 10
757.395
 20
967.838
  0
VERTEX
100
AcDbVertex
100
AcDb2dVertex
  8
0
 10
755.919
 20
969.309
  0
VERTEX
100
AcDbVertex
100
AcDb2dVertex
  8
0
 10
754.321
 20
970.647
  0
VERTEX
100
AcDbVertex
100
AcDb2dVertex
  8
0
 10
752.612
 20
971.84
  0
VERTEX
100
AcDbVertex
100
AcDb2dVertex
  8
0
 10
750.806
 20
972.879
  0
VERTEX
100
AcDbVertex
100
AcDb2dVertex
  8
0
 10
749.503
 20
973.486
  0
VERTEX
100
AcDbVertex
100
AcDb2dVertex
  8
0
 10
748.119
 20
973.991
  0
VERTEX
100
AcDbVertex
100
AcDb2dVertex
  8
0
 10
746.696
 20
974.373
  0
VERTEX
100
AcDbVertex
100
AcDb2dVertex
  8
0
 10
745.244
 20
974.63
  0
VERTEX
100
AcDbVertex
100
AcDb2dVertex
  8
0
 10
743.777
 20
974.76
  0
VERTEX
100
AcDbVertex
100
AcDb2dVertex
  8
0
 10
742.303
 20
974.761
  0
SEQEND
  0
POLYLINE
100
AcDb2dPolyline
  8
0
 66
   1
 70
   1
 40
0.0
 41
0.0
  0
VERTEX
100
AcDbVertex
100
AcDb2dVertex
  8
0
 10
572.092
 20
1046.925
  0
VERTEX
100
AcDbVertex
100
AcDb2dVertex
  8
0
 10
570.884
 20
1046.83
  0
VERTEX
100
AcDbVertex
100
AcDb2dVertex
  8
0
 10
570.88
 20
1046.829
  0
VERTEX
100
AcDbVertex
100
AcDb2dVertex
  8
0
 10
569.393
 20
1046.58
  0
VERTEX
100
AcDbVertex
100
AcDb2dVertex
  8
0
 10
567.934
 20
1046.202
  0
VERTEX
100
AcDbVertex
100
AcDb2dVertex
  8
0
 10
566.513
 20
1045.698
  0
VERTEX
100
AcDbVertex
100
AcDb2dVertex
  8
0
 10
565.142
 20
1045.072
  0
VERTEX
100
AcDbVertex
100
AcDb2dVertex
  8
0
 10
564.057
 20
1044.484
  0
VERTEX
100
AcDbVertex
100
AcDb2dVertex
  8
0
 10
562.215
 20
1043.317
  0
VERTEX
100
AcDbVertex
100
AcDb2dVertex
  8
0
 10
560.481
 20
1041.994
  0
VERTEX
100
AcDbVertex
100
AcDb2dVertex
  8
0
 10
558.869
 20
1040.524
  0
VERTEX
100
AcDbVertex
100
AcDb2dVertex
  8
0
 10
557.391
 20
1038.92
  0
VERTEX
100
AcDbVertex
100
AcDb2dVertex
  8
0
 10
556.059
 20
1037.193
  0
VERTEX
100
AcDbVertex
100
AcDb2dVertex
  8
0
 10
555.562
 20
1036.475
  0
VERTEX
100
AcDbVertex
100
AcDb2dVertex
  8
0
 10
553.15
 20
1032.568
  0
VERTEX
100
AcDbVertex
100
AcDb2dVertex
  8
0
 10
551.087
 20
1028.466
  0
VERTEX
100
AcDbVertex
100
AcDb2dVertex
  8
0
 10
549.39
 20
1024.199
  0
VERTEX
100
AcDbVertex
100
AcDb2dVertex
  8
0
 10
548.331
 20
1020.947
  0
VERTEX
100
AcDbVertex
100
AcDb2dVertex
  8
0
 10
546.48
 20
1013.739
  0
VERTEX
100
AcDbVertex
100
AcDb2dVertex
  8
0
 10
545.265
 20
1006.397
  0
VERTEX
100
AcDbVertex
100
AcDb2dVertex
  8
0
 10
544.66
 20
1000.677
  0
VERTEX
100
AcDbVertex
100
AcDb2dVertex
  8
0
 10
543.882
 20
984
  0
VERTEX
100
AcDbVertex
100
AcDb2dVertex
  8
0
 10
543.882
 20
982.692
  0
VERTEX
100
AcDbVertex
100
AcDb2dVertex
  8
0
 10
544.673
 20
966.029
  0
VERTEX
100
AcDbVertex
100
AcDb2dVertex
  8
0
 10
545.6
 20
958.999
  0
VERTEX
100
AcDbVertex
100
AcDb2dVertex
  8
0
 10
547.246
 20
951.453
  0
VERTEX
100
AcDbVertex
100
AcDb2dVertex
  8
0
 10
547.781
 20
949.56
  0
VERTEX
100
AcDbVertex
100
AcDb2dVertex
  8
0
 10
549.464
 20
944.735
  0
VERTEX
100
AcDbVertex
100
AcDb2dVertex
  8
0
 10
551.562
 20
940.075
  0
VERTEX
100
AcDbVertex
100
AcDb2dVertex
  8
0
 10
552.767
 20
937.91
  0
VERTEX
100
AcDbVertex
100
AcDb2dVertex
  8
0
 10
554.222
 20
935.753
  0
VERTEX
100
AcDbVertex
100
AcDb2dVertex
  8
0
 10
555.858
 20
933.732
  0
VERTEX
100
AcDbVertex
100
AcDb2dVertex
  8
0
 10
557.665
 20
931.86
  0
VERTEX
100
AcDbVertex
100
AcDb2dVertex
  8
0
 10
558.766
 20
930.852
  0
VERTEX
100
AcDbVertex
100
AcDb2dVertex
  8
0
 10
561.555
 20
928.6
  0
VERTEX
100
AcDbVertex
100
AcDb2dVertex
  8
0
 10
562.288
 20
928.086
  0
VERTEX
100
AcDbVertex
100
AcDb2dVertex
  8
0
 10
563.687
 20
927.239
  0
VERTEX
100
AcDbVertex
100
AcDb2dVertex
  8
0
 10
565.154
 20
926.518
  0
VERTEX
100
AcDbVertex
100
AcDb2dVertex
  8
0
 10
566.157
 20
926.117
  0
VERTEX
100
AcDbVertex
100
AcDb2dVertex
  8
0
 10
567.523
 20
925.688
  0
VERTEX
100
AcDbVertex
100
AcDb2dVertex
  8
0
 10
568.921
 20
925.38
  0
VERTEX
100
AcDbVertex
100
AcDb2dVertex
  8
0
 10
571.084
 20
925.097
  0
VERTEX
100
AcDbVertex
100
AcDb2dVertex
  8
0
 10
573.301
 20
925
  0
VERTEX
100
AcDbVertex
100
AcDb2dVertex
  8
0
 10
575.036
 20
925.041
  0
VERTEX
100
AcDbVertex
100
AcDb2dVertex
  8
0
 10
578.211
 20
925.331
  0
VERTEX
100
AcDbVertex
100
AcDb2dVertex
  8
0
 10
578.922
 20
925.44
  0
VERTEX
100
AcDbVertex
100
AcDb2dVertex
  8
0
 10
580.642
 20
925.814
  0
VERTEX
100
AcDbVertex
100
AcDb2dVertex
  8
0
 10
582.324
 20
926.337
  0
VERTEX
100
AcDbVertex
100
AcDb2dVertex
  8
0
 10
582.598
 20
926.437
  0
VERTEX
100
AcDbVertex
100
AcDb2dVertex
  8
0
 10
584.575
 20
927.274
  0
VERTEX
100
AcDbVertex
100
AcDb2dVertex
  8
0
 10
586.472
 20
928.28
  0
VERTEX
100
AcDbVertex
100
AcDb2dVertex
  8
0
 10
591.56
 20
931.559
  0
VERTEX
100
AcDbVertex
100
AcDb2dVertex
  8
0
 10
594.421
 20
933.72
  0
VERTEX
100
AcDbVertex
100
AcDb2dVertex
  8
0
 10
597.981
 20
936.864
  0
VERTEX
100
AcDbVertex
100
AcDb2dVertex
  8
0
 10
601.254
 20
940.306
  0
VERTEX
100
AcDbVertex
100
AcDb2dVertex
  8
0
 10
602.702
 20
942.077
  0
VERTEX
100
AcDbVertex
100
AcDb2dVertex
  8
0
 10
604.525
 20
944.685
  0
VERTEX
100
AcDbVertex
100
AcDb2dVertex
  8
0
 10
606.115
 20
947.443
  0
VERTEX
100
AcDbVertex
100
AcDb2dVertex
  8
0
 10
607.458
 20
950.328
  0
VERTEX
100
AcDbVertex
100
AcDb2dVertex
  8
0
 10
608.15
 20
952.126
  0
VERTEX
100
AcDbVertex
100
AcDb2dVertex
  8
0
 10
609.16
 20
955.398
  0
VERTEX
100
AcDbVertex
100
AcDb2dVertex
  8
0
 10
609.881
 20
958.746
  0
VERTEX
100
AcDbVertex
100
AcDb2dVertex
  8
0
 10
610.307
 20
962.144
  0
VERTEX
100
AcDbVertex
100
AcDb2dVertex
  8
0
 10
610.434
 20
964.019
  0
VERTEX
100
AcDbVertex
100
AcDb2dVertex
  8
0
 10
610.5
 20
970.138
  0
VERTEX
100
AcDbVertex
100
AcDb2dVertex
  8
0
 10
610.032
 20
976.239
  0
VERTEX
100
AcDbVertex
100
AcDb2dVertex
  8
0
 10
609.888
 20
977.402
  0
VERTEX
100
AcDbVertex
100
AcDb2dVertex
  8
0
 10
606.697
 20
996.086
  0
VERTEX
100
AcDbVertex
100
AcDb2dVertex
  8
0
 10
605.417
 20
1001.504
  0
VERTEX
100
AcDbVertex
100
AcDb2dVertex
  8
0
 10
601.752
 20
1013.564
  0
VERTEX
100
AcDbVertex
100
AcDb2dVertex
  8
0
 10
599.552
 20
1019.292
  0
VERTEX
100
AcDbVertex
100
AcDb2dVertex
  8
0
 10
595.505
 20
1027.922
  0
VERTEX
100
AcDbVertex
100
AcDb2dVertex
  8
0
 10
595.326
 20
1028.261
  0
VERTEX
100
AcDbVertex
100
AcDb2dVertex
  8
0
 10
593.246
 20
1031.781
  0
VERTEX
100
AcDbVertex
100
AcDb2dVertex
  8
0
 10
590.866
 20
1035.106
  0
VERTEX
100
AcDbVertex
100
AcDb2dVertex
  8
0
 10
588.206
 20
1038.211
  0
VERTEX
100
AcDbVertex
100
AcDb2dVertex
  8
0
 10
587.958
 20
1038.474
  0
VERTEX
100
AcDbVertex
100
AcDb2dVertex
  8
0
 10
585.217
 20
1041.115
  0
VERTEX
100
AcDbVertex
100
AcDb2dVertex
  8
0
 10
582.257
 20
1043.506
  0
VERTEX
100
AcDbVertex
100
AcDb2dVertex
  8
0
 10
580.953
 20
1044.386
  0
VERTEX
100
AcDbVertex
100
AcDb2dVertex
  8
0
 10
579.541
 20
1045.171
  0
VERTEX
100
AcDbVertex
100
AcDb2dVertex
  8
0
 10
578.066
 20
1045.83
  0
VERTEX
100
AcDbVertex
100
AcDb2dVertex
  8
0
 10
576.539
 20
1046.358
  0
VERTEX
100
AcDbVertex
100
AcDb2dVertex
  8
0
 10
575.7
 20
1046.579
  0
VERTEX
100
AcDbVertex
100
AcDb2dVertex
  8
0
 10
574.509
 20
1046.8
  0
VERTEX
100
AcDbVertex
100
AcDb2dVertex
  8
0
 10
573.303
 20
1046.915
  0
VERTEX
100
AcDbVertex
100
AcDb2dVertex
  8
0
 10
572.092
 20
1046.925
  0
SEQEND
  0
POLYLINE
100
AcDb2dPolyline
  8
0
 66
   1
 70
   1
 40
0.0
 41
0.0
  0
VERTEX
100
AcDbVertex
100
AcDb2dVertex
  8
0
 10
817.784
 20
888.494
  0
VERTEX
100
AcDbVertex
100
AcDb2dVertex
  8
0
 10
817.687
 20
899.557
  0
VERTEX
100
AcDbVertex
100
AcDb2dVertex
  8
0
 10
816.466
 20
913.603
  0
VERTEX
100
AcDbVertex
100
AcDb2dVertex
  8
0
 10
815.388
 20
920.898
  0
VERTEX
100
AcDbVertex
100
AcDb2dVertex
  8
0
 10
811.354
 20
940.132
  0
VERTEX
100
AcDbVertex
100
AcDb2dVertex
  8
0
 10
808.677
 20
949.537
  0
VERTEX
100
AcDbVertex
100
AcDb2dVertex
  8
0
 10
803.283
 20
964.41
  0
VERTEX
100
AcDbVertex
100
AcDb2dVertex
  8
0
 10
799.14
 20
973.545
  0
VERTEX
100
AcDbVertex
100
AcDb2dVertex
  8
0
 10
792.974
 20
984.734
  0
VERTEX
100
AcDbVertex
100
AcDb2dVertex
  8
0
 10
792.445
 20
985.588
  0
VERTEX
100
AcDbVertex
100
AcDb2dVertex
  8
0
 10
789.069
 20
990.462
  0
VERTEX
100
AcDbVertex
100
AcDb2dVertex
  8
0
 10
785.282
 20
995.023
  0
VERTEX
100
AcDbVertex
100
AcDb2dVertex
  8
0
 10
781.111
 20
999.237
  0
VERTEX
100
AcDbVertex
100
AcDb2dVertex
  8
0
 10
781.017
 20
999.324
  0
VERTEX
100
AcDbVertex
100
AcDb2dVertex
  8
0
 10
776.672
 20
1002.994
  0
VERTEX
100
AcDbVertex
100
AcDb2dVertex
  8
0
 10
772.023
 20
1006.271
  0
VERTEX
100
AcDbVertex
100
AcDb2dVertex
  8
0
 10
767.107
 20
1009.13
  0
VERTEX
100
AcDbVertex
100
AcDb2dVertex
  8
0
 10
764.235
 20
1010.519
  0
VERTEX
100
AcDbVertex
100
AcDb2dVertex
  8
0
 10
760.261
 20
1012.08
  0
VERTEX
100
AcDbVertex
100
AcDb2dVertex
  8
0
 10
756.165
 20
1013.289
  0
VERTEX
100
AcDbVertex
100
AcDb2dVertex
  8
0
 10
751.98
 20
1014.136
  0
VERTEX
100
AcDbVertex
100
AcDb2dVertex
  8
0
 10
748.685
 20
1014.538
  0
VERTEX
100
AcDbVertex
100
AcDb2dVertex
  8
0
 10
744.513
 20
1014.718
  0
VERTEX
100
AcDbVertex
100
AcDb2dVertex
  8
0
 10
740.342
 20
1014.534
  0
VERTEX
100
AcDbVertex
100
AcDb2dVertex
  8
0
 10
736.202
 20
1013.987
  0
VERTEX
100
AcDbVertex
100
AcDb2dVertex
  8
0
 10
735.192
 20
1013.8
  0
VERTEX
100
AcDbVertex
100
AcDb2dVertex
  8
0
 10
730.085
 20
1012.573
  0
VERTEX
100
AcDbVertex
100
AcDb2dVertex
  8
0
 10
725.105
 20
1010.906
  0
VERTEX
100
AcDbVertex
100
AcDb2dVertex
  8
0
 10
720.289
 20
1008.812
  0
VERTEX
100
AcDbVertex
100
AcDb2dVertex
  8
0
 10
719.43
 20
1008.379
  0
VERTEX
100
AcDbVertex
100
AcDb2dVertex
  8
0
 10
716.544
 20
1006.716
  0
VERTEX
100
AcDbVertex
100
AcDb2dVertex
  8
0
 10
716.064
 20
1006.406
  0
VERTEX
100
AcDbVertex
100
AcDb2dVertex
  8
0
 10
712.902
 20
1004.137
  0
VERTEX
100
AcDbVertex
100
AcDb2dVertex
  8
0
 10
708.901
 20
1000.719
  0
VERTEX
100
AcDbVertex
100
AcDb2dVertex
  8
0
 10
703.998
 20
996
  0
VERTEX
100
AcDbVertex
100
AcDb2dVertex
  8
0
 10
703.08
 20
995.07
  0
VERTEX
100
AcDbVertex
100
AcDb2dVertex
  8
0
 10
697.129
 20
988.409
  0
VERTEX
100
AcDbVertex
100
AcDb2dVertex
  8
0
 10
695.265
 20
986.032
  0
VERTEX
100
AcDbVertex
100
AcDb2dVertex
  8
0
 10
691.65
 20
980.754
  0
VERTEX
100
AcDbVertex
100
AcDb2dVertex
  8
0
 10
690.225
 20
978.375
  0
VERTEX
100
AcDbVertex
100
AcDb2dVertex
  8
0
 10
686.979
 20
972.127
  0
VERTEX
100
AcDbVertex
100
AcDb2dVertex
  8
0
 10
682.548
 20
961.559
  0
VERTEX
100
AcDbVertex
100
AcDb2dVertex
  8
0
 10
680.657
 20
957.114
  0
VERTEX
100
AcDbVertex
100
AcDb2dVertex
  8
0
 10
678.988
 20
953.899
  0
VERTEX
100
AcDbVertex
100
AcDb2dVertex
  8
0
 10
677.85
 20
952.063
  0
VERTEX
100
AcDbVertex
100
AcDb2dVertex
  8
0
 10
676.556
 20
950.334
  0
VERTEX
100
AcDbVertex
100
AcDb2dVertex
  8
0
 10
675.117
 20
948.724
  0
VERTEX
100
AcDbVertex
100
AcDb2dVertex
  8
0
 10
674.822
 20
948.427
  0
VERTEX
100
AcDbVertex
100
AcDb2dVertex
  8
0
 10
673.759
 20
947.462
  0
VERTEX
100
AcDbVertex
100
AcDb2dVertex
  8
0
 10
672.615
 20
946.593
  0
VERTEX
100
AcDbVertex
100
AcDb2dVertex
  8
0
 10
671.4
 20
945.827
  0
VERTEX
100
AcDbVertex
100
AcDb2dVertex
  8
0
 10
670.124
 20
945.17
  0
VERTEX
100
AcDbVertex
100
AcDb2dVertex
  8
0
 10
670.084
 20
945.152
  0
VERTEX
100
AcDbVertex
100
AcDb2dVertex
  8
0
 10
669.06
 20
944.737
  0
VERTEX
100
AcDbVertex
100
AcDb2dVertex
  8
0
 10
668.003
 20
944.412
  0
VERTEX
100
AcDbVertex
100
AcDb2dVertex
  8
0
 10
666.922
 20
944.181
  0
VERTEX
100
AcDbVertex
100
AcDb2dVertex
  8
0
 10
665.825
 20
944.044
  0
VERTEX
100
AcDbVertex
100
AcDb2dVertex
  8
0
 10
664.827
 20
944.004
  0
VERTEX
100
AcDbVertex
100
AcDb2dVertex
  8
0
 10
663.975
 20
944.04
  0
VERTEX
100
AcDbVertex
100
AcDb2dVertex
  8
0
 10
663.13
 20
944.151
  0
VERTEX
100
AcDbVertex
100
AcDb2dVertex
  8
0
 10
662.298
 20
944.334
  0
VERTEX
100
AcDbVertex
100
AcDb2dVertex
  8
0
 10
661.485
 20
944.59
  0
VERTEX
100
AcDbVertex
100
AcDb2dVertex
  8
0
 10
660.697
 20
944.915
  0
VERTEX
100
AcDbVertex
100
AcDb2dVertex
  8
0
 10
659.94
 20
945.308
  0
VERTEX
100
AcDbVertex
100
AcDb2dVertex
  8
0
 10
659.456
 20
945.606
  0
VERTEX
100
AcDbVertex
100
AcDb2dVertex
  8
0
 10
658.487
 20
946.304
  0
VERTEX
100
AcDbVertex
100
AcDb2dVertex
  8
0
 10
657.582
 20
947.084
  0
VERTEX
100
AcDbVertex
100
AcDb2dVertex
  8
0
 10
656.749
 20
947.94
  0
VERTEX
100
AcDbVertex
100
AcDb2dVertex
  8
0
 10
655.993
 20
948.866
  0
VERTEX
100
AcDbVertex
100
AcDb2dVertex
  8
0
 10
655.321
 20
949.853
  0
VERTEX
100
AcDbVertex
100
AcDb2dVertex
  8
0
 10
655.211
 20
950.035
  0
VERTEX
100
AcDbVertex
100
AcDb2dVertex
  8
0
 10
653.896
 20
952.474
  0
VERTEX
100
AcDbVertex
100
AcDb2dVertex
  8
0
 10
652.798
 20
955.019
  0
VERTEX
100
AcDbVertex
100
AcDb2dVertex
  8
0
 10
651.927
 20
957.649
  0
VERTEX
100
AcDbVertex
100
AcDb2dVertex
  8
0
 10
651.836
 20
957.976
  0
VERTEX
100
AcDbVertex
100
AcDb2dVertex
  8
0
 10
649.02
 20
970.452
  0
VERTEX
100
AcDbVertex
100
AcDb2dVertex
  8
0
 10
644.091
 20
994.302
  0
VERTEX
100
AcDbVertex
100
AcDb2dVertex
  8
0
 10
643.622
 20
996.265
  0
VERTEX
100
AcDbVertex
100
AcDb2dVertex
  8
0
 10
638.704
 20
1013.159
  0
VERTEX
100
AcDbVertex
100
AcDb2dVertex
  8
0
 10
637.234
 20
1017.281
  0
VERTEX
100
AcDbVertex
100
AcDb2dVertex
  8
0
 10
632.46
 20
1028.514
  0
VERTEX
100
AcDbVertex
100
AcDb2dVertex
  8
0
 10
629.313
 20
1034.537
  0
VERTEX
100
AcDbVertex
100
AcDb2dVertex
  8
0
 10
624.937
 20
1041.497
  0
VERTEX
100
AcDbVertex
100
AcDb2dVertex
  8
0
 10
623.571
 20
1043.425
  0
VERTEX
100
AcDbVertex
100
AcDb2dVertex
  8
0
 10
617.915
 20
1050.548
  0
VERTEX
100
AcDbVertex
100
AcDb2dVertex
  8
0
 10
611.659
 20
1057.151
  0
VERTEX
100
AcDbVertex
100
AcDb2dVertex
  8
0
 10
608.878
 20
1059.733
  0
VERTEX
100
AcDbVertex
100
AcDb2dVertex
  8
0
 10
602.616
 20
1064.839
  0
VERTEX
100
AcDbVertex
100
AcDb2dVertex
  8
0
 10
595.934
 20
1069.38
  0
VERTEX
100
AcDbVertex
100
AcDb2dVertex
  8
0
 10
593.083
 20
1071.075
  0
VERTEX
100
AcDbVertex
100
AcDb2dVertex
  8
0
 10
585.432
 20
1075.019
  0
VERTEX
100
AcDbVertex
100
AcDb2dVertex
  8
0
 10
577.466
 20
1078.282
  0
VERTEX
100
AcDbVertex
100
AcDb2dVertex
  8
0
 10
567.523
 20
1081.428
  0
VERTEX
100
AcDbVertex
100
AcDb2dVertex
  8
0
 10
556.035
 20
1084.048
  0
VERTEX
100
AcDbVertex
100
AcDb2dVertex
  8
0
 10
548.002
 20
1085.19
  0
VERTEX
100
AcDbVertex
100
AcDb2dVertex
  8
0
 10
539.032
 20
1085.712
  0
VERTEX
100
AcDbVertex
100
AcDb2dVertex
  8
0
 10
536.201
 20
1085.655
  0
VERTEX
100
AcDbVertex
100
AcDb2dVertex
  8
0
 10
532.652
 20
1085.305
  0
VERTEX
100
AcDbVertex
100
AcDb2dVertex
  8
0
 10
529.146
 20
1084.646
  0
VERTEX
100
AcDbVertex
100
AcDb2dVertex
  8
0
 10
525.711
 20
1083.685
  0
VERTEX
100
AcDbVertex
100
AcDb2dVertex
  8
0
 10
523.787
 20
1082.972
  0
VERTEX
100
AcDbVertex
100
AcDb2dVertex
  8
0
 10
521.68
 20
1081.987
  0
VERTEX
100
AcDbVertex
100
AcDb2dVertex
  8
0
 10
519.668
 20
1080.823
  0
VERTEX
100
AcDbVertex
100
AcDb2dVertex
  8
0
 10
517.765
 20
1079.488
  0
VERTEX
100
AcDbVertex
100
AcDb2dVertex
  8
0
 10
515.985
 20
1077.992
  0
VERTEX
100
AcDbVertex
100
AcDb2dVertex
  8
0
 10
515.952
 20
1077.962
  0
VERTEX
100
AcDbVertex
100
AcDb2dVertex
  8
0
 10
514.372
 20
1076.374
  0
VERTEX
100
AcDbVertex
100
AcDb2dVertex
  8
0
 10
512.936
 20
1074.653
  0
VERTEX
100
AcDbVertex
100
AcDb2dVertex
  8
0
 10
511.656
 20
1072.815
  0
VERTEX
100
AcDbVertex
100
AcDb2dVertex
  8
0
 10
510.541
 20
1070.871
  0
VERTEX
100
AcDbVertex
100
AcDb2dVertex
  8
0
 10
509.599
 20
1068.838
  0
VERTEX
100
AcDbVertex
100
AcDb2dVertex
  8
0
 10
509.589
 20
1068.814
  0
VERTEX
100
AcDbVertex
100
AcDb2dVertex
  8
0
 10
508.436
 20
1065.613
  0
VERTEX
100
AcDbVertex
100
AcDb2dVertex
  8
0
 10
507.566
 20
1062.324
  0
VERTEX
100
AcDbVertex
100
AcDb2dVertex
  8
0
 10
506.986
 20
1058.972
  0
VERTEX
100
AcDbVertex
100
AcDb2dVertex
  8
0
 10
505.288
 20
1041.687
  0
VERTEX
100
AcDbVertex
100
AcDb2dVertex
  8
0
 10
504.241
 20
1017.926
  0
VERTEX
100
AcDbVertex
100
AcDb2dVertex
  8
0
 10
503.915
 20
985.588
  0
VERTEX
100
AcDbVertex
100
AcDb2dVertex
  8
0
 10
504.579
 20
939.773
  0
VERTEX
100
AcDbVertex
100
AcDb2dVertex
  8
0
 10
506.639
 20
900.357
  0
VERTEX
100
AcDbVertex
100
AcDb2dVertex
  8
0
 10
509.821
 20
868.761
  0
VERTEX
100
AcDbVertex
100
AcDb2dVertex
  8
0
 10
510.073
 20
866.9
  0
VERTEX
100
AcDbVertex
100
AcDb2dVertex
  8
0
 10
511.74
 20
858.111
  0
VERTEX
100
AcDbVertex
100
AcDb2dVertex
  8
0
 10
514.167
 20
849.5
  0
VERTEX
100
AcDbVertex
100
AcDb2dVertex
  8
0
 10
515.549
 20
845.719
  0
VERTEX
100
AcDbVertex
100
AcDb2dVertex
  8
0
 10
517.818
 20
840.719
  0
VERTEX
100
AcDbVertex
100
AcDb2dVertex
  8
0
 10
519.217
 20
838.081
  0
VERTEX
100
AcDbVertex
100
AcDb2dVertex
  8
0
 10
522.975
 20
831.943
  0
VERTEX
100
AcDbVertex
100
AcDb2dVertex
  8
0
 10
524.578
 20
829.644
  0
VERTEX
100
AcDbVertex
100
AcDb2dVertex
  8
0
 10
529.423
 20
823.502
  0
VERTEX
100
AcDbVertex
100
AcDb2dVertex
  8
0
 10
531.021
 20
821.695
  0
VERTEX
100
AcDbVertex
100
AcDb2dVertex
  8
0
 10
536.935
 20
815.721
  0
VERTEX
100
AcDbVertex
100
AcDb2dVertex
  8
0
 10
542.658
 20
810.723
  0
VERTEX
100
AcDbVertex
100
AcDb2dVertex
  8
0
 10
543.068
 20
810.388
  0
VERTEX
100
AcDbVertex
100
AcDb2dVertex
  8
0
 10
547.819
 20
806.871
  0
VERTEX
100
AcDbVertex
100
AcDb2dVertex
  8
0
 10
548.217
 20
806.605
  0
VERTEX
100
AcDbVertex
100
AcDb2dVertex
  8
0
 10
553.355
 20
803.503
  0
VERTEX
100
AcDbVertex
100
AcDb2dVertex
  8
0
 10
560.241
 20
799.992
  0
VERTEX
100
AcDbVertex
100
AcDb2dVertex
  8
0
 10
560.778
 20
799.739
  0
VERTEX
100
AcDbVertex
100
AcDb2dVertex
  8
0
 10
570.2
 20
795.812
  0
VERTEX
100
AcDbVertex
100
AcDb2dVertex
  8
0
 10
579.928
 20
792.722
  0
VERTEX
100
AcDbVertex
100
AcDb2dVertex
  8
0
 10
589.889
 20
790.491
  0
VERTEX
100
AcDbVertex
100
AcDb2dVertex
  8
0
 10
591.354
 20
790.244
  0
VERTEX
100
AcDbVertex
100
AcDb2dVertex
  8
0
 10
597.945
 20
789.493
  0
VERTEX
100
AcDbVertex
100
AcDb2dVertex
  8
0
 10
604.575
 20
789.319
  0
VERTEX
100
AcDbVertex
100
AcDb2dVertex
  8
0
 10
611.196
 20
789.723
  0
VERTEX
100
AcDbVertex
100
AcDb2dVertex
  8
0
 10
617.756
 20
790.703
  0
VERTEX
100
AcDbVertex
100
AcDb2dVertex
  8
0
 10
618.485
 20
790.852
  0
VERTEX
100
AcDbVertex
100
AcDb2dVertex
  8
0
 10
621.802
 20
791.715
  0
VERTEX
100
AcDbVertex
100
AcDb2dVertex
  8
0
 10
625.031
 20
792.863
  0
VERTEX
100
AcDbVertex
100
AcDb2dVertex
  8
0
 10
628.148
 20
794.289
  0
VERTEX
100
AcDbVertex
100
AcDb2dVertex
  8
0
 10
631.129
 20
795.981
  0
VERTEX
100
AcDbVertex
100
AcDb2dVertex
  8
0
 10
633.95
 20
797.926
  0
VERTEX
100
AcDbVertex
100
AcDb2dVertex
  8
0
 10
636.592
 20
800.11
  0
VERTEX
100
AcDbVertex
100
AcDb2dVertex
  8
0
 10
637.407
 20
800.891
  0
VERTEX
100
AcDbVertex
100
AcDb2dVertex
  8
0
 10
638.517
 20
802.123
  0
VERTEX
100
AcDbVertex
100
AcDb2dVertex
  8
0
 10
639.514
 20
803.447
  0
VERTEX
100
AcDbVertex
100
AcDb2dVertex
  8
0
 10
640.393
 20
804.852
  0
VERTEX
100
AcDbVertex
100
AcDb2dVertex
  8
0
 10
641.146
 20
806.329
  0
VERTEX
100
AcDbVertex
100
AcDb2dVertex
  8
0
 10
641.767
 20
807.866
  0
VERTEX
100
AcDbVertex
100
AcDb2dVertex
  8
0
 10
642.252
 20
809.451
  0
VERTEX
100
AcDbVertex
100
AcDb2dVertex
  8
0
 10
642.597
 20
811.072
  0
VERTEX
100
AcDbVertex
100
AcDb2dVertex
  8
0
 10
642.799
 20
812.717
  0
VERTEX
100
AcDbVertex
100
AcDb2dVertex
  8
0
 10
642.857
 20
814.374
  0
VERTEX
100
AcDbVertex
100
AcDb2dVertex
  8
0
 10
642.771
 20
816.029
  0
VERTEX
100
AcDbVertex
100
AcDb2dVertex
  8
0
 10
642.728
 20
816.441
  0
VERTEX
100
AcDbVertex
100
AcDb2dVertex
  8
0
 10
642.391
 20
818.586
  0
VERTEX
100
AcDbVertex
100
AcDb2dVertex
  8
0
 10
642.359
 20
818.737
  0
VERTEX
100
AcDbVertex
100
AcDb2dVertex
  8
0
 10
642.11
 20
819.685
  0
VERTEX
100
AcDbVertex
100
AcDb2dVertex
  8
0
 10
641.779
 20
820.608
  0
VERTEX
100
AcDbVertex
100
AcDb2dVertex
  8
0
 10
641.651
 20
820.906
  0
VERTEX
100
AcDbVertex
100
AcDb2dVertex
  8
0
 10
641.283
 20
821.637
  0
VERTEX
100
AcDbVertex
100
AcDb2dVertex
  8
0
 10
640.853
 20
822.333
  0
VERTEX
100
AcDbVertex
100
AcDb2dVertex
  8
0
 10
640.253
 20
823.145
  0
VERTEX
100
AcDbVertex
100
AcDb2dVertex
  8
0
 10
639.523
 20
823.976
  0
VERTEX
100
AcDbVertex
100
AcDb2dVertex
  8
0
 10
639.008
 20
824.483
  0
VERTEX
100
AcDbVertex
100
AcDb2dVertex
  8
0
 10
638.184
 20
825.184
  0
VERTEX
100
AcDbVertex
100
AcDb2dVertex
  8
0
 10
637.302
 20
825.81
  0
VERTEX
100
AcDbVertex
100
AcDb2dVertex
  8
0
 10
636.369
 20
826.357
  0
VERTEX
100
AcDbVertex
100
AcDb2dVertex
  8
0
 10
635.392
 20
826.821
  0
VERTEX
100
AcDbVertex
100
AcDb2dVertex
  8
0
 10
635.275
 20
826.87
  0
VERTEX
100
AcDbVertex
100
AcDb2dVertex
  8
0
 10
633.494
 20
827.52
  0
VERTEX
100
AcDbVertex
100
AcDb2dVertex
  8
0
 10
631.662
 20
828.012
  0
VERTEX
100
AcDbVertex
100
AcDb2dVertex
  8
0
 10
629.795
 20
828.343
  0
VERTEX
100
AcDbVertex
100
AcDb2dVertex
  8
0
 10
626.554
 20
828.689
  0
VERTEX
100
AcDbVertex
100
AcDb2dVertex
  8
0
 10
620.981
 20
828.896
  0
VERTEX
100
AcDbVertex
100
AcDb2dVertex
  8
0
 10
604.768
 20
828.582
  0
VERTEX
100
AcDbVertex
100
AcDb2dVertex
  8
0
 10
594.176
 20
828.308
  0
VERTEX
100
AcDbVertex
100
AcDb2dVertex
  8
0
 10
587.002
 20
828.307
  0
VERTEX
100
AcDbVertex
100
AcDb2dVertex
  8
0
 10
582.006
 20
828.532
  0
VERTEX
100
AcDbVertex
100
AcDb2dVertex
  8
0
 10
580.985
 20
828.649
  0
VERTEX
100
AcDbVertex
100
AcDb2dVertex
  8
0
 10
579.978
 20
828.855
  0
VERTEX
100
AcDbVertex
100
AcDb2dVertex
  8
0
 10
579.202
 20
829.078
  0
VERTEX
100
AcDbVertex
100
AcDb2dVertex
  8
0
 10
576.66
 20
830.027
  0
VERTEX
100
AcDbVertex
100
AcDb2dVertex
  8
0
 10
574.209
 20
831.194
  0
VERTEX
100
AcDbVertex
100
AcDb2dVertex
  8
0
 10
571.87
 20
832.571
  0
VERTEX
100
AcDbVertex
100
AcDb2dVertex
  8
0
 10
571.209
 20
833.012
  0
VERTEX
100
AcDbVertex
100
AcDb2dVertex
  8
0
 10
565.564
 20
837.257
  0
VERTEX
100
AcDbVertex
100
AcDb2dVertex
  8
0
 10
562.298
 20
840.093
  0
VERTEX
100
AcDbVertex
100
AcDb2dVertex
  8
0
 10
557.034
 20
845.357
  0
VERTEX
100
AcDbVertex
100
AcDb2dVertex
  8
0
 10
554.15
 20
848.672
  0
VERTEX
100
AcDbVertex
100
AcDb2dVertex
  8
0
 10
551.511
 20
852.168
  0
VERTEX
100
AcDbVertex
100
AcDb2dVertex
  8
0
 10
549.186
 20
855.882
  0
VERTEX
100
AcDbVertex
100
AcDb2dVertex
  8
0
 10
548.419
 20
857.287
  0
VERTEX
100
AcDbVertex
100
AcDb2dVertex
  8
0
 10
546.252
 20
861.886
  0
VERTEX
100
AcDbVertex
100
AcDb2dVertex
  8
0
 10
545.639
 20
863.411
  0
VERTEX
100
AcDbVertex
100
AcDb2dVertex
  8
0
 10
545.261
 20
864.532
  0
VERTEX
100
AcDbVertex
100
AcDb2dVertex
  8
0
 10
544.983
 20
865.682
  0
VERTEX
100
AcDbVertex
100
AcDb2dVertex
  8
0
 10
544.806
 20
866.852
  0
VERTEX
100
AcDbVertex
100
AcDb2dVertex
  8
0
 10
544.734
 20
867.923
  0
VERTEX
100
AcDbVertex
100
AcDb2dVertex
  8
0
 10
544.749
 20
868.844
  0
VERTEX
100
AcDbVertex
100
AcDb2dVertex
  8
0
 10
544.844
 20
869.759
  0
VERTEX
100
AcDbVertex
100
AcDb2dVertex
  8
0
 10
545.019
 20
870.663
  0
VERTEX
100
AcDbVertex
100
AcDb2dVertex
  8
0
 10
545.272
 20
871.549
  0
VERTEX
100
AcDbVertex
100
AcDb2dVertex
  8
0
 10
545.454
 20
872.053
  0
VERTEX
100
AcDbVertex
100
AcDb2dVertex
  8
0
 10
546.408
 20
874.212
  0
VERTEX
100
AcDbVertex
100
AcDb2dVertex
  8
0
 10
547.546
 20
876.279
  0
VERTEX
100
AcDbVertex
100
AcDb2dVertex
  8
0
 10
547.883
 20
876.818
  0
VERTEX
100
AcDbVertex
100
AcDb2dVertex
  8
0
 10
549.701
 20
879.396
  0
VERTEX
100
AcDbVertex
100
AcDb2dVertex
  8
0
 10
551.736
 20
881.805
  0
VERTEX
100
AcDbVertex
100
AcDb2dVertex
  8
0
 10
552.83
 20
882.94
  0
VERTEX
100
AcDbVertex
100
AcDb2dVertex
  8
0
 10
553.606
 20
883.646
  0
VERTEX
100
AcDbVertex
100
AcDb2dVertex
  8
0
 10
554.44
 20
884.282
  0
VERTEX
100
AcDbVertex
100
AcDb2dVertex
  8
0
 10
555.326
 20
884.843
  0
VERTEX
100
AcDbVertex
100
AcDb2dVertex
  8
0
 10
556.258
 20
885.324
  0
VERTEX
100
AcDbVertex
100
AcDb2dVertex
  8
0
 10
557.229
 20
885.723
  0
VERTEX
100
AcDbVertex
100
AcDb2dVertex
  8
0
 10
557.905
 20
885.944
  0
VERTEX
100
AcDbVertex
100
AcDb2dVertex
  8
0
 10
559.46
 20
886.329
  0
VERTEX
100
AcDbVertex
100
AcDb2dVertex
  8
0
 10
561.042
 20
886.578
  0
VERTEX
100
AcDbVertex
100
AcDb2dVertex
  8
0
 10
562.64
 20
886.688
  0
VERTEX
100
AcDbVertex
100
AcDb2dVertex
  8
0
 10
564.241
 20
886.658
  0
VERTEX
100
AcDbVertex
100
AcDb2dVertex
  8
0
 10
564.725
 20
886.621
  0
VERTEX
100
AcDbVertex
100
AcDb2dVertex
  8
0
 10
575.39
 20
885.2
  0
VERTEX
100
AcDbVertex
100
AcDb2dVertex
  8
0
 10
575.965
 20
885.096
  0
VERTEX
100
AcDbVertex
100
AcDb2dVertex
  8
0
 10
582.69
 20
884.062
  0
VERTEX
100
AcDbVertex
100
AcDb2dVertex
  8
0
 10
593.122
 20
883.221
  0
VERTEX
100
AcDbVertex
100
AcDb2dVertex
  8
0
 10
593.884
 20
883.202
  0
VERTEX
100
AcDbVertex
100
AcDb2dVertex
  8
0
 10
596.808
 20
883.288
  0
VERTEX
100
AcDbVertex
100
AcDb2dVertex
  8
0
 10
599.714
 20
883.629
  0
VERTEX
100
AcDbVertex
100
AcDb2dVertex
  8
0
 10
602.578
 20
884.222
  0
VERTEX
100
AcDbVertex
100
AcDb2dVertex
  8
0
 10
605.38
 20
885.062
  0
VERTEX
100
AcDbVertex
100
AcDb2dVertex
  8
0
 10
608.035
 20
886.095
  0
VERTEX
100
AcDbVertex
100
AcDb2dVertex
  8
0
 10
611.142
 20
887.598
  0
VERTEX
100
AcDbVertex
100
AcDb2dVertex
  8
0
 10
614.107
 20
889.367
  0
VERTEX
100
AcDbVertex
100
AcDb2dVertex
  8
0
 10
616.906
 20
891.387
  0
VERTEX
100
AcDbVertex
100
AcDb2dVertex
  8
0
 10
619.004
 20
893.068
  0
VERTEX
100
AcDbVertex
100
AcDb2dVertex
  8
0
 10
631.998
 20
904.6
  0
VERTEX
100
AcDbVertex
100
AcDb2dVertex
  8
0
 10
643.193
 20
915.08
  0
VERTEX
100
AcDbVertex
100
AcDb2dVertex
  8
0
 10
645.565
 20
917.044
  0
VERTEX
100
AcDbVertex
100
AcDb2dVertex
  8
0
 10
648.099
 20
918.795
  0
VERTEX
100
AcDbVertex
100
AcDb2dVertex
  8
0
 10
649.47
 20
919.613
  0
VERTEX
100
AcDbVertex
100
AcDb2dVertex
  8
0
 10
650.142
 20
919.956
  0
VERTEX
100
AcDbVertex
100
AcDb2dVertex
  8
0
 10
650.841
 20
920.239
  0
VERTEX
100
AcDbVertex
100
AcDb2dVertex
  8
0
 10
651.563
 20
920.461
  0
VERTEX
100
AcDbVertex
100
AcDb2dVertex
  8
0
 10
652.301
 20
920.618
  0
VERTEX
100
AcDbVertex
100
AcDb2dVertex
  8
0
 10
653.05
 20
920.711
  0
VERTEX
100
AcDbVertex
100
AcDb2dVertex
  8
0
 10
653.804
 20
920.738
  0
VERTEX
100
AcDbVertex
100
AcDb2dVertex
  8
0
 10
653.917
 20
920.736
  0
VERTEX
100
AcDbVertex
100
AcDb2dVertex
  8
0
 10
654.465
 20
920.7
  0
VERTEX
100
AcDbVertex
100
AcDb2dVertex
  8
0
 10
655.009
 20
920.617
  0
VERTEX
100
AcDbVertex
100
AcDb2dVertex
  8
0
 10
655.543
 20
920.487
  0
VERTEX
100
AcDbVertex
100
AcDb2dVertex
  8
0
 10
656.063
 20
920.311
  0
VERTEX
100
AcDbVertex
100
AcDb2dVertex
  8
0
 10
656.566
 20
920.09
  0
VERTEX
100
AcDbVertex
100
AcDb2dVertex
  8
0
 10
657.048
 20
919.826
  0
VERTEX
100
AcDbVertex
100
AcDb2dVertex
  8
0
 10
657.506
 20
919.521
  0
VERTEX
100
AcDbVertex
100
AcDb2dVertex
  8
0
 10
657.85
 20
919.25
  0
VERTEX
100
AcDbVertex
100
AcDb2dVertex
  8
0
 10
658.545
 20
918.609
  0
VERTEX
100
AcDbVertex
100
AcDb2dVertex
  8
0
 10
659.181
 20
917.91
  0
VERTEX
100
AcDbVertex
100
AcDb2dVertex
  8
0
 10
659.754
 20
917.157
  0
VERTEX
100
AcDbVertex
100
AcDb2dVertex
  8
0
 10
660.259
 20
916.358
  0
VERTEX
100
AcDbVertex
100
AcDb2dVertex
  8
0
 10
660.28
 20
916.322
  0
VERTEX
100
AcDbVertex
100
AcDb2dVertex
  8
0
 10
662.877
 20
911.244
  0
VERTEX
100
AcDbVertex
100
AcDb2dVertex
  8
0
 10
663.043
 20
910.877
  0
VERTEX
100
AcDbVertex
100
AcDb2dVertex
  8
0
 10
666.51
 20
902.482
  0
VERTEX
100
AcDbVertex
100
AcDb2dVertex
  8
0
 10
671.464
 20
889
  0
VERTEX
100
AcDbVertex
100
AcDb2dVertex
  8
0
 10
677.651
 20
872.943
  0
VERTEX
100
AcDbVertex
100
AcDb2dVertex
  8
0
 10
684.189
 20
858.395
  0
VERTEX
100
AcDbVertex
100
AcDb2dVertex
  8
0
 10
690.586
 20
846.287
  0
VERTEX
100
AcDbVertex
100
AcDb2dVertex
  8
0
 10
693.076
 20
842.295
  0
VERTEX
100
AcDbVertex
100
AcDb2dVertex
  8
0
 10
696.271
 20
838
  0
VERTEX
100
AcDbVertex
100
AcDb2dVertex
  8
0
 10
700.398
 20
833.338
  0
VERTEX
100
AcDbVertex
100
AcDb2dVertex
  8
0
 10
705.157
 20
828.805
  0
VERTEX
100
AcDbVertex
100
AcDb2dVertex
  8
0
 10
710.293
 20
824.703
  0
VERTEX
100
AcDbVertex
100
AcDb2dVertex
  8
0
 10
711.396
 20
823.915
  0
VERTEX
100
AcDbVertex
100
AcDb2dVertex
  8
0
 10
716.298
 20
820.799
  0
VERTEX
100
AcDbVertex
100
AcDb2dVertex
  8
0
 10
721.453
 20
818.122
  0
VERTEX
100
AcDbVertex
100
AcDb2dVertex
  8
0
 10
726.821
 20
815.904
  0
VERTEX
100
AcDbVertex
100
AcDb2dVertex
  8
0
 10
728.601
 20
815.288
  0
VERTEX
100
AcDbVertex
100
AcDb2dVertex
  8
0
 10
733.852
 20
813.81
  0
VERTEX
100
AcDbVertex
100
AcDb2dVertex
  8
0
 10
739.212
 20
812.796
  0
VERTEX
100
AcDbVertex
100
AcDb2dVertex
  8
0
 10
744.64
 20
812.252
  0
VERTEX
100
AcDbVertex
100
AcDb2dVertex
  8
0
 10
747.263
 20
812.163
  0
VERTEX
100
AcDbVertex
100
AcDb2dVertex
  8
0
 10
752.37
 20
812.328
  0
VERTEX
100
AcDbVertex
100
AcDb2dVertex
  8
0
 10
757.443
 20
812.937
  0
VERTEX
100
AcDbVertex
100
AcDb2dVertex
  8
0
 10
762.444
 20
813.986
  0
VERTEX
100
AcDbVertex
100
AcDb2dVertex
  8
0
 10
765.249
 20
814.765
  0
VERTEX
100
AcDbVertex
100
AcDb2dVertex
  8
0
 10
771.098
 20
816.801
  0
VERTEX
100
AcDbVertex
100
AcDb2dVertex
  8
0
 10
774.596
 20
818.34
  0
VERTEX
100
AcDbVertex
100
AcDb2dVertex
  8
0
 10
778.693
 20
820.546
  0
VERTEX
100
AcDbVertex
100
AcDb2dVertex
  8
0
 10
781.818
 20
822.545
  0
VERTEX
100
AcDbVertex
100
AcDb2dVertex
  8
0
 10
785.925
 20
825.63
  0
VERTEX
100
AcDbVertex
100
AcDb2dVertex
  8
0
 10
786.754
 20
826.318
  0
VERTEX
100
AcDbVertex
100
AcDb2dVertex
  8
0
 10
793.5
 20
832.5
  0
VERTEX
100
AcDbVertex
100
AcDb2dVertex
  8
0
 10
797.22
 20
836.451
  0
VERTEX
100
AcDbVertex
100
AcDb2dVertex
  8
0
 10
802.159
 20
842.542
  0
VERTEX
100
AcDbVertex
100
AcDb2dVertex
  8
0
 10
806.549
 20
849.04
  0
VERTEX
100
AcDbVertex
100
AcDb2dVertex
  8
0
 10
807.031
 20
849.836
  0
VERTEX
100
AcDbVertex
100
AcDb2dVertex
  8
0
 10
810.051
 20
855.444
  0
VERTEX
100
AcDbVertex
100
AcDb2dVertex
  8
0
 10
812.572
 20
861.294
  0
VERTEX
100
AcDbVertex
100
AcDb2dVertex
  8
0
 10
814.573
 20
867.342
  0
VERTEX
100
AcDbVertex
100
AcDb2dVertex
  8
0
 10
816.106
 20
873.665
  0
VERTEX
100
AcDbVertex
100
AcDb2dVertex
  8
0
 10
817.269
 20
881.043
  0
VERTEX
100
AcDbVertex
100
AcDb2dVertex
  8
0
 10
817.784
 20
888.494
  0
SEQEND
  0
POLYLINE
100
AcDb2dPolyline
  8
0
 66
   1
 70
   1
 40
0.0
 41
0.0
  0
VERTEX
100
AcDbVertex
100
AcDb2dVertex
  8
0
 10
899.407
 20
1091.638
  0
VERTEX
100
AcDbVertex
100
AcDb2dVertex
  8
0
 10
899.327
 20
1094.416
  0
VERTEX
100
AcDbVertex
100
AcDb2dVertex
  8
0
 10
898.965
 20
1097.73
  0
VERTEX
100
AcDbVertex
100
AcDb2dVertex
  8
0
 10
898.908
 20
1098.071
  0
VERTEX
100
AcDbVertex
100
AcDb2dVertex
  8
0
 10
898.673
 20
1099.097
  0
VERTEX
100
AcDbVertex
100
AcDb2dVertex
  8
0
 10
898.35
 20
1100.099
  0
VERTEX
100
AcDbVertex
100
AcDb2dVertex
  8
0
 10
897.941
 20
1101.069
  0
VERTEX
100
AcDbVertex
100
AcDb2dVertex
  8
0
 10
897.449
 20
1102
  0
VERTEX
100
AcDbVertex
100
AcDb2dVertex
  8
0
 10
896.995
 20
1102.723
  0
VERTEX
100
AcDbVertex
100
AcDb2dVertex
  8
0
 10
896.275
 20
1103.7
  0
VERTEX
100
AcDbVertex
100
AcDb2dVertex
  8
0
 10
895.472
 20
1104.611
  0
VERTEX
100
AcDbVertex
100
AcDb2dVertex
  8
0
 10
894.593
 20
1105.448
  0
VERTEX
100
AcDbVertex
100
AcDb2dVertex
  8
0
 10
894.548
 20
1105.487
  0
VERTEX
100
AcDbVertex
100
AcDb2dVertex
  8
0
 10
893.31
 20
1106.469
  0
VERTEX
100
AcDbVertex
100
AcDb2dVertex
  8
0
 10
891.99
 20
1107.34
  0
VERTEX
100
AcDbVertex
100
AcDb2dVertex
  8
0
 10
890.6
 20
1108.093
  0
VERTEX
100
AcDbVertex
100
AcDb2dVertex
  8
0
 10
889.463
 20
1108.61
  0
VERTEX
100
AcDbVertex
100
AcDb2dVertex
  8
0
 10
887.486
 20
1109.348
  0
VERTEX
100
AcDbVertex
100
AcDb2dVertex
  8
0
 10
885.451
 20
1109.911
  0
VERTEX
100
AcDbVertex
100
AcDb2dVertex
  8
0
 10
883.008
 20
1110.402
  0
VERTEX
100
AcDbVertex
100
AcDb2dVertex
  8
0
 10
879.154
 20
1110.893
  0
VERTEX
100
AcDbVertex
100
AcDb2dVertex
  8
0
 10
872.239
 20
1111.264
  0
VERTEX
100
AcDbVertex
100
AcDb2dVertex
  8
0
 10
866.019
 20
1111.16
  0
VERTEX
100
AcDbVertex
100
AcDb2dVertex
  8
0
 10
859.922
 20
1110.554
  0
VERTEX
100
AcDbVertex
100
AcDb2dVertex
  8
0
 10
853.386
 20
1109.41
  0
VERTEX
100
AcDbVertex
100
AcDb2dVertex
  8
0
 10
853.09
 20
1109.347
  0
VERTEX
100
AcDbVertex
100
AcDb2dVertex
  8
0
 10
850.098
 20
1108.557
  0
VERTEX
100
AcDbVertex
100
AcDb2dVertex
  8
0
 10
847.187
 20
1107.51
  0
VERTEX
100
AcDbVertex
100
AcDb2dVertex
  8
0
 10
846.741
 20
1107.321
  0
VERTEX
100
AcDbVertex
100
AcDb2dVertex
  8
0
 10
845.216
 20
1106.57
  0
VERTEX
100
AcDbVertex
100
AcDb2dVertex
  8
0
 10
843.762
 20
1105.689
  0
VERTEX
100
AcDbVertex
100
AcDb2dVertex
  8
0
 10
842.391
 20
1104.685
  0
VERTEX
100
AcDbVertex
100
AcDb2dVertex
  8
0
 10
841.749
 20
1104.143
  0
VERTEX
100
AcDbVertex
100
AcDb2dVertex
  8
0
 10
840.692
 20
1103.12
  0
VERTEX
100
AcDbVertex
100
AcDb2dVertex
  8
0
 10
839.729
 20
1102.009
  0
VERTEX
100
AcDbVertex
100
AcDb2dVertex
  8
0
 10
838.866
 20
1100.818
  0
VERTEX
100
AcDbVertex
100
AcDb2dVertex
  8
0
 10
838.854
 20
1100.8
  0
VERTEX
100
AcDbVertex
100
AcDb2dVertex
  8
0
 10
837.907
 20
1099.216
  0
VERTEX
100
AcDbVertex
100
AcDb2dVertex
  8
0
 10
837.102
 20
1097.555
  0
VERTEX
100
AcDbVertex
100
AcDb2dVertex
  8
0
 10
836.444
 20
1095.83
  0
VERTEX
100
AcDbVertex
100
AcDb2dVertex
  8
0
 10
836.195
 20
1095.038
  0
VERTEX
100
AcDbVertex
100
AcDb2dVertex
  8
0
 10
835.657
 20
1092.88
  0
VERTEX
100
AcDbVertex
100
AcDb2dVertex
  8
0
 10
835.308
 20
1090.683
  0
VERTEX
100
AcDbVertex
100
AcDb2dVertex
  8
0
 10
835.153
 20
1088.464
  0
VERTEX
100
AcDbVertex
100
AcDb2dVertex
  8
0
 10
835.277
 20
1076.166
  0
VERTEX
100
AcDbVertex
100
AcDb2dVertex
  8
0
 10
836.492
 20
1061.174
  0
VERTEX
100
AcDbVertex
100
AcDb2dVertex
  8
0
 10
838.835
 20
1044.5
  0
VERTEX
100
AcDbVertex
100
AcDb2dVertex
  8
0
 10
843.101
 20
1015.515
  0
VERTEX
100
AcDbVertex
100
AcDb2dVertex
  8
0
 10
845.951
 20
988.583
  0
VERTEX
100
AcDbVertex
100
AcDb2dVertex
  8
0
 10
847.711
 20
960.039
  0
VERTEX
100
AcDbVertex
100
AcDb2dVertex
  8
0
 10
848.657
 20
926
  0
VERTEX
100
AcDbVertex
100
AcDb2dVertex
  8
0
 10
848.843
 20
906.391
  0
VERTEX
100
AcDbVertex
100
AcDb2dVertex
  8
0
 10
848.744
 20
890.025
  0
VERTEX
100
AcDbVertex
100
AcDb2dVertex
  8
0
 10
848.336
 20
874.612
  0
VERTEX
100
AcDbVertex
100
AcDb2dVertex
  8
0
 10
847.579
 20
858
  0
VERTEX
100
AcDbVertex
100
AcDb2dVertex
  8
0
 10
845.994
 20
827.038
  0
VERTEX
100
AcDbVertex
100
AcDb2dVertex
  8
0
 10
845.297
 20
808.062
  0
VERTEX
100
AcDbVertex
100
AcDb2dVertex
  8
0
 10
845.182
 20
795.494
  0
VERTEX
100
AcDbVertex
100
AcDb2dVertex
  8
0
 10
845.184
 20
795.285
  0
VERTEX
100
AcDbVertex
100
AcDb2dVertex
  8
0
 10
845.368
 20
792.03
  0
VERTEX
100
AcDbVertex
100
AcDb2dVertex
  8
0
 10
845.834
 20
788.803
  0
VERTEX
100
AcDbVertex
100
AcDb2dVertex
  8
0
 10
846.123
 20
787.444
  0
VERTEX
100
AcDbVertex
100
AcDb2dVertex
  8
0
 10
846.86
 20
784.836
  0
VERTEX
100
AcDbVertex
100
AcDb2dVertex
  8
0
 10
847.822
 20
782.302
  0
VERTEX
100
AcDbVertex
100
AcDb2dVertex
  8
0
 10
848.298
 20
781.282
  0
VERTEX
100
AcDbVertex
100
AcDb2dVertex
  8
0
 10
849.09
 20
779.869
  0
VERTEX
100
AcDbVertex
100
AcDb2dVertex
  8
0
 10
850.001
 20
778.531
  0
VERTEX
100
AcDbVertex
100
AcDb2dVertex
  8
0
 10
851.026
 20
777.278
  0
VERTEX
100
AcDbVertex
100
AcDb2dVertex
  8
0
 10
851.335
 20
776.943
  0
VERTEX
100
AcDbVertex
100
AcDb2dVertex
  8
0
 10
852.199
 20
776.113
  0
VERTEX
100
AcDbVertex
100
AcDb2dVertex
  8
0
 10
853.133
 20
775.361
  0
VERTEX
100
AcDbVertex
100
AcDb2dVertex
  8
0
 10
854.129
 20
774.693
  0
VERTEX
100
AcDbVertex
100
AcDb2dVertex
  8
0
 10
855.179
 20
774.115
  0
VERTEX
100
AcDbVertex
100
AcDb2dVertex
  8
0
 10
855.405
 20
774.006
  0
VERTEX
100
AcDbVertex
100
AcDb2dVertex
  8
0
 10
856.271
 20
773.648
  0
VERTEX
100
AcDbVertex
100
AcDb2dVertex
  8
0
 10
857.164
 20
773.366
  0
VERTEX
100
AcDbVertex
100
AcDb2dVertex
  8
0
 10
858.079
 20
773.163
  0
VERTEX
100
AcDbVertex
100
AcDb2dVertex
  8
0
 10
859.008
 20
773.041
  0
VERTEX
100
AcDbVertex
100
AcDb2dVertex
  8
0
 10
859.944
 20
773
  0
VERTEX
100
AcDbVertex
100
AcDb2dVertex
  8
0
 10
860.004
 20
773
  0
VERTEX
100
AcDbVertex
100
AcDb2dVertex
  8
0
 10
861.171
 20
773.056
  0
VERTEX
100
AcDbVertex
100
AcDb2dVertex
  8
0
 10
862.329
 20
773.214
  0
VERTEX
100
AcDbVertex
100
AcDb2dVertex
  8
0
 10
863.469
 20
773.472
  0
VERTEX
100
AcDbVertex
100
AcDb2dVertex
  8
0
 10
864.581
 20
773.829
  0
VERTEX
100
AcDbVertex
100
AcDb2dVertex
  8
0
 10
865.659
 20
774.281
  0
VERTEX
100
AcDbVertex
100
AcDb2dVertex
  8
0
 10
866.693
 20
774.825
  0
VERTEX
100
AcDbVertex
100
AcDb2dVertex
  8
0
 10
867.175
 20
775.112
  0
VERTEX
100
AcDbVertex
100
AcDb2dVertex
  8
0
 10
869.449
 20
776.633
  0
VERTEX
100
AcDbVertex
100
AcDb2dVertex
  8
0
 10
871.582
 20
778.347
  0
VERTEX
100
AcDbVertex
100
AcDb2dVertex
  8
0
 10
873.557
 20
780.24
  0
VERTEX
100
AcDbVertex
100
AcDb2dVertex
  8
0
 10
875.458
 20
782.37
  0
VERTEX
100
AcDbVertex
100
AcDb2dVertex
  8
0
 10
877.649
 20
785.249
  0
VERTEX
100
AcDbVertex
100
AcDb2dVertex
  8
0
 10
879.581
 20
788.309
  0
VERTEX
100
AcDbVertex
100
AcDb2dVertex
  8
0
 10
880.438
 20
789.871
  0
VERTEX
100
AcDbVertex
100
AcDb2dVertex
  8
0
 10
882.321
 20
793.861
  0
VERTEX
100
AcDbVertex
100
AcDb2dVertex
  8
0
 10
883.848
 20
798
  0
VERTEX
100
AcDbVertex
100
AcDb2dVertex
  8
0
 10
884.714
 20
801.101
  0
VERTEX
100
AcDbVertex
100
AcDb2dVertex
  8
0
 10
885.423
 20
804.77
  0
VERTEX
100
AcDbVertex
100
AcDb2dVertex
  8
0
 10
885.81
 20
808.487
  0
VERTEX
100
AcDbVertex
100
AcDb2dVertex
  8
0
 10
887.353
 20
838.475
  0
VERTEX
100
AcDbVertex
100
AcDb2dVertex
  8
0
 10
888.865
 20
882.859
  0
VERTEX
100
AcDbVertex
100
AcDb2dVertex
  8
0
 10
890.53
 20
954.5
  0
VERTEX
100
AcDbVertex
100
AcDb2dVertex
  8
0
 10
891.908
 20
1013.424
  0
VERTEX
100
AcDbVertex
100
AcDb2dVertex
  8
0
 10
893.131
 20
1043.668
  0
VERTEX
100
AcDbVertex
100
AcDb2dVertex
  8
0
 10
894.722
 20
1062.678
  0
VERTEX
100
AcDbVertex
100
AcDb2dVertex
  8
0
 10
896.094
 20
1071.427
  0
VERTEX
100
AcDbVertex
100
AcDb2dVertex
  8
0
 10
897.254
 20
1076.5
  0
VERTEX
100
AcDbVertex
100
AcDb2dVertex
  8
0
 10
897.552
 20
1077.704
  0
VERTEX
100
AcDbVertex
100
AcDb2dVertex
  8
0
 10
898.844
 20
1084.39
  0
VERTEX
100
AcDbVertex
100
AcDb2dVertex
  8
0
 10
899.174
 20
1087.099
  0
VERTEX
100
AcDbVertex
100
AcDb2dVertex
  8
0
 10
899.407
 20
1091.638
  0
SEQEND
  0
POLYLINE
100
AcDb2dPolyline
  8
0
 66
   1
 70
   1
 40
0.0
 41
0.0
  0
VERTEX
100
AcDbVertex
100
AcDb2dVertex
  8
0
 10
1350.988
 20
734.509
  0
VERTEX
100
AcDbVertex
100
AcDb2dVertex
  8
0
 10
1349.958
 20
765.05
  0
VERTEX
100
AcDbVertex
100
AcDb2dVertex
  8
0
 10
1347
 20
790.14
  0
VERTEX
100
AcDbVertex
100
AcDb2dVertex
  8
0
 10
1341.84
 20
817.257
  0
VERTEX
100
AcDbVertex
100
AcDb2dVertex
  8
0
 10
1334.899
 20
844.563
  0
VERTEX
100
AcDbVertex
100
AcDb2dVertex
  8
0
 10
1326.576
 20
870.239
  0
VERTEX
100
AcDbVertex
100
AcDb2dVertex
  8
0
 10
1326.076
 20
871.609
  0
VERTEX
100
AcDbVertex
100
AcDb2dVertex
  8
0
 10
1314.766
 20
898.677
  0
VERTEX
100
AcDbVertex
100
AcDb2dVertex
  8
0
 10
1299.367
 20
928.667
  0
VERTEX
100
AcDbVertex
100
AcDb2dVertex
  8
0
 10
1279.202
 20
962.417
  0
VERTEX
100
AcDbVertex
100
AcDb2dVertex
  8
0
 10
1252.714
 20
1002.5
  0
VERTEX
100
AcDbVertex
100
AcDb2dVertex
  8
0
 10
1241.019
 20
1019.188
  0
VERTEX
100
AcDbVertex
100
AcDb2dVertex
  8
0
 10
1232.723
 20
1029.923
  0
VERTEX
100
AcDbVertex
100
AcDb2dVertex
  8
0
 10
1223.354
 20
1040.463
  0
VERTEX
100
AcDbVertex
100
AcDb2dVertex
  8
0
 10
1207.5
 20
1056.877
  0
VERTEX
100
AcDbVertex
100
AcDb2dVertex
  8
0
 10
1183.929
 20
1080.191
  0
VERTEX
100
AcDbVertex
100
AcDb2dVertex
  8
0
 10
1160.795
 20
1101.695
  0
VERTEX
100
AcDbVertex
100
AcDb2dVertex
  8
0
 10
1139.347
 20
1120.29
  0
VERTEX
100
AcDbVertex
100
AcDb2dVertex
  8
0
 10
1121
 20
1134.644
  0
VERTEX
100
AcDbVertex
100
AcDb2dVertex
  8
0
 10
1086.444
 20
1158.752
  0
VERTEX
100
AcDbVertex
100
AcDb2dVertex
  8
0
 10
1016.185
 20
1201.165
  0
VERTEX
100
AcDbVertex
100
AcDb2dVertex
  8
0
 10
977.141
 20
1221.258
  0
VERTEX
100
AcDbVertex
100
AcDb2dVertex
  8
0
 10
904.438
 20
1252.638
  0
VERTEX
100
AcDbVertex
100
AcDb2dVertex
  8
0
 10
864.632
 20
1266.815
  0
VERTEX
100
AcDbVertex
100
AcDb2dVertex
  8
0
 10
782.912
 20
1290.031
  0
VERTEX
100
AcDbVertex
100
AcDb2dVertex
  8
0
 10
759.216
 20
1295.422
  0
VERTEX
100
AcDbVertex
100
AcDb2dVertex
  8
0
 10
648.818
 20
1314.442
  0
VERTEX
100
AcDbVertex
100
AcDb2dVertex
  8
0
 10
625.822
 20
1317.109
  0
VERTEX
100
AcDbVertex
100
AcDb2dVertex
  8
0
 10
599.25
 20
1319.68
  0
VERTEX
100
AcDbVertex
100
AcDb2dVertex
  8
0
 10
573.643
 20
1321.769
  0
VERTEX
100
AcDbVertex
100
AcDb2dVertex
  8
0
 10
554
 20
1322.897
  0
VERTEX
100
AcDbVertex
100
AcDb2dVertex
  8
0
 10
498.221
 20
1323.624
  0
VERTEX
100
AcDbVertex
100
AcDb2dVertex
  8
0
 10
436.731
 20
1321.434
  0
VERTEX
100
AcDbVertex
100
AcDb2dVertex
  8
0
 10
374.28
 20
1316.624
  0
VERTEX
100
AcDbVertex
100
AcDb2dVertex
  8
0
 10
315.557
 20
1309.444
  0
VERTEX
100
AcDbVertex
100
AcDb2dVertex
  8
0
 10
300.694
 20
1307.065
  0
VERTEX
100
AcDbVertex
100
AcDb2dVertex
  8
0
 10
290.597
 20
1304.922
  0
VERTEX
100
AcDbVertex
100
AcDb2dVertex
  8
0
 10
289.501
 20
1304.636
  0
VERTEX
100
AcDbVertex
100
AcDb2dVertex
  8
0
 10
283.704
 20
1302.801
  0
VERTEX
100
AcDbVertex
100
AcDb2dVertex
  8
0
 10
283.064
 20
1302.543
  0
VERTEX
100
AcDbVertex
100
AcDb2dVertex
  8
0
 10
282.228
 20
1302.131
  0
VERTEX
100
AcDbVertex
100
AcDb2dVertex
  8
0
 10
281.432
 20
1301.647
  0
VERTEX
100
AcDbVertex
100
AcDb2dVertex
  8
0
 10
280.68
 20
1301.096
  0
VERTEX
100
AcDbVertex
100
AcDb2dVertex
  8
0
 10
279.98
 20
1300.481
  0
VERTEX
100
AcDbVertex
100
AcDb2dVertex
  8
0
 10
279.024
 20
1299.506
  0
VERTEX
100
AcDbVertex
100
AcDb2dVertex
  8
0
 10
277.792
 20
1298.045
  0
VERTEX
100
AcDbVertex
100
AcDb2dVertex
  8
0
 10
276.691
 20
1296.483
  0
VERTEX
100
AcDbVertex
100
AcDb2dVertex
  8
0
 10
275.732
 20
1294.831
  0
VERTEX
100
AcDbVertex
100
AcDb2dVertex
  8
0
 10
274.919
 20
1293.101
  0
VERTEX
100
AcDbVertex
100
AcDb2dVertex
  8
0
 10
274.261
 20
1291.307
  0
VERTEX
100
AcDbVertex
100
AcDb2dVertex
  8
0
 10
273.762
 20
1289.463
  0
VERTEX
100
AcDbVertex
100
AcDb2dVertex
  8
0
 10
273.425
 20
1287.582
  0
VERTEX
100
AcDbVertex
100
AcDb2dVertex
  8
0
 10
273.253
 20
1285.679
  0
VERTEX
100
AcDbVertex
100
AcDb2dVertex
  8
0
 10
273.137
 20
1282.207
  0
VERTEX
100
AcDbVertex
100
AcDb2dVertex
  8
0
 10
273.409
 20
1270.617
  0
VERTEX
100
AcDbVertex
100
AcDb2dVertex
  8
0
 10
274.69
 20
1259.095
  0
VERTEX
100
AcDbVertex
100
AcDb2dVertex
  8
0
 10
275.319
 20
1255.38
  0
VERTEX
100
AcDbVertex
100
AcDb2dVertex
  8
0
 10
278.05
 20
1243.437
  0
VERTEX
100
AcDbVertex
100
AcDb2dVertex
  8
0
 10
281.812
 20
1231.778
  0
VERTEX
100
AcDbVertex
100
AcDb2dVertex
  8
0
 10
283.294
 20
1228.204
  0
VERTEX
100
AcDbVertex
100
AcDb2dVertex
  8
0
 10
285.357
 20
1224.182
  0
VERTEX
100
AcDbVertex
100
AcDb2dVertex
  8
0
 10
287.763
 20
1220.355
  0
VERTEX
100
AcDbVertex
100
AcDb2dVertex
  8
0
 10
290.494
 20
1216.753
  0
VERTEX
100
AcDbVertex
100
AcDb2dVertex
  8
0
 10
293.528
 20
1213.402
  0
VERTEX
100
AcDbVertex
100
AcDb2dVertex
  8
0
 10
294.152
 20
1212.79
  0
VERTEX
100
AcDbVertex
100
AcDb2dVertex
  8
0
 10
295.925
 20
1211.25
  0
VERTEX
100
AcDbVertex
100
AcDb2dVertex
  8
0
 10
297.825
 20
1209.871
  0
VERTEX
100
AcDbVertex
100
AcDb2dVertex
  8
0
 10
299.838
 20
1208.662
  0
VERTEX
100
AcDbVertex
100
AcDb2dVertex
  8
0
 10
299.915
 20
1208.621
  0
VERTEX
100
AcDbVertex
100
AcDb2dVertex
  8
0
 10
300.877
 20
1208.16
  0
VERTEX
100
AcDbVertex
100
AcDb2dVertex
  8
0
 10
301.876
 20
1207.786
  0
VERTEX
100
AcDbVertex
100
AcDb2dVertex
  8
0
 10
302.903
 20
1207.5
  0
VERTEX
100
AcDbVertex
100
AcDb2dVertex
  8
0
 10
303.952
 20
1207.304
  0
VERTEX
100
AcDbVertex
100
AcDb2dVertex
  8
0
 10
305.013
 20
1207.201
  0
VERTEX
100
AcDbVertex
100
AcDb2dVertex
  8
0
 10
306.08
 20
1207.19
  0
VERTEX
100
AcDbVertex
100
AcDb2dVertex
  8
0
 10
306.699
 20
1207.217
  0
VERTEX
100
AcDbVertex
100
AcDb2dVertex
  8
0
 10
309.441
 20
1207.483
  0
VERTEX
100
AcDbVertex
100
AcDb2dVertex
  8
0
 10
312.149
 20
1207.988
  0
VERTEX
100
AcDbVertex
100
AcDb2dVertex
  8
0
 10
314.803
 20
1208.726
  0
VERTEX
100
AcDbVertex
100
AcDb2dVertex
  8
0
 10
331.927
 20
1214.695
  0
VERTEX
100
AcDbVertex
100
AcDb2dVertex
  8
0
 10
339.697
 20
1217.488
  0
VERTEX
100
AcDbVertex
100
AcDb2dVertex
  8
0
 10
348.662
 20
1220.534
  0
VERTEX
100
AcDbVertex
100
AcDb2dVertex
  8
0
 10
357.407
 20
1223.367
  0
VERTEX
100
AcDbVertex
100
AcDb2dVertex
  8
0
 10
364.427
 20
1225.481
  0
VERTEX
100
AcDbVertex
100
AcDb2dVertex
  8
0
 10
409.729
 20
1236.328
  0
VERTEX
100
AcDbVertex
100
AcDb2dVertex
  8
0
 10
455.803
 20
1243.185
  0
VERTEX
100
AcDbVertex
100
AcDb2dVertex
  8
0
 10
502.3
 20
1246
  0
VERTEX
100
AcDbVertex
100
AcDb2dVertex
  8
0
 10
503.637
 20
1246.021
  0
VERTEX
100
AcDbVertex
100
AcDb2dVertex
  8
0
 10
591.295
 20
1243.452
  0
VERTEX
100
AcDbVertex
100
AcDb2dVertex
  8
0
 10
668.542
 20
1234.795
  0
VERTEX
100
AcDbVertex
100
AcDb2dVertex
  8
0
 10
762.587
 20
1216.327
  0
VERTEX
100
AcDbVertex
100
AcDb2dVertex
  8
0
 10
837.879
 20
1195.235
  0
VERTEX
100
AcDbVertex
100
AcDb2dVertex
  8
0
 10
912.923
 20
1167.641
  0
VERTEX
100
AcDbVertex
100
AcDb2dVertex
  8
0
 10
985.277
 20
1133.611
  0
VERTEX
100
AcDbVertex
100
AcDb2dVertex
  8
0
 10
990.933
 20
1130.618
  0
VERTEX
100
AcDbVertex
100
AcDb2dVertex
  8
0
 10
1024.401
 20
1112.03
  0
VERTEX
100
AcDbVertex
100
AcDb2dVertex
  8
0
 10
1055.431
 20
1093.284
  0
VERTEX
100
AcDbVertex
100
AcDb2dVertex
  8
0
 10
1083.739
 20
1074.569
  0
VERTEX
100
AcDbVertex
100
AcDb2dVertex
  8
0
 10
1109
 20
1056.077
  0
VERTEX
100
AcDbVertex
100
AcDb2dVertex
  8
0
 10
1130.33
 20
1038.029
  0
VERTEX
100
AcDbVertex
100
AcDb2dVertex
  8
0
 10
1131.698
 20
1036.758
  0
VERTEX
100
AcDbVertex
100
AcDb2dVertex
  8
0
 10
1157.999
 20
1010.917
  0
VERTEX
100
AcDbVertex
100
AcDb2dVertex
  8
0
 10
1185.431
 20
981.235
  0
VERTEX
100
AcDbVertex
100
AcDb2dVertex
  8
0
 10
1211.739
 20
950
  0
VERTEX
100
AcDbVertex
100
AcDb2dVertex
  8
0
 10
1233.511
 20
920.368
  0
VERTEX
100
AcDbVertex
100
AcDb2dVertex
  8
0
 10
1245.442
 20
901.487
  0
VERTEX
100
AcDbVertex
100
AcDb2dVertex
  8
0
 10
1262.337
 20
870.07
  0
VERTEX
100
AcDbVertex
100
AcDb2dVertex
  8
0
 10
1271.745
 20
849.096
  0
VERTEX
100
AcDbVertex
100
AcDb2dVertex
  8
0
 10
1283.882
 20
815.837
  0
VERTEX
100
AcDbVertex
100
AcDb2dVertex
  8
0
 10
1290.203
 20
793.681
  0
VERTEX
100
AcDbVertex
100
AcDb2dVertex
  8
0
 10
1297.459
 20
758.932
  0
VERTEX
100
AcDbVertex
100
AcDb2dVertex
  8
0
 10
1300.53
 20
736.153
  0
VERTEX
100
AcDbVertex
100
AcDb2dVertex
  8
0
 10
1301.605
 20
720.594
  0
VERTEX
100
AcDbVertex
100
AcDb2dVertex
  8
0
 10
1301.935
 20
699.966
  0
VERTEX
100
AcDbVertex
100
AcDb2dVertex
  8
0
 10
1301.598
 20
679.33
  0
VERTEX
100
AcDbVertex
100
AcDb2dVertex
  8
0
 10
1300.518
 20
663.739
  0
VERTEX
100
AcDbVertex
100
AcDb2dVertex
  8
0
 10
1296.041
 20
633.985
  0
VERTEX
100
AcDbVertex
100
AcDb2dVertex
  8
0
 10
1291.318
 20
613.239
  0
VERTEX
100
AcDbVertex
100
AcDb2dVertex
  8
0
 10
1284.179
 20
590.026
  0
VERTEX
100
AcDbVertex
100
AcDb2dVertex
  8
0
 10
1275.045
 20
567.523
  0
VERTEX
100
AcDbVertex
100
AcDb2dVertex
  8
0
 10
1274.999
 20
567.423
  0
VERTEX
100
AcDbVertex
100
AcDb2dVertex
  8
0
 10
1263.419
 20
544.809
  0
VERTEX
100
AcDbVertex
100
AcDb2dVertex
  8
0
 10
1250.557
 20
524.228
  0
VERTEX
100
AcDbVertex
100
AcDb2dVertex
  8
0
 10
1228.82
 20
495.268
  0
VERTEX
100
AcDbVertex
100
AcDb2dVertex
  8
0
 10
1217.044
 20
481.549
  0
VERTEX
100
AcDbVertex
100
AcDb2dVertex
  8
0
 10
1200.506
 20
464.32
  0
VERTEX
100
AcDbVertex
100
AcDb2dVertex
  8
0
 10
1182.958
 20
448.383
  0
VERTEX
100
AcDbVertex
100
AcDb2dVertex
  8
0
 10
1162.851
 20
432.411
  0
VERTEX
100
AcDbVertex
100
AcDb2dVertex
  8
0
 10
1138.5
 20
415.028
  0
VERTEX
100
AcDbVertex
100
AcDb2dVertex
  8
0
 10
1131.213
 20
409.992
  0
VERTEX
100
AcDbVertex
100
AcDb2dVertex
  8
0
 10
1124.201
 20
405.042
  0
VERTEX
100
AcDbVertex
100
AcDb2dVertex
  8
0
 10
1118.251
 20
400.752
  0
VERTEX
100
AcDbVertex
100
AcDb2dVertex
  8
0
 10
1115.098
 20
398.326
  0
VERTEX
100
AcDbVertex
100
AcDb2dVertex
  8
0
 10
1109.15
 20
393.912
  0
VERTEX
100
AcDbVertex
100
AcDb2dVertex
  8
0
 10
1102.84
 20
390.033
  0
VERTEX
100
AcDbVertex
100
AcDb2dVertex
  8
0
 10
1100.319
 20
388.686
  0
VERTEX
100
AcDbVertex
100
AcDb2dVertex
  8
0
 10
1071.805
 20
374.792
  0
VERTEX
100
AcDbVertex
100
AcDb2dVertex
  8
0
 10
1039.395
 20
360.695
  0
VERTEX
100
AcDbVertex
100
AcDb2dVertex
  8
0
 10
1008.605
 20
349.116
  0
VERTEX
100
AcDbVertex
100
AcDb2dVertex
  8
0
 10
963.79
 20
335.124
  0
VERTEX
100
AcDbVertex
100
AcDb2dVertex
  8
0
 10
920.693
 20
324.62
  0
VERTEX
100
AcDbVertex
100
AcDb2dVertex
  8
0
 10
876.162
 20
316.935
  0
VERTEX
100
AcDbVertex
100
AcDb2dVertex
  8
0
 10
827
 20
311.434
  0
VERTEX
100
AcDbVertex
100
AcDb2dVertex
  8
0
 10
802.715
 20
310.048
  0
VERTEX
100
AcDbVertex
100
AcDb2dVertex
  8
0
 10
764.84
 20
309.283
  0
VERTEX
100
AcDbVertex
100
AcDb2dVertex
  8
0
 10
726.767
 20
309.137
  0
VERTEX
100
AcDbVertex
100
AcDb2dVertex
  8
0
 10
701.29
 20
309.916
  0
VERTEX
100
AcDbVertex
100
AcDb2dVertex
  8
0
 10
627.501
 20
317.343
  0
VERTEX
100
AcDbVertex
100
AcDb2dVertex
  8
0
 10
598.023
 20
322.146
  0
VERTEX
100
AcDbVertex
100
AcDb2dVertex
  8
0
 10
541.145
 20
335.027
  0
VERTEX
100
AcDbVertex
100
AcDb2dVertex
  8
0
 10
503.23
 20
346.589
  0
VERTEX
100
AcDbVertex
100
AcDb2dVertex
  8
0
 10
453.647
 20
365.779
  0
VERTEX
100
AcDbVertex
100
AcDb2dVertex
  8
0
 10
417.053
 20
383.285
  0
VERTEX
100
AcDbVertex
100
AcDb2dVertex
  8
0
 10
374.849
 20
407.625
  0
VERTEX
100
AcDbVertex
100
AcDb2dVertex
  8
0
 10
339.5
 20
432.082
  0
VERTEX
100
AcDbVertex
100
AcDb2dVertex
  8
0
 10
301.18
 20
463.54
  0
VERTEX
100
AcDbVertex
100
AcDb2dVertex
  8
0
 10
277.722
 20
485.813
  0
VERTEX
100
AcDbVertex
100
AcDb2dVertex
  8
0
 10
251.594
 20
514.473
  0
VERTEX
100
AcDbVertex
100
AcDb2dVertex
  8
0
 10
228.364
 20
544.868
  0
VERTEX
100
AcDbVertex
100
AcDb2dVertex
  8
0
 10
208.772
 20
575.714
  0
VERTEX
100
AcDbVertex
100
AcDb2dVertex
  8
0
 10
191.943
 20
608.151
  0
VERTEX
100
AcDbVertex
100
AcDb2dVertex
  8
0
 10
191.164
 20
609.836
  0
VERTEX
100
AcDbVertex
100
AcDb2dVertex
  8
0
 10
176.695
 20
645.346
  0
VERTEX
100
AcDbVertex
100
AcDb2dVertex
  8
0
 10
165.59
 20
681.168
  0
VERTEX
100
AcDbVertex
100
AcDb2dVertex
  8
0
 10
159.037
 20
709.372
  0
VERTEX
100
AcDbVertex
100
AcDb2dVertex
  8
0
 10
154.485
 20
736.721
  0
VERTEX
100
AcDbVertex
100
AcDb2dVertex
  8
0
 10
151.658
 20
765.24
  0
VERTEX
100
AcDbVertex
100
AcDb2dVertex
  8
0
 10
150.305
 20
797
  0
VERTEX
100
AcDbVertex
100
AcDb2dVertex
  8
0
 10
150.08
 20
813.079
  0
VERTEX
100
AcDbVertex
100
AcDb2dVertex
  8
0
 10
150.171
 20
823.083
  0
VERTEX
100
AcDbVertex
100
AcDb2dVertex
  8
0
 10
150.59
 20
830.625
  0
VERTEX
100
AcDbVertex
100
AcDb2dVertex
  8
0
 10
151.426
 20
837.858
  0
VERTEX
100
AcDbVertex
100
AcDb2dVertex
  8
0
 10
153.691
 20
849.632
  0
VERTEX
100
AcDbVertex
100
AcDb2dVertex
  8
0
 10
154.551
 20
853.05
  0
VERTEX
100
AcDbVertex
100
AcDb2dVertex
  8
0
 10
159.945
 20
871.036
  0
VERTEX
100
AcDbVertex
100
AcDb2dVertex
  8
0
 10
166.511
 20
888.72
  0
VERTEX
100
AcDbVertex
100
AcDb2dVertex
  8
0
 10
171.826
 20
900.275
  0
VERTEX
100
AcDbVertex
100
AcDb2dVertex
  8
0
 10
173.263
 20
903
  0
VERTEX
100
AcDbVertex
100
AcDb2dVertex
  8
0
 10
182.952
 20
919.182
  0
VERTEX
100
AcDbVertex
100
AcDb2dVertex
  8
0
 10
184.862
 20
922.028
  0
VERTEX
100
AcDbVertex
100
AcDb2dVertex
  8
0
 10
199.799
 20
942.307
  0
VERTEX
100
AcDbVertex
100
AcDb2dVertex
  8
0
 10
216.762
 20
962.226
  0
VERTEX
100
AcDbVertex
100
AcDb2dVertex
  8
0
 10
234.5
 20
980.196
  0
VERTEX
100
AcDbVertex
100
AcDb2dVertex
  8
0
 10
252.376
 20
996.556
  0
VERTEX
100
AcDbVertex
100
AcDb2dVertex
  8
0
 10
269.681
 20
1011.575
  0
VERTEX
100
AcDbVertex
100
AcDb2dVertex
  8
0
 10
285.029
 20
1024.121
  0
VERTEX
100
AcDbVertex
100
AcDb2dVertex
  8
0
 10
296.5
 20
1032.478
  0
VERTEX
100
AcDbVertex
100
AcDb2dVertex
  8
0
 10
317.833
 20
1045.814
  0
VERTEX
100
AcDbVertex
100
AcDb2dVertex
  8
0
 10
343.035
 20
1059.842
  0
VERTEX
100
AcDbVertex
100
AcDb2dVertex
  8
0
 10
369.448
 20
1073.18
  0
VERTEX
100
AcDbVertex
100
AcDb2dVertex
  8
0
 10
394.5
 20
1084.449
  0
VERTEX
100
AcDbVertex
100
AcDb2dVertex
  8
0
 10
411.641
 20
1091.765
  0
VERTEX
100
AcDbVertex
100
AcDb2dVertex
  8
0
 10
423.67
 20
1097.205
  0
VERTEX
100
AcDbVertex
100
AcDb2dVertex
  8
0
 10
432.417
 20
1101.445
  0
VERTEX
100
AcDbVertex
100
AcDb2dVertex
  8
0
 10
432.531
 20
1101.504
  0
VERTEX
100
AcDbVertex
100
AcDb2dVertex
  8
0
 10
432.9
 20
1101.721
  0
VERTEX
100
AcDbVertex
100
AcDb2dVertex
  8
0
 10
433.248
 20
1101.97
  0
VERTEX
100
AcDbVertex
100
AcDb2dVertex
  8
0
 10
433.573
 20
1102.247
  0
VERTEX
100
AcDbVertex
100
AcDb2dVertex
  8
0
 10
433.873
 20
1102.552
  0
VERTEX
100
AcDbVertex
100
AcDb2dVertex
  8
0
 10
434.145
 20
1102.882
  0
VERTEX
100
AcDbVertex
100
AcDb2dVertex
  8
0
 10
434.387
 20
1103.235
  0
VERTEX
100
AcDbVertex
100
AcDb2dVertex
  8
0
 10
434.425
 20
1103.297
  0
VERTEX
100
AcDbVertex
100
AcDb2dVertex
  8
0
 10
434.541
 20
1103.516
  0
VERTEX
100
AcDbVertex
100
AcDb2dVertex
  8
0
 10
434.638
 20
1103.744
  0
VERTEX
100
AcDbVertex
100
AcDb2dVertex
  8
0
 10
434.715
 20
1103.98
  0
VERTEX
100
AcDbVertex
100
AcDb2dVertex
  8
0
 10
434.771
 20
1104.221
  0
VERTEX
100
AcDbVertex
100
AcDb2dVertex
  8
0
 10
434.805
 20
1104.467
  0
VERTEX
100
AcDbVertex
100
AcDb2dVertex
  8
0
 10
434.818
 20
1104.715
  0
VERTEX
100
AcDbVertex
100
AcDb2dVertex
  8
0
 10
434.81
 20
1104.962
  0
VERTEX
100
AcDbVertex
100
AcDb2dVertex
  8
0
 10
434.779
 20
1105.208
  0
VERTEX
100
AcDbVertex
100
AcDb2dVertex
  8
0
 10
434.728
 20
1105.451
  0
VERTEX
100
AcDbVertex
100
AcDb2dVertex
  8
0
 10
434.701
 20
1105.554
  0
VERTEX
100
AcDbVertex
100
AcDb2dVertex
  8
0
 10
434.374
 20
1106.594
  0
VERTEX
100
AcDbVertex
100
AcDb2dVertex
  8
0
 10
433.957
 20
1107.602
  0
VERTEX
100
AcDbVertex
100
AcDb2dVertex
  8
0
 10
433.454
 20
1108.57
  0
VERTEX
100
AcDbVertex
100
AcDb2dVertex
  8
0
 10
432.366
 20
1110.346
  0
VERTEX
100
AcDbVertex
100
AcDb2dVertex
  8
0
 10
430.383
 20
1113.123
  0
VERTEX
100
AcDbVertex
100
AcDb2dVertex
  8
0
 10
424.431
 20
1120.5
  0
VERTEX
100
AcDbVertex
100
AcDb2dVertex
  8
0
 10
417.295
 20
1129.876
  0
VERTEX
100
AcDbVertex
100
AcDb2dVertex
  8
0
 10
417.045
 20
1130.237
  0
VERTEX
100
AcDbVertex
100
AcDb2dVertex
  8
0
 10
415.487
 20
1132.723
  0
VERTEX
100
AcDbVertex
100
AcDb2dVertex
  8
0
 10
414.151
 20
1135.335
  0
VERTEX
100
AcDbVertex
100
AcDb2dVertex
  8
0
 10
413.132
 20
1137.819
  0
VERTEX
100
AcDbVertex
100
AcDb2dVertex
  8
0
 10
412.674
 20
1139.271
  0
VERTEX
100
AcDbVertex
100
AcDb2dVertex
  8
0
 10
412.344
 20
1140.758
  0
VERTEX
100
AcDbVertex
100
AcDb2dVertex
  8
0
 10
412.145
 20
1142.267
  0
VERTEX
100
AcDbVertex
100
AcDb2dVertex
  8
0
 10
412.078
 20
1143.788
  0
VERTEX
100
AcDbVertex
100
AcDb2dVertex
  8
0
 10
412.084
 20
1144.259
  0
VERTEX
100
AcDbVertex
100
AcDb2dVertex
  8
0
 10
412.173
 20
1145.524
  0
VERTEX
100
AcDbVertex
100
AcDb2dVertex
  8
0
 10
412.373
 20
1146.777
  0
VERTEX
100
AcDbVertex
100
AcDb2dVertex
  8
0
 10
412.68
 20
1148.008
  0
VERTEX
100
AcDbVertex
100
AcDb2dVertex
  8
0
 10
413.094
 20
1149.207
  0
VERTEX
100
AcDbVertex
100
AcDb2dVertex
  8
0
 10
413.578
 20
1150.3
  0
VERTEX
100
AcDbVertex
100
AcDb2dVertex
  8
0
 10
413.942
 20
1150.964
  0
VERTEX
100
AcDbVertex
100
AcDb2dVertex
  8
0
 10
414.363
 20
1151.594
  0
VERTEX
100
AcDbVertex
100
AcDb2dVertex
  8
0
 10
414.739
 20
1152.071
  0
VERTEX
100
AcDbVertex
100
AcDb2dVertex
  8
0
 10
417.637
 20
1155.379
  0
VERTEX
100
AcDbVertex
100
AcDb2dVertex
  8
0
 10
421.226
 20
1159.187
  0
VERTEX
100
AcDbVertex
100
AcDb2dVertex
  8
0
 10
425.181
 20
1163.096
  0
VERTEX
100
AcDbVertex
100
AcDb2dVertex
  8
0
 10
431.945
 20
1169.832
  0
VERTEX
100
AcDbVertex
100
AcDb2dVertex
  8
0
 10
432.541
 20
1170.493
  0
VERTEX
100
AcDbVertex
100
AcDb2dVertex
  8
0
 10
433.24
 20
1171.401
  0
VERTEX
100
AcDbVertex
100
AcDb2dVertex
  8
0
 10
433.858
 20
1172.366
  0
VERTEX
100
AcDbVertex
100
AcDb2dVertex
  8
0
 10
434.389
 20
1173.382
  0
VERTEX
100
AcDbVertex
100
AcDb2dVertex
  8
0
 10
434.453
 20
1173.535
  0
VERTEX
100
AcDbVertex
100
AcDb2dVertex
  8
0
 10
434.509
 20
1173.706
  0
VERTEX
100
AcDbVertex
100
AcDb2dVertex
  8
0
 10
434.549
 20
1173.881
  0
VERTEX
100
AcDbVertex
100
AcDb2dVertex
  8
0
 10
434.574
 20
1174.06
  0
VERTEX
100
AcDbVertex
100
AcDb2dVertex
  8
0
 10
434.583
 20
1174.239
  0
VERTEX
100
AcDbVertex
100
AcDb2dVertex
  8
0
 10
434.577
 20
1174.419
  0
VERTEX
100
AcDbVertex
100
AcDb2dVertex
  8
0
 10
434.555
 20
1174.598
  0
VERTEX
100
AcDbVertex
100
AcDb2dVertex
  8
0
 10
434.518
 20
1174.774
  0
VERTEX
100
AcDbVertex
100
AcDb2dVertex
  8
0
 10
434.465
 20
1174.946
  0
VERTEX
100
AcDbVertex
100
AcDb2dVertex
  8
0
 10
434.397
 20
1175.113
  0
VERTEX
100
AcDbVertex
100
AcDb2dVertex
  8
0
 10
434.316
 20
1175.273
  0
VERTEX
100
AcDbVertex
100
AcDb2dVertex
  8
0
 10
434.22
 20
1175.425
  0
VERTEX
100
AcDbVertex
100
AcDb2dVertex
  8
0
 10
434.112
 20
1175.569
  0
VERTEX
100
AcDbVertex
100
AcDb2dVertex
  8
0
 10
434.085
 20
1175.601
  0
VERTEX
100
AcDbVertex
100
AcDb2dVertex
  8
0
 10
433.813
 20
1175.898
  0
VERTEX
100
AcDbVertex
100
AcDb2dVertex
  8
0
 10
433.515
 20
1176.171
  0
VERTEX
100
AcDbVertex
100
AcDb2dVertex
  8
0
 10
433.195
 20
1176.416
  0
VERTEX
100
AcDbVertex
100
AcDb2dVertex
  8
0
 10
432.855
 20
1176.633
  0
VERTEX
100
AcDbVertex
100
AcDb2dVertex
  8
0
 10
432.497
 20
1176.819
  0
VERTEX
100
AcDbVertex
100
AcDb2dVertex
  8
0
 10
432.124
 20
1176.974
  0
VERTEX
100
AcDbVertex
100
AcDb2dVertex
  8
0
 10
431.739
 20
1177.095
  0
VERTEX
100
AcDbVertex
100
AcDb2dVertex
  8
0
 10
430.227
 20
1177.445
  0
VERTEX
100
AcDbVertex
100
AcDb2dVertex
  8
0
 10
428.242
 20
1177.746
  0
VERTEX
100
AcDbVertex
100
AcDb2dVertex
  8
0
 10
426.238
 20
1177.872
  0
VERTEX
100
AcDbVertex
100
AcDb2dVertex
  8
0
 10
424.231
 20
1177.823
  0
VERTEX
100
AcDbVertex
100
AcDb2dVertex
  8
0
 10
422.236
 20
1177.6
  0
VERTEX
100
AcDbVertex
100
AcDb2dVertex
  8
0
 10
420.268
 20
1177.203
  0
VERTEX
100
AcDbVertex
100
AcDb2dVertex
  8
0
 10
398.928
 20
1170.959
  0
VERTEX
100
AcDbVertex
100
AcDb2dVertex
  8
0
 10
373.04
 20
1160.951
  0
VERTEX
100
AcDbVertex
100
AcDb2dVertex
  8
0
 10
344.5
 20
1147.523
  0
VERTEX
100
AcDbVertex
100
AcDb2dVertex
  8
0
 10
316.146
 20
1132.229
  0
VERTEX
100
AcDbVertex
100
AcDb2dVertex
  8
0
 10
289.944
 20
1116.129
  0
VERTEX
100
AcDbVertex
100
AcDb2dVertex
  8
0
 10
264.769
 20
1098.489
  0
VERTEX
100
AcDbVertex
100
AcDb2dVertex
  8
0
 10
239.5
 20
1078.569
  0
VERTEX
100
AcDbVertex
100
AcDb2dVertex
  8
0
 10
226.299
 20
1066.81
  0
VERTEX
100
AcDbVertex
100
AcDb2dVertex
  8
0
 10
205.115
 20
1046.283
  0
VERTEX
100
AcDbVertex
100
AcDb2dVertex
  8
0
 10
182.094
 20
1023.544
  0
VERTEX
100
AcDbVertex
100
AcDb2dVertex
  8
0
 10
181.927
 20
1023.367
  0
VERTEX
100
AcDbVertex
100
AcDb2dVertex
  8
0
 10
181.715
 20
1023.108
  0
VERTEX
100
AcDbVertex
100
AcDb2dVertex
  8
0
 10
181.527
 20
1022.83
  0
VERTEX
100
AcDbVertex
100
AcDb2dVertex
  8
0
 10
181.364
 20
1022.538
  0
VERTEX
100
AcDbVertex
100
AcDb2dVertex
  8
0
 10
181.228
 20
1022.232
  0
VERTEX
100
AcDbVertex
100
AcDb2dVertex
  8
0
 10
181.118
 20
1021.916
  0
VERTEX
100
AcDbVertex
100
AcDb2dVertex
  8
0
 10
181.036
 20
1021.591
  0
VERTEX
100
AcDbVertex
100
AcDb2dVertex
  8
0
 10
180.983
 20
1021.261
  0
VERTEX
100
AcDbVertex
100
AcDb2dVertex
  8
0
 10
180.947
 20
1020.762
  0
VERTEX
100
AcDbVertex
100
AcDb2dVertex
  8
0
 10
180.921
 20
1020.598
  0
VERTEX
100
AcDbVertex
100
AcDb2dVertex
  8
0
 10
180.88
 20
1020.438
  0
VERTEX
100
AcDbVertex
100
AcDb2dVertex
  8
0
 10
180.826
 20
1020.281
  0
VERTEX
100
AcDbVertex
100
AcDb2dVertex
  8
0
 10
180.758
 20
1020.13
  0
VERTEX
100
AcDbVertex
100
AcDb2dVertex
  8
0
 10
180.712
 20
1020.043
  0
VERTEX
100
AcDbVertex
100
AcDb2dVertex
  8
0
 10
179.34
 20
1017.716
  0
VERTEX
100
AcDbVertex
100
AcDb2dVertex
  8
0
 10
177.582
 20
1014.977
  0
VERTEX
100
AcDbVertex
100
AcDb2dVertex
  8
0
 10
175.505
 20
1012
  0
VERTEX
100
AcDbVertex
100
AcDb2dVertex
  8
0
 10
166.004
 20
998.447
  0
VERTEX
100
AcDbVertex
100
AcDb2dVertex
  8
0
 10
158.236
 20
986.49
  0
VERTEX
100
AcDbVertex
100
AcDb2dVertex
  8
0
 10
151.391
 20
974.848
  0
VERTEX
100
AcDbVertex
100
AcDb2dVertex
  8
0
 10
144.712
 20
962.289
  0
VERTEX
100
AcDbVertex
100
AcDb2dVertex
  8
0
 10
129.55
 20
930.037
  0
VERTEX
100
AcDbVertex
100
AcDb2dVertex
  8
0
 10
128.32
 20
927.167
  0
VERTEX
100
AcDbVertex
100
AcDb2dVertex
  8
0
 10
118.903
 20
901.856
  0
VERTEX
100
AcDbVertex
100
AcDb2dVertex
  8
0
 10
117.52
 20
897.451
  0
VERTEX
100
AcDbVertex
100
AcDb2dVertex
  8
0
 10
111.52
 20
874.161
  0
VERTEX
100
AcDbVertex
100
AcDb2dVertex
  8
0
 10
106.326
 20
843.5
  0
VERTEX
100
AcDbVertex
100
AcDb2dVertex
  8
0
 10
106.092
 20
841.583
  0
VERTEX
100
AcDbVertex
100
AcDb2dVertex
  8
0
 10
104.976
 20
826.208
  0
VERTEX
100
AcDbVertex
100
AcDb2dVertex
  8
0
 10
104.472
 20
797.119
  0
VERTEX
100
AcDbVertex
100
AcDb2dVertex
  8
0
 10
104.641
 20
767.955
  0
VERTEX
100
AcDbVertex
100
AcDb2dVertex
  8
0
 10
104.657
 20
767.121
  0
VERTEX
100
AcDbVertex
100
AcDb2dVertex
  8
0
 10
105.777
 20
750
  0
VERTEX
100
AcDbVertex
100
AcDb2dVertex
  8
0
 10
106.644
 20
742.491
  0
VERTEX
100
AcDbVertex
100
AcDb2dVertex
  8
0
 10
115.632
 20
688.391
  0
VERTEX
100
AcDbVertex
100
AcDb2dVertex
  8
0
 10
119.256
 20
672.56
  0
VERTEX
100
AcDbVertex
100
AcDb2dVertex
  8
0
 10
131.14
 20
632.066
  0
VERTEX
100
AcDbVertex
100
AcDb2dVertex
  8
0
 10
137.014
 20
615.884
  0
VERTEX
100
AcDbVertex
100
AcDb2dVertex
  8
0
 10
152.712
 20
579.858
  0
VERTEX
100
AcDbVertex
100
AcDb2dVertex
  8
0
 10
160.403
 20
564.832
  0
VERTEX
100
AcDbVertex
100
AcDb2dVertex
  8
0
 10
180.712
 20
530.58
  0
VERTEX
100
AcDbVertex
100
AcDb2dVertex
  8
0
 10
180.843
 20
530.379
  0
VERTEX
100
AcDbVertex
100
AcDb2dVertex
  8
0
 10
202.491
 20
500.249
  0
VERTEX
100
AcDbVertex
100
AcDb2dVertex
  8
0
 10
229.156
 20
468.516
  0
VERTEX
100
AcDbVertex
100
AcDb2dVertex
  8
0
 10
260.396
 20
435.677
  0
VERTEX
100
AcDbVertex
100
AcDb2dVertex
  8
0
 10
296
 20
402.007
  0
VERTEX
100
AcDbVertex
100
AcDb2dVertex
  8
0
 10
298.464
 20
399.806
  0
VERTEX
100
AcDbVertex
100
AcDb2dVertex
  8
0
 10
320.13
 20
382.28
  0
VERTEX
100
AcDbVertex
100
AcDb2dVertex
  8
0
 10
348.52
 20
362.849
  0
VERTEX
100
AcDbVertex
100
AcDb2dVertex
  8
0
 10
381.481
 20
343.481
  0
VERTEX
100
AcDbVertex
100
AcDb2dVertex
  8
0
 10
419.447
 20
323.947
  0
VERTEX
100
AcDbVertex
100
AcDb2dVertex
  8
0
 10
475.859
 20
299.255
  0
VERTEX
100
AcDbVertex
100
AcDb2dVertex
  8
0
 10
532.809
 20
279.65
  0
VERTEX
100
AcDbVertex
100
AcDb2dVertex
  8
0
 10
592.587
 20
264.454
  0
VERTEX
100
AcDbVertex
100
AcDb2dVertex
  8
0
 10
657.5
 20
252.991
  0
VERTEX
100
AcDbVertex
100
AcDb2dVertex
  8
0
 10
680.931
 20
250.382
  0
VERTEX
100
AcDbVertex
100
AcDb2dVertex
  8
0
 10
707.197
 20
248.846
  0
VERTEX
100
AcDbVertex
100
AcDb2dVertex
  8
0
 10
740.425
 20
248.176
  0
VERTEX
100
AcDbVertex
100
AcDb2dVertex
  8
0
 10
786.5
 20
248.288
  0
VERTEX
100
AcDbVertex
100
AcDb2dVertex
  8
0
 10
821.186
 20
248.653
  0
VERTEX
100
AcDbVertex
100
AcDb2dVertex
  8
0
 10
837.17
 20
249.078
  0
VERTEX
100
AcDbVertex
100
AcDb2dVertex
  8
0
 10
848.648
 20
249.867
  0
VERTEX
100
AcDbVertex
100
AcDb2dVertex
  8
0
 10
861.5
 20
251.362
  0
VERTEX
100
AcDbVertex
100
AcDb2dVertex
  8
0
 10
922.478
 20
262.043
  0
VERTEX
100
AcDbVertex
100
AcDb2dVertex
  8
0
 10
979.99
 20
277.017
  0
VERTEX
100
AcDbVertex
100
AcDb2dVertex
  8
0
 10
980.796
 20
277.265
  0
VERTEX
100
AcDbVertex
100
AcDb2dVertex
  8
0
 10
1034.61
 20
296.468
  0
VERTEX
100
AcDbVertex
100
AcDb2dVertex
  8
0
 10
1036.425
 20
297.21
  0
VERTEX
100
AcDbVertex
100
AcDb2dVertex
  8
0
 10
1086.924
 20
320.559
  0
VERTEX
100
AcDbVertex
100
AcDb2dVertex
  8
0
 10
1108.453
 20
332.341
  0
VERTEX
100
AcDbVertex
100
AcDb2dVertex
  8
0
 10
1130.545
 20
345.743
  0
VERTEX
100
AcDbVertex
100
AcDb2dVertex
  8
0
 10
1151.291
 20
359.543
  0
VERTEX
100
AcDbVertex
100
AcDb2dVertex
  8
0
 10
1168.697
 20
372.499
  0
VERTEX
100
AcDbVertex
100
AcDb2dVertex
  8
0
 10
1170.586
 20
374.017
  0
VERTEX
100
AcDbVertex
100
AcDb2dVertex
  8
0
 10
1185.802
 20
387.517
  0
VERTEX
100
AcDbVertex
100
AcDb2dVertex
  8
0
 10
1208.455
 20
410.259
  0
VERTEX
100
AcDbVertex
100
AcDb2dVertex
  8
0
 10
1231.7
 20
435.35
  0
VERTEX
100
AcDbVertex
100
AcDb2dVertex
  8
0
 10
1251.303
 20
458.479
  0
VERTEX
100
AcDbVertex
100
AcDb2dVertex
  8
0
 10
1257.617
 20
466.541
  0
VERTEX
100
AcDbVertex
100
AcDb2dVertex
  8
0
 10
1277.766
 20
495.486
  0
VERTEX
100
AcDbVertex
100
AcDb2dVertex
  8
0
 10
1295.316
 20
526.077
  0
VERTEX
100
AcDbVertex
100
AcDb2dVertex
  8
0
 10
1312.591
 20
562.972
  0
VERTEX
100
AcDbVertex
100
AcDb2dVertex
  8
0
 10
1328.308
 20
605.373
  0
VERTEX
100
AcDbVertex
100
AcDb2dVertex
  8
0
 10
1339.204
 20
644.581
  0
VERTEX
100
AcDbVertex
100
AcDb2dVertex
  8
0
 10
1347.404
 20
687.889
  0
VERTEX
100
AcDbVertex
100
AcDb2dVertex
  8
0
 10
1349.352
 20
703.994
  0
VERTEX
100
AcDbVertex
100
AcDb2dVertex
  8
0
 10
1350.988
 20
734.509
  0
SEQEND
  0
ENDSEC
  0
EOF
