  0
SECTION
  2
HEADER
  9
$ACADVER
  1
AC1006
  9
$EXTMIN
 10
0.000000
 20
0.000000
 30
0.000000
  9
$EXTMAX
 10
1563.000000
 20
1384.000000
 30
0.000000
  0
ENDSEC
  0
SECTION
  2
ENTITIES
  0
POLYLINE
  8
0
 66
1
 70
1
  0
VERTEX
  8
0
 10
846.000000
 20
1322.897352
 42
0.008252
  0
VERTEX
  8
0
 10
826.356948
 20
1321.769381
 42
0.003770
  0
VERTEX
  8
0
 10
800.750106
 20
1319.680294
 42
0.003760
  0
VERTEX
  8
0
 10
774.177669
 20
1317.109096
 42
0.005749
  0
VERTEX
  8
0
 10
751.181780
 20
1314.441683
 42
0.026554
  0
VERTEX
  8
0
 10
617.088216
 20
1290.030664
 42
0.032677
  0
VERTEX
  8
0
 10
495.561740
 20
1252.637960
 42
0.033925
  0
VERTEX
  8
0
 10
383.814835
 20
1201.164611
 42
0.033027
  0
VERTEX
  8
0
 10
279.000000
 20
1134.643848
 42
0.016180
  0
VERTEX
  8
0
 10
260.653239
 20
1120.289982
 42
0.009009
  0
VERTEX
  8
0
 10
239.205352
 20
1101.695125
 42
0.008312
  0
VERTEX
  8
0
 10
216.071480
 20
1080.190755
 42
0.007188
  0
VERTEX
  8
0
 10
192.500000
 20
1056.876622
 42
0.004223
  0
VERTEX
  8
0
 10
176.646140
 20
1040.463400
 42
0.016494
  0
VERTEX
  8
0
 10
167.277051
 20
1029.922986
 42
0.017834
  0
VERTEX
  8
0
 10
158.980543
 20
1019.188436
 42
0.005551
  0
VERTEX
  8
0
 10
147.286445
 20
1002.500000
 42
0.008076
  0
VERTEX
  8
0
 10
120.798036
 20
962.417351
 42
0.014624
  0
VERTEX
  8
0
 10
100.633057
 20
928.667088
 42
0.017475
  0
VERTEX
  8
0
 10
85.234192
 20
898.677429
 42
0.022905
  0
VERTEX
  8
0
 10
73.423952
 20
870.238862
 42
0.017173
  0
VERTEX
  8
0
 10
65.100895
 20
844.563043
 42
0.015102
  0
VERTEX
  8
0
 10
58.159673
 20
817.256864
 42
0.015349
  0
VERTEX
  8
0
 10
52.999943
 20
790.140159
 42
0.020001
  0
VERTEX
  8
0
 10
50.042323
 20
765.050106
 42
0.055268
  0
VERTEX
  8
0
 10
52.595849
 20
687.888710
 42
0.041982
  0
VERTEX
  8
0
 10
71.691843
 20
605.373092
 42
0.041494
  0
VERTEX
  8
0
 10
104.683783
 20
526.076849
 42
0.050008
  0
VERTEX
  8
0
 10
148.696702
 20
458.478607
 42
0.013004
  0
VERTEX
  8
0
 10
168.300283
 20
435.349540
 42
0.009075
  0
VERTEX
  8
0
 10
191.545153
 20
410.259381
 42
0.009015
  0
VERTEX
  8
0
 10
214.197913
 20
387.516722
 42
0.024419
  0
VERTEX
  8
0
 10
231.303039
 20
372.498557
 42
0.015916
  0
VERTEX
  8
0
 10
248.708929
 20
359.542734
 42
0.010540
  0
VERTEX
  8
0
 10
269.455336
 20
345.743072
 42
0.010286
  0
VERTEX
  8
0
 10
291.547216
 20
332.340619
 42
0.012003
  0
VERTEX
  8
0
 10
313.075701
 20
320.559047
 42
0.022589
  0
VERTEX
  8
0
 10
365.390033
 20
296.467836
 42
0.022142
  0
VERTEX
  8
0
 10
420.010272
 20
277.016766
 42
0.021568
  0
VERTEX
  8
0
 10
477.522284
 20
262.042922
 42
0.019086
  0
VERTEX
  8
0
 10
538.500000
 20
251.361563
 42
0.009740
  0
VERTEX
  8
0
 10
551.352156
 20
249.867090
 42
0.013832
  0
VERTEX
  8
0
 10
562.829514
 20
249.078275
 42
0.007165
  0
VERTEX
  8
0
 10
578.814082
 20
248.652530
 42
0.000896
  0
VERTEX
  8
0
 10
613.500000
 20
248.288031
 42
0.003148
  0
VERTEX
  8
0
 10
659.575271
 20
248.176453
 42
0.008143
  0
VERTEX
  8
0
 10
692.802731
 20
248.846354
 42
0.010987
  0
VERTEX
  8
0
 10
719.069045
 20
250.382455
 42
0.015249
  0
VERTEX
  8
0
 10
742.500000
 20
252.991260
 42
0.016703
  0
VERTEX
  8
0
 10
807.412905
 20
264.453810
 42
0.020377
  0
VERTEX
  8
0
 10
867.191060
 20
279.649725
 42
0.020934
  0
VERTEX
  8
0
 10
924.141445
 20
299.254913
 42
0.019591
  0
VERTEX
  8
0
 10
980.552810
 20
323.946532
 42
0.011721
  0
VERTEX
  8
0
 10
1018.519407
 20
343.481449
 42
0.016305
  0
VERTEX
  8
0
 10
1051.479804
 20
362.849008
 42
0.018171
  0
VERTEX
  8
0
 10
1079.870420
 20
382.280372
 42
0.024407
  0
VERTEX
  8
0
 10
1104.000000
 20
402.007151
 42
0.011675
  0
VERTEX
  8
0
 10
1139.603712
 20
435.677369
 42
0.014746
  0
VERTEX
  8
0
 10
1170.843927
 20
468.515646
 42
0.016080
  0
VERTEX
  8
0
 10
1197.508536
 20
500.249048
 42
0.021961
  0
VERTEX
  8
0
 10
1219.287977
 20
530.579875
 42
0.031072
  0
VERTEX
  8
0
 10
1247.287525
 20
579.857731
 42
0.031382
  0
VERTEX
  8
0
 10
1268.860107
 20
632.065631
 42
0.030219
  0
VERTEX
  8
0
 10
1284.368273
 20
688.390947
 42
0.024828
  0
VERTEX
  8
0
 10
1294.222870
 20
750.000000
 42
0.022881
  0
VERTEX
  8
0
 10
1295.359345
 20
767.955087
 42
0.005833
  0
VERTEX
  8
0
 10
1295.528236
 20
797.119157
 42
0.005736
  0
VERTEX
  8
0
 10
1295.023577
 20
826.208176
 42
0.024554
  0
VERTEX
  8
0
 10
1293.673522
 20
843.500000
 42
0.020384
  0
VERTEX
  8
0
 10
1288.480449
 20
874.161229
 42
0.026009
  0
VERTEX
  8
0
 10
1281.096750
 20
901.856428
 42
0.024343
  0
VERTEX
  8
0
 10
1270.450051
 20
930.036803
 42
0.014778
  0
VERTEX
  8
0
 10
1255.287852
 20
962.288562
 42
0.009866
  0
VERTEX
  8
0
 10
1248.608796
 20
974.848467
 42
0.011528
  0
VERTEX
  8
0
 10
1241.763824
 20
986.490105
 42
0.010761
  0
VERTEX
  8
0
 10
1233.996410
 20
998.447019
 42
0.006902
  0
VERTEX
  8
0
 10
1224.495071
 20
1012.000000
 42
-0.008051
  0
VERTEX
  8
0
 10
1222.418285
 20
1014.976912
 42
-0.011146
  0
VERTEX
  8
0
 10
1220.659628
 20
1017.716190
 42
-0.007883
  0
VERTEX
  8
0
 10
1219.288021
 20
1020.042806
 42
-0.122727
  0
VERTEX
  8
0
 10
1219.040627
 20
1020.927456
 42
0.192721
  0
VERTEX
  8
0
 10
1217.905614
 20
1023.544423
 42
0.000783
  0
VERTEX
  8
0
 10
1194.884972
 20
1046.282775
 42
0.004011
  0
VERTEX
  8
0
 10
1173.700631
 20
1066.809864
 42
0.016947
  0
VERTEX
  8
0
 10
1160.500000
 20
1078.569497
 42
0.013134
  0
VERTEX
  8
0
 10
1135.231287
 20
1098.489138
 42
0.015060
  0
VERTEX
  8
0
 10
1110.056387
 20
1116.128976
 42
0.015052
  0
VERTEX
  8
0
 10
1083.854141
 20
1132.228728
 42
0.013096
  0
VERTEX
  8
0
 10
1055.500000
 20
1147.523312
 42
0.014375
  0
VERTEX
  8
0
 10
1026.959592
 20
1160.950507
 42
0.021047
  0
VERTEX
  8
0
 10
1001.072328
 20
1170.958557
 42
0.021086
  0
VERTEX
  8
0
 10
979.732019
 20
1177.202601
 42
0.126620
  0
VERTEX
  8
0
 10
968.261164
 20
1177.094586
 42
0.156224
  0
VERTEX
  8
0
 10
965.887991
 20
1175.569240
 42
0.289644
  0
VERTEX
  8
0
 10
965.611492
 20
1173.381806
 42
0.082570
  0
VERTEX
  8
0
 10
968.054784
 20
1169.832488
 42
0.009908
  0
VERTEX
  8
0
 10
974.819381
 20
1163.095861
 42
-0.008046
  0
VERTEX
  8
0
 10
978.773524
 20
1159.187300
 42
-0.009643
  0
VERTEX
  8
0
 10
982.363242
 20
1155.378684
 42
-0.008519
  0
VERTEX
  8
0
 10
985.261107
 20
1152.071285
 42
-0.061193
  0
VERTEX
  8
0
 10
986.422390
 20
1150.299660
 42
-0.108231
  0
VERTEX
  8
0
 10
987.915707
 20
1144.259467
 42
-0.094285
  0
VERTEX
  8
0
 10
986.867910
 20
1137.818573
 42
-0.063685
  0
VERTEX
  8
0
 10
982.954633
 20
1130.236819
 42
-0.022634
  0
VERTEX
  8
0
 10
975.568970
 20
1120.500000
 42
0.007646
  0
VERTEX
  8
0
 10
969.616956
 20
1113.123162
 42
0.035145
  0
VERTEX
  8
0
 10
966.545966
 20
1108.569640
 42
0.067682
  0
VERTEX
  8
0
 10
965.271579
 20
1105.451046
 42
0.205591
  0
VERTEX
  8
0
 10
965.612740
 20
1103.235050
 42
0.138350
  0
VERTEX
  8
0
 10
967.583246
 20
1101.444612
 42
0.005609
  0
VERTEX
  8
0
 10
976.329506
 20
1097.204745
 42
0.007756
  0
VERTEX
  8
0
 10
988.359034
 20
1091.765396
 42
0.002853
  0
VERTEX
  8
0
 10
1005.500000
 20
1084.448797
 42
-0.012479
  0
VERTEX
  8
0
 10
1030.552374
 20
1073.180274
 42
-0.009990
  0
VERTEX
  8
0
 10
1056.964847
 20
1059.842492
 42
-0.010151
  0
VERTEX
  8
0
 10
1082.167402
 20
1045.814409
 42
-0.015257
  0
VERTEX
  8
0
 10
1103.500000
 20
1032.477943
 42
-0.020187
  0
VERTEX
  8
0
 10
1114.971040
 20
1024.121252
 42
-0.007648
  0
VERTEX
  8
0
 10
1130.319363
 20
1011.575410
 42
-0.007128
  0
VERTEX
  8
0
 10
1147.624184
 20
996.555825
 42
-0.006029
  0
VERTEX
  8
0
 10
1165.500000
 20
980.196452
 42
-0.019352
  0
VERTEX
  8
0
 10
1183.238273
 20
962.226399
 42
-0.017399
  0
VERTEX
  8
0
 10
1200.201119
 20
942.307249
 42
-0.017902
  0
VERTEX
  8
0
 10
1215.137571
 20
922.027535
 42
-0.025786
  0
VERTEX
  8
0
 10
1226.737032
 20
903.000000
 42
-0.027106
  0
VERTEX
  8
0
 10
1233.489450
 20
888.720022
 42
-0.016013
  0
VERTEX
  8
0
 10
1240.054641
 20
871.035949
 42
-0.016031
  0
VERTEX
  8
0
 10
1245.449177
 20
853.050142
 42
-0.028235
  0
VERTEX
  8
0
 10
1248.574349
 20
837.858160
 42
-0.015694
  0
VERTEX
  8
0
 10
1249.410188
 20
830.624718
 42
-0.014060
  0
VERTEX
  8
0
 10
1249.829490
 20
823.082709
 42
-0.009167
  0
VERTEX
  8
0
 10
1249.920402
 20
813.078800
 42
-0.002387
  0
VERTEX
  8
0
 10
1249.694960
 20
797.000000
 42
-0.011894
  0
VERTEX
  8
0
 10
1248.341774
 20
765.240069
 42
-0.016210
  0
VERTEX
  8
0
 10
1245.515317
 20
736.720886
 42
-0.016871
  0
VERTEX
  8
0
 10
1240.963023
 20
709.372011
 42
-0.014814
  0
VERTEX
  8
0
 10
1234.409767
 20
681.168391
 42
-0.043181
  0
VERTEX
  8
0
 10
1208.836162
 20
609.835725
 42
-0.044771
  0
VERTEX
  8
0
 10
1171.635734
 20
544.868064
 42
-0.043364
  0
VERTEX
  8
0
 10
1122.278234
 20
485.812892
 42
-0.036064
  0
VERTEX
  8
0
 10
1060.500000
 20
432.082103
 42
-0.041087
  0
VERTEX
  8
0
 10
982.946579
 20
383.285274
 42
-0.038479
  0
VERTEX
  8
0
 10
896.770010
 20
346.589157
 42
-0.036659
  0
VERTEX
  8
0
 10
801.977126
 20
322.145590
 42
-0.030610
  0
VERTEX
  8
0
 10
698.709728
 20
309.915827
 42
-0.013063
  0
VERTEX
  8
0
 10
673.232707
 20
309.137186
 42
-0.004126
  0
VERTEX
  8
0
 10
635.160283
 20
309.282748
 42
-0.004059
  0
VERTEX
  8
0
 10
597.285206
 20
310.047694
 42
-0.014353
  0
VERTEX
  8
0
 10
573.000000
 20
311.433851
 42
-0.012862
  0
VERTEX
  8
0
 10
523.837967
 20
316.935406
 42
-0.016858
  0
VERTEX
  8
0
 10
479.306655
 20
324.619752
 42
-0.017239
  0
VERTEX
  8
0
 10
436.209969
 20
335.123522
 42
-0.014545
  0
VERTEX
  8
0
 10
391.394868
 20
349.115602
 42
-0.013999
  0
VERTEX
  8
0
 10
360.604960
 20
360.694858
 42
-0.011292
  0
VERTEX
  8
0
 10
328.195070
 20
374.792367
 42
-0.010258
  0
VERTEX
  8
0
 10
299.680818
 20
388.685651
 42
-0.052098
  0
VERTEX
  8
0
 10
284.901735
 20
398.326355
 42
0.013140
  0
VERTEX
  8
0
 10
281.749155
 20
400.752085
 42
0.002422
  0
VERTEX
  8
0
 10
275.799260
 20
405.042189
 42
0.002599
  0
VERTEX
  8
0
 10
268.787415
 20
409.991763
 42
0.002364
  0
VERTEX
  8
0
 10
261.500000
 20
415.028249
 42
-0.009967
  0
VERTEX
  8
0
 10
237.148604
 20
432.411041
 42
-0.015707
  0
VERTEX
  8
0
 10
217.041641
 20
448.383262
 42
-0.017319
  0
VERTEX
  8
0
 10
199.494191
 20
464.320308
 42
-0.016936
  0
VERTEX
  8
0
 10
182.955905
 20
481.549166
 42
-0.032719
  0
VERTEX
  8
0
 10
149.443157
 20
524.228442
 42
-0.042682
  0
VERTEX
  8
0
 10
125.000777
 20
567.423467
 42
-0.043760
  0
VERTEX
  8
0
 10
108.682469
 20
613.239263
 42
-0.037259
  0
VERTEX
  8
0
 10
99.481789
 20
663.739361
 42
-0.018296
  0
VERTEX
  8
0
 10
98.402065
 20
679.330211
 42
-0.008100
  0
VERTEX
  8
0
 10
98.064515
 20
699.966163
 42
-0.008098
  0
VERTEX
  8
0
 10
98.395391
 20
720.594043
 42
-0.018378
  0
VERTEX
  8
0
 10
99.470440
 20
736.152906
 42
-0.035956
  0
VERTEX
  8
0
 10
109.797287
 20
793.680866
 42
-0.036027
  0
VERTEX
  8
0
 10
128.255114
 20
849.096490
 42
-0.035889
  0
VERTEX
  8
0
 10
154.558080
 20
901.486828
 42
-0.035080
  0
VERTEX
  8
0
 10
188.260966
 20
950.000000
 42
-0.011335
  0
VERTEX
  8
0
 10
214.568695
 20
981.235355
 42
-0.011693
  0
VERTEX
  8
0
 10
242.000986
 20
1010.917424
 42
-0.012416
  0
VERTEX
  8
0
 10
268.302374
 20
1036.757647
 42
-0.023278
  0
VERTEX
  8
0
 10
291.000000
 20
1056.077347
 42
-0.013368
  0
VERTEX
  8
0
 10
316.261419
 20
1074.569235
 42
-0.010504
  0
VERTEX
  8
0
 10
344.568527
 20
1093.283646
 42
-0.009855
  0
VERTEX
  8
0
 10
375.599276
 20
1112.029679
 42
-0.008371
  0
VERTEX
  8
0
 10
409.066633
 20
1130.617725
 42
-0.045410
  0
VERTEX
  8
0
 10
562.121104
 20
1195.235338
 42
-0.039634
  0
VERTEX
  8
0
 10
731.458339
 20
1234.795356
 42
-0.041176
  0
VERTEX
  8
0
 10
896.362571
 20
1246.020819
 42
-0.066172
  0
VERTEX
  8
0
 10
1035.573293
 20
1225.480673
 42
-0.006907
  0
VERTEX
  8
0
 10
1042.593209
 20
1223.367050
 42
-0.003542
  0
VERTEX
  8
0
 10
1051.337901
 20
1220.533514
 42
-0.003519
  0
VERTEX
  8
0
 10
1060.303256
 20
1217.487939
 42
-0.005293
  0
VERTEX
  8
0
 10
1068.073293
 20
1214.694755
 42
0.010153
  0
VERTEX
  8
0
 10
1085.197138
 20
1208.726354
 42
0.070471
  0
VERTEX
  8
0
 10
1093.920316
 20
1207.189762
 42
0.133464
  0
VERTEX
  8
0
 10
1100.162091
 20
1208.662484
 42
0.073701
  0
VERTEX
  8
0
 10
1106.472258
 20
1213.402051
 42
0.106335
  0
VERTEX
  8
0
 10
1118.188248
 20
1231.778266
 42
0.050384
  0
VERTEX
  8
0
 10
1125.309825
 20
1259.095258
 42
0.050210
  0
VERTEX
  8
0
 10
1126.746929
 20
1285.679245
 42
0.192446
  0
VERTEX
  8
0
 10
1120.019890
 20
1300.480944
 42
0.103790
  0
VERTEX
  8
0
 10
1116.295511
 20
1302.801150
 42
0.025884
  0
VERTEX
  8
0
 10
1109.402732
 20
1304.922381
 42
0.018849
  0
VERTEX
  8
0
 10
1099.305563
 20
1307.065007
 42
0.006352
  0
VERTEX
  8
0
 10
1084.443484
 20
1309.443641
 42
0.012160
  0
VERTEX
  8
0
 10
1025.719900
 20
1316.624478
 42
0.010249
  0
VERTEX
  8
0
 10
963.268889
 20
1321.433997
 42
0.010386
  0
VERTEX
  8
0
 10
901.779375
 20
1323.623506
 42
0.013921
  0
SEQEND
  0
POLYLINE
  8
0
 66
1
 70
1
  0
VERTEX
  8
0
 10
520.845770
 20
1110.893216
 42
0.035822
  0
VERTEX
  8
0
 10
514.548641
 20
1109.910977
 42
0.056592
  0
VERTEX
  8
0
 10
509.400130
 20
1108.093169
 42
0.066365
  0
VERTEX
  8
0
 10
505.406625
 20
1105.448064
 42
0.080967
  0
VERTEX
  8
0
 10
502.551121
 20
1102.000000
 42
0.094707
  0
VERTEX
  8
0
 10
501.034725
 20
1097.730019
 42
0.040028
  0
VERTEX
  8
0
 10
500.593073
 20
1091.638206
 42
0.034931
  0
VERTEX
  8
0
 10
501.155769
 20
1084.389790
 42
0.025796
  0
VERTEX
  8
0
 10
502.745987
 20
1076.500000
 42
-0.034649
  0
VERTEX
  8
0
 10
505.278393
 20
1062.677620
 42
-0.014219
  0
VERTEX
  8
0
 10
506.869261
 20
1043.668386
 42
-0.007328
  0
VERTEX
  8
0
 10
508.091881
 20
1013.424163
 42
-0.001183
  0
VERTEX
  8
0
 10
509.469889
 20
954.500000
 42
0.001110
  0
VERTEX
  8
0
 10
511.134828
 20
882.858725
 42
0.004305
  0
VERTEX
  8
0
 10
512.647339
 20
838.475052
 42
0.004363
  0
VERTEX
  8
0
 10
514.190063
 20
808.487329
 42
0.062511
  0
VERTEX
  8
0
 10
516.152493
 20
798.000000
 42
0.052489
  0
VERTEX
  8
0
 10
520.418938
 20
788.309310
 42
0.060917
  0
VERTEX
  8
0
 10
526.443001
 20
780.240174
 42
0.070037
  0
VERTEX
  8
0
 10
533.307039
 20
774.824728
 42
0.132804
  0
VERTEX
  8
0
 10
540.055870
 20
773.000000
 42
0.115434
  0
VERTEX
  8
0
 10
544.821414
 20
774.115072
 42
0.095845
  0
VERTEX
  8
0
 10
548.974432
 20
777.277517
 42
0.080797
  0
VERTEX
  8
0
 10
552.178305
 20
782.302094
 42
0.054873
  0
VERTEX
  8
0
 10
554.166082
 20
788.802603
 42
0.045065
  0
VERTEX
  8
0
 10
554.817562
 20
795.494036
 42
0.008050
  0
VERTEX
  8
0
 10
554.703021
 20
808.061832
 42
0.005760
  0
VERTEX
  8
0
 10
554.005635
 20
827.038120
 42
0.001441
  0
VERTEX
  8
0
 10
552.420994
 20
858.000000
 42
-0.004232
  0
VERTEX
  8
0
 10
551.663717
 20
874.612495
 42
-0.005308
  0
VERTEX
  8
0
 10
551.255591
 20
890.025391
 42
-0.004903
  0
VERTEX
  8
0
 10
551.156555
 20
906.390705
 42
-0.002866
  0
VERTEX
  8
0
 10
551.342582
 20
926.000000
 42
-0.006296
  0
VERTEX
  8
0
 10
552.289481
 20
960.039214
 42
-0.010575
  0
VERTEX
  8
0
 10
554.048640
 20
988.582980
 42
-0.011368
  0
VERTEX
  8
0
 10
556.898789
 20
1015.514575
 42
-0.008984
  0
VERTEX
  8
0
 10
561.165120
 20
1044.500000
 42
0.012243
  0
VERTEX
  8
0
 10
563.508458
 20
1061.174143
 42
0.017148
  0
VERTEX
  8
0
 10
564.723127
 20
1076.165919
 42
0.018224
  0
VERTEX
  8
0
 10
564.847446
 20
1088.464279
 42
0.073720
  0
VERTEX
  8
0
 10
563.556419
 20
1095.830137
 42
0.065794
  0
VERTEX
  8
0
 10
561.134029
 20
1100.818332
 42
0.078065
  0
VERTEX
  8
0
 10
557.608548
 20
1104.684860
 42
0.071792
  0
VERTEX
  8
0
 10
552.813103
 20
1107.509758
 42
0.045801
  0
VERTEX
  8
0
 10
546.614461
 20
1109.410082
 42
0.016350
  0
VERTEX
  8
0
 10
540.077597
 20
1110.553983
 42
0.020765
  0
VERTEX
  8
0
 10
533.981214
 20
1111.159606
 42
0.020369
  0
VERTEX
  8
0
 10
527.761047
 20
1111.263865
 42
0.014789
  0
SEQEND
  0
POLYLINE
  8
0
 66
1
 70
1
  0
VERTEX
  8
0
 10
843.965420
 20
1084.048184
 42
0.041147
  0
VERTEX
  8
0
 10
822.534270
 20
1078.281958
 42
0.052083
  0
VERTEX
  8
0
 10
804.066261
 20
1069.380147
 42
0.053930
  0
VERTEX
  8
0
 10
788.340812
 20
1057.150782
 42
0.049339
  0
VERTEX
  8
0
 10
775.063189
 20
1041.497309
 42
0.039869
  0
VERTEX
  8
0
 10
767.539817
 20
1028.513522
 42
0.029645
  0
VERTEX
  8
0
 10
761.296322
 20
1013.158831
 42
0.024323
  0
VERTEX
  8
0
 10
755.908921
 20
994.302197
 42
0.012903
  0
VERTEX
  8
0
 10
750.988505
 20
970.500000
 42
-0.021904
  0
VERTEX
  8
0
 10
748.163709
 20
957.976489
 42
-0.068225
  0
VERTEX
  8
0
 10
744.788544
 20
950.035285
 42
-0.113454
  0
VERTEX
  8
0
 10
740.544099
 20
945.605789
 42
-0.146486
  0
VERTEX
  8
0
 10
735.173275
 20
944.003738
 42
-0.107395
  0
VERTEX
  8
0
 10
729.916317
 20
945.151664
 42
-0.088159
  0
VERTEX
  8
0
 10
725.178417
 20
948.426684
 42
-0.069790
  0
VERTEX
  8
0
 10
721.011835
 20
953.898945
 42
-0.038195
  0
VERTEX
  8
0
 10
717.451941
 20
961.558781
 42
0.019174
  0
VERTEX
  8
0
 10
713.020701
 20
972.126696
 42
0.030416
  0
VERTEX
  8
0
 10
708.349816
 20
980.754457
 42
0.032127
  0
VERTEX
  8
0
 10
702.870642
 20
988.409164
 42
0.025012
  0
VERTEX
  8
0
 10
696.002031
 20
996.000000
 42
0.009497
  0
VERTEX
  8
0
 10
691.098871
 20
1000.719354
 42
0.020224
  0
VERTEX
  8
0
 10
687.097775
 20
1004.136657
 42
0.025024
  0
VERTEX
  8
0
 10
683.456483
 20
1006.716387
 42
0.028125
  0
VERTEX
  8
0
 10
679.711224
 20
1008.811884
 42
0.069828
  0
VERTEX
  8
0
 10
663.798144
 20
1013.987458
 42
0.082981
  0
VERTEX
  8
0
 10
648.019648
 20
1014.136377
 42
0.081931
  0
VERTEX
  8
0
 10
632.893298
 20
1009.129666
 42
0.066036
  0
VERTEX
  8
0
 10
618.889148
 20
999.236885
 42
0.069256
  0
VERTEX
  8
0
 10
607.026335
 20
984.734193
 42
0.038963
  0
VERTEX
  8
0
 10
596.716775
 20
964.409587
 42
0.035314
  0
VERTEX
  8
0
 10
588.645994
 20
940.131884
 42
0.030009
  0
VERTEX
  8
0
 10
583.534390
 20
913.602557
 42
0.038954
  0
VERTEX
  8
0
 10
582.215560
 20
888.494170
 42
0.062720
  0
VERTEX
  8
0
 10
585.426894
 20
867.341600
 42
0.068743
  0
VERTEX
  8
0
 10
593.451216
 20
849.040319
 42
0.058796
  0
VERTEX
  8
0
 10
606.500000
 20
832.500000
 42
0.024390
  0
VERTEX
  8
0
 10
614.074509
 20
825.630497
 42
0.037584
  0
VERTEX
  8
0
 10
621.306651
 20
820.546450
 42
0.039753
  0
VERTEX
  8
0
 10
628.902185
 20
816.800980
 42
0.032078
  0
VERTEX
  8
0
 10
637.556178
 20
813.985632
 42
0.076801
  0
VERTEX
  8
0
 10
655.359634
 20
812.251675
 42
0.073108
  0
VERTEX
  8
0
 10
673.178842
 20
815.904075
 42
0.070657
  0
VERTEX
  8
0
 10
689.707425
 20
824.703376
 42
0.064387
  0
VERTEX
  8
0
 10
703.728540
 20
838.000000
 42
0.041009
  0
VERTEX
  8
0
 10
709.414173
 20
846.286742
 42
0.016662
  0
VERTEX
  8
0
 10
715.811351
 20
858.395076
 42
0.015187
  0
VERTEX
  8
0
 10
722.349142
 20
872.942668
 42
0.012099
  0
VERTEX
  8
0
 10
728.536457
 20
889.000000
 42
-0.004236
  0
VERTEX
  8
0
 10
733.489582
 20
902.482472
 42
-0.015590
  0
VERTEX
  8
0
 10
736.957012
 20
910.876879
 42
-0.023361
  0
VERTEX
  8
0
 10
739.720472
 20
916.322413
 42
-0.088460
  0
VERTEX
  8
0
 10
742.150437
 20
919.250000
 42
-0.171781
  0
VERTEX
  8
0
 10
746.082628
 20
920.735985
 42
-0.134968
  0
VERTEX
  8
0
 10
750.530049
 20
919.613424
 42
-0.054995
  0
VERTEX
  8
0
 10
756.807069
 20
915.080480
 42
-0.008554
  0
VERTEX
  8
0
 10
768.002138
 20
904.600403
 42
0.025197
  0
VERTEX
  8
0
 10
783.093663
 20
891.386835
 42
0.083644
  0
VERTEX
  8
0
 10
794.619714
 20
885.062166
 42
0.093222
  0
VERTEX
  8
0
 10
806.878189
 20
883.221271
 42
0.036013
  0
VERTEX
  8
0
 10
824.035444
 20
885.096123
 42
-0.023004
  0
VERTEX
  8
0
 10
835.275048
 20
886.620891
 42
-0.094151
  0
VERTEX
  8
0
 10
842.094687
 20
885.944142
 42
-0.124511
  0
VERTEX
  8
0
 10
847.170442
 20
882.940051
 42
-0.054586
  0
VERTEX
  8
0
 10
852.116516
 20
876.818425
 42
-0.049544
  0
VERTEX
  8
0
 10
854.546056
 20
872.053387
 42
-0.100310
  0
VERTEX
  8
0
 10
855.265901
 20
867.923123
 42
-0.085448
  0
VERTEX
  8
0
 10
854.361229
 20
863.411179
 42
-0.028874
  0
VERTEX
  8
0
 10
851.581218
 20
857.286514
 42
-0.051651
  0
VERTEX
  8
0
 10
845.850151
 20
848.671926
 42
-0.034704
  0
VERTEX
  8
0
 10
837.701954
 20
840.092575
 42
-0.035190
  0
VERTEX
  8
0
 10
828.790951
 20
833.011935
 42
-0.071964
  0
VERTEX
  8
0
 10
820.798130
 20
829.077700
 42
-0.060844
  0
VERTEX
  8
0
 10
817.993507
 20
828.531953
 42
-0.012819
  0
VERTEX
  8
0
 10
812.997691
 20
828.306929
 42
-0.009740
  0
VERTEX
  8
0
 10
805.823940
 20
828.307661
 42
-0.003170
  0
VERTEX
  8
0
 10
795.232341
 20
828.582265
 42
0.006447
  0
VERTEX
  8
0
 10
779.018659
 20
828.896330
 42
0.034577
  0
VERTEX
  8
0
 10
770.204712
 20
828.343398
 42
0.067006
  0
VERTEX
  8
0
 10
764.608298
 20
826.821089
 42
0.102207
  0
VERTEX
  8
0
 10
760.476549
 20
823.975522
 42
0.041754
  0
VERTEX
  8
0
 10
759.147275
 20
822.333485
 42
0.052319
  0
VERTEX
  8
0
 10
758.221317
 20
820.607983
 42
0.047099
  0
VERTEX
  8
0
 10
757.609296
 20
818.585508
 42
0.025988
  0
VERTEX
  8
0
 10
757.228736
 20
816.028700
 42
0.237342
  0
VERTEX
  8
0
 10
763.407797
 20
800.110300
 42
0.136476
  0
VERTEX
  8
0
 10
782.243990
 20
790.702934
 42
0.092414
  0
VERTEX
  8
0
 10
810.110970
 20
790.490859
 42
0.066818
  0
VERTEX
  8
0
 10
839.759408
 20
799.992412
 42
0.013967
  0
VERTEX
  8
0
 10
846.644955
 20
803.503060
 42
0.023561
  0
VERTEX
  8
0
 10
852.181098
 20
806.871060
 42
0.023773
  0
VERTEX
  8
0
 10
857.341630
 20
810.722929
 42
0.014542
  0
VERTEX
  8
0
 10
863.065074
 20
815.720732
 42
0.028083
  0
VERTEX
  8
0
 10
870.576585
 20
823.502248
 42
0.029639
  0
VERTEX
  8
0
 10
877.024781
 20
831.943476
 42
0.030876
  0
VERTEX
  8
0
 10
882.182441
 20
840.719177
 42
0.037828
  0
VERTEX
  8
0
 10
885.832863
 20
849.500000
 42
0.048248
  0
VERTEX
  8
0
 10
890.179364
 20
868.760732
 42
0.012584
  0
VERTEX
  8
0
 10
893.361084
 20
900.356896
 42
0.011490
  0
VERTEX
  8
0
 10
895.421074
 20
939.772722
 42
0.007369
  0
VERTEX
  8
0
 10
896.085336
 20
985.587530
 42
0.004921
  0
VERTEX
  8
0
 10
895.759306
 20
1017.926074
 42
0.012063
  0
VERTEX
  8
0
 10
894.712014
 20
1041.686712
 42
0.014873
  0
VERTEX
  8
0
 10
893.014089
 20
1058.971513
 42
0.065710
  0
VERTEX
  8
0
 10
890.401021
 20
1068.838198
 42
0.109952
  0
VERTEX
  8
0
 10
884.014915
 20
1077.991881
 42
0.106926
  0
VERTEX
  8
0
 10
874.288887
 20
1083.685030
 42
0.082953
  0
VERTEX
  8
0
 10
860.967781
 20
1085.712077
 42
0.041541
  0
SEQEND
  0
POLYLINE
  8
0
 66
1
 70
1
  0
VERTEX
  8
0
 10
834.858052
 20
1045.072417
 42
-0.122019
  0
VERTEX
  8
0
 10
843.940941
 20
1037.192775
 42
-0.069708
  0
VERTEX
  8
0
 10
850.609710
 20
1024.199428
 42
-0.053708
  0
VERTEX
  8
0
 10
854.734629
 20
1006.396615
 42
-0.029340
  0
VERTEX
  8
0
 10
856.118405
 20
984.000000
 42
-0.023531
  0
VERTEX
  8
0
 10
855.326973
 20
966.028683
 42
-0.041870
  0
VERTEX
  8
0
 10
852.753527
 20
951.452957
 42
-0.052073
  0
VERTEX
  8
0
 10
848.438246
 20
940.074784
 42
-0.086444
  0
VERTEX
  8
0
 10
842.334734
 20
931.860185
 42
-0.030908
  0
VERTEX
  8
0
 10
838.444579
 20
928.599945
 42
-0.055626
  0
VERTEX
  8
0
 10
834.845989
 20
926.517515
 42
-0.060165
  0
VERTEX
  8
0
 10
831.079297
 20
925.380048
 42
-0.043299
  0
VERTEX
  8
0
 10
826.698883
 20
925.000000
 42
-0.033698
  0
VERTEX
  8
0
 10
821.788991
 20
925.331280
 42
-0.052587
  0
VERTEX
  8
0
 10
817.675950
 20
926.337011
 42
-0.046626
  0
VERTEX
  8
0
 10
813.528128
 20
928.279993
 42
-0.020648
  0
VERTEX
  8
0
 10
808.440382
 20
931.559422
 42
-0.060172
  0
VERTEX
  8
0
 10
798.745977
 20
940.305917
 42
-0.081306
  0
VERTEX
  8
0
 10
792.542093
 20
950.327715
 42
-0.077879
  0
VERTEX
  8
0
 10
789.692897
 20
962.144279
 42
-0.050374
  0
VERTEX
  8
0
 10
789.967839
 20
976.238555
 42
-0.023169
  0
VERTEX
  8
0
 10
793.303335
 20
996.086325
 42
-0.031460
  0
VERTEX
  8
0
 10
798.248432
 20
1013.564230
 42
-0.035873
  0
VERTEX
  8
0
 10
804.494594
 20
1027.921985
 42
-0.067595
  0
VERTEX
  8
0
 10
811.794104
 20
1038.210967
 42
-0.045738
  0
VERTEX
  8
0
 10
817.742812
 20
1043.506365
 42
-0.086915
  0
VERTEX
  8
0
 10
823.461417
 20
1046.357853
 42
-0.103258
  0
VERTEX
  8
0
 10
829.115754
 20
1046.830360
 42
-0.087555
  0
SEQEND
  0
POLYLINE
  8
0
 66
1
 70
1
  0
VERTEX
  8
0
 10
666.805228
 20
972.409769
 42
-0.045782
  0
VERTEX
  8
0
 10
670.944767
 20
969.850082
 42
-0.046205
  0
VERTEX
  8
0
 10
674.535489
 20
966.586880
 42
-0.043078
  0
VERTEX
  8
0
 10
677.668203
 20
962.505946
 42
-0.031382
  0
VERTEX
  8
0
 10
680.441130
 20
957.500000
 42
-0.074920
  0
VERTEX
  8
0
 10
686.223461
 20
938.371057
 42
-0.042243
  0
VERTEX
  8
0
 10
687.669520
 20
914.118151
 42
-0.042030
  0
VERTEX
  8
0
 10
685.000571
 20
889.704819
 42
-0.068606
  0
VERTEX
  8
0
 10
678.264373
 20
870.032012
 42
-0.014288
  0
VERTEX
  8
0
 10
676.106511
 20
866.039193
 42
-0.040630
  0
VERTEX
  8
0
 10
674.308578
 20
863.440601
 42
-0.050187
  0
VERTEX
  8
0
 10
672.347285
 20
861.484668
 42
-0.032924
  0
VERTEX
  8
0
 10
669.744499
 20
859.634691
 42
-0.051528
  0
VERTEX
  8
0
 10
664.960403
 20
857.328854
 42
-0.065151
  0
VERTEX
  8
0
 10
660.168278
 20
856.277132
 42
-0.064037
  0
VERTEX
  8
0
 10
655.201299
 20
856.485740
 42
-0.047565
  0
VERTEX
  8
0
 10
649.896304
 20
857.925034
 42
-0.052328
  0
VERTEX
  8
0
 10
641.096831
 20
862.334705
 42
-0.058169
  0
VERTEX
  8
0
 10
633.743460
 20
868.346055
 42
-0.058102
  0
VERTEX
  8
0
 10
627.965704
 20
875.896100
 42
-0.052006
  0
VERTEX
  8
0
 10
623.822938
 20
884.853297
 42
-0.079627
  0
VERTEX
  8
0
 10
621.352698
 20
899.212103
 42
-0.040764
  0
VERTEX
  8
0
 10
622.635037
 20
917.492942
 42
-0.038117
  0
VERTEX
  8
0
 10
627.184775
 20
937.126707
 42
-0.038773
  0
VERTEX
  8
0
 10
634.644034
 20
955.725767
 42
-0.052746
  0
VERTEX
  8
0
 10
641.465894
 20
966.503086
 42
-0.106029
  0
VERTEX
  8
0
 10
649.193636
 20
972.878641
 42
-0.131110
  0
VERTEX
  8
0
 10
657.697463
 20
974.760728
 42
-0.105231
  0
SEQEND
  0
POLYLINE
  8
0
 66
1
 70
1
  0
VERTEX
  8
0
 10
435.761428
 20
989.592543
 42
0.049491
  0
VERTEX
  8
0
 10
427.929850
 20
985.424649
 42
0.046380
  0
VERTEX
  8
0
 10
420.883215
 20
979.718597
 42
0.049804
  0
VERTEX
  8
0
 10
415.637712
 20
973.464518
 42
0.109817
  0
VERTEX
  8
0
 10
413.339429
 20
967.704230
 42
0.137867
  0
VERTEX
  8
0
 10
413.753997
 20
964.055415
 42
0.065699
  0
VERTEX
  8
0
 10
416.114072
 20
959.917619
 42
0.058470
  0
VERTEX
  8
0
 10
419.881701
 20
956.003757
 42
0.055905
  0
VERTEX
  8
0
 10
424.507357
 20
953.000000
 42
0.027762
  0
VERTEX
  8
0
 10
427.522396
 20
951.694132
 42
0.044133
  0
VERTEX
  8
0
 10
430.234355
 20
950.958129
 42
0.034030
  0
VERTEX
  8
0
 10
433.496461
 20
950.601917
 42
0.010183
  0
VERTEX
  8
0
 10
438.500000
 20
950.500000
 42
0.033910
  0
VERTEX
  8
0
 10
446.245788
 20
951.025922
 42
0.068358
  0
VERTEX
  8
0
 10
452.129843
 20
952.667635
 42
0.084301
  0
VERTEX
  8
0
 10
456.537596
 20
955.535329
 42
0.081491
  0
VERTEX
  8
0
 10
459.812500
 20
959.727477
 42
0.091183
  0
VERTEX
  8
0
 10
461.928782
 20
966.141784
 42
0.062816
  0
VERTEX
  8
0
 10
462.015893
 20
973.812765
 42
0.063106
  0
VERTEX
  8
0
 10
460.201220
 20
981.223178
 42
0.094736
  0
VERTEX
  8
0
 10
456.702272
 20
986.865231
 42
0.083141
  0
VERTEX
  8
0
 10
452.539360
 20
990.101969
 42
0.091623
  0
VERTEX
  8
0
 10
447.685210
 20
991.668916
 42
0.080722
  0
VERTEX
  8
0
 10
442.094666
 20
991.492281
 42
0.049412
  0
SEQEND
  0
POLYLINE
  8
0
 66
1
 70
1
  0
VERTEX
  8
0
 10
308.500000
 20
955.030487
 42
0.014047
  0
VERTEX
  8
0
 10
294.158837
 20
950.843833
 42
0.006598
  0
VERTEX
  8
0
 10
275.853397
 20
944.669159
 42
0.006609
  0
VERTEX
  8
0
 10
257.409940
 20
937.900317
 42
0.011893
  0
VERTEX
  8
0
 10
242.500000
 20
931.793348
 42
0.023201
  0
VERTEX
  8
0
 10
230.547164
 20
925.887321
 42
0.037231
  0
VERTEX
  8
0
 10
221.036816
 20
919.659879
 42
0.044190
  0
VERTEX
  8
0
 10
213.884889
 20
913.096697
 42
0.067159
  0
VERTEX
  8
0
 10
209.088063
 20
906.172618
 42
0.037934
  0
VERTEX
  8
0
 10
206.584339
 20
900.182619
 42
0.023417
  0
VERTEX
  8
0
 10
204.522848
 20
892.827179
 42
0.023072
  0
VERTEX
  8
0
 10
203.116289
 20
885.110494
 42
0.030679
  0
VERTEX
  8
0
 10
202.597586
 20
878.000000
 42
0.021812
  0
VERTEX
  8
0
 10
202.799807
 20
871.709832
 42
0.054380
  0
VERTEX
  8
0
 10
203.642262
 20
867.193307
 42
0.078539
  0
VERTEX
  8
0
 10
205.157079
 20
864.055917
 42
0.118761
  0
VERTEX
  8
0
 10
207.411224
 20
862.047511
 42
0.184413
  0
VERTEX
  8
0
 10
210.933240
 20
861.598983
 42
0.021658
  0
VERTEX
  8
0
 10
218.671741
 20
863.835703
 42
0.017256
  0
VERTEX
  8
0
 10
229.982968
 20
868.082795
 42
0.004885
  0
VERTEX
  8
0
 10
247.283132
 20
875.467998
 42
-0.004143
  0
VERTEX
  8
0
 10
263.031629
 20
882.218486
 42
-0.014392
  0
VERTEX
  8
0
 10
273.366397
 20
886.201834
 42
-0.022108
  0
VERTEX
  8
0
 10
281.013443
 20
888.524633
 42
-0.039204
  0
VERTEX
  8
0
 10
287.500000
 20
889.653585
 42
-0.013581
  0
VERTEX
  8
0
 10
290.866468
 20
889.878767
 42
-0.055017
  0
VERTEX
  8
0
 10
292.914231
 20
889.734582
 42
-0.077312
  0
VERTEX
  8
0
 10
294.514795
 20
889.178224
 42
-0.045520
  0
VERTEX
  8
0
 10
296.212816
 20
888.066146
 42
-0.176327
  0
VERTEX
  8
0
 10
299.078994
 20
883.400965
 42
-0.084270
  0
VERTEX
  8
0
 10
299.319480
 20
876.270807
 42
-0.046708
  0
VERTEX
  8
0
 10
296.857208
 20
865.648307
 42
-0.012564
  0
VERTEX
  8
0
 10
290.976511
 20
849.348542
 42
0.001289
  0
VERTEX
  8
0
 10
272.285968
 20
800.987927
 42
0.001870
  0
VERTEX
  8
0
 10
256.058515
 20
758.198424
 42
0.002033
  0
VERTEX
  8
0
 10
243.012066
 20
722.969664
 42
0.007027
  0
VERTEX
  8
0
 10
234.975782
 20
700.000000
 42
0.013633
  0
VERTEX
  8
0
 10
230.582128
 20
685.553189
 42
0.055251
  0
VERTEX
  8
0
 10
229.140616
 20
676.481459
 42
0.093360
  0
VERTEX
  8
0
 10
230.056681
 20
669.932908
 42
0.099165
  0
VERTEX
  8
0
 10
233.290747
 20
664.321639
 42
0.174089
  0
VERTEX
  8
0
 10
244.793883
 20
657.954457
 42
0.086245
  0
VERTEX
  8
0
 10
261.698577
 20
658.144601
 42
0.046537
  0
VERTEX
  8
0
 10
286.799055
 20
665.262395
 42
0.011788
  0
VERTEX
  8
0
 10
326.000000
 20
681.509204
 42
0.004334
  0
VERTEX
  8
0
 10
340.940907
 20
688.273810
 42
0.006674
  0
VERTEX
  8
0
 10
353.735033
 20
694.409338
 42
0.007480
  0
VERTEX
  8
0
 10
364.012442
 20
699.700814
 42
0.023513
  0
VERTEX
  8
0
 10
370.677102
 20
703.672706
 42
0.052323
  0
VERTEX
  8
0
 10
375.059698
 20
707.282563
 42
0.050194
  0
VERTEX
  8
0
 10
378.666345
 20
711.770727
 42
0.038980
  0
VERTEX
  8
0
 10
381.972345
 20
717.841045
 42
0.016385
  0
VERTEX
  8
0
 10
385.492459
 20
726.453266
 42
0.033002
  0
VERTEX
  8
0
 10
388.905369
 20
737.920809
 42
0.062154
  0
VERTEX
  8
0
 10
389.859932
 20
747.517755
 42
0.085142
  0
VERTEX
  8
0
 10
388.418137
 20
754.822059
 42
0.157790
  0
VERTEX
  8
0
 10
384.666236
 20
759.483035
 42
0.171803
  0
VERTEX
  8
0
 10
381.088080
 20
760.357746
 42
0.059814
  0
VERTEX
  8
0
 10
375.833794
 20
759.182723
 42
0.024581
  0
VERTEX
  8
0
 10
367.023606
 20
755.575156
 42
0.002937
  0
VERTEX
  8
0
 10
348.000000
 20
746.533612
 42
-0.007369
  0
VERTEX
  8
0
 10
320.592921
 20
733.804095
 42
-0.046951
  0
VERTEX
  8
0
 10
306.079554
 20
728.893751
 42
-0.117695
  0
VERTEX
  8
0
 10
297.322159
 20
728.910424
 42
-0.202974
  0
VERTEX
  8
0
 10
291.556198
 20
733.174150
 42
-0.047833
  0
VERTEX
  8
0
 10
290.660696
 20
735.086375
 42
-0.054958
  0
VERTEX
  8
0
 10
290.196248
 20
737.047246
 42
-0.038844
  0
VERTEX
  8
0
 10
290.082824
 20
739.559494
 42
-0.011686
  0
VERTEX
  8
0
 10
290.296717
 20
743.381767
 42
-0.050858
  0
VERTEX
  8
0
 10
292.278358
 20
754.216300
 42
-0.012485
  0
VERTEX
  8
0
 10
297.768320
 20
771.503655
 42
-0.007099
  0
VERTEX
  8
0
 10
307.687342
 20
798.961046
 42
-0.001234
  0
VERTEX
  8
0
 10
327.282782
 20
850.500000
 42
0.006603
  0
VERTEX
  8
0
 10
346.881949
 20
903.763634
 42
0.048093
  0
VERTEX
  8
0
 10
353.433730
 20
930.162278
 42
0.127762
  0
VERTEX
  8
0
 10
351.788111
 20
945.484873
 42
0.189044
  0
VERTEX
  8
0
 10
342.831617
 20
955.396619
 42
0.073823
  0
VERTEX
  8
0
 10
336.465840
 20
957.470368
 42
0.044582
  0
VERTEX
  8
0
 10
328.541905
 20
958.093200
 42
0.037507
  0
VERTEX
  8
0
 10
319.194011
 20
957.290656
 42
0.023836
  0
SEQEND
  0
POLYLINE
  8
0
 66
1
 70
1
  0
VERTEX
  8
0
 10
427.059457
 20
922.833071
 42
0.036231
  0
VERTEX
  8
0
 10
419.664902
 20
921.223505
 42
0.103789
  0
VERTEX
  8
0
 10
415.057876
 20
918.744871
 42
0.113610
  0
VERTEX
  8
0
 10
412.073935
 20
914.771386
 42
0.048248
  0
VERTEX
  8
0
 10
409.957544
 20
908.415767
 42
0.053475
  0
VERTEX
  8
0
 10
409.048845
 20
900.762306
 42
0.002933
  0
VERTEX
  8
0
 10
408.916505
 20
876.542575
 42
0.004691
  0
VERTEX
  8
0
 10
409.190696
 20
848.519723
 42
0.004010
  0
VERTEX
  8
0
 10
409.993445
 20
819.000000
 42
0.004392
  0
VERTEX
  8
0
 10
411.665724
 20
781.009605
 42
0.020923
  0
VERTEX
  8
0
 10
413.718641
 20
759.376144
 42
0.036861
  0
VERTEX
  8
0
 10
416.624395
 20
745.752537
 42
0.109612
  0
VERTEX
  8
0
 10
421.192944
 20
737.433030
 42
0.066101
  0
VERTEX
  8
0
 10
424.069615
 20
734.918870
 42
0.066386
  0
VERTEX
  8
0
 10
427.498667
 20
733.246914
 42
0.054016
  0
VERTEX
  8
0
 10
431.833557
 20
732.308620
 42
0.026239
  0
VERTEX
  8
0
 10
437.500000
 20
732.009315
 42
0.046386
  0
VERTEX
  8
0
 10
442.461890
 20
732.469102
 42
0.074913
  0
VERTEX
  8
0
 10
446.460504
 20
733.859549
 42
0.086534
  0
VERTEX
  8
0
 10
449.469363
 20
736.179530
 42
0.086601
  0
VERTEX
  8
0
 10
451.514465
 20
739.380377
 42
0.072900
  0
VERTEX
  8
0
 10
453.462388
 20
747.001523
 42
0.009054
  0
VERTEX
  8
0
 10
454.946201
 20
764.095386
 42
0.007766
  0
VERTEX
  8
0
 10
456.263508
 20
788.952009
 42
0.002386
  0
VERTEX
  8
0
 10
457.489636
 20
826.500000
 42
-0.002167
  0
VERTEX
  8
0
 10
458.297850
 20
851.586168
 42
-0.002949
  0
VERTEX
  8
0
 10
459.258465
 20
874.208080
 42
-0.002135
  0
VERTEX
  8
0
 10
460.250620
 20
893.050616
 42
-0.029063
  0
VERTEX
  8
0
 10
461.039242
 20
899.878738
 42
0.018369
  0
VERTEX
  8
0
 10
461.448808
 20
902.863621
 42
0.048416
  0
VERTEX
  8
0
 10
461.454998
 20
905.019752
 42
0.053841
  0
VERTEX
  8
0
 10
461.050218
 20
907.001679
 42
0.027471
  0
VERTEX
  8
0
 10
460.144693
 20
909.378738
 42
0.064889
  0
VERTEX
  8
0
 10
457.912822
 20
913.031343
 42
0.027460
  0
VERTEX
  8
0
 10
454.062373
 20
917.308064
 42
0.027119
  0
VERTEX
  8
0
 10
449.833555
 20
921.082384
 42
0.077938
  0
VERTEX
  8
0
 10
446.427227
 20
923.027668
 42
0.071483
  0
VERTEX
  8
0
 10
443.492827
 20
923.685700
 42
0.021984
  0
VERTEX
  8
0
 10
438.947263
 20
923.839916
 42
0.019665
  0
VERTEX
  8
0
 10
433.376566
 20
923.564656
 42
0.013301
  0
SEQEND
  0
POLYLINE
  8
0
 66
1
 70
1
  0
VERTEX
  8
0
 10
970.118056
 20
834.371539
 42
0.057574
  0
VERTEX
  8
0
 10
965.524441
 20
831.379477
 42
0.044740
  0
VERTEX
  8
0
 10
961.288778
 20
827.174459
 42
0.046302
  0
VERTEX
  8
0
 10
958.068589
 20
822.538219
 42
0.088693
  0
VERTEX
  8
0
 10
956.572755
 20
818.277219
 42
0.034957
  0
VERTEX
  8
0
 10
956.340816
 20
815.729942
 42
0.002153
  0
VERTEX
  8
0
 10
956.214381
 20
808.118933
 42
0.003190
  0
VERTEX
  8
0
 10
956.160602
 20
799.042734
 42
0.002357
  0
VERTEX
  8
0
 10
956.212499
 20
789.000000
 42
-0.014502
  0
VERTEX
  8
0
 10
955.742073
 20
764.400551
 42
-0.082510
  0
VERTEX
  8
0
 10
952.988070
 20
751.652874
 42
-0.087155
  0
VERTEX
  8
0
 10
946.313674
 20
740.797997
 42
-0.017162
  0
VERTEX
  8
0
 10
930.502941
 20
724.145538
 42
-0.003460
  0
VERTEX
  8
0
 10
923.513635
 20
717.367126
 42
-0.002604
  0
VERTEX
  8
0
 10
915.737725
 20
710.006726
 42
-0.002632
  0
VERTEX
  8
0
 10
908.352916
 20
703.161711
 42
-0.006063
  0
VERTEX
  8
0
 10
902.710592
 20
698.111359
 42
0.009595
  0
VERTEX
  8
0
 10
897.441809
 20
693.327894
 42
0.011714
  0
VERTEX
  8
0
 10
892.707752
 20
688.646804
 42
0.012856
  0
VERTEX
  8
0
 10
888.744566
 20
684.322806
 42
0.025321
  0
VERTEX
  8
0
 10
885.866646
 20
680.656798
 42
0.034146
  0
VERTEX
  8
0
 10
878.423255
 20
668.424492
 42
0.021788
  0
VERTEX
  8
0
 10
871.406571
 20
653.317361
 42
0.020877
  0
VERTEX
  8
0
 10
865.362869
 20
636.734803
 42
0.022036
  0
VERTEX
  8
0
 10
860.844917
 20
620.000000
 42
0.013545
  0
VERTEX
  8
0
 10
859.619555
 20
613.714444
 42
0.020931
  0
VERTEX
  8
0
 10
858.937507
 20
608.223918
 42
0.016224
  0
VERTEX
  8
0
 10
858.619622
 20
601.779727
 42
0.004928
  0
VERTEX
  8
0
 10
858.551280
 20
592.000000
 42
0.003933
  0
VERTEX
  8
0
 10
858.663030
 20
581.589955
 42
0.020991
  0
VERTEX
  8
0
 10
859.007068
 20
575.917416
 42
0.031744
  0
VERTEX
  8
0
 10
859.763652
 20
571.402096
 42
0.017528
  0
VERTEX
  8
0
 10
861.226989
 20
566.000000
 42
0.039172
  0
VERTEX
  8
0
 10
868.737899
 20
547.079302
 42
0.047759
  0
VERTEX
  8
0
 10
878.719406
 20
530.858766
 42
0.054986
  0
VERTEX
  8
0
 10
889.434169
 20
519.516269
 42
0.177837
  0
VERTEX
  8
0
 10
899.007719
 20
516.000000
 42
0.100759
  0
VERTEX
  8
0
 10
901.910285
 20
516.590919
 42
0.025833
  0
VERTEX
  8
0
 10
906.238656
 20
518.699598
 42
0.020367
  0
VERTEX
  8
0
 10
911.851945
 20
522.108162
 42
0.008627
  0
VERTEX
  8
0
 10
919.105283
 20
527.109955
 42
-0.006682
  0
VERTEX
  8
0
 10
923.047615
 20
529.851213
 42
-0.007289
  0
VERTEX
  8
0
 10
926.950215
 20
532.406114
 42
-0.006888
  0
VERTEX
  8
0
 10
930.349637
 20
534.496380
 42
-0.035450
  0
VERTEX
  8
0
 10
932.323165
 20
535.490560
 42
-0.085338
  0
VERTEX
  8
0
 10
938.491256
 20
536.905634
 42
-0.093663
  0
VERTEX
  8
0
 10
944.568048
 20
536.101725
 42
-0.067759
  0
VERTEX
  8
0
 10
951.389047
 20
532.776295
 42
-0.024682
  0
VERTEX
  8
0
 10
960.042013
 20
526.356816
 42
0.015831
  0
VERTEX
  8
0
 10
966.385304
 20
521.474503
 42
0.037013
  0
VERTEX
  8
0
 10
971.486246
 20
518.344805
 42
0.049475
  0
VERTEX
  8
0
 10
975.915199
 20
516.588836
 42
0.069762
  0
VERTEX
  8
0
 10
980.114998
 20
516.000000
 42
0.035323
  0
VERTEX
  8
0
 10
982.490809
 20
516.168049
 42
0.078980
  0
VERTEX
  8
0
 10
984.216122
 20
516.699604
 42
0.067784
  0
VERTEX
  8
0
 10
985.848103
 20
517.796701
 42
0.020789
  0
VERTEX
  8
0
 10
987.987377
 20
519.866071
 42
0.032796
  0
VERTEX
  8
0
 10
989.569197
 20
521.763762
 42
0.025504
  0
VERTEX
  8
0
 10
991.038293
 20
524.014404
 42
0.025693
  0
VERTEX
  8
0
 10
992.256797
 20
526.378366
 42
0.035537
  0
VERTEX
  8
0
 10
993.082541
 20
528.616071
 42
0.057740
  0
VERTEX
  8
0
 10
994.016065
 20
534.150035
 42
0.010917
  0
VERTEX
  8
0
 10
994.323055
 20
544.403673
 42
0.003576
  0
VERTEX
  8
0
 10
994.341739
 20
564.181736
 42
0.000170
  0
VERTEX
  8
0
 10
993.907501
 20
630.500000
 42
-0.004924
  0
VERTEX
  8
0
 10
994.038896
 20
674.902961
 42
-0.008606
  0
VERTEX
  8
0
 10
995.142896
 20
711.669165
 42
-0.010199
  0
VERTEX
  8
0
 10
997.279024
 20
743.207235
 42
-0.013922
  0
VERTEX
  8
0
 10
1000.572021
 20
771.500000
 42
0.009124
  0
VERTEX
  8
0
 10
1001.171626
 20
776.253969
 42
0.004362
  0
VERTEX
  8
0
 10
1001.777083
 20
782.381250
 42
0.004323
  0
VERTEX
  8
0
 10
1002.298338
 20
788.792592
 42
0.006145
  0
VERTEX
  8
0
 10
1002.642274
 20
794.500000
 42
0.026909
  0
VERTEX
  8
0
 10
1002.565552
 20
807.490284
 42
0.062287
  0
VERTEX
  8
0
 10
1000.783039
 20
817.061645
 42
0.076660
  0
VERTEX
  8
0
 10
997.014089
 20
824.639067
 42
0.062147
  0
VERTEX
  8
0
 10
990.895077
 20
831.357815
 42
0.037522
  0
VERTEX
  8
0
 10
987.691871
 20
833.707763
 42
0.040285
  0
VERTEX
  8
0
 10
984.246329
 20
835.490196
 42
0.042616
  0
VERTEX
  8
0
 10
980.762588
 20
836.612656
 42
0.056009
  0
VERTEX
  8
0
 10
977.446344
 20
836.994423
 42
0.071654
  0
VERTEX
  8
0
 10
976.328525
 20
836.836501
 42
0.015075
  0
VERTEX
  8
0
 10
974.446527
 20
836.226251
 42
0.015508
  0
VERTEX
  8
0
 10
972.288065
 20
835.377324
 42
0.014144
  0
SEQEND
  0
POLYLINE
  8
0
 66
1
 70
1
  0
VERTEX
  8
0
 10
943.081103
 20
674.958624
 42
-0.074025
  0
VERTEX
  8
0
 10
949.258593
 20
670.552888
 42
-0.052048
  0
VERTEX
  8
0
 10
954.763789
 20
664.010106
 42
-0.046737
  0
VERTEX
  8
0
 10
959.329346
 20
655.694109
 42
-0.036973
  0
VERTEX
  8
0
 10
962.701507
 20
646.000000
 42
-0.047248
  0
VERTEX
  8
0
 10
964.087053
 20
637.751723
 42
-0.021292
  0
VERTEX
  8
0
 10
964.410214
 20
626.771614
 42
-0.021338
  0
VERTEX
  8
0
 10
963.788462
 20
615.645751
 42
-0.040915
  0
VERTEX
  8
0
 10
962.186537
 20
606.856474
 42
-0.065429
  0
VERTEX
  8
0
 10
955.045517
 20
589.618399
 42
-0.114714
  0
VERTEX
  8
0
 10
944.552276
 20
578.396161
 42
-0.141584
  0
VERTEX
  8
0
 10
931.838611
 20
574.334451
 42
-0.124881
  0
VERTEX
  8
0
 10
918.223030
 20
577.386982
 42
-0.045309
  0
VERTEX
  8
0
 10
912.828087
 20
580.766183
 42
-0.026793
  0
VERTEX
  8
0
 10
907.031037
 20
585.685836
 42
-0.025542
  0
VERTEX
  8
0
 10
902.113694
 20
590.834286
 42
-0.098465
  0
VERTEX
  8
0
 10
899.945791
 20
594.664254
 42
-0.080043
  0
VERTEX
  8
0
 10
898.897836
 20
601.198284
 42
-0.010870
  0
VERTEX
  8
0
 10
899.209969
 20
615.096563
 42
-0.013029
  0
VERTEX
  8
0
 10
900.201127
 20
629.181980
 42
-0.041612
  0
VERTEX
  8
0
 10
901.881973
 20
638.446020
 42
-0.036730
  0
VERTEX
  8
0
 10
906.053934
 20
650.388365
 42
-0.040088
  0
VERTEX
  8
0
 10
911.831601
 20
661.229525
 42
-0.043951
  0
VERTEX
  8
0
 10
918.473234
 20
669.829182
 42
-0.091678
  0
VERTEX
  8
0
 10
925.225548
 20
674.882611
 42
-0.059485
  0
VERTEX
  8
0
 10
929.551201
 20
676.416658
 42
-0.054483
  0
VERTEX
  8
0
 10
934.248525
 20
676.950273
 42
-0.055094
  0
VERTEX
  8
0
 10
938.897664
 20
676.456462
 42
-0.064050
  0
SEQEND
  0
POLYLINE
  8
0
 66
1
 70
1
  0
VERTEX
  8
0
 10
1084.817199
 20
790.771384
 42
0.031706
  0
VERTEX
  8
0
 10
1078.600949
 20
789.673612
 42
0.035126
  0
VERTEX
  8
0
 10
1072.789072
 20
787.822109
 42
0.033962
  0
VERTEX
  8
0
 10
1067.129506
 20
785.112429
 42
0.026346
  0
VERTEX
  8
0
 10
1061.366909
 20
781.442280
 42
0.070236
  0
VERTEX
  8
0
 10
1048.072506
 20
768.805932
 42
0.056862
  0
VERTEX
  8
0
 10
1037.659035
 20
752.082269
 42
0.046933
  0
VERTEX
  8
0
 10
1029.778143
 20
730.461001
 42
0.026129
  0
VERTEX
  8
0
 10
1024.106504
 20
702.974861
 42
0.031788
  0
VERTEX
  8
0
 10
1020.563618
 20
662.676337
 42
0.039291
  0
VERTEX
  8
0
 10
1022.612550
 20
625.052871
 42
0.044228
  0
VERTEX
  8
0
 10
1029.575378
 20
594.111553
 42
0.119477
  0
VERTEX
  8
0
 10
1041.219194
 20
575.016100
 42
0.042915
  0
VERTEX
  8
0
 10
1045.653227
 20
571.284240
 42
0.053093
  0
VERTEX
  8
0
 10
1050.367573
 20
568.661095
 42
0.050914
  0
VERTEX
  8
0
 10
1055.690244
 20
567.015003
 42
0.035106
  0
VERTEX
  8
0
 10
1061.953716
 20
566.208821
 42
0.081848
  0
VERTEX
  8
0
 10
1077.372584
 20
567.841678
 42
0.064658
  0
VERTEX
  8
0
 10
1092.858881
 20
574.352227
 42
0.046445
  0
VERTEX
  8
0
 10
1110.274615
 20
586.783717
 42
0.017953
  0
VERTEX
  8
0
 10
1132.028835
 20
606.995447
 42
0.011668
  0
VERTEX
  8
0
 10
1146.384211
 20
622.011783
 42
0.037865
  0
VERTEX
  8
0
 10
1154.869637
 20
632.858244
 42
0.058406
  0
VERTEX
  8
0
 10
1159.441817
 20
641.825986
 42
0.088521
  0
VERTEX
  8
0
 10
1160.990231
 20
650.421417
 42
0.016968
  0
VERTEX
  8
0
 10
1160.871483
 20
654.098578
 42
0.085005
  0
VERTEX
  8
0
 10
1160.391766
 20
656.095014
 42
0.084112
  0
VERTEX
  8
0
 10
1159.273035
 20
657.827985
 42
0.016423
  0
VERTEX
  8
0
 10
1156.666822
 20
660.494749
 42
0.080039
  0
VERTEX
  8
0
 10
1150.455605
 20
664.783409
 42
0.084863
  0
VERTEX
  8
0
 10
1143.335310
 20
666.794261
 42
0.087609
  0
VERTEX
  8
0
 10
1136.143455
 20
666.298322
 42
0.092859
  0
VERTEX
  8
0
 10
1129.716625
 20
663.360112
 42
0.046007
  0
VERTEX
  8
0
 10
1127.719455
 20
661.657525
 42
0.012433
  0
VERTEX
  8
0
 10
1124.887722
 20
658.605892
 42
0.012477
  0
VERTEX
  8
0
 10
1121.832203
 20
654.965132
 42
0.012640
  0
VERTEX
  8
0
 10
1118.975696
 20
651.191862
 42
-0.016820
  0
VERTEX
  8
0
 10
1111.128142
 20
641.003793
 42
-0.035872
  0
VERTEX
  8
0
 10
1104.272057
 20
633.814761
 42
-0.047548
  0
VERTEX
  8
0
 10
1098.336705
 20
629.373818
 42
-0.137694
  0
VERTEX
  8
0
 10
1093.442631
 20
628.000000
 42
-0.194165
  0
VERTEX
  8
0
 10
1088.241542
 20
630.098870
 42
-0.051309
  0
VERTEX
  8
0
 10
1082.344185
 20
637.084120
 42
-0.050049
  0
VERTEX
  8
0
 10
1077.482046
 20
646.013712
 42
-0.074073
  0
VERTEX
  8
0
 10
1075.273813
 20
654.635948
 42
-0.016954
  0
VERTEX
  8
0
 10
1075.036836
 20
658.067969
 42
-0.099813
  0
VERTEX
  8
0
 10
1075.329804
 20
659.839036
 42
-0.096725
  0
VERTEX
  8
0
 10
1076.289076
 20
661.383638
 42
-0.015441
  0
VERTEX
  8
0
 10
1078.801355
 20
663.925814
 42
-0.044555
  0
VERTEX
  8
0
 10
1081.378936
 20
665.973718
 42
-0.010761
  0
VERTEX
  8
0
 10
1085.997809
 20
668.874731
 42
-0.010359
  0
VERTEX
  8
0
 10
1091.732413
 20
672.147286
 42
-0.007694
  0
VERTEX
  8
0
 10
1098.193302
 20
675.531198
 42
0.007811
  0
VERTEX
  8
0
 10
1117.665529
 20
685.735666
 42
0.025374
  0
VERTEX
  8
0
 10
1130.096749
 20
693.341275
 42
0.038618
  0
VERTEX
  8
0
 10
1138.293389
 20
699.928942
 42
0.071751
  0
VERTEX
  8
0
 10
1143.601679
 20
706.583290
 42
0.057638
  0
VERTEX
  8
0
 10
1145.960157
 20
711.937140
 42
0.029133
  0
VERTEX
  8
0
 10
1147.725993
 20
719.105020
 42
0.025248
  0
VERTEX
  8
0
 10
1148.877782
 20
727.726519
 42
0.017396
  0
VERTEX
  8
0
 10
1149.346117
 20
737.571532
 42
0.000000
  0
VERTEX
  8
0
 10
1149.500000
 20
749.643064
 42
0.000000
  0
VERTEX
  8
0
 10
1145.135795
 20
758.454256
 42
0.076265
  0
VERTEX
  8
0
 10
1134.701617
 20
773.316171
 42
0.078810
  0
VERTEX
  8
0
 10
1120.396836
 20
784.171557
 42
0.078102
  0
VERTEX
  8
0
 10
1103.317283
 20
790.135869
 42
0.073001
  0
SEQEND
  0
POLYLINE
  8
0
 66
1
 70
1
  0
VERTEX
  8
0
 10
1108.789838
 20
752.087629
 42
-0.076897
  0
VERTEX
  8
0
 10
1115.163439
 20
747.446231
 42
-0.074604
  0
VERTEX
  8
0
 10
1119.914030
 20
741.051735
 42
-0.079447
  0
VERTEX
  8
0
 10
1122.361064
 20
733.941527
 42
-0.109417
  0
VERTEX
  8
0
 10
1122.057685
 20
727.214226
 42
-0.053297
  0
VERTEX
  8
0
 10
1120.578195
 20
723.394403
 42
-0.061118
  0
VERTEX
  8
0
 10
1118.375724
 20
720.161933
 42
-0.045024
  0
VERTEX
  8
0
 10
1114.914496
 20
716.868123
 42
-0.015246
  0
VERTEX
  8
0
 10
1109.332128
 20
712.710566
 42
-0.008692
  0
VERTEX
  8
0
 10
1101.237069
 20
707.263812
 42
-0.041617
  0
VERTEX
  8
0
 10
1096.335021
 20
704.638402
 42
-0.063157
  0
VERTEX
  8
0
 10
1092.087462
 20
703.406106
 42
-0.039075
  0
VERTEX
  8
0
 10
1086.898894
 20
703.000000
 42
-0.034619
  0
VERTEX
  8
0
 10
1081.086484
 20
703.402924
 42
-0.139047
  0
VERTEX
  8
0
 10
1077.858474
 20
704.824157
 42
-0.156031
  0
VERTEX
  8
0
 10
1076.064542
 20
707.621909
 42
-0.047133
  0
VERTEX
  8
0
 10
1075.218105
 20
712.661488
 42
-0.034336
  0
VERTEX
  8
0
 10
1075.196229
 20
718.801079
 42
-0.021728
  0
VERTEX
  8
0
 10
1075.972045
 20
725.921357
 42
-0.021850
  0
VERTEX
  8
0
 10
1077.326339
 20
732.754046
 42
-0.044162
  0
VERTEX
  8
0
 10
1079.090472
 20
737.944514
 42
-0.044405
  0
VERTEX
  8
0
 10
1081.451175
 20
742.218418
 42
-0.045644
  0
VERTEX
  8
0
 10
1084.510414
 20
745.965945
 42
-0.045372
  0
VERTEX
  8
0
 10
1088.217098
 20
749.115180
 42
-0.042855
  0
VERTEX
  8
0
 10
1092.500000
 20
751.612691
 42
-0.042898
  0
VERTEX
  8
0
 10
1096.915150
 20
753.257073
 42
-0.060482
  0
VERTEX
  8
0
 10
1101.063382
 20
753.883868
 42
-0.065103
  0
VERTEX
  8
0
 10
1105.001061
 20
753.485302
 42
-0.061334
  0
SEQEND
  0
POLYLINE
  8
0
 66
1
 70
1
  0
VERTEX
  8
0
 10
812.584154
 20
753.475383
 42
0.049911
  0
VERTEX
  8
0
 10
808.193994
 20
751.287542
 42
0.024576
  0
VERTEX
  8
0
 10
803.080077
 20
747.704128
 42
0.024572
  0
VERTEX
  8
0
 10
798.305603
 20
743.604610
 42
0.046349
  0
VERTEX
  8
0
 10
794.962050
 20
739.788914
 42
0.026662
  0
VERTEX
  8
0
 10
793.532290
 20
737.575869
 42
0.047472
  0
VERTEX
  8
0
 10
792.637986
 20
735.602057
 42
0.049824
  0
VERTEX
  8
0
 10
792.158306
 20
733.562392
 42
0.032865
  0
VERTEX
  8
0
 10
792.000000
 20
731.156559
 42
0.035992
  0
VERTEX
  8
0
 10
792.198567
 20
728.401603
 42
0.090721
  0
VERTEX
  8
0
 10
792.838017
 20
726.502894
 42
0.062977
  0
VERTEX
  8
0
 10
794.251137
 20
724.571202
 42
0.010997
  0
VERTEX
  8
0
 10
797.428441
 20
721.355335
 42
0.046737
  0
VERTEX
  8
0
 10
802.550764
 20
717.246633
 42
0.061636
  0
VERTEX
  8
0
 10
807.911370
 20
714.594020
 42
0.060692
  0
VERTEX
  8
0
 10
813.822908
 20
713.302134
 42
0.043532
  0
VERTEX
  8
0
 10
820.592433
 20
713.255357
 42
0.073713
  0
VERTEX
  8
0
 10
829.275046
 20
715.263248
 42
0.117484
  0
VERTEX
  8
0
 10
835.498481
 20
719.597337
 42
0.114683
  0
VERTEX
  8
0
 10
839.193931
 20
726.358321
 42
0.068067
  0
VERTEX
  8
0
 10
840.444444
 20
735.501656
 42
0.038022
  0
VERTEX
  8
0
 10
840.023830
 20
741.024904
 42
0.057746
  0
VERTEX
  8
0
 10
838.753116
 20
745.663635
 42
0.065509
  0
VERTEX
  8
0
 10
836.618876
 20
749.447381
 42
0.071388
  0
VERTEX
  8
0
 10
833.630647
 20
752.426440
 42
0.113750
  0
VERTEX
  8
0
 10
829.976548
 20
754.035521
 42
0.034632
  0
VERTEX
  8
0
 10
823.934329
 20
754.758175
 42
0.035364
  0
VERTEX
  8
0
 10
817.558678
 20
754.624899
 42
0.067851
  0
SEQEND
  0
POLYLINE
  8
0
 66
1
 70
1
  0
VERTEX
  8
0
 10
728.500000
 20
689.964331
 42
0.020859
  0
VERTEX
  8
0
 10
719.836805
 20
686.573785
 42
0.017208
  0
VERTEX
  8
0
 10
710.899925
 20
682.265904
 42
0.017455
  0
VERTEX
  8
0
 10
702.453057
 20
677.446469
 42
0.024287
  0
VERTEX
  8
0
 10
695.277434
 20
672.516679
 42
0.061067
  0
VERTEX
  8
0
 10
683.689225
 20
661.223422
 42
0.054860
  0
VERTEX
  8
0
 10
674.682749
 20
647.069305
 42
0.054672
  0
VERTEX
  8
0
 10
668.944732
 20
631.244361
 42
0.059724
  0
VERTEX
  8
0
 10
667.000000
 20
615.021539
 42
0.044372
  0
VERTEX
  8
0
 10
667.921274
 20
604.660817
 42
0.076057
  0
VERTEX
  8
0
 10
670.719797
 20
596.469027
 42
0.051762
  0
VERTEX
  8
0
 10
676.621326
 20
587.548177
 42
0.011429
  0
VERTEX
  8
0
 10
688.602648
 20
573.629471
 42
-0.006759
  0
VERTEX
  8
0
 10
697.946138
 20
562.977951
 42
-0.009388
  0
VERTEX
  8
0
 10
706.003976
 20
553.170571
 42
-0.009743
  0
VERTEX
  8
0
 10
712.303772
 20
544.875287
 42
-0.041957
  0
VERTEX
  8
0
 10
715.519831
 20
539.584361
 42
-0.056467
  0
VERTEX
  8
0
 10
717.279674
 20
534.755594
 42
-0.053410
  0
VERTEX
  8
0
 10
717.958303
 20
529.563048
 42
-0.049561
  0
VERTEX
  8
0
 10
717.535610
 20
523.997584
 42
-0.037540
  0
VERTEX
  8
0
 10
716.020112
 20
518.059703
 42
-0.039147
  0
VERTEX
  8
0
 10
712.548515
 20
509.921057
 42
-0.034886
  0
VERTEX
  8
0
 10
707.732373
 20
502.086596
 42
-0.027561
  0
VERTEX
  8
0
 10
700.855632
 20
493.513496
 42
-0.012252
  0
VERTEX
  8
0
 10
690.915294
 20
482.963438
 42
0.017781
  0
VERTEX
  8
0
 10
679.703564
 20
470.797299
 42
0.047201
  0
VERTEX
  8
0
 10
672.892570
 20
461.149275
 42
0.070935
  0
VERTEX
  8
0
 10
669.732214
 20
453.207778
 42
0.139872
  0
VERTEX
  8
0
 10
670.007149
 20
446.478338
 42
0.118348
  0
VERTEX
  8
0
 10
672.893931
 20
441.815765
 42
0.089194
  0
VERTEX
  8
0
 10
677.876080
 20
438.385994
 42
0.075040
  0
VERTEX
  8
0
 10
684.570175
 20
436.495892
 42
0.052579
  0
VERTEX
  8
0
 10
692.416885
 20
436.336358
 42
0.041542
  0
VERTEX
  8
0
 10
702.507136
 20
438.045260
 42
0.040614
  0
VERTEX
  8
0
 10
712.255822
 20
441.406114
 42
0.037761
  0
VERTEX
  8
0
 10
721.944629
 20
446.557339
 42
0.027671
  0
VERTEX
  8
0
 10
731.861568
 20
453.629254
 42
0.048168
  0
VERTEX
  8
0
 10
748.894257
 20
470.180467
 42
0.052955
  0
VERTEX
  8
0
 10
761.839437
 20
489.197662
 42
0.058779
  0
VERTEX
  8
0
 10
769.345851
 20
508.299629
 42
0.105558
  0
VERTEX
  8
0
 10
770.128272
 20
525.053309
 42
0.015297
  0
VERTEX
  8
0
 10
769.550342
 20
527.990824
 42
0.010920
  0
VERTEX
  8
0
 10
768.731899
 20
531.240954
 42
0.011041
  0
VERTEX
  8
0
 10
767.814692
 20
534.307763
 42
0.023071
  0
VERTEX
  8
0
 10
766.939780
 20
536.640489
 42
0.036125
  0
VERTEX
  8
0
 10
763.719649
 20
542.868642
 42
0.015518
  0
VERTEX
  8
0
 10
758.584913
 20
550.698579
 42
0.014313
  0
VERTEX
  8
0
 10
752.181232
 20
559.297817
 42
0.012190
  0
VERTEX
  8
0
 10
744.953673
 20
568.000000
 42
-0.013687
  0
VERTEX
  8
0
 10
733.676095
 20
581.661528
 42
-0.037147
  0
VERTEX
  8
0
 10
726.710547
 20
592.099376
 42
-0.053941
  0
VERTEX
  8
0
 10
723.030255
 20
600.650420
 42
-0.098337
  0
VERTEX
  8
0
 10
722.254669
 20
608.182744
 42
-0.070101
  0
VERTEX
  8
0
 10
723.780688
 20
614.601492
 42
-0.053815
  0
VERTEX
  8
0
 10
727.118382
 20
620.998372
 42
-0.034814
  0
VERTEX
  8
0
 10
733.076509
 20
628.706513
 42
-0.010034
  0
VERTEX
  8
0
 10
743.324401
 20
639.757589
 42
0.005822
  0
VERTEX
  8
0
 10
749.478265
 20
646.282653
 42
0.009176
  0
VERTEX
  8
0
 10
754.589834
 20
652.039059
 42
0.008691
  0
VERTEX
  8
0
 10
758.500596
 20
656.773572
 42
0.061789
  0
VERTEX
  8
0
 10
760.052439
 20
659.306976
 42
0.072741
  0
VERTEX
  8
0
 10
761.542935
 20
664.471860
 42
0.033510
  0
VERTEX
  8
0
 10
762.024669
 20
671.470048
 42
0.033504
  0
VERTEX
  8
0
 10
761.567850
 20
678.461206
 42
0.073648
  0
VERTEX
  8
0
 10
760.094566
 20
683.598931
 42
0.121529
  0
VERTEX
  8
0
 10
755.525057
 20
689.388429
 42
0.116003
  0
VERTEX
  8
0
 10
748.710287
 20
692.512043
 42
0.088265
  0
VERTEX
  8
0
 10
739.640849
 20
692.718286
 42
0.044529
  0
SEQEND
  0
POLYLINE
  8
0
 66
1
 70
1
  0
VERTEX
  8
0
 10
807.402109
 20
683.064264
 42
0.034403
  0
VERTEX
  8
0
 10
799.217809
 20
681.181490
 42
0.098683
  0
VERTEX
  8
0
 10
794.099785
 20
678.440927
 42
0.121744
  0
VERTEX
  8
0
 10
791.039100
 20
674.331395
 42
0.067557
  0
VERTEX
  8
0
 10
789.404892
 20
668.260323
 42
0.036688
  0
VERTEX
  8
0
 10
788.916062
 20
659.331965
 42
0.000712
  0
VERTEX
  8
0
 10
789.840626
 20
613.273391
 42
0.001676
  0
VERTEX
  8
0
 10
790.919949
 20
569.844379
 42
0.009779
  0
VERTEX
  8
0
 10
792.011776
 20
547.000000
 42
0.010842
  0
VERTEX
  8
0
 10
794.019185
 20
524.504267
 42
0.033476
  0
VERTEX
  8
0
 10
796.714572
 20
509.488238
 42
0.049554
  0
VERTEX
  8
0
 10
800.583212
 20
498.674432
 42
0.068922
  0
VERTEX
  8
0
 10
806.213943
 20
490.084128
 42
0.035836
  0
VERTEX
  8
0
 10
811.777843
 20
484.565471
 42
0.122728
  0
VERTEX
  8
0
 10
816.295526
 20
482.296491
 42
0.168570
  0
VERTEX
  8
0
 10
820.487212
 20
482.771294
 42
0.084855
  0
VERTEX
  8
0
 10
824.885198
 20
485.885198
 42
0.086797
  0
VERTEX
  8
0
 10
829.383573
 20
492.290804
 42
0.044954
  0
VERTEX
  8
0
 10
832.740310
 20
501.508600
 42
0.032718
  0
VERTEX
  8
0
 10
835.225959
 20
514.161985
 42
0.013591
  0
VERTEX
  8
0
 10
836.989692
 20
531.500000
 42
0.012495
  0
VERTEX
  8
0
 10
838.121759
 20
554.486551
 42
0.001867
  0
VERTEX
  8
0
 10
839.070096
 20
600.766777
 42
0.001404
  0
VERTEX
  8
0
 10
839.726802
 20
647.849322
 42
0.021327
  0
VERTEX
  8
0
 10
839.212669
 20
664.161242
 42
0.014216
  0
VERTEX
  8
0
 10
838.319868
 20
672.833596
 42
0.072515
  0
VERTEX
  8
0
 10
837.003173
 20
677.486134
 42
0.129210
  0
VERTEX
  8
0
 10
834.807759
 20
680.214566
 42
0.091676
  0
VERTEX
  8
0
 10
831.259456
 20
681.943471
 42
0.040186
  0
VERTEX
  8
0
 10
826.393480
 20
682.880433
 42
0.015740
  0
VERTEX
  8
0
 10
819.572154
 20
683.416468
 42
0.015864
  0
VERTEX
  8
0
 10
812.652587
 20
683.521788
 42
0.035222
  0
SEQEND
  0
POLYLINE
  8
0
 66
1
 70
1
  0
VERTEX
  8
0
 10
437.000000
 20
650.471924
 42
0.082802
  0
VERTEX
  8
0
 10
429.684255
 20
646.805616
 42
0.042096
  0
VERTEX
  8
0
 10
421.884642
 20
640.048018
 42
0.041381
  0
VERTEX
  8
0
 10
415.651751
 20
632.496078
 42
0.145756
  0
VERTEX
  8
0
 10
413.705057
 20
626.578415
 42
0.102051
  0
VERTEX
  8
0
 10
414.329278
 20
623.049156
 42
0.058547
  0
VERTEX
  8
0
 10
416.392141
 20
619.231641
 42
0.054494
  0
VERTEX
  8
0
 10
419.505339
 20
615.691089
 42
0.057218
  0
VERTEX
  8
0
 10
423.262741
 20
612.972488
 42
0.079256
  0
VERTEX
  8
0
 10
428.080688
 20
611.192739
 42
0.028982
  0
VERTEX
  8
0
 10
435.299570
 20
610.192205
 42
0.029299
  0
VERTEX
  8
0
 10
442.819758
 20
610.032807
 42
0.056599
  0
VERTEX
  8
0
 10
448.763130
 20
610.933889
 42
0.061785
  0
VERTEX
  8
0
 10
452.709206
 20
612.541920
 42
0.052470
  0
VERTEX
  8
0
 10
456.386275
 20
615.140533
 42
0.054096
  0
VERTEX
  8
0
 10
459.325468
 20
618.342390
 42
0.079112
  0
VERTEX
  8
0
 10
461.077898
 20
621.736033
 42
0.056603
  0
VERTEX
  8
0
 10
462.047667
 20
626.384110
 42
0.037127
  0
VERTEX
  8
0
 10
462.148315
 20
631.858588
 42
0.037330
  0
VERTEX
  8
0
 10
461.443344
 20
637.231548
 42
0.061516
  0
VERTEX
  8
0
 10
459.969704
 20
641.562583
 42
0.046327
  0
VERTEX
  8
0
 10
457.924713
 20
644.947774
 42
0.063210
  0
VERTEX
  8
0
 10
455.465758
 20
647.523193
 42
0.061657
  0
VERTEX
  8
0
 10
452.391476
 20
649.446834
 42
0.041462
  0
VERTEX
  8
0
 10
448.500000
 20
650.880937
 42
0.018021
  0
VERTEX
  8
0
 10
445.233626
 20
651.660103
 42
0.058486
  0
VERTEX
  8
0
 10
443.017196
 20
651.840670
 42
0.053036
  0
VERTEX
  8
0
 10
440.706950
 20
651.511514
 42
0.012962
  0
SEQEND
  0
POLYLINE
  8
0
 66
1
 70
1
  0
VERTEX
  8
0
 10
508.196048
 20
635.163427
 42
0.041482
  0
VERTEX
  8
0
 10
504.220239
 20
633.360857
 42
0.041796
  0
VERTEX
  8
0
 10
500.607195
 20
630.930594
 42
0.043859
  0
VERTEX
  8
0
 10
497.620449
 20
628.072855
 42
0.059583
  0
VERTEX
  8
0
 10
495.513253
 20
624.997929
 42
0.077381
  0
VERTEX
  8
0
 10
494.964494
 20
623.381620
 42
0.009743
  0
VERTEX
  8
0
 10
494.398850
 20
619.722306
 42
0.011196
  0
VERTEX
  8
0
 10
493.903707
 20
615.299418
 42
0.008853
  0
VERTEX
  8
0
 10
493.560350
 20
610.497929
 42
0.016294
  0
VERTEX
  8
0
 10
493.127497
 20
589.984466
 42
0.001023
  0
VERTEX
  8
0
 10
493.946333
 20
529.480115
 42
0.000420
  0
VERTEX
  8
0
 10
495.004212
 20
465.048894
 42
0.047736
  0
VERTEX
  8
0
 10
495.957577
 20
456.622203
 42
0.085311
  0
VERTEX
  8
0
 10
500.208678
 20
445.925071
 42
0.070716
  0
VERTEX
  8
0
 10
508.016273
 20
436.458913
 42
0.071109
  0
VERTEX
  8
0
 10
518.103572
 20
429.588205
 42
0.088265
  0
VERTEX
  8
0
 10
529.000000
 20
426.456138
 42
0.089369
  0
VERTEX
  8
0
 10
535.784759
 20
426.962158
 42
0.175529
  0
VERTEX
  8
0
 10
540.193054
 20
429.979508
 42
0.139936
  0
VERTEX
  8
0
 10
542.256800
 20
435.722445
 42
0.050119
  0
VERTEX
  8
0
 10
541.964947
 20
444.500000
 42
-0.006426
  0
VERTEX
  8
0
 10
539.321589
 20
466.322989
 42
-0.008125
  0
VERTEX
  8
0
 10
537.465649
 20
486.563576
 42
-0.008698
  0
VERTEX
  8
0
 10
536.365862
 20
505.572412
 42
-0.010099
  0
VERTEX
  8
0
 10
536.000000
 20
523.683713
 42
-0.008896
  0
VERTEX
  8
0
 10
536.240931
 20
537.224290
 42
-0.052025
  0
VERTEX
  8
0
 10
537.230238
 20
544.268019
 42
-0.089587
  0
VERTEX
  8
0
 10
539.414084
 20
549.129584
 42
-0.057423
  0
VERTEX
  8
0
 10
543.484611
 20
553.811941
 42
-0.024187
  0
VERTEX
  8
0
 10
548.407721
 20
557.892575
 42
-0.056155
  0
VERTEX
  8
0
 10
552.535828
 20
560.319870
 42
-0.064116
  0
VERTEX
  8
0
 10
556.746702
 20
561.582390
 42
-0.040832
  0
VERTEX
  8
0
 10
561.851908
 20
562.000000
 42
-0.034132
  0
VERTEX
  8
0
 10
570.262011
 20
561.425215
 42
-0.047651
  0
VERTEX
  8
0
 10
577.595013
 20
559.695026
 42
-0.053165
  0
VERTEX
  8
0
 10
583.811651
 20
556.820065
 42
-0.063218
  0
VERTEX
  8
0
 10
588.892788
 20
552.830225
 42
-0.095173
  0
VERTEX
  8
0
 10
595.437778
 20
543.035789
 42
-0.044059
  0
VERTEX
  8
0
 10
600.145032
 20
528.403799
 42
-0.028012
  0
VERTEX
  8
0
 10
603.804961
 20
506.716267
 42
-0.008168
  0
VERTEX
  8
0
 10
607.012136
 20
473.000000
 42
0.004838
  0
VERTEX
  8
0
 10
609.492914
 20
444.939062
 42
0.022595
  0
VERTEX
  8
0
 10
611.805829
 20
428.879271
 42
0.040082
  0
VERTEX
  8
0
 10
614.614456
 20
418.665002
 42
0.096864
  0
VERTEX
  8
0
 10
618.634159
 20
411.983182
 42
0.063386
  0
VERTEX
  8
0
 10
622.031987
 20
409.065713
 42
0.037342
  0
VERTEX
  8
0
 10
626.714266
 20
406.457504
 42
0.037508
  0
VERTEX
  8
0
 10
631.667057
 20
404.601162
 42
0.071024
  0
VERTEX
  8
0
 10
635.877790
 20
404.000000
 42
0.065613
  0
VERTEX
  8
0
 10
637.349997
 20
404.194027
 42
0.016920
  0
VERTEX
  8
0
 10
639.646736
 20
404.894220
 42
0.016924
  0
VERTEX
  8
0
 10
642.234539
 20
405.878910
 42
0.016495
  0
VERTEX
  8
0
 10
644.772446
 20
407.044154
 42
0.017897
  0
VERTEX
  8
0
 10
648.053641
 20
408.833283
 42
0.051695
  0
VERTEX
  8
0
 10
650.130344
 20
410.373969
 42
0.061135
  0
VERTEX
  8
0
 10
651.649912
 20
412.152320
 42
0.033545
  0
VERTEX
  8
0
 10
653.070138
 20
414.644887
 42
0.036250
  0
VERTEX
  8
0
 10
654.282539
 20
417.694750
 42
0.053577
  0
VERTEX
  8
0
 10
654.850810
 20
420.514739
 42
0.029570
  0
VERTEX
  8
0
 10
654.978553
 20
424.422387
 42
0.004330
  0
VERTEX
  8
0
 10
654.700133
 20
432.350733
 42
0.013324
  0
VERTEX
  8
0
 10
654.217762
 20
439.190460
 42
0.004004
  0
VERTEX
  8
0
 10
653.123383
 20
449.568653
 42
0.004010
  0
VERTEX
  8
0
 10
651.708220
 20
461.198488
 42
0.004341
  0
VERTEX
  8
0
 10
650.141054
 20
472.500000
 42
-0.003517
  0
VERTEX
  8
0
 10
647.003598
 20
494.854670
 42
-0.006393
  0
VERTEX
  8
0
 10
644.802037
 20
513.171670
 42
-0.006520
  0
VERTEX
  8
0
 10
643.097240
 20
531.294652
 42
-0.003836
  0
VERTEX
  8
0
 10
641.508179
 20
553.000000
 42
0.004118
  0
VERTEX
  8
0
 10
639.620695
 20
578.583133
 42
0.016567
  0
VERTEX
  8
0
 10
637.822158
 20
594.151892
 42
0.027158
  0
VERTEX
  8
0
 10
635.641044
 20
604.778130
 42
0.053119
  0
VERTEX
  8
0
 10
632.576542
 20
612.848952
 42
0.073020
  0
VERTEX
  8
0
 10
628.069320
 20
619.232255
 42
0.061434
  0
VERTEX
  8
0
 10
621.666200
 20
624.490083
 42
0.060053
  0
VERTEX
  8
0
 10
614.021371
 20
628.134245
 42
0.063311
  0
VERTEX
  8
0
 10
605.865347
 20
629.774022
 42
0.049773
  0
VERTEX
  8
0
 10
600.442109
 20
629.624779
 42
0.053698
  0
VERTEX
  8
0
 10
595.298021
 20
628.397137
 42
0.040236
  0
VERTEX
  8
0
 10
589.434581
 20
625.764679
 42
0.014523
  0
VERTEX
  8
0
 10
581.552478
 20
621.130930
 42
-0.053032
  0
VERTEX
  8
0
 10
571.277040
 20
616.109655
 42
-0.119513
  0
VERTEX
  8
0
 10
562.716566
 20
615.158312
 42
-0.107686
  0
VERTEX
  8
0
 10
554.100304
 20
618.223327
 42
-0.038280
  0
VERTEX
  8
0
 10
543.500000
 20
625.998265
 42
0.011603
  0
VERTEX
  8
0
 10
540.497618
 20
628.456877
 42
0.010307
  0
VERTEX
  8
0
 10
537.265154
 20
630.875338
 42
0.010404
  0
VERTEX
  8
0
 10
534.266273
 20
632.931016
 42
0.031029
  0
VERTEX
  8
0
 10
532.104780
 20
634.163075
 42
0.063600
  0
VERTEX
  8
0
 10
526.867081
 20
635.951298
 42
0.040062
  0
VERTEX
  8
0
 10
520.442171
 20
636.738374
 42
0.039686
  0
VERTEX
  8
0
 10
513.874939
 20
636.491889
 42
0.056536
  0
SEQEND
  0
POLYLINE
  8
0
 66
1
 70
1
  0
VERTEX
  8
0
 10
423.230150
 20
569.449604
 42
0.017722
  0
VERTEX
  8
0
 10
418.803101
 20
568.087770
 42
0.033949
  0
VERTEX
  8
0
 10
415.383380
 20
566.634907
 42
0.041406
  0
VERTEX
  8
0
 10
412.689712
 20
564.974575
 42
0.050587
  0
VERTEX
  8
0
 10
410.497639
 20
562.988111
 42
0.129854
  0
VERTEX
  8
0
 10
409.334623
 20
560.727817
 42
0.039783
  0
VERTEX
  8
0
 10
408.804070
 20
556.891539
 42
0.014575
  0
VERTEX
  8
0
 10
408.599954
 20
549.795539
 42
0.001178
  0
VERTEX
  8
0
 10
408.651193
 20
531.135732
 42
0.005706
  0
VERTEX
  8
0
 10
409.160176
 20
500.315457
 42
0.003583
  0
VERTEX
  8
0
 10
410.424595
 20
464.296440
 42
0.003588
  0
VERTEX
  8
0
 10
412.150683
 20
429.406141
 42
0.007672
  0
VERTEX
  8
0
 10
414.089954
 20
402.500000
 42
0.021059
  0
VERTEX
  8
0
 10
415.317701
 20
393.065442
 42
0.051596
  0
VERTEX
  8
0
 10
417.213339
 20
386.337060
 42
0.057879
  0
VERTEX
  8
0
 10
420.294754
 20
380.606321
 42
0.032883
  0
VERTEX
  8
0
 10
425.219192
 20
374.450547
 42
0.030165
  0
VERTEX
  8
0
 10
431.338649
 20
368.516480
 42
0.127361
  0
VERTEX
  8
0
 10
435.888483
 20
366.282927
 42
0.180032
  0
VERTEX
  8
0
 10
440.044183
 20
366.924854
 42
0.074450
  0
VERTEX
  8
0
 10
444.614788
 20
370.458457
 42
0.127923
  0
VERTEX
  8
0
 10
451.511203
 20
382.799924
 42
0.035510
  0
VERTEX
  8
0
 10
455.604502
 20
404.779703
 42
0.020476
  0
VERTEX
  8
0
 10
458.152749
 20
440.019597
 42
0.004269
  0
VERTEX
  8
0
 10
459.560115
 20
502.000000
 42
0.002305
  0
VERTEX
  8
0
 10
459.889610
 20
536.477709
 42
0.018507
  0
VERTEX
  8
0
 10
459.381016
 20
552.334675
 42
0.041011
  0
VERTEX
  8
0
 10
458.011891
 20
561.329768
 42
0.153325
  0
VERTEX
  8
0
 10
455.119632
 20
566.184417
 42
0.034943
  0
VERTEX
  8
0
 10
453.689851
 20
567.292599
 42
0.021687
  0
VERTEX
  8
0
 10
451.874460
 20
568.395984
 42
0.021721
  0
VERTEX
  8
0
 10
449.978545
 20
569.333728
 42
0.036272
  0
VERTEX
  8
0
 10
448.303301
 20
569.932702
 42
0.053817
  0
VERTEX
  8
0
 10
443.360538
 20
570.747295
 42
0.018770
  0
VERTEX
  8
0
 10
436.140599
 20
570.879226
 42
0.019106
  0
VERTEX
  8
0
 10
428.780207
 20
570.455734
 42
0.041851
  0
SEQEND
  0
ENDSEC
  0
EOF
