<?xml version="1.0" standalone="no"?>
 <!DOCTYPE svg PUBLIC "-//W3C//DTD SVG 1.1//EN" 
 "http://www.w3.org/Graphics/SVG/1.1/DTD/svg11.dtd"> 
<svg
  xmlns:svg="http://www.w3.org/2000/svg"
  xmlns="http://www.w3.org/2000/svg"
  xmlns:xlink="http://www.w3.org/1999/xlink"
  version="1.1"
  width="297.002200mm" height="210.007200mm" viewBox="0.000000 0.000000 297.002200 210.007200">
<title>SVG Image created as ACE3NOKB-B_Paste.svg date 2025/05/05 11:31:03 </title>
  <desc>Image generated by PCBNEW </desc>
<g style="fill:#000000; fill-opacity:1.000000;stroke:#000000; stroke-opacity:1.000000;
stroke-linecap:round; stroke-linejoin:round;"
 transform="translate(0 0) scale(1 1)">
</g>
<g style="fill:#000000; fill-opacity:1.000000; stroke:none;">
<circle cx="35.240000" cy="113.980000" r="1.750000" /> 
</g>
<g style="fill:#000000; fill-opacity:1.000000; stroke:none;">
<circle cx="166.050000" cy="113.980000" r="1.750000" /> 
</g>
<g style="fill:#000000; fill-opacity:1.000000; stroke:none;">
<circle cx="35.240000" cy="33.970000" r="1.750000" /> 
</g>
<g style="fill:#000000; fill-opacity:1.000000; stroke:none;">
<circle cx="166.050000" cy="33.970000" r="1.750000" /> 
<path style="fill:#000000; fill-opacity:1.000000; stroke:none;fill-rule:evenodd;"
d="M 93.675000,23.510000
95.875000,23.510000
95.875000,24.110000
93.675000,24.110000
Z" /> 
<path style="fill:#000000; fill-opacity:1.000000; stroke:none;fill-rule:evenodd;"
d="M 93.675000,24.780000
95.875000,24.780000
95.875000,25.380000
93.675000,25.380000
Z" /> 
<path style="fill:#000000; fill-opacity:1.000000; stroke:none;fill-rule:evenodd;"
d="M 93.675000,26.050000
95.875000,26.050000
95.875000,26.650000
93.675000,26.650000
Z" /> 
<path style="fill:#000000; fill-opacity:1.000000; stroke:none;fill-rule:evenodd;"
d="M 93.675000,27.320000
95.875000,27.320000
95.875000,27.920000
93.675000,27.920000
Z" /> 
<path style="fill:#000000; fill-opacity:1.000000; stroke:none;fill-rule:evenodd;"
d="M 93.675000,28.590000
95.875000,28.590000
95.875000,29.190000
93.675000,29.190000
Z" /> 
<path style="fill:#000000; fill-opacity:1.000000; stroke:none;fill-rule:evenodd;"
d="M 93.675000,29.860000
95.875000,29.860000
95.875000,30.460000
93.675000,30.460000
Z" /> 
<path style="fill:#000000; fill-opacity:1.000000; stroke:none;fill-rule:evenodd;"
d="M 93.675000,31.130000
95.875000,31.130000
95.875000,31.730000
93.675000,31.730000
Z" /> 
<path style="fill:#000000; fill-opacity:1.000000; stroke:none;fill-rule:evenodd;"
d="M 93.675000,32.400000
95.875000,32.400000
95.875000,33.000000
93.675000,33.000000
Z" /> 
<path style="fill:#000000; fill-opacity:1.000000; stroke:none;fill-rule:evenodd;"
d="M 93.675000,33.670000
95.875000,33.670000
95.875000,34.270000
93.675000,34.270000
Z" /> 
<path style="fill:#000000; fill-opacity:1.000000; stroke:none;fill-rule:evenodd;"
d="M 93.675000,34.940000
95.875000,34.940000
95.875000,35.540000
93.675000,35.540000
Z" /> 
<path style="fill:#000000; fill-opacity:1.000000; stroke:none;fill-rule:evenodd;"
d="M 93.675000,36.210000
95.875000,36.210000
95.875000,36.810000
93.675000,36.810000
Z" /> 
<path style="fill:#000000; fill-opacity:1.000000; stroke:none;fill-rule:evenodd;"
d="M 93.675000,37.480000
95.875000,37.480000
95.875000,38.080000
93.675000,38.080000
Z" /> 
<path style="fill:#000000; fill-opacity:1.000000; stroke:none;fill-rule:evenodd;"
d="M 93.675000,38.750000
95.875000,38.750000
95.875000,39.350000
93.675000,39.350000
Z" /> 
<path style="fill:#000000; fill-opacity:1.000000; stroke:none;fill-rule:evenodd;"
d="M 93.675000,40.020000
95.875000,40.020000
95.875000,40.620000
93.675000,40.620000
Z" /> 
<path style="fill:#000000; fill-opacity:1.000000; stroke:none;fill-rule:evenodd;"
d="M 83.795000,40.020000
85.995000,40.020000
85.995000,40.620000
83.795000,40.620000
Z" /> 
<path style="fill:#000000; fill-opacity:1.000000; stroke:none;fill-rule:evenodd;"
d="M 83.795000,38.750000
85.995000,38.750000
85.995000,39.350000
83.795000,39.350000
Z" /> 
<path style="fill:#000000; fill-opacity:1.000000; stroke:none;fill-rule:evenodd;"
d="M 83.795000,37.480000
85.995000,37.480000
85.995000,38.080000
83.795000,38.080000
Z" /> 
<path style="fill:#000000; fill-opacity:1.000000; stroke:none;fill-rule:evenodd;"
d="M 83.795000,36.210000
85.995000,36.210000
85.995000,36.810000
83.795000,36.810000
Z" /> 
<path style="fill:#000000; fill-opacity:1.000000; stroke:none;fill-rule:evenodd;"
d="M 83.795000,34.940000
85.995000,34.940000
85.995000,35.540000
83.795000,35.540000
Z" /> 
<path style="fill:#000000; fill-opacity:1.000000; stroke:none;fill-rule:evenodd;"
d="M 83.795000,33.670000
85.995000,33.670000
85.995000,34.270000
83.795000,34.270000
Z" /> 
<path style="fill:#000000; fill-opacity:1.000000; stroke:none;fill-rule:evenodd;"
d="M 83.795000,32.400000
85.995000,32.400000
85.995000,33.000000
83.795000,33.000000
Z" /> 
<path style="fill:#000000; fill-opacity:1.000000; stroke:none;fill-rule:evenodd;"
d="M 83.795000,31.130000
85.995000,31.130000
85.995000,31.730000
83.795000,31.730000
Z" /> 
<path style="fill:#000000; fill-opacity:1.000000; stroke:none;fill-rule:evenodd;"
d="M 83.795000,29.860000
85.995000,29.860000
85.995000,30.460000
83.795000,30.460000
Z" /> 
<path style="fill:#000000; fill-opacity:1.000000; stroke:none;fill-rule:evenodd;"
d="M 83.795000,28.590000
85.995000,28.590000
85.995000,29.190000
83.795000,29.190000
Z" /> 
<path style="fill:#000000; fill-opacity:1.000000; stroke:none;fill-rule:evenodd;"
d="M 83.795000,27.320000
85.995000,27.320000
85.995000,27.920000
83.795000,27.920000
Z" /> 
<path style="fill:#000000; fill-opacity:1.000000; stroke:none;fill-rule:evenodd;"
d="M 83.795000,26.050000
85.995000,26.050000
85.995000,26.650000
83.795000,26.650000
Z" /> 
<path style="fill:#000000; fill-opacity:1.000000; stroke:none;fill-rule:evenodd;"
d="M 83.795000,24.780000
85.995000,24.780000
85.995000,25.380000
83.795000,25.380000
Z" /> 
<path style="fill:#000000; fill-opacity:1.000000; stroke:none;fill-rule:evenodd;"
d="M 83.795000,23.510000
85.995000,23.510000
85.995000,24.110000
83.795000,24.110000
Z" /> 
</g> 
</svg>
