<?xml version="1.0" standalone="no"?>
 <!DOCTYPE svg PUBLIC "-//W3C//DTD SVG 1.1//EN" 
 "http://www.w3.org/Graphics/SVG/1.1/DTD/svg11.dtd"> 
<svg
  xmlns:svg="http://www.w3.org/2000/svg"
  xmlns="http://www.w3.org/2000/svg"
  xmlns:xlink="http://www.w3.org/1999/xlink"
  version="1.1"
  width="297.002200mm" height="210.007200mm" viewBox="0.000000 0.000000 297.002200 210.007200">
<title>SVG Image created as ACE3NOKB-F_Paste.svg date 2025/05/05 11:31:03 </title>
  <desc>Image generated by PCBNEW </desc>
<g style="fill:#000000; fill-opacity:1.000000;stroke:#000000; stroke-opacity:1.000000;
stroke-linecap:round; stroke-linejoin:round;"
 transform="translate(0 0) scale(1 1)">
<path style="fill:#000000; fill-opacity:1.000000; stroke:none;fill-rule:evenodd;"
d="M 83.795000,23.510000
85.995000,23.510000
85.995000,24.110000
83.795000,24.110000
Z" /> 
<path style="fill:#000000; fill-opacity:1.000000; stroke:none;fill-rule:evenodd;"
d="M 83.795000,24.780000
85.995000,24.780000
85.995000,25.380000
83.795000,25.380000
Z" /> 
<path style="fill:#000000; fill-opacity:1.000000; stroke:none;fill-rule:evenodd;"
d="M 83.795000,26.050000
85.995000,26.050000
85.995000,26.650000
83.795000,26.650000
Z" /> 
<path style="fill:#000000; fill-opacity:1.000000; stroke:none;fill-rule:evenodd;"
d="M 83.795000,27.320000
85.995000,27.320000
85.995000,27.920000
83.795000,27.920000
Z" /> 
<path style="fill:#000000; fill-opacity:1.000000; stroke:none;fill-rule:evenodd;"
d="M 83.795000,28.590000
85.995000,28.590000
85.995000,29.190000
83.795000,29.190000
Z" /> 
<path style="fill:#000000; fill-opacity:1.000000; stroke:none;fill-rule:evenodd;"
d="M 83.795000,29.860000
85.995000,29.860000
85.995000,30.460000
83.795000,30.460000
Z" /> 
<path style="fill:#000000; fill-opacity:1.000000; stroke:none;fill-rule:evenodd;"
d="M 83.795000,31.130000
85.995000,31.130000
85.995000,31.730000
83.795000,31.730000
Z" /> 
<path style="fill:#000000; fill-opacity:1.000000; stroke:none;fill-rule:evenodd;"
d="M 83.795000,32.400000
85.995000,32.400000
85.995000,33.000000
83.795000,33.000000
Z" /> 
<path style="fill:#000000; fill-opacity:1.000000; stroke:none;fill-rule:evenodd;"
d="M 83.795000,33.670000
85.995000,33.670000
85.995000,34.270000
83.795000,34.270000
Z" /> 
<path style="fill:#000000; fill-opacity:1.000000; stroke:none;fill-rule:evenodd;"
d="M 83.795000,34.940000
85.995000,34.940000
85.995000,35.540000
83.795000,35.540000
Z" /> 
<path style="fill:#000000; fill-opacity:1.000000; stroke:none;fill-rule:evenodd;"
d="M 83.795000,36.210000
85.995000,36.210000
85.995000,36.810000
83.795000,36.810000
Z" /> 
<path style="fill:#000000; fill-opacity:1.000000; stroke:none;fill-rule:evenodd;"
d="M 83.795000,37.480000
85.995000,37.480000
85.995000,38.080000
83.795000,38.080000
Z" /> 
<path style="fill:#000000; fill-opacity:1.000000; stroke:none;fill-rule:evenodd;"
d="M 83.795000,38.750000
85.995000,38.750000
85.995000,39.350000
83.795000,39.350000
Z" /> 
<path style="fill:#000000; fill-opacity:1.000000; stroke:none;fill-rule:evenodd;"
d="M 83.795000,40.020000
85.995000,40.020000
85.995000,40.620000
83.795000,40.620000
Z" /> 
<path style="fill:#000000; fill-opacity:1.000000; stroke:none;fill-rule:evenodd;"
d="M 93.675000,40.020000
95.875000,40.020000
95.875000,40.620000
93.675000,40.620000
Z" /> 
<path style="fill:#000000; fill-opacity:1.000000; stroke:none;fill-rule:evenodd;"
d="M 93.675000,38.750000
95.875000,38.750000
95.875000,39.350000
93.675000,39.350000
Z" /> 
<path style="fill:#000000; fill-opacity:1.000000; stroke:none;fill-rule:evenodd;"
d="M 93.675000,37.480000
95.875000,37.480000
95.875000,38.080000
93.675000,38.080000
Z" /> 
<path style="fill:#000000; fill-opacity:1.000000; stroke:none;fill-rule:evenodd;"
d="M 93.675000,36.210000
95.875000,36.210000
95.875000,36.810000
93.675000,36.810000
Z" /> 
<path style="fill:#000000; fill-opacity:1.000000; stroke:none;fill-rule:evenodd;"
d="M 93.675000,34.940000
95.875000,34.940000
95.875000,35.540000
93.675000,35.540000
Z" /> 
<path style="fill:#000000; fill-opacity:1.000000; stroke:none;fill-rule:evenodd;"
d="M 93.675000,33.670000
95.875000,33.670000
95.875000,34.270000
93.675000,34.270000
Z" /> 
<path style="fill:#000000; fill-opacity:1.000000; stroke:none;fill-rule:evenodd;"
d="M 93.675000,32.400000
95.875000,32.400000
95.875000,33.000000
93.675000,33.000000
Z" /> 
<path style="fill:#000000; fill-opacity:1.000000; stroke:none;fill-rule:evenodd;"
d="M 93.675000,31.130000
95.875000,31.130000
95.875000,31.730000
93.675000,31.730000
Z" /> 
<path style="fill:#000000; fill-opacity:1.000000; stroke:none;fill-rule:evenodd;"
d="M 93.675000,29.860000
95.875000,29.860000
95.875000,30.460000
93.675000,30.460000
Z" /> 
<path style="fill:#000000; fill-opacity:1.000000; stroke:none;fill-rule:evenodd;"
d="M 93.675000,28.590000
95.875000,28.590000
95.875000,29.190000
93.675000,29.190000
Z" /> 
<path style="fill:#000000; fill-opacity:1.000000; stroke:none;fill-rule:evenodd;"
d="M 93.675000,27.320000
95.875000,27.320000
95.875000,27.920000
93.675000,27.920000
Z" /> 
<path style="fill:#000000; fill-opacity:1.000000; stroke:none;fill-rule:evenodd;"
d="M 93.675000,26.050000
95.875000,26.050000
95.875000,26.650000
93.675000,26.650000
Z" /> 
<path style="fill:#000000; fill-opacity:1.000000; stroke:none;fill-rule:evenodd;"
d="M 93.675000,24.780000
95.875000,24.780000
95.875000,25.380000
93.675000,25.380000
Z" /> 
<path style="fill:#000000; fill-opacity:1.000000; stroke:none;fill-rule:evenodd;"
d="M 93.675000,23.510000
95.875000,23.510000
95.875000,24.110000
93.675000,24.110000
Z" /> 
</g>
<g style="fill:#000000; fill-opacity:1.000000; stroke:none;">
<circle cx="35.240000" cy="113.980000" r="1.750000" /> 
</g>
<g style="fill:#000000; fill-opacity:1.000000; stroke:none;">
<circle cx="166.050000" cy="113.980000" r="1.750000" /> 
</g>
<g style="fill:#000000; fill-opacity:1.000000; stroke:none;">
<circle cx="35.240000" cy="33.970000" r="1.750000" /> 
</g>
<g style="fill:#000000; fill-opacity:1.000000; stroke:none;">
<circle cx="166.050000" cy="33.970000" r="1.750000" /> 
<path style="fill:#000000; fill-opacity:1.000000; stroke:none;fill-rule:evenodd;"
d="M 78.750000,66.197500
78.762370,66.135314
78.797595,66.082595
78.850314,66.047370
78.912500,66.035000
80.147500,66.035000
80.209686,66.047370
80.262405,66.082595
80.297630,66.135314
80.310000,66.197500
80.310000,66.522500
80.297630,66.584686
80.262405,66.637405
80.209686,66.672630
80.147500,66.685000
78.912500,66.685000
78.850314,66.672630
78.797595,66.637405
78.762370,66.584686
78.750000,66.522500
Z" /> 
<path style="fill:#000000; fill-opacity:1.000000; stroke:none;fill-rule:evenodd;"
d="M 78.750000,67.147500
78.762370,67.085314
78.797595,67.032595
78.850314,66.997370
78.912500,66.985000
80.147500,66.985000
80.209686,66.997370
80.262405,67.032595
80.297630,67.085314
80.310000,67.147500
80.310000,67.472500
80.297630,67.534686
80.262405,67.587405
80.209686,67.622630
80.147500,67.635000
78.912500,67.635000
78.850314,67.622630
78.797595,67.587405
78.762370,67.534686
78.750000,67.472500
Z" /> 
<path style="fill:#000000; fill-opacity:1.000000; stroke:none;fill-rule:evenodd;"
d="M 78.750000,68.097500
78.762370,68.035314
78.797595,67.982595
78.850314,67.947370
78.912500,67.935000
80.147500,67.935000
80.209686,67.947370
80.262405,67.982595
80.297630,68.035314
80.310000,68.097500
80.310000,68.422500
80.297630,68.484686
80.262405,68.537405
80.209686,68.572630
80.147500,68.585000
78.912500,68.585000
78.850314,68.572630
78.797595,68.537405
78.762370,68.484686
78.750000,68.422500
Z" /> 
<path style="fill:#000000; fill-opacity:1.000000; stroke:none;fill-rule:evenodd;"
d="M 81.450000,68.097500
81.462370,68.035314
81.497595,67.982595
81.550314,67.947370
81.612500,67.935000
82.847500,67.935000
82.909686,67.947370
82.962405,67.982595
82.997630,68.035314
83.010000,68.097500
83.010000,68.422500
82.997630,68.484686
82.962405,68.537405
82.909686,68.572630
82.847500,68.585000
81.612500,68.585000
81.550314,68.572630
81.497595,68.537405
81.462370,68.484686
81.450000,68.422500
Z" /> 
<path style="fill:#000000; fill-opacity:1.000000; stroke:none;fill-rule:evenodd;"
d="M 81.450000,66.197500
81.462370,66.135314
81.497595,66.082595
81.550314,66.047370
81.612500,66.035000
82.847500,66.035000
82.909686,66.047370
82.962405,66.082595
82.997630,66.135314
83.010000,66.197500
83.010000,66.522500
82.997630,66.584686
82.962405,66.637405
82.909686,66.672630
82.847500,66.685000
81.612500,66.685000
81.550314,66.672630
81.497595,66.637405
81.462370,66.584686
81.450000,66.522500
Z" /> 
<path style="fill:#000000; fill-opacity:1.000000; stroke:none;fill-rule:evenodd;"
d="M 117.930000,27.145000
117.949030,27.049329
118.003223,26.968223
118.084329,26.914030
118.180000,26.895000
118.680000,26.895000
118.775671,26.914030
118.856777,26.968223
118.910970,27.049329
118.930000,27.145000
118.930000,28.095000
118.910970,28.190671
118.856777,28.271777
118.775671,28.325970
118.680000,28.345000
118.180000,28.345000
118.084329,28.325970
118.003223,28.271777
117.949030,28.190671
117.930000,28.095000
Z" /> 
<path style="fill:#000000; fill-opacity:1.000000; stroke:none;fill-rule:evenodd;"
d="M 119.830000,27.145000
119.849030,27.049329
119.903223,26.968223
119.984329,26.914030
120.080000,26.895000
120.580000,26.895000
120.675671,26.914030
120.756777,26.968223
120.810970,27.049329
120.830000,27.145000
120.830000,28.095000
120.810970,28.190671
120.756777,28.271777
120.675671,28.325970
120.580000,28.345000
120.080000,28.345000
119.984329,28.325970
119.903223,28.271777
119.849030,28.190671
119.830000,28.095000
Z" /> 
<path style="fill:#000000; fill-opacity:1.000000; stroke:none;fill-rule:evenodd;"
d="M 130.900000,50.637500
130.912370,50.575314
130.947595,50.522595
131.000314,50.487370
131.062500,50.475000
132.297500,50.475000
132.359686,50.487370
132.412405,50.522595
132.447630,50.575314
132.460000,50.637500
132.460000,50.962500
132.447630,51.024686
132.412405,51.077405
132.359686,51.112630
132.297500,51.125000
131.062500,51.125000
131.000314,51.112630
130.947595,51.077405
130.912370,51.024686
130.900000,50.962500
Z" /> 
<path style="fill:#000000; fill-opacity:1.000000; stroke:none;fill-rule:evenodd;"
d="M 130.900000,51.587500
130.912370,51.525314
130.947595,51.472595
131.000314,51.437370
131.062500,51.425000
132.297500,51.425000
132.359686,51.437370
132.412405,51.472595
132.447630,51.525314
132.460000,51.587500
132.460000,51.912500
132.447630,51.974686
132.412405,52.027405
132.359686,52.062630
132.297500,52.075000
131.062500,52.075000
131.000314,52.062630
130.947595,52.027405
130.912370,51.974686
130.900000,51.912500
Z" /> 
<path style="fill:#000000; fill-opacity:1.000000; stroke:none;fill-rule:evenodd;"
d="M 130.900000,52.537500
130.912370,52.475314
130.947595,52.422595
131.000314,52.387370
131.062500,52.375000
132.297500,52.375000
132.359686,52.387370
132.412405,52.422595
132.447630,52.475314
132.460000,52.537500
132.460000,52.862500
132.447630,52.924686
132.412405,52.977405
132.359686,53.012630
132.297500,53.025000
131.062500,53.025000
131.000314,53.012630
130.947595,52.977405
130.912370,52.924686
130.900000,52.862500
Z" /> 
<path style="fill:#000000; fill-opacity:1.000000; stroke:none;fill-rule:evenodd;"
d="M 133.600000,52.537500
133.612370,52.475314
133.647595,52.422595
133.700314,52.387370
133.762500,52.375000
134.997500,52.375000
135.059686,52.387370
135.112405,52.422595
135.147630,52.475314
135.160000,52.537500
135.160000,52.862500
135.147630,52.924686
135.112405,52.977405
135.059686,53.012630
134.997500,53.025000
133.762500,53.025000
133.700314,53.012630
133.647595,52.977405
133.612370,52.924686
133.600000,52.862500
Z" /> 
<path style="fill:#000000; fill-opacity:1.000000; stroke:none;fill-rule:evenodd;"
d="M 133.600000,50.637500
133.612370,50.575314
133.647595,50.522595
133.700314,50.487370
133.762500,50.475000
134.997500,50.475000
135.059686,50.487370
135.112405,50.522595
135.147630,50.575314
135.160000,50.637500
135.160000,50.962500
135.147630,51.024686
135.112405,51.077405
135.059686,51.112630
134.997500,51.125000
133.762500,51.125000
133.700314,51.112630
133.647595,51.077405
133.612370,51.024686
133.600000,50.962500
Z" /> 
<path style="fill:#000000; fill-opacity:1.000000; stroke:none;fill-rule:evenodd;"
d="M 156.375000,111.080000
156.317597,111.068582
156.268934,111.036066
156.236418,110.987403
156.225000,110.930000
156.225000,109.280000
156.236418,109.222597
156.268934,109.173934
156.317597,109.141418
156.375000,109.130000
156.675000,109.130000
156.732403,109.141418
156.781066,109.173934
156.813582,109.222597
156.825000,109.280000
156.825000,110.930000
156.813582,110.987403
156.781066,111.036066
156.732403,111.068582
156.675000,111.080000
Z" /> 
<path style="fill:#000000; fill-opacity:1.000000; stroke:none;fill-rule:evenodd;"
d="M 157.645000,111.080000
157.587597,111.068582
157.538934,111.036066
157.506418,110.987403
157.495000,110.930000
157.495000,109.280000
157.506418,109.222597
157.538934,109.173934
157.587597,109.141418
157.645000,109.130000
157.945000,109.130000
158.002403,109.141418
158.051066,109.173934
158.083582,109.222597
158.095000,109.280000
158.095000,110.930000
158.083582,110.987403
158.051066,111.036066
158.002403,111.068582
157.945000,111.080000
Z" /> 
<path style="fill:#000000; fill-opacity:1.000000; stroke:none;fill-rule:evenodd;"
d="M 158.915000,111.080000
158.857597,111.068582
158.808934,111.036066
158.776418,110.987403
158.765000,110.930000
158.765000,109.280000
158.776418,109.222597
158.808934,109.173934
158.857597,109.141418
158.915000,109.130000
159.215000,109.130000
159.272403,109.141418
159.321066,109.173934
159.353582,109.222597
159.365000,109.280000
159.365000,110.930000
159.353582,110.987403
159.321066,111.036066
159.272403,111.068582
159.215000,111.080000
Z" /> 
<path style="fill:#000000; fill-opacity:1.000000; stroke:none;fill-rule:evenodd;"
d="M 160.185000,111.080000
160.127597,111.068582
160.078934,111.036066
160.046418,110.987403
160.035000,110.930000
160.035000,109.280000
160.046418,109.222597
160.078934,109.173934
160.127597,109.141418
160.185000,109.130000
160.485000,109.130000
160.542403,109.141418
160.591066,109.173934
160.623582,109.222597
160.635000,109.280000
160.635000,110.930000
160.623582,110.987403
160.591066,111.036066
160.542403,111.068582
160.485000,111.080000
Z" /> 
<path style="fill:#000000; fill-opacity:1.000000; stroke:none;fill-rule:evenodd;"
d="M 160.185000,106.130000
160.127597,106.118582
160.078934,106.086066
160.046418,106.037403
160.035000,105.980000
160.035000,104.330000
160.046418,104.272597
160.078934,104.223934
160.127597,104.191418
160.185000,104.180000
160.485000,104.180000
160.542403,104.191418
160.591066,104.223934
160.623582,104.272597
160.635000,104.330000
160.635000,105.980000
160.623582,106.037403
160.591066,106.086066
160.542403,106.118582
160.485000,106.130000
Z" /> 
<path style="fill:#000000; fill-opacity:1.000000; stroke:none;fill-rule:evenodd;"
d="M 158.915000,106.130000
158.857597,106.118582
158.808934,106.086066
158.776418,106.037403
158.765000,105.980000
158.765000,104.330000
158.776418,104.272597
158.808934,104.223934
158.857597,104.191418
158.915000,104.180000
159.215000,104.180000
159.272403,104.191418
159.321066,104.223934
159.353582,104.272597
159.365000,104.330000
159.365000,105.980000
159.353582,106.037403
159.321066,106.086066
159.272403,106.118582
159.215000,106.130000
Z" /> 
<path style="fill:#000000; fill-opacity:1.000000; stroke:none;fill-rule:evenodd;"
d="M 157.645000,106.130000
157.587597,106.118582
157.538934,106.086066
157.506418,106.037403
157.495000,105.980000
157.495000,104.330000
157.506418,104.272597
157.538934,104.223934
157.587597,104.191418
157.645000,104.180000
157.945000,104.180000
158.002403,104.191418
158.051066,104.223934
158.083582,104.272597
158.095000,104.330000
158.095000,105.980000
158.083582,106.037403
158.051066,106.086066
158.002403,106.118582
157.945000,106.130000
Z" /> 
<path style="fill:#000000; fill-opacity:1.000000; stroke:none;fill-rule:evenodd;"
d="M 156.375000,106.130000
156.317597,106.118582
156.268934,106.086066
156.236418,106.037403
156.225000,105.980000
156.225000,104.330000
156.236418,104.272597
156.268934,104.223934
156.317597,104.191418
156.375000,104.180000
156.675000,104.180000
156.732403,104.191418
156.781066,104.223934
156.813582,104.272597
156.825000,104.330000
156.825000,105.980000
156.813582,106.037403
156.781066,106.086066
156.732403,106.118582
156.675000,106.130000
Z" /> 
<path style="fill:#000000; fill-opacity:1.000000; stroke:none;fill-rule:evenodd;"
d="M 129.430000,58.590000
129.437612,58.551732
129.459289,58.519289
129.491732,58.497612
129.530000,58.490000
130.805000,58.490000
130.843268,58.497612
130.875711,58.519289
130.897388,58.551732
130.905000,58.590000
130.905000,58.790000
130.897388,58.828268
130.875711,58.860711
130.843268,58.882388
130.805000,58.890000
129.530000,58.890000
129.491732,58.882388
129.459289,58.860711
129.437612,58.828268
129.430000,58.790000
Z" /> 
<path style="fill:#000000; fill-opacity:1.000000; stroke:none;fill-rule:evenodd;"
d="M 129.430000,59.240000
129.437612,59.201732
129.459289,59.169289
129.491732,59.147612
129.530000,59.140000
130.805000,59.140000
130.843268,59.147612
130.875711,59.169289
130.897388,59.201732
130.905000,59.240000
130.905000,59.440000
130.897388,59.478268
130.875711,59.510711
130.843268,59.532388
130.805000,59.540000
129.530000,59.540000
129.491732,59.532388
129.459289,59.510711
129.437612,59.478268
129.430000,59.440000
Z" /> 
<path style="fill:#000000; fill-opacity:1.000000; stroke:none;fill-rule:evenodd;"
d="M 129.430000,59.890000
129.437612,59.851732
129.459289,59.819289
129.491732,59.797612
129.530000,59.790000
130.805000,59.790000
130.843268,59.797612
130.875711,59.819289
130.897388,59.851732
130.905000,59.890000
130.905000,60.090000
130.897388,60.128268
130.875711,60.160711
130.843268,60.182388
130.805000,60.190000
129.530000,60.190000
129.491732,60.182388
129.459289,60.160711
129.437612,60.128268
129.430000,60.090000
Z" /> 
<path style="fill:#000000; fill-opacity:1.000000; stroke:none;fill-rule:evenodd;"
d="M 129.430000,60.540000
129.437612,60.501732
129.459289,60.469289
129.491732,60.447612
129.530000,60.440000
130.805000,60.440000
130.843268,60.447612
130.875711,60.469289
130.897388,60.501732
130.905000,60.540000
130.905000,60.740000
130.897388,60.778268
130.875711,60.810711
130.843268,60.832388
130.805000,60.840000
129.530000,60.840000
129.491732,60.832388
129.459289,60.810711
129.437612,60.778268
129.430000,60.740000
Z" /> 
<path style="fill:#000000; fill-opacity:1.000000; stroke:none;fill-rule:evenodd;"
d="M 129.430000,61.190000
129.437612,61.151732
129.459289,61.119289
129.491732,61.097612
129.530000,61.090000
130.805000,61.090000
130.843268,61.097612
130.875711,61.119289
130.897388,61.151732
130.905000,61.190000
130.905000,61.390000
130.897388,61.428268
130.875711,61.460711
130.843268,61.482388
130.805000,61.490000
129.530000,61.490000
129.491732,61.482388
129.459289,61.460711
129.437612,61.428268
129.430000,61.390000
Z" /> 
<path style="fill:#000000; fill-opacity:1.000000; stroke:none;fill-rule:evenodd;"
d="M 129.430000,61.840000
129.437612,61.801732
129.459289,61.769289
129.491732,61.747612
129.530000,61.740000
130.805000,61.740000
130.843268,61.747612
130.875711,61.769289
130.897388,61.801732
130.905000,61.840000
130.905000,62.040000
130.897388,62.078268
130.875711,62.110711
130.843268,62.132388
130.805000,62.140000
129.530000,62.140000
129.491732,62.132388
129.459289,62.110711
129.437612,62.078268
129.430000,62.040000
Z" /> 
<path style="fill:#000000; fill-opacity:1.000000; stroke:none;fill-rule:evenodd;"
d="M 129.430000,62.490000
129.437612,62.451732
129.459289,62.419289
129.491732,62.397612
129.530000,62.390000
130.805000,62.390000
130.843268,62.397612
130.875711,62.419289
130.897388,62.451732
130.905000,62.490000
130.905000,62.690000
130.897388,62.728268
130.875711,62.760711
130.843268,62.782388
130.805000,62.790000
129.530000,62.790000
129.491732,62.782388
129.459289,62.760711
129.437612,62.728268
129.430000,62.690000
Z" /> 
<path style="fill:#000000; fill-opacity:1.000000; stroke:none;fill-rule:evenodd;"
d="M 135.155000,62.490000
135.162612,62.451732
135.184289,62.419289
135.216732,62.397612
135.255000,62.390000
136.530000,62.390000
136.568268,62.397612
136.600711,62.419289
136.622388,62.451732
136.630000,62.490000
136.630000,62.690000
136.622388,62.728268
136.600711,62.760711
136.568268,62.782388
136.530000,62.790000
135.255000,62.790000
135.216732,62.782388
135.184289,62.760711
135.162612,62.728268
135.155000,62.690000
Z" /> 
<path style="fill:#000000; fill-opacity:1.000000; stroke:none;fill-rule:evenodd;"
d="M 135.155000,61.840000
135.162612,61.801732
135.184289,61.769289
135.216732,61.747612
135.255000,61.740000
136.530000,61.740000
136.568268,61.747612
136.600711,61.769289
136.622388,61.801732
136.630000,61.840000
136.630000,62.040000
136.622388,62.078268
136.600711,62.110711
136.568268,62.132388
136.530000,62.140000
135.255000,62.140000
135.216732,62.132388
135.184289,62.110711
135.162612,62.078268
135.155000,62.040000
Z" /> 
<path style="fill:#000000; fill-opacity:1.000000; stroke:none;fill-rule:evenodd;"
d="M 135.155000,61.190000
135.162612,61.151732
135.184289,61.119289
135.216732,61.097612
135.255000,61.090000
136.530000,61.090000
136.568268,61.097612
136.600711,61.119289
136.622388,61.151732
136.630000,61.190000
136.630000,61.390000
136.622388,61.428268
136.600711,61.460711
136.568268,61.482388
136.530000,61.490000
135.255000,61.490000
135.216732,61.482388
135.184289,61.460711
135.162612,61.428268
135.155000,61.390000
Z" /> 
<path style="fill:#000000; fill-opacity:1.000000; stroke:none;fill-rule:evenodd;"
d="M 135.155000,60.540000
135.162612,60.501732
135.184289,60.469289
135.216732,60.447612
135.255000,60.440000
136.530000,60.440000
136.568268,60.447612
136.600711,60.469289
136.622388,60.501732
136.630000,60.540000
136.630000,60.740000
136.622388,60.778268
136.600711,60.810711
136.568268,60.832388
136.530000,60.840000
135.255000,60.840000
135.216732,60.832388
135.184289,60.810711
135.162612,60.778268
135.155000,60.740000
Z" /> 
<path style="fill:#000000; fill-opacity:1.000000; stroke:none;fill-rule:evenodd;"
d="M 135.155000,59.890000
135.162612,59.851732
135.184289,59.819289
135.216732,59.797612
135.255000,59.790000
136.530000,59.790000
136.568268,59.797612
136.600711,59.819289
136.622388,59.851732
136.630000,59.890000
136.630000,60.090000
136.622388,60.128268
136.600711,60.160711
136.568268,60.182388
136.530000,60.190000
135.255000,60.190000
135.216732,60.182388
135.184289,60.160711
135.162612,60.128268
135.155000,60.090000
Z" /> 
<path style="fill:#000000; fill-opacity:1.000000; stroke:none;fill-rule:evenodd;"
d="M 135.155000,59.240000
135.162612,59.201732
135.184289,59.169289
135.216732,59.147612
135.255000,59.140000
136.530000,59.140000
136.568268,59.147612
136.600711,59.169289
136.622388,59.201732
136.630000,59.240000
136.630000,59.440000
136.622388,59.478268
136.600711,59.510711
136.568268,59.532388
136.530000,59.540000
135.255000,59.540000
135.216732,59.532388
135.184289,59.510711
135.162612,59.478268
135.155000,59.440000
Z" /> 
<path style="fill:#000000; fill-opacity:1.000000; stroke:none;fill-rule:evenodd;"
d="M 135.155000,58.590000
135.162612,58.551732
135.184289,58.519289
135.216732,58.497612
135.255000,58.490000
136.530000,58.490000
136.568268,58.497612
136.600711,58.519289
136.622388,58.551732
136.630000,58.590000
136.630000,58.790000
136.622388,58.828268
136.600711,58.860711
136.568268,58.882388
136.530000,58.890000
135.255000,58.890000
135.216732,58.882388
135.184289,58.860711
135.162612,58.828268
135.155000,58.790000
Z" /> 
<path style="fill:#000000; fill-opacity:1.000000; stroke:none;fill-rule:evenodd;"
d="M 165.520000,43.284000
165.531418,43.226597
165.563934,43.177934
165.612597,43.145418
165.670000,43.134000
166.695000,43.134000
166.752403,43.145418
166.801066,43.177934
166.833582,43.226597
166.845000,43.284000
166.845000,43.584000
166.833582,43.641403
166.801066,43.690066
166.752403,43.722582
166.695000,43.734000
165.670000,43.734000
165.612597,43.722582
165.563934,43.690066
165.531418,43.641403
165.520000,43.584000
Z" /> 
<path style="fill:#000000; fill-opacity:1.000000; stroke:none;fill-rule:evenodd;"
d="M 165.520000,44.234000
165.531418,44.176597
165.563934,44.127934
165.612597,44.095418
165.670000,44.084000
166.695000,44.084000
166.752403,44.095418
166.801066,44.127934
166.833582,44.176597
166.845000,44.234000
166.845000,44.534000
166.833582,44.591403
166.801066,44.640066
166.752403,44.672582
166.695000,44.684000
165.670000,44.684000
165.612597,44.672582
165.563934,44.640066
165.531418,44.591403
165.520000,44.534000
Z" /> 
<path style="fill:#000000; fill-opacity:1.000000; stroke:none;fill-rule:evenodd;"
d="M 165.520000,45.184000
165.531418,45.126597
165.563934,45.077934
165.612597,45.045418
165.670000,45.034000
166.695000,45.034000
166.752403,45.045418
166.801066,45.077934
166.833582,45.126597
166.845000,45.184000
166.845000,45.484000
166.833582,45.541403
166.801066,45.590066
166.752403,45.622582
166.695000,45.634000
165.670000,45.634000
165.612597,45.622582
165.563934,45.590066
165.531418,45.541403
165.520000,45.484000
Z" /> 
<path style="fill:#000000; fill-opacity:1.000000; stroke:none;fill-rule:evenodd;"
d="M 167.795000,45.184000
167.806418,45.126597
167.838934,45.077934
167.887597,45.045418
167.945000,45.034000
168.970000,45.034000
169.027403,45.045418
169.076066,45.077934
169.108582,45.126597
169.120000,45.184000
169.120000,45.484000
169.108582,45.541403
169.076066,45.590066
169.027403,45.622582
168.970000,45.634000
167.945000,45.634000
167.887597,45.622582
167.838934,45.590066
167.806418,45.541403
167.795000,45.484000
Z" /> 
<path style="fill:#000000; fill-opacity:1.000000; stroke:none;fill-rule:evenodd;"
d="M 167.795000,43.284000
167.806418,43.226597
167.838934,43.177934
167.887597,43.145418
167.945000,43.134000
168.970000,43.134000
169.027403,43.145418
169.076066,43.177934
169.108582,43.226597
169.120000,43.284000
169.120000,43.584000
169.108582,43.641403
169.076066,43.690066
169.027403,43.722582
168.970000,43.734000
167.945000,43.734000
167.887597,43.722582
167.838934,43.690066
167.806418,43.641403
167.795000,43.584000
Z" /> 
<path style="fill:#000000; fill-opacity:1.000000; stroke:none;fill-rule:evenodd;"
d="M 30.585000,101.130000
30.596418,101.072597
30.628934,101.023934
30.677597,100.991418
30.735000,100.980000
32.385000,100.980000
32.442403,100.991418
32.491066,101.023934
32.523582,101.072597
32.535000,101.130000
32.535000,101.430000
32.523582,101.487403
32.491066,101.536066
32.442403,101.568582
32.385000,101.580000
30.735000,101.580000
30.677597,101.568582
30.628934,101.536066
30.596418,101.487403
30.585000,101.430000
Z" /> 
<path style="fill:#000000; fill-opacity:1.000000; stroke:none;fill-rule:evenodd;"
d="M 30.585000,102.400000
30.596418,102.342597
30.628934,102.293934
30.677597,102.261418
30.735000,102.250000
32.385000,102.250000
32.442403,102.261418
32.491066,102.293934
32.523582,102.342597
32.535000,102.400000
32.535000,102.700000
32.523582,102.757403
32.491066,102.806066
32.442403,102.838582
32.385000,102.850000
30.735000,102.850000
30.677597,102.838582
30.628934,102.806066
30.596418,102.757403
30.585000,102.700000
Z" /> 
<path style="fill:#000000; fill-opacity:1.000000; stroke:none;fill-rule:evenodd;"
d="M 30.585000,103.670000
30.596418,103.612597
30.628934,103.563934
30.677597,103.531418
30.735000,103.520000
32.385000,103.520000
32.442403,103.531418
32.491066,103.563934
32.523582,103.612597
32.535000,103.670000
32.535000,103.970000
32.523582,104.027403
32.491066,104.076066
32.442403,104.108582
32.385000,104.120000
30.735000,104.120000
30.677597,104.108582
30.628934,104.076066
30.596418,104.027403
30.585000,103.970000
Z" /> 
<path style="fill:#000000; fill-opacity:1.000000; stroke:none;fill-rule:evenodd;"
d="M 30.585000,104.940000
30.596418,104.882597
30.628934,104.833934
30.677597,104.801418
30.735000,104.790000
32.385000,104.790000
32.442403,104.801418
32.491066,104.833934
32.523582,104.882597
32.535000,104.940000
32.535000,105.240000
32.523582,105.297403
32.491066,105.346066
32.442403,105.378582
32.385000,105.390000
30.735000,105.390000
30.677597,105.378582
30.628934,105.346066
30.596418,105.297403
30.585000,105.240000
Z" /> 
<path style="fill:#000000; fill-opacity:1.000000; stroke:none;fill-rule:evenodd;"
d="M 30.585000,106.210000
30.596418,106.152597
30.628934,106.103934
30.677597,106.071418
30.735000,106.060000
32.385000,106.060000
32.442403,106.071418
32.491066,106.103934
32.523582,106.152597
32.535000,106.210000
32.535000,106.510000
32.523582,106.567403
32.491066,106.616066
32.442403,106.648582
32.385000,106.660000
30.735000,106.660000
30.677597,106.648582
30.628934,106.616066
30.596418,106.567403
30.585000,106.510000
Z" /> 
<path style="fill:#000000; fill-opacity:1.000000; stroke:none;fill-rule:evenodd;"
d="M 30.585000,107.480000
30.596418,107.422597
30.628934,107.373934
30.677597,107.341418
30.735000,107.330000
32.385000,107.330000
32.442403,107.341418
32.491066,107.373934
32.523582,107.422597
32.535000,107.480000
32.535000,107.780000
32.523582,107.837403
32.491066,107.886066
32.442403,107.918582
32.385000,107.930000
30.735000,107.930000
30.677597,107.918582
30.628934,107.886066
30.596418,107.837403
30.585000,107.780000
Z" /> 
<path style="fill:#000000; fill-opacity:1.000000; stroke:none;fill-rule:evenodd;"
d="M 30.585000,108.750000
30.596418,108.692597
30.628934,108.643934
30.677597,108.611418
30.735000,108.600000
32.385000,108.600000
32.442403,108.611418
32.491066,108.643934
32.523582,108.692597
32.535000,108.750000
32.535000,109.050000
32.523582,109.107403
32.491066,109.156066
32.442403,109.188582
32.385000,109.200000
30.735000,109.200000
30.677597,109.188582
30.628934,109.156066
30.596418,109.107403
30.585000,109.050000
Z" /> 
<path style="fill:#000000; fill-opacity:1.000000; stroke:none;fill-rule:evenodd;"
d="M 35.535000,108.750000
35.546418,108.692597
35.578934,108.643934
35.627597,108.611418
35.685000,108.600000
37.335000,108.600000
37.392403,108.611418
37.441066,108.643934
37.473582,108.692597
37.485000,108.750000
37.485000,109.050000
37.473582,109.107403
37.441066,109.156066
37.392403,109.188582
37.335000,109.200000
35.685000,109.200000
35.627597,109.188582
35.578934,109.156066
35.546418,109.107403
35.535000,109.050000
Z" /> 
<path style="fill:#000000; fill-opacity:1.000000; stroke:none;fill-rule:evenodd;"
d="M 35.535000,107.480000
35.546418,107.422597
35.578934,107.373934
35.627597,107.341418
35.685000,107.330000
37.335000,107.330000
37.392403,107.341418
37.441066,107.373934
37.473582,107.422597
37.485000,107.480000
37.485000,107.780000
37.473582,107.837403
37.441066,107.886066
37.392403,107.918582
37.335000,107.930000
35.685000,107.930000
35.627597,107.918582
35.578934,107.886066
35.546418,107.837403
35.535000,107.780000
Z" /> 
<path style="fill:#000000; fill-opacity:1.000000; stroke:none;fill-rule:evenodd;"
d="M 35.535000,106.210000
35.546418,106.152597
35.578934,106.103934
35.627597,106.071418
35.685000,106.060000
37.335000,106.060000
37.392403,106.071418
37.441066,106.103934
37.473582,106.152597
37.485000,106.210000
37.485000,106.510000
37.473582,106.567403
37.441066,106.616066
37.392403,106.648582
37.335000,106.660000
35.685000,106.660000
35.627597,106.648582
35.578934,106.616066
35.546418,106.567403
35.535000,106.510000
Z" /> 
<path style="fill:#000000; fill-opacity:1.000000; stroke:none;fill-rule:evenodd;"
d="M 35.535000,104.940000
35.546418,104.882597
35.578934,104.833934
35.627597,104.801418
35.685000,104.790000
37.335000,104.790000
37.392403,104.801418
37.441066,104.833934
37.473582,104.882597
37.485000,104.940000
37.485000,105.240000
37.473582,105.297403
37.441066,105.346066
37.392403,105.378582
37.335000,105.390000
35.685000,105.390000
35.627597,105.378582
35.578934,105.346066
35.546418,105.297403
35.535000,105.240000
Z" /> 
<path style="fill:#000000; fill-opacity:1.000000; stroke:none;fill-rule:evenodd;"
d="M 35.535000,103.670000
35.546418,103.612597
35.578934,103.563934
35.627597,103.531418
35.685000,103.520000
37.335000,103.520000
37.392403,103.531418
37.441066,103.563934
37.473582,103.612597
37.485000,103.670000
37.485000,103.970000
37.473582,104.027403
37.441066,104.076066
37.392403,104.108582
37.335000,104.120000
35.685000,104.120000
35.627597,104.108582
35.578934,104.076066
35.546418,104.027403
35.535000,103.970000
Z" /> 
<path style="fill:#000000; fill-opacity:1.000000; stroke:none;fill-rule:evenodd;"
d="M 35.535000,102.400000
35.546418,102.342597
35.578934,102.293934
35.627597,102.261418
35.685000,102.250000
37.335000,102.250000
37.392403,102.261418
37.441066,102.293934
37.473582,102.342597
37.485000,102.400000
37.485000,102.700000
37.473582,102.757403
37.441066,102.806066
37.392403,102.838582
37.335000,102.850000
35.685000,102.850000
35.627597,102.838582
35.578934,102.806066
35.546418,102.757403
35.535000,102.700000
Z" /> 
<path style="fill:#000000; fill-opacity:1.000000; stroke:none;fill-rule:evenodd;"
d="M 35.535000,101.130000
35.546418,101.072597
35.578934,101.023934
35.627597,100.991418
35.685000,100.980000
37.335000,100.980000
37.392403,100.991418
37.441066,101.023934
37.473582,101.072597
37.485000,101.130000
37.485000,101.430000
37.473582,101.487403
37.441066,101.536066
37.392403,101.568582
37.335000,101.580000
35.685000,101.580000
35.627597,101.568582
35.578934,101.536066
35.546418,101.487403
35.535000,101.430000
Z" /> 
</g> 
</svg>
