  0
SECTION
  2
HEADER
  9
$ACADVER
  1
AC1009
  9
$INSBASE
 10
0.0
 20
0.0
 30
0.0
  9
$EXTMIN
 10
0.0
 20
0.0
 30
0.0
  9
$EXTMAX
 10
0.0
 20
0.0
 30
0.0
  0
ENDSEC
  0
SECTION
  2
TABLES
  0
TABLE
  2
VPORT
 70
0
  0
ENDTAB
  0
TABLE
  2
LTYPE
 70
1
  0
LTYPE
  2
CONTINUOUS
 70
0
  3
Solid line
 72
65
 73
0
 40
0.0
  0
ENDTAB
  0
TABLE
  2
LAYER
 70
1
  0
LAYER
  2
0
 70
64
 62
7
  6
continuous
  0
ENDTAB
  0
TABLE
  2
STYLE
 70
1
  0
STYLE
  2
STANDARD
 70
0
 40
0
 41
1.0
 50
0.0
 71
0
 42
1
 3
ARIAL.TTF
 4

  0
ENDTAB
  0
TABLE
  2
VIEW
 70
0
  0
ENDTAB
  0
ENDSEC
  0
SECTION
  2
BLOCKS
  0
BLOCK
  8
Board_Geoms
  2
BOARD_OUTLINE
 70
0
 10
0.0
 20
0.0
 30
0.0
  3
BOARD_OUTLINE
  0
ARC
  8
Board_Geoms
 62
0
 10
-29.50209999999999
 20
25.001220000000004
 30
0.0
 40
2.999740000000001
 50
90.00000000000014
 51
-180.0
  0
LINE
  8
Board_Geoms
 62
0
 10
29.5021
 20
28.000960000000003
 30
0.0
 11
-29.5021
 21
28.000960000000003
 31
0.0
  0
LINE
  8
Board_Geoms
 62
0
 10
-32.501839999999994
 20
25.001219999999996
 30
0.0
 11
-32.501839999999994
 21
-25.001219999999996
 31
0.0
  0
ARC
  8
Board_Geoms
 62
0
 10
29.50209999999999
 20
25.001220000000004
 30
0.0
 40
2.999740000000001
 50
-0.0
 51
89.99999999999987
  0
ARC
  8
Board_Geoms
 62
0
 10
-29.50209999999999
 20
-25.001220000000004
 30
0.0
 40
2.999740000000001
 50
180.0
 51
-90.00000000000014
  0
LINE
  8
Board_Geoms
 62
0
 10
32.501839999999994
 20
-24.991059999999997
 30
0.0
 11
32.501839999999994
 21
25.001219999999996
 31
0.0
  0
LINE
  8
Board_Geoms
 62
0
 10
-29.5021
 20
-28.000960000000003
 30
0.0
 11
29.5021
 21
-27.9908
 31
0.0
  0
ARC
  8
Board_Geoms
 62
0
 10
29.502099999999995
 20
-24.991059999999997
 30
0.0
 40
2.999740000000001
 50
-89.99999999999993
 51
-0.0
  0
CIRCLE
  8
Board_Geoms
 62
0
 10
13.9827
 20
23.23084
 30
0.0
 40
0.5003799999999999
  0
CIRCLE
  8
Board_Geoms
 62
0
 10
11.4427
 20
23.23084
 30
0.0
 40
0.5003799999999999
  0
CIRCLE
  8
Board_Geoms
 62
0
 10
6.362699999999999
 20
23.23084
 30
0.0
 40
0.5003799999999999
  0
CIRCLE
  8
Board_Geoms
 62
0
 10
8.9027
 20
23.23084
 30
0.0
 40
0.5003799999999999
  0
CIRCLE
  8
Board_Geoms
 62
0
 10
13.9827
 20
25.77084
 30
0.0
 40
0.5003799999999999
  0
CIRCLE
  8
Board_Geoms
 62
0
 10
11.4427
 20
25.77084
 30
0.0
 40
0.5003799999999999
  0
CIRCLE
  8
Board_Geoms
 62
0
 10
8.9027
 20
25.77084
 30
0.0
 40
0.5003799999999999
  0
CIRCLE
  8
Board_Geoms
 62
0
 10
6.362699999999999
 20
25.77084
 30
0.0
 40
0.5003799999999999
  0
CIRCLE
  8
Board_Geoms
 62
0
 10
3.8226999999999998
 20
25.77084
 30
0.0
 40
0.5003799999999999
  0
CIRCLE
  8
Board_Geoms
 62
0
 10
3.8226999999999998
 20
23.23084
 30
0.0
 40
0.5003799999999999
  0
CIRCLE
  8
Board_Geoms
 62
0
 10
-6.3373
 20
25.77084
 30
0.0
 40
0.5003799999999999
  0
CIRCLE
  8
Board_Geoms
 62
0
 10
-3.7973
 20
25.77084
 30
0.0
 40
0.5003799999999999
  0
CIRCLE
  8
Board_Geoms
 62
0
 10
1.2827
 20
25.77084
 30
0.0
 40
0.5003799999999999
  0
CIRCLE
  8
Board_Geoms
 62
0
 10
-1.2572999999999999
 20
25.77084
 30
0.0
 40
0.5003799999999999
  0
CIRCLE
  8
Board_Geoms
 62
0
 10
1.2827
 20
23.23084
 30
0.0
 40
0.5003799999999999
  0
CIRCLE
  8
Board_Geoms
 62
0
 10
-1.2572999999999999
 20
23.23084
 30
0.0
 40
0.5003799999999999
  0
CIRCLE
  8
Board_Geoms
 62
0
 10
-6.3373
 20
23.23084
 30
0.0
 40
0.5003799999999999
  0
CIRCLE
  8
Board_Geoms
 62
0
 10
-3.7973
 20
23.23084
 30
0.0
 40
0.5003799999999999
  0
CIRCLE
  8
Board_Geoms
 62
0
 10
-21.577299999999997
 20
23.23084
 30
0.0
 40
0.5003799999999999
  0
CIRCLE
  8
Board_Geoms
 62
0
 10
-21.577299999999997
 20
25.77084
 30
0.0
 40
0.5003799999999999
  0
CIRCLE
  8
Board_Geoms
 62
0
 10
-19.0373
 20
23.23084
 30
0.0
 40
0.5003799999999999
  0
CIRCLE
  8
Board_Geoms
 62
0
 10
-19.0373
 20
25.77084
 30
0.0
 40
0.5003799999999999
  0
CIRCLE
  8
Board_Geoms
 62
0
 10
-16.4973
 20
25.77084
 30
0.0
 40
0.5003799999999999
  0
CIRCLE
  8
Board_Geoms
 62
0
 10
-16.4973
 20
23.23084
 30
0.0
 40
0.5003799999999999
  0
CIRCLE
  8
Board_Geoms
 62
0
 10
-8.8773
 20
25.77084
 30
0.0
 40
0.5003799999999999
  0
CIRCLE
  8
Board_Geoms
 62
0
 10
-11.4173
 20
25.77084
 30
0.0
 40
0.5003799999999999
  0
CIRCLE
  8
Board_Geoms
 62
0
 10
-13.9573
 20
25.77084
 30
0.0
 40
0.5003799999999999
  0
CIRCLE
  8
Board_Geoms
 62
0
 10
-13.9573
 20
23.23084
 30
0.0
 40
0.5003799999999999
  0
CIRCLE
  8
Board_Geoms
 62
0
 10
-8.8773
 20
23.23084
 30
0.0
 40
0.5003799999999999
  0
CIRCLE
  8
Board_Geoms
 62
0
 10
-11.4173
 20
23.23084
 30
0.0
 40
0.5003799999999999
  0
CIRCLE
  8
Board_Geoms
 62
0
 10
-24.1173
 20
25.77084
 30
0.0
 40
0.5003799999999999
  0
CIRCLE
  8
Board_Geoms
 62
0
 10
-24.1173
 20
23.23084
 30
0.0
 40
0.5003799999999999
  0
CIRCLE
  8
Board_Geoms
 62
0
 10
-29.00172
 20
24.50084
 30
0.0
 40
1.35001
  0
CIRCLE
  8
Board_Geoms
 62
0
 10
-29.00172
 20
-24.50084
 30
0.0
 40
1.35001
  0
CIRCLE
  8
Board_Geoms
 62
0
 10
24.142699999999998
 20
23.23084
 30
0.0
 40
0.5003799999999999
  0
CIRCLE
  8
Board_Geoms
 62
0
 10
24.142699999999998
 20
25.77084
 30
0.0
 40
0.5003799999999999
  0
CIRCLE
  8
Board_Geoms
 62
0
 10
21.6027
 20
25.77084
 30
0.0
 40
0.5003799999999999
  0
CIRCLE
  8
Board_Geoms
 62
0
 10
21.6027
 20
23.23084
 30
0.0
 40
0.5003799999999999
  0
CIRCLE
  8
Board_Geoms
 62
0
 10
16.5227
 20
23.23084
 30
0.0
 40
0.5003799999999999
  0
CIRCLE
  8
Board_Geoms
 62
0
 10
19.0627
 20
23.23084
 30
0.0
 40
0.5003799999999999
  0
CIRCLE
  8
Board_Geoms
 62
0
 10
16.5227
 20
25.77084
 30
0.0
 40
0.5003799999999999
  0
CIRCLE
  8
Board_Geoms
 62
0
 10
19.0627
 20
25.77084
 30
0.0
 40
0.5003799999999999
  0
CIRCLE
  8
Board_Geoms
 62
0
 10
28.996639999999996
 20
24.50084
 30
0.0
 40
1.35001
  0
CIRCLE
  8
Board_Geoms
 62
0
 10
28.996639999999996
 20
-24.50084
 30
0.0
 40
1.35001
  0
ENDBLK
  0
ENDSEC
  0
SECTION
  2
ENTITIES
  0
INSERT
  2
BOARD_OUTLINE
  8
Board_Geoms
 62
0
 10
0.0
 20
0.0
 30
0.0
  0
ENDSEC
  0
EOF
